<svg xmlns="http://www.w3.org/2000/svg" width="173" height="86" viewBox="0 0 173 86"><g><g><g><text dominant-baseline="text-before-edge" style="font-kerning:normal" font-family="'Montserrat','Montserrat-Medium'" font-size="15" transform="translate(0 34)"><tspan>Subscription overview</tspan></text></g></g><g><g><text dominant-baseline="text-before-edge" style="font-kerning:normal" font-family="'Montserrat','Montserrat-Medium'" font-size="15"><tspan>Notifications</tspan></text></g></g><g><path d="M152.934 13.435a3.933 3.933 0 0 1-3.935-3.935 3.933 3.933 0 0 1 3.935-3.935 3.933 3.933 0 0 1 3.935 3.935 3.933 3.933 0 0 1-3.935 3.935zm0-9.838h-5.903a5.905 5.905 0 0 0-5.903 5.903 5.905 5.905 0 0 0 5.903 5.903h5.903a5.905 5.905 0 0 0 5.903-5.903 5.905 5.905 0 0 0-5.903-5.903z"/></g><g><g><text dominant-baseline="text-before-edge" style="font-kerning:normal" font-family="'Montserrat','Montserrat-Medium'" font-size="15" transform="translate(0 68)"><tspan>Log out</tspan></text></g></g></g></svg>