<svg xmlns="http://www.w3.org/2000/svg" width="1425" height="574" viewBox="0 0 1425 574"><defs><clipPath id="uowga"><path fill="#fff" d="M12 26C5.373 26 0 20.627 0 14S5.373 2 12 2h72c6.627 0 12 5.373 12 12s-5.373 12-12 12z"/></clipPath><clipPath id="uowgb"><path fill="#fff" d="M12 65C5.373 65 0 59.627 0 53s5.373-12 12-12h72c6.627 0 12 5.373 12 12s-5.373 12-12 12z"/></clipPath><clipPath id="uowgc"><path fill="#fff" d="M12 104c-6.627 0-12-5.373-12-12s5.373-12 12-12h72c6.627 0 12 5.373 12 12s-5.373 12-12 12z"/></clipPath><clipPath id="uowgd"><path fill="#fff" d="M12 143c-6.627 0-12-5.373-12-12s5.373-12 12-12h72c6.627 0 12 5.373 12 12s-5.373 12-12 12z"/></clipPath><clipPath id="uowge"><path fill="#fff" d="M12 182c-6.627 0-12-5.373-12-12s5.373-12 12-12h72c6.627 0 12 5.373 12 12s-5.373 12-12 12z"/></clipPath><clipPath id="uowgf"><path fill="#fff" d="M12 221c-6.627 0-12-5.373-12-12s5.373-12 12-12h72c6.627 0 12 5.373 12 12s-5.373 12-12 12z"/></clipPath><clipPath id="uowgg"><path fill="#fff" d="M12 260c-6.627 0-12-5.373-12-12s5.373-12 12-12h72c6.627 0 12 5.373 12 12s-5.373 12-12 12z"/></clipPath><clipPath id="uowgh"><path fill="#fff" d="M12 299c-6.627 0-12-5.373-12-12s5.373-12 12-12h72c6.627 0 12 5.373 12 12s-5.373 12-12 12z"/></clipPath><clipPath id="uowgi"><path fill="#fff" d="M12 338c-6.627 0-12-5.373-12-12s5.373-12 12-12h72c6.627 0 12 5.373 12 12s-5.373 12-12 12z"/></clipPath><clipPath id="uowgj"><path fill="#fff" d="M12 377c-6.627 0-12-5.373-12-12s5.373-12 12-12h72c6.627 0 12 5.373 12 12s-5.373 12-12 12z"/></clipPath><clipPath id="uowgk"><path fill="#fff" d="M12 416c-6.627 0-12-5.373-12-12s5.373-12 12-12h72c6.627 0 12 5.373 12 12s-5.373 12-12 12z"/></clipPath><clipPath id="uowgl"><path fill="#fff" d="M12 455c-6.627 0-12-5.373-12-12s5.373-12 12-12h72c6.627 0 12 5.373 12 12s-5.373 12-12 12z"/></clipPath><clipPath id="uowgm"><path fill="#fff" d="M12 494c-6.627 0-12-5.373-12-12s5.373-12 12-12h72c6.627 0 12 5.373 12 12s-5.373 12-12 12z"/></clipPath><clipPath id="uowgn"><path fill="#fff" d="M12 533c-6.627 0-12-5.373-12-12s5.373-12 12-12h72c6.627 0 12 5.373 12 12s-5.373 12-12 12z"/></clipPath><clipPath id="uowgo"><path fill="#fff" d="M12 572c-6.627 0-12-5.373-12-12s5.373-12 12-12h72c6.627 0 12 5.373 12 12s-5.373 12-12 12z"/></clipPath><clipPath id="uowgp"><path fill="#fff" d="M204 26c-6.627 0-12-5.373-12-12s5.373-12 12-12h72c6.627 0 12 5.373 12 12s-5.373 12-12 12z"/></clipPath><clipPath id="uowgq"><path fill="#fff" d="M204 65c-6.627 0-12-5.373-12-12s5.373-12 12-12h72c6.627 0 12 5.373 12 12s-5.373 12-12 12z"/></clipPath><clipPath id="uowgr"><path fill="#fff" d="M204 104c-6.627 0-12-5.373-12-12s5.373-12 12-12h72c6.627 0 12 5.373 12 12s-5.373 12-12 12z"/></clipPath><clipPath id="uowgs"><path fill="#fff" d="M204 143c-6.627 0-12-5.373-12-12s5.373-12 12-12h72c6.627 0 12 5.373 12 12s-5.373 12-12 12z"/></clipPath><clipPath id="uowgt"><path fill="#fff" d="M204 182c-6.627 0-12-5.373-12-12s5.373-12 12-12h72c6.627 0 12 5.373 12 12s-5.373 12-12 12z"/></clipPath><clipPath id="uowgu"><path fill="#fff" d="M204 221c-6.627 0-12-5.373-12-12s5.373-12 12-12h72c6.627 0 12 5.373 12 12s-5.373 12-12 12z"/></clipPath><clipPath id="uowgv"><path fill="#fff" d="M204 260c-6.627 0-12-5.373-12-12s5.373-12 12-12h72c6.627 0 12 5.373 12 12s-5.373 12-12 12z"/></clipPath><clipPath id="uowgw"><path fill="#fff" d="M204 299c-6.627 0-12-5.373-12-12s5.373-12 12-12h72c6.627 0 12 5.373 12 12s-5.373 12-12 12z"/></clipPath><clipPath id="uowgx"><path fill="#fff" d="M204 338c-6.627 0-12-5.373-12-12s5.373-12 12-12h72c6.627 0 12 5.373 12 12s-5.373 12-12 12z"/></clipPath><clipPath id="uowgy"><path fill="#fff" d="M204 377c-6.627 0-12-5.373-12-12s5.373-12 12-12h72c6.627 0 12 5.373 12 12s-5.373 12-12 12z"/></clipPath><clipPath id="uowgz"><path fill="#fff" d="M204 416c-6.627 0-12-5.373-12-12s5.373-12 12-12h72c6.627 0 12 5.373 12 12s-5.373 12-12 12z"/></clipPath><clipPath id="uowgA"><path fill="#fff" d="M204 455c-6.627 0-12-5.373-12-12s5.373-12 12-12h72c6.627 0 12 5.373 12 12s-5.373 12-12 12z"/></clipPath><clipPath id="uowgB"><path fill="#fff" d="M204 494c-6.627 0-12-5.373-12-12s5.373-12 12-12h72c6.627 0 12 5.373 12 12s-5.373 12-12 12z"/></clipPath><clipPath id="uowgC"><path fill="#fff" d="M204 533c-6.627 0-12-5.373-12-12s5.373-12 12-12h72c6.627 0 12 5.373 12 12s-5.373 12-12 12z"/></clipPath><clipPath id="uowgD"><path fill="#fff" d="M204 572c-6.627 0-12-5.373-12-12s5.373-12 12-12h72c6.627 0 12 5.373 12 12s-5.373 12-12 12z"/></clipPath><clipPath id="uowgE"><path fill="#fff" d="M377 26c-6.627 0-12-5.373-12-12s5.373-12 12-12h72c6.627 0 12 5.373 12 12s-5.373 12-12 12z"/></clipPath><clipPath id="uowgF"><path fill="#fff" d="M377 65c-6.627 0-12-5.373-12-12s5.373-12 12-12h72c6.627 0 12 5.373 12 12s-5.373 12-12 12z"/></clipPath><clipPath id="uowgG"><path fill="#fff" d="M377 104c-6.627 0-12-5.373-12-12s5.373-12 12-12h72c6.627 0 12 5.373 12 12s-5.373 12-12 12z"/></clipPath><clipPath id="uowgH"><path fill="#fff" d="M377 143c-6.627 0-12-5.373-12-12s5.373-12 12-12h72c6.627 0 12 5.373 12 12s-5.373 12-12 12z"/></clipPath><clipPath id="uowgI"><path fill="#fff" d="M377 182c-6.627 0-12-5.373-12-12s5.373-12 12-12h72c6.627 0 12 5.373 12 12s-5.373 12-12 12z"/></clipPath><clipPath id="uowgJ"><path fill="#fff" d="M377 221c-6.627 0-12-5.373-12-12s5.373-12 12-12h72c6.627 0 12 5.373 12 12s-5.373 12-12 12z"/></clipPath><clipPath id="uowgK"><path fill="#fff" d="M377 338c-6.627 0-12-5.373-12-12s5.373-12 12-12h72c6.627 0 12 5.373 12 12s-5.373 12-12 12z"/></clipPath><clipPath id="uowgL"><path fill="#fff" d="M377 377c-6.627 0-12-5.373-12-12s5.373-12 12-12h72c6.627 0 12 5.373 12 12s-5.373 12-12 12z"/></clipPath><clipPath id="uowgM"><path fill="#fff" d="M377 416c-6.627 0-12-5.373-12-12s5.373-12 12-12h72c6.627 0 12 5.373 12 12s-5.373 12-12 12z"/></clipPath><clipPath id="uowgN"><path fill="#fff" d="M377 455c-6.627 0-12-5.373-12-12s5.373-12 12-12h72c6.627 0 12 5.373 12 12s-5.373 12-12 12z"/></clipPath><clipPath id="uowgO"><path fill="#fff" d="M377 494c-6.627 0-12-5.373-12-12s5.373-12 12-12h72c6.627 0 12 5.373 12 12s-5.373 12-12 12z"/></clipPath><clipPath id="uowgP"><path fill="#fff" d="M377 572c-6.627 0-12-5.373-12-12s5.373-12 12-12h72c6.627 0 12 5.373 12 12s-5.373 12-12 12z"/></clipPath><clipPath id="uowgQ"><path fill="#fff" d="M550 26c-6.627 0-12-5.373-12-12s5.373-12 12-12h72c6.627 0 12 5.373 12 12s-5.373 12-12 12z"/></clipPath><clipPath id="uowgR"><path fill="#fff" d="M550 65c-6.627 0-12-5.373-12-12s5.373-12 12-12h72c6.627 0 12 5.373 12 12s-5.373 12-12 12z"/></clipPath><clipPath id="uowgS"><path fill="#fff" d="M550 104c-6.627 0-12-5.373-12-12s5.373-12 12-12h72c6.627 0 12 5.373 12 12s-5.373 12-12 12z"/></clipPath><clipPath id="uowgT"><path fill="#fff" d="M550 143c-6.627 0-12-5.373-12-12s5.373-12 12-12h72c6.627 0 12 5.373 12 12s-5.373 12-12 12z"/></clipPath><clipPath id="uowgU"><path fill="#fff" d="M550 182c-6.627 0-12-5.373-12-12s5.373-12 12-12h72c6.627 0 12 5.373 12 12s-5.373 12-12 12z"/></clipPath><clipPath id="uowgV"><path fill="#fff" d="M550 221c-6.627 0-12-5.373-12-12s5.373-12 12-12h72c6.627 0 12 5.373 12 12s-5.373 12-12 12z"/></clipPath><clipPath id="uowgW"><path fill="#fff" d="M550 260c-6.627 0-12-5.373-12-12s5.373-12 12-12h72c6.627 0 12 5.373 12 12s-5.373 12-12 12z"/></clipPath><clipPath id="uowgX"><path fill="#fff" d="M550 299c-6.627 0-12-5.373-12-12s5.373-12 12-12h72c6.627 0 12 5.373 12 12s-5.373 12-12 12z"/></clipPath><clipPath id="uowgY"><path fill="#fff" d="M550 338c-6.627 0-12-5.373-12-12s5.373-12 12-12h72c6.627 0 12 5.373 12 12s-5.373 12-12 12z"/></clipPath><clipPath id="uowgZ"><path fill="#fff" d="M550 377c-6.627 0-12-5.373-12-12s5.373-12 12-12h72c6.627 0 12 5.373 12 12s-5.373 12-12 12z"/></clipPath><clipPath id="uowgaa"><path fill="#fff" d="M550 416c-6.627 0-12-5.373-12-12s5.373-12 12-12h72c6.627 0 12 5.373 12 12s-5.373 12-12 12z"/></clipPath><clipPath id="uowgab"><path fill="#fff" d="M550 455c-6.627 0-12-5.373-12-12s5.373-12 12-12h72c6.627 0 12 5.373 12 12s-5.373 12-12 12z"/></clipPath><clipPath id="uowgac"><path fill="#fff" d="M550 494c-6.627 0-12-5.373-12-12s5.373-12 12-12h72c6.627 0 12 5.373 12 12s-5.373 12-12 12z"/></clipPath><clipPath id="uowgad"><path fill="#fff" d="M550 533c-6.627 0-12-5.373-12-12s5.373-12 12-12h72c6.627 0 12 5.373 12 12s-5.373 12-12 12z"/></clipPath><clipPath id="uowgae"><path fill="#fff" d="M550 572c-6.627 0-12-5.373-12-12s5.373-12 12-12h72c6.627 0 12 5.373 12 12s-5.373 12-12 12z"/></clipPath><clipPath id="uowgaf"><path fill="#fff" d="M911 26c-6.627 0-12-5.373-12-12s5.373-12 12-12h72c6.627 0 12 5.373 12 12s-5.373 12-12 12z"/></clipPath><clipPath id="uowgag"><path fill="#fff" d="M911 65c-6.627 0-12-5.373-12-12s5.373-12 12-12h72c6.627 0 12 5.373 12 12s-5.373 12-12 12z"/></clipPath><clipPath id="uowgah"><path fill="#fff" d="M911 143c-6.627 0-12-5.373-12-12s5.373-12 12-12h72c6.627 0 12 5.373 12 12s-5.373 12-12 12z"/></clipPath><clipPath id="uowgai"><path fill="#fff" d="M911 104c-6.627 0-12-5.373-12-12s5.373-12 12-12h72c6.627 0 12 5.373 12 12s-5.373 12-12 12z"/></clipPath><clipPath id="uowgaj"><path fill="#fff" d="M911 494c-6.627 0-12-5.373-12-12s5.373-12 12-12h72c6.627 0 12 5.373 12 12s-5.373 12-12 12z"/></clipPath><clipPath id="uowgak"><path fill="#fff" d="M1099 26c-6.627 0-12-5.373-12-12s5.373-12 12-12h72c6.627 0 12 5.373 12 12s-5.373 12-12 12z"/></clipPath><clipPath id="uowgal"><path fill="#fff" d="M1099 65c-6.627 0-12-5.373-12-12s5.373-12 12-12h72c6.627 0 12 5.373 12 12s-5.373 12-12 12z"/></clipPath><clipPath id="uowgam"><path fill="#fff" d="M1099 104c-6.627 0-12-5.373-12-12s5.373-12 12-12h72c6.627 0 12 5.373 12 12s-5.373 12-12 12z"/></clipPath><clipPath id="uowgan"><path fill="#fff" d="M1099 143c-6.627 0-12-5.373-12-12s5.373-12 12-12h72c6.627 0 12 5.373 12 12s-5.373 12-12 12z"/></clipPath><clipPath id="uowgao"><path fill="#fff" d="M1099 377c-6.627 0-12-5.373-12-12s5.373-12 12-12h72c6.627 0 12 5.373 12 12s-5.373 12-12 12z"/></clipPath><clipPath id="uowgap"><path fill="#fff" d="M1099 494c-6.627 0-12-5.373-12-12s5.373-12 12-12h72c6.627 0 12 5.373 12 12s-5.373 12-12 12z"/></clipPath><clipPath id="uowgaq"><path fill="#fff" d="M911 377c-6.627 0-12-5.373-12-12s5.373-12 12-12h72c6.627 0 12 5.373 12 12s-5.373 12-12 12z"/></clipPath></defs><g><g><path fill="#efeeed" d="M12 26C5.373 26 0 20.627 0 14S5.373 2 12 2h72c6.627 0 12 5.373 12 12s-5.373 12-12 12z"/><path fill="none" stroke="#fff" stroke-miterlimit="20" stroke-opacity=".25" stroke-width="2" d="M12 26C5.373 26 0 20.627 0 14v0C0 7.373 5.373 2 12 2h72c6.627 0 12 5.373 12 12v0c0 6.627-5.373 12-12 12z" clip-path="url(&quot;#uowga&quot;)"/></g><g><path fill="#efeeed" d="M12 65C5.373 65 0 59.627 0 53s5.373-12 12-12h72c6.627 0 12 5.373 12 12s-5.373 12-12 12z"/><path fill="none" stroke="#fff" stroke-miterlimit="20" stroke-opacity=".25" stroke-width="2" d="M12 65C5.373 65 0 59.627 0 53v0c0-6.627 5.373-12 12-12h72c6.627 0 12 5.373 12 12v0c0 6.627-5.373 12-12 12z" clip-path="url(&quot;#uowgb&quot;)"/></g><g><path fill="#efeeed" d="M12 104c-6.627 0-12-5.373-12-12s5.373-12 12-12h72c6.627 0 12 5.373 12 12s-5.373 12-12 12z"/><path fill="none" stroke="#fff" stroke-miterlimit="20" stroke-opacity=".25" stroke-width="2" d="M12 104c-6.627 0-12-5.373-12-12v0c0-6.627 5.373-12 12-12h72c6.627 0 12 5.373 12 12v0c0 6.627-5.373 12-12 12z" clip-path="url(&quot;#uowgc&quot;)"/></g><g><path fill="#efeeed" d="M12 143c-6.627 0-12-5.373-12-12s5.373-12 12-12h72c6.627 0 12 5.373 12 12s-5.373 12-12 12z"/><path fill="none" stroke="#fff" stroke-miterlimit="20" stroke-opacity=".25" stroke-width="2" d="M12 143c-6.627 0-12-5.373-12-12v0c0-6.627 5.373-12 12-12h72c6.627 0 12 5.373 12 12v0c0 6.627-5.373 12-12 12z" clip-path="url(&quot;#uowgd&quot;)"/></g><g><path fill="#efeeed" d="M12 182c-6.627 0-12-5.373-12-12s5.373-12 12-12h72c6.627 0 12 5.373 12 12s-5.373 12-12 12z"/><path fill="none" stroke="#fff" stroke-miterlimit="20" stroke-opacity=".25" stroke-width="2" d="M12 182c-6.627 0-12-5.373-12-12v0c0-6.627 5.373-12 12-12h72c6.627 0 12 5.373 12 12v0c0 6.627-5.373 12-12 12z" clip-path="url(&quot;#uowge&quot;)"/></g><g><path fill="#efeeed" d="M12 221c-6.627 0-12-5.373-12-12s5.373-12 12-12h72c6.627 0 12 5.373 12 12s-5.373 12-12 12z"/><path fill="none" stroke="#fff" stroke-miterlimit="20" stroke-opacity=".25" stroke-width="2" d="M12 221c-6.627 0-12-5.373-12-12v0c0-6.627 5.373-12 12-12h72c6.627 0 12 5.373 12 12v0c0 6.627-5.373 12-12 12z" clip-path="url(&quot;#uowgf&quot;)"/></g><g><path fill="#efeeed" d="M12 260c-6.627 0-12-5.373-12-12s5.373-12 12-12h72c6.627 0 12 5.373 12 12s-5.373 12-12 12z"/><path fill="none" stroke="#fff" stroke-miterlimit="20" stroke-opacity=".25" stroke-width="2" d="M12 260c-6.627 0-12-5.373-12-12v0c0-6.627 5.373-12 12-12h72c6.627 0 12 5.373 12 12v0c0 6.627-5.373 12-12 12z" clip-path="url(&quot;#uowgg&quot;)"/></g><g><path fill="#efeeed" d="M12 299c-6.627 0-12-5.373-12-12s5.373-12 12-12h72c6.627 0 12 5.373 12 12s-5.373 12-12 12z"/><path fill="none" stroke="#fff" stroke-miterlimit="20" stroke-opacity=".25" stroke-width="2" d="M12 299c-6.627 0-12-5.373-12-12v0c0-6.627 5.373-12 12-12h72c6.627 0 12 5.373 12 12v0c0 6.627-5.373 12-12 12z" clip-path="url(&quot;#uowgh&quot;)"/></g><g><path fill="#efeeed" d="M12 338c-6.627 0-12-5.373-12-12s5.373-12 12-12h72c6.627 0 12 5.373 12 12s-5.373 12-12 12z"/><path fill="none" stroke="#fff" stroke-miterlimit="20" stroke-opacity=".25" stroke-width="2" d="M12 338c-6.627 0-12-5.373-12-12v0c0-6.627 5.373-12 12-12h72c6.627 0 12 5.373 12 12v0c0 6.627-5.373 12-12 12z" clip-path="url(&quot;#uowgi&quot;)"/></g><g><path fill="#efeeed" d="M12 377c-6.627 0-12-5.373-12-12s5.373-12 12-12h72c6.627 0 12 5.373 12 12s-5.373 12-12 12z"/><path fill="none" stroke="#fff" stroke-miterlimit="20" stroke-opacity=".25" stroke-width="2" d="M12 377c-6.627 0-12-5.373-12-12v0c0-6.627 5.373-12 12-12h72c6.627 0 12 5.373 12 12v0c0 6.627-5.373 12-12 12z" clip-path="url(&quot;#uowgj&quot;)"/></g><g><path fill="#efeeed" d="M12 416c-6.627 0-12-5.373-12-12s5.373-12 12-12h72c6.627 0 12 5.373 12 12s-5.373 12-12 12z"/><path fill="none" stroke="#fff" stroke-miterlimit="20" stroke-opacity=".25" stroke-width="2" d="M12 416c-6.627 0-12-5.373-12-12v0c0-6.627 5.373-12 12-12h72c6.627 0 12 5.373 12 12v0c0 6.627-5.373 12-12 12z" clip-path="url(&quot;#uowgk&quot;)"/></g><g><path fill="#efeeed" d="M12 455c-6.627 0-12-5.373-12-12s5.373-12 12-12h72c6.627 0 12 5.373 12 12s-5.373 12-12 12z"/><path fill="none" stroke="#fff" stroke-miterlimit="20" stroke-opacity=".25" stroke-width="2" d="M12 455c-6.627 0-12-5.373-12-12v0c0-6.627 5.373-12 12-12h72c6.627 0 12 5.373 12 12v0c0 6.627-5.373 12-12 12z" clip-path="url(&quot;#uowgl&quot;)"/></g><g><path fill="#efeeed" d="M12 494c-6.627 0-12-5.373-12-12s5.373-12 12-12h72c6.627 0 12 5.373 12 12s-5.373 12-12 12z"/><path fill="none" stroke="#fff" stroke-miterlimit="20" stroke-opacity=".25" stroke-width="2" d="M12 494c-6.627 0-12-5.373-12-12v0c0-6.627 5.373-12 12-12h72c6.627 0 12 5.373 12 12v0c0 6.627-5.373 12-12 12z" clip-path="url(&quot;#uowgm&quot;)"/></g><g><path fill="#efeeed" d="M12 533c-6.627 0-12-5.373-12-12s5.373-12 12-12h72c6.627 0 12 5.373 12 12s-5.373 12-12 12z"/><path fill="none" stroke="#fff" stroke-miterlimit="20" stroke-opacity=".25" stroke-width="2" d="M12 533c-6.627 0-12-5.373-12-12v0c0-6.627 5.373-12 12-12h72c6.627 0 12 5.373 12 12v0c0 6.627-5.373 12-12 12z" clip-path="url(&quot;#uowgn&quot;)"/></g><g><path fill="#efeeed" d="M12 572c-6.627 0-12-5.373-12-12s5.373-12 12-12h72c6.627 0 12 5.373 12 12s-5.373 12-12 12z"/><path fill="none" stroke="#fff" stroke-miterlimit="20" stroke-opacity=".25" stroke-width="2" d="M12 572c-6.627 0-12-5.373-12-12v0c0-6.627 5.373-12 12-12h72c6.627 0 12 5.373 12 12v0c0 6.627-5.373 12-12 12z" clip-path="url(&quot;#uowgo&quot;)"/></g><g><path fill="#63bf67" d="M204 26c-6.627 0-12-5.373-12-12s5.373-12 12-12h72c6.627 0 12 5.373 12 12s-5.373 12-12 12z"/><path fill="none" stroke="#fff" stroke-miterlimit="20" stroke-opacity=".25" stroke-width="2" d="M204 26c-6.627 0-12-5.373-12-12v0c0-6.627 5.373-12 12-12h72c6.627 0 12 5.373 12 12v0c0 6.627-5.373 12-12 12z" clip-path="url(&quot;#uowgp&quot;)"/></g><g><path fill="#63bf67" d="M204 65c-6.627 0-12-5.373-12-12s5.373-12 12-12h72c6.627 0 12 5.373 12 12s-5.373 12-12 12z"/><path fill="none" stroke="#fff" stroke-miterlimit="20" stroke-opacity=".25" stroke-width="2" d="M204 65c-6.627 0-12-5.373-12-12v0c0-6.627 5.373-12 12-12h72c6.627 0 12 5.373 12 12v0c0 6.627-5.373 12-12 12z" clip-path="url(&quot;#uowgq&quot;)"/></g><g><path fill="#63bf67" d="M204 104c-6.627 0-12-5.373-12-12s5.373-12 12-12h72c6.627 0 12 5.373 12 12s-5.373 12-12 12z"/><path fill="none" stroke="#fff" stroke-miterlimit="20" stroke-opacity=".25" stroke-width="2" d="M204 104c-6.627 0-12-5.373-12-12v0c0-6.627 5.373-12 12-12h72c6.627 0 12 5.373 12 12v0c0 6.627-5.373 12-12 12z" clip-path="url(&quot;#uowgr&quot;)"/></g><g><path fill="#63bf67" d="M204 143c-6.627 0-12-5.373-12-12s5.373-12 12-12h72c6.627 0 12 5.373 12 12s-5.373 12-12 12z"/><path fill="none" stroke="#fff" stroke-miterlimit="20" stroke-opacity=".25" stroke-width="2" d="M204 143c-6.627 0-12-5.373-12-12v0c0-6.627 5.373-12 12-12h72c6.627 0 12 5.373 12 12v0c0 6.627-5.373 12-12 12z" clip-path="url(&quot;#uowgs&quot;)"/></g><g><path fill="#63bf67" d="M204 182c-6.627 0-12-5.373-12-12s5.373-12 12-12h72c6.627 0 12 5.373 12 12s-5.373 12-12 12z"/><path fill="none" stroke="#fff" stroke-miterlimit="20" stroke-opacity=".25" stroke-width="2" d="M204 182c-6.627 0-12-5.373-12-12v0c0-6.627 5.373-12 12-12h72c6.627 0 12 5.373 12 12v0c0 6.627-5.373 12-12 12z" clip-path="url(&quot;#uowgt&quot;)"/></g><g><path fill="#63bf67" d="M204 221c-6.627 0-12-5.373-12-12s5.373-12 12-12h72c6.627 0 12 5.373 12 12s-5.373 12-12 12z"/><path fill="none" stroke="#fff" stroke-miterlimit="20" stroke-opacity=".25" stroke-width="2" d="M204 221c-6.627 0-12-5.373-12-12v0c0-6.627 5.373-12 12-12h72c6.627 0 12 5.373 12 12v0c0 6.627-5.373 12-12 12z" clip-path="url(&quot;#uowgu&quot;)"/></g><g><path fill="#f2d230" d="M204 260c-6.627 0-12-5.373-12-12s5.373-12 12-12h72c6.627 0 12 5.373 12 12s-5.373 12-12 12z"/><path fill="none" stroke="#fff" stroke-miterlimit="20" stroke-opacity=".25" stroke-width="2" d="M204 260c-6.627 0-12-5.373-12-12v0c0-6.627 5.373-12 12-12h72c6.627 0 12 5.373 12 12v0c0 6.627-5.373 12-12 12z" clip-path="url(&quot;#uowgv&quot;)"/></g><g><path fill="#f2d230" d="M204 299c-6.627 0-12-5.373-12-12s5.373-12 12-12h72c6.627 0 12 5.373 12 12s-5.373 12-12 12z"/><path fill="none" stroke="#fff" stroke-miterlimit="20" stroke-opacity=".25" stroke-width="2" d="M204 299c-6.627 0-12-5.373-12-12v0c0-6.627 5.373-12 12-12h72c6.627 0 12 5.373 12 12v0c0 6.627-5.373 12-12 12z" clip-path="url(&quot;#uowgw&quot;)"/></g><g><path fill="#63bf67" d="M204 338c-6.627 0-12-5.373-12-12s5.373-12 12-12h72c6.627 0 12 5.373 12 12s-5.373 12-12 12z"/><path fill="none" stroke="#fff" stroke-miterlimit="20" stroke-opacity=".25" stroke-width="2" d="M204 338c-6.627 0-12-5.373-12-12v0c0-6.627 5.373-12 12-12h72c6.627 0 12 5.373 12 12v0c0 6.627-5.373 12-12 12z" clip-path="url(&quot;#uowgx&quot;)"/></g><g><path fill="#63bf67" d="M204 377c-6.627 0-12-5.373-12-12s5.373-12 12-12h72c6.627 0 12 5.373 12 12s-5.373 12-12 12z"/><path fill="none" stroke="#fff" stroke-miterlimit="20" stroke-opacity=".25" stroke-width="2" d="M204 377c-6.627 0-12-5.373-12-12v0c0-6.627 5.373-12 12-12h72c6.627 0 12 5.373 12 12v0c0 6.627-5.373 12-12 12z" clip-path="url(&quot;#uowgy&quot;)"/></g><g><path fill="#63bf67" d="M204 416c-6.627 0-12-5.373-12-12s5.373-12 12-12h72c6.627 0 12 5.373 12 12s-5.373 12-12 12z"/><path fill="none" stroke="#fff" stroke-miterlimit="20" stroke-opacity=".25" stroke-width="2" d="M204 416c-6.627 0-12-5.373-12-12v0c0-6.627 5.373-12 12-12h72c6.627 0 12 5.373 12 12v0c0 6.627-5.373 12-12 12z" clip-path="url(&quot;#uowgz&quot;)"/></g><g><path fill="#63bf67" d="M204 455c-6.627 0-12-5.373-12-12s5.373-12 12-12h72c6.627 0 12 5.373 12 12s-5.373 12-12 12z"/><path fill="none" stroke="#fff" stroke-miterlimit="20" stroke-opacity=".25" stroke-width="2" d="M204 455c-6.627 0-12-5.373-12-12v0c0-6.627 5.373-12 12-12h72c6.627 0 12 5.373 12 12v0c0 6.627-5.373 12-12 12z" clip-path="url(&quot;#uowgA&quot;)"/></g><g><path fill="#63bf67" d="M204 494c-6.627 0-12-5.373-12-12s5.373-12 12-12h72c6.627 0 12 5.373 12 12s-5.373 12-12 12z"/><path fill="none" stroke="#fff" stroke-miterlimit="20" stroke-opacity=".25" stroke-width="2" d="M204 494c-6.627 0-12-5.373-12-12v0c0-6.627 5.373-12 12-12h72c6.627 0 12 5.373 12 12v0c0 6.627-5.373 12-12 12z" clip-path="url(&quot;#uowgB&quot;)"/></g><g><path fill="#f2d230" d="M204 533c-6.627 0-12-5.373-12-12s5.373-12 12-12h72c6.627 0 12 5.373 12 12s-5.373 12-12 12z"/><path fill="none" stroke="#fff" stroke-miterlimit="20" stroke-opacity=".25" stroke-width="2" d="M204 533c-6.627 0-12-5.373-12-12v0c0-6.627 5.373-12 12-12h72c6.627 0 12 5.373 12 12v0c0 6.627-5.373 12-12 12z" clip-path="url(&quot;#uowgC&quot;)"/></g><g><path fill="#63bf67" d="M204 572c-6.627 0-12-5.373-12-12s5.373-12 12-12h72c6.627 0 12 5.373 12 12s-5.373 12-12 12z"/><path fill="none" stroke="#fff" stroke-miterlimit="20" stroke-opacity=".25" stroke-width="2" d="M204 572c-6.627 0-12-5.373-12-12v0c0-6.627 5.373-12 12-12h72c6.627 0 12 5.373 12 12v0c0 6.627-5.373 12-12 12z" clip-path="url(&quot;#uowgD&quot;)"/></g><g><path fill="#efeeed" d="M377 26c-6.627 0-12-5.373-12-12s5.373-12 12-12h72c6.627 0 12 5.373 12 12s-5.373 12-12 12z"/><path fill="none" stroke="#fff" stroke-miterlimit="20" stroke-opacity=".25" stroke-width="2" d="M377 26c-6.627 0-12-5.373-12-12v0c0-6.627 5.373-12 12-12h72c6.627 0 12 5.373 12 12v0c0 6.627-5.373 12-12 12z" clip-path="url(&quot;#uowgE&quot;)"/></g><g><path fill="#efeeed" d="M377 65c-6.627 0-12-5.373-12-12s5.373-12 12-12h72c6.627 0 12 5.373 12 12s-5.373 12-12 12z"/><path fill="none" stroke="#fff" stroke-miterlimit="20" stroke-opacity=".25" stroke-width="2" d="M377 65c-6.627 0-12-5.373-12-12v0c0-6.627 5.373-12 12-12h72c6.627 0 12 5.373 12 12v0c0 6.627-5.373 12-12 12z" clip-path="url(&quot;#uowgF&quot;)"/></g><g><path fill="#efeeed" d="M377 104c-6.627 0-12-5.373-12-12s5.373-12 12-12h72c6.627 0 12 5.373 12 12s-5.373 12-12 12z"/><path fill="none" stroke="#fff" stroke-miterlimit="20" stroke-opacity=".25" stroke-width="2" d="M377 104c-6.627 0-12-5.373-12-12v0c0-6.627 5.373-12 12-12h72c6.627 0 12 5.373 12 12v0c0 6.627-5.373 12-12 12z" clip-path="url(&quot;#uowgG&quot;)"/></g><g><path fill="#efeeed" d="M377 143c-6.627 0-12-5.373-12-12s5.373-12 12-12h72c6.627 0 12 5.373 12 12s-5.373 12-12 12z"/><path fill="none" stroke="#fff" stroke-miterlimit="20" stroke-opacity=".25" stroke-width="2" d="M377 143c-6.627 0-12-5.373-12-12v0c0-6.627 5.373-12 12-12h72c6.627 0 12 5.373 12 12v0c0 6.627-5.373 12-12 12z" clip-path="url(&quot;#uowgH&quot;)"/></g><g><path fill="#efeeed" d="M377 182c-6.627 0-12-5.373-12-12s5.373-12 12-12h72c6.627 0 12 5.373 12 12s-5.373 12-12 12z"/><path fill="none" stroke="#fff" stroke-miterlimit="20" stroke-opacity=".25" stroke-width="2" d="M377 182c-6.627 0-12-5.373-12-12v0c0-6.627 5.373-12 12-12h72c6.627 0 12 5.373 12 12v0c0 6.627-5.373 12-12 12z" clip-path="url(&quot;#uowgI&quot;)"/></g><g><path fill="#efeeed" d="M377 221c-6.627 0-12-5.373-12-12s5.373-12 12-12h72c6.627 0 12 5.373 12 12s-5.373 12-12 12z"/><path fill="none" stroke="#fff" stroke-miterlimit="20" stroke-opacity=".25" stroke-width="2" d="M377 221c-6.627 0-12-5.373-12-12v0c0-6.627 5.373-12 12-12h72c6.627 0 12 5.373 12 12v0c0 6.627-5.373 12-12 12z" clip-path="url(&quot;#uowgJ&quot;)"/></g><g><path fill="#efeeed" d="M377 338c-6.627 0-12-5.373-12-12s5.373-12 12-12h72c6.627 0 12 5.373 12 12s-5.373 12-12 12z"/><path fill="none" stroke="#fff" stroke-miterlimit="20" stroke-opacity=".25" stroke-width="2" d="M377 338c-6.627 0-12-5.373-12-12v0c0-6.627 5.373-12 12-12h72c6.627 0 12 5.373 12 12v0c0 6.627-5.373 12-12 12z" clip-path="url(&quot;#uowgK&quot;)"/></g><g><path fill="#efeeed" d="M377 377c-6.627 0-12-5.373-12-12s5.373-12 12-12h72c6.627 0 12 5.373 12 12s-5.373 12-12 12z"/><path fill="none" stroke="#fff" stroke-miterlimit="20" stroke-opacity=".25" stroke-width="2" d="M377 377c-6.627 0-12-5.373-12-12v0c0-6.627 5.373-12 12-12h72c6.627 0 12 5.373 12 12v0c0 6.627-5.373 12-12 12z" clip-path="url(&quot;#uowgL&quot;)"/></g><g><path fill="#efeeed" d="M377 416c-6.627 0-12-5.373-12-12s5.373-12 12-12h72c6.627 0 12 5.373 12 12s-5.373 12-12 12z"/><path fill="none" stroke="#fff" stroke-miterlimit="20" stroke-opacity=".25" stroke-width="2" d="M377 416c-6.627 0-12-5.373-12-12v0c0-6.627 5.373-12 12-12h72c6.627 0 12 5.373 12 12v0c0 6.627-5.373 12-12 12z" clip-path="url(&quot;#uowgM&quot;)"/></g><g><path fill="#efeeed" d="M377 455c-6.627 0-12-5.373-12-12s5.373-12 12-12h72c6.627 0 12 5.373 12 12s-5.373 12-12 12z"/><path fill="none" stroke="#fff" stroke-miterlimit="20" stroke-opacity=".25" stroke-width="2" d="M377 455c-6.627 0-12-5.373-12-12v0c0-6.627 5.373-12 12-12h72c6.627 0 12 5.373 12 12v0c0 6.627-5.373 12-12 12z" clip-path="url(&quot;#uowgN&quot;)"/></g><g><path fill="#efeeed" d="M377 494c-6.627 0-12-5.373-12-12s5.373-12 12-12h72c6.627 0 12 5.373 12 12s-5.373 12-12 12z"/><path fill="none" stroke="#fff" stroke-miterlimit="20" stroke-opacity=".25" stroke-width="2" d="M377 494c-6.627 0-12-5.373-12-12v0c0-6.627 5.373-12 12-12h72c6.627 0 12 5.373 12 12v0c0 6.627-5.373 12-12 12z" clip-path="url(&quot;#uowgO&quot;)"/></g><g><path fill="#efeeed" d="M377 572c-6.627 0-12-5.373-12-12s5.373-12 12-12h72c6.627 0 12 5.373 12 12s-5.373 12-12 12z"/><path fill="none" stroke="#fff" stroke-miterlimit="20" stroke-opacity=".25" stroke-width="2" d="M377 572c-6.627 0-12-5.373-12-12v0c0-6.627 5.373-12 12-12h72c6.627 0 12 5.373 12 12v0c0 6.627-5.373 12-12 12z" clip-path="url(&quot;#uowgP&quot;)"/></g><g><path fill="#bc3131" d="M550 26c-6.627 0-12-5.373-12-12s5.373-12 12-12h72c6.627 0 12 5.373 12 12s-5.373 12-12 12z"/><path fill="none" stroke="#fff" stroke-miterlimit="20" stroke-opacity=".25" stroke-width="2" d="M550 26c-6.627 0-12-5.373-12-12v0c0-6.627 5.373-12 12-12h72c6.627 0 12 5.373 12 12v0c0 6.627-5.373 12-12 12z" clip-path="url(&quot;#uowgQ&quot;)"/></g><g><path fill="#f0a53c" d="M550 65c-6.627 0-12-5.373-12-12s5.373-12 12-12h72c6.627 0 12 5.373 12 12s-5.373 12-12 12z"/><path fill="none" stroke="#fff" stroke-miterlimit="20" stroke-opacity=".25" stroke-width="2" d="M550 65c-6.627 0-12-5.373-12-12v0c0-6.627 5.373-12 12-12h72c6.627 0 12 5.373 12 12v0c0 6.627-5.373 12-12 12z" clip-path="url(&quot;#uowgR&quot;)"/></g><g><path fill="#63bf67" d="M550 104c-6.627 0-12-5.373-12-12s5.373-12 12-12h72c6.627 0 12 5.373 12 12s-5.373 12-12 12z"/><path fill="none" stroke="#fff" stroke-miterlimit="20" stroke-opacity=".25" stroke-width="2" d="M550 104c-6.627 0-12-5.373-12-12v0c0-6.627 5.373-12 12-12h72c6.627 0 12 5.373 12 12v0c0 6.627-5.373 12-12 12z" clip-path="url(&quot;#uowgS&quot;)"/></g><g><path fill="#f0a53c" d="M550 143c-6.627 0-12-5.373-12-12s5.373-12 12-12h72c6.627 0 12 5.373 12 12s-5.373 12-12 12z"/><path fill="none" stroke="#fff" stroke-miterlimit="20" stroke-opacity=".25" stroke-width="2" d="M550 143c-6.627 0-12-5.373-12-12v0c0-6.627 5.373-12 12-12h72c6.627 0 12 5.373 12 12v0c0 6.627-5.373 12-12 12z" clip-path="url(&quot;#uowgT&quot;)"/></g><g><path fill="#bc3131" d="M550 182c-6.627 0-12-5.373-12-12s5.373-12 12-12h72c6.627 0 12 5.373 12 12s-5.373 12-12 12z"/><path fill="none" stroke="#fff" stroke-miterlimit="20" stroke-opacity=".25" stroke-width="2" d="M550 182c-6.627 0-12-5.373-12-12v0c0-6.627 5.373-12 12-12h72c6.627 0 12 5.373 12 12v0c0 6.627-5.373 12-12 12z" clip-path="url(&quot;#uowgU&quot;)"/></g><g><path fill="#bc3131" d="M550 221c-6.627 0-12-5.373-12-12s5.373-12 12-12h72c6.627 0 12 5.373 12 12s-5.373 12-12 12z"/><path fill="none" stroke="#fff" stroke-miterlimit="20" stroke-opacity=".25" stroke-width="2" d="M550 221c-6.627 0-12-5.373-12-12v0c0-6.627 5.373-12 12-12h72c6.627 0 12 5.373 12 12v0c0 6.627-5.373 12-12 12z" clip-path="url(&quot;#uowgV&quot;)"/></g><g><path fill="#f0a53c" d="M550 260c-6.627 0-12-5.373-12-12s5.373-12 12-12h72c6.627 0 12 5.373 12 12s-5.373 12-12 12z"/><path fill="none" stroke="#fff" stroke-miterlimit="20" stroke-opacity=".25" stroke-width="2" d="M550 260c-6.627 0-12-5.373-12-12v0c0-6.627 5.373-12 12-12h72c6.627 0 12 5.373 12 12v0c0 6.627-5.373 12-12 12z" clip-path="url(&quot;#uowgW&quot;)"/></g><g><path fill="#63bf67" d="M550 299c-6.627 0-12-5.373-12-12s5.373-12 12-12h72c6.627 0 12 5.373 12 12s-5.373 12-12 12z"/><path fill="none" stroke="#fff" stroke-miterlimit="20" stroke-opacity=".25" stroke-width="2" d="M550 299c-6.627 0-12-5.373-12-12v0c0-6.627 5.373-12 12-12h72c6.627 0 12 5.373 12 12v0c0 6.627-5.373 12-12 12z" clip-path="url(&quot;#uowgX&quot;)"/></g><g><path fill="#bc3131" d="M550 338c-6.627 0-12-5.373-12-12s5.373-12 12-12h72c6.627 0 12 5.373 12 12s-5.373 12-12 12z"/><path fill="none" stroke="#fff" stroke-miterlimit="20" stroke-opacity=".25" stroke-width="2" d="M550 338c-6.627 0-12-5.373-12-12v0c0-6.627 5.373-12 12-12h72c6.627 0 12 5.373 12 12v0c0 6.627-5.373 12-12 12z" clip-path="url(&quot;#uowgY&quot;)"/></g><g><path fill="#63bf67" d="M550 377c-6.627 0-12-5.373-12-12s5.373-12 12-12h72c6.627 0 12 5.373 12 12s-5.373 12-12 12z"/><path fill="none" stroke="#fff" stroke-miterlimit="20" stroke-opacity=".25" stroke-width="2" d="M550 377c-6.627 0-12-5.373-12-12v0c0-6.627 5.373-12 12-12h72c6.627 0 12 5.373 12 12v0c0 6.627-5.373 12-12 12z" clip-path="url(&quot;#uowgZ&quot;)"/></g><g><path fill="#f0a53c" d="M550 416c-6.627 0-12-5.373-12-12s5.373-12 12-12h72c6.627 0 12 5.373 12 12s-5.373 12-12 12z"/><path fill="none" stroke="#fff" stroke-miterlimit="20" stroke-opacity=".25" stroke-width="2" d="M550 416c-6.627 0-12-5.373-12-12v0c0-6.627 5.373-12 12-12h72c6.627 0 12 5.373 12 12v0c0 6.627-5.373 12-12 12z" clip-path="url(&quot;#uowgaa&quot;)"/></g><g><path fill="#63bf67" d="M550 455c-6.627 0-12-5.373-12-12s5.373-12 12-12h72c6.627 0 12 5.373 12 12s-5.373 12-12 12z"/><path fill="none" stroke="#fff" stroke-miterlimit="20" stroke-opacity=".25" stroke-width="2" d="M550 455c-6.627 0-12-5.373-12-12v0c0-6.627 5.373-12 12-12h72c6.627 0 12 5.373 12 12v0c0 6.627-5.373 12-12 12z" clip-path="url(&quot;#uowgab&quot;)"/></g><g><path fill="#bc3131" d="M550 494c-6.627 0-12-5.373-12-12s5.373-12 12-12h72c6.627 0 12 5.373 12 12s-5.373 12-12 12z"/><path fill="none" stroke="#fff" stroke-miterlimit="20" stroke-opacity=".25" stroke-width="2" d="M550 494c-6.627 0-12-5.373-12-12v0c0-6.627 5.373-12 12-12h72c6.627 0 12 5.373 12 12v0c0 6.627-5.373 12-12 12z" clip-path="url(&quot;#uowgac&quot;)"/></g><g><path fill="#63bf67" d="M550 533c-6.627 0-12-5.373-12-12s5.373-12 12-12h72c6.627 0 12 5.373 12 12s-5.373 12-12 12z"/><path fill="none" stroke="#fff" stroke-miterlimit="20" stroke-opacity=".25" stroke-width="2" d="M550 533c-6.627 0-12-5.373-12-12v0c0-6.627 5.373-12 12-12h72c6.627 0 12 5.373 12 12v0c0 6.627-5.373 12-12 12z" clip-path="url(&quot;#uowgad&quot;)"/></g><g><path fill="#f0a53c" d="M550 572c-6.627 0-12-5.373-12-12s5.373-12 12-12h72c6.627 0 12 5.373 12 12s-5.373 12-12 12z"/><path fill="none" stroke="#fff" stroke-miterlimit="20" stroke-opacity=".25" stroke-width="2" d="M550 572c-6.627 0-12-5.373-12-12v0c0-6.627 5.373-12 12-12h72c6.627 0 12 5.373 12 12v0c0 6.627-5.373 12-12 12z" clip-path="url(&quot;#uowgae&quot;)"/></g><g><path d="M746.286 20.854v1.714h-3.428v-1.714zm-5.142 2.142a1.29 1.29 0 0 0 1.285 1.286h4.286A1.29 1.29 0 0 0 748 22.996v-4.285a1.29 1.29 0 0 0-1.285-1.285h-2.143v-1.714h-3.428zm3.428-8.998v-1.714h-3.428v1.714h3.428v1.714H748v-1.714zm0-1.714H748V10.57h-3.428zm-3.428-1.714h3.428V8.856H748V7.142h-3.428v1.714h-3.428zm0-3.428h3.428V5.428h-3.428zm3.428-3.428v1.714H748V3.714zm-3.428 0h3.428V2h-3.428zm17.14 21.854a.434.434 0 0 1-.428.428h-19.712a.434.434 0 0 1-.428-.428V2.427c0-.232.196-.428.428-.428h13.284v5.999c0 .473.384.857.857.857h6zm-2.963-20.605a23.376 23.376 0 0 1 1.944 2.179h-4.123V3.019a23.366 23.366 0 0 1 2.18 1.944zm3.547 1.458c-.595-.812-1.424-1.76-2.335-2.67-.91-.911-1.859-1.74-2.67-2.335-1.381-1.013-2.051-1.13-2.435-1.13h-13.284a2.145 2.145 0 0 0-2.142 2.142v23.14c0 1.18.96 2.142 2.142 2.142h19.712a2.145 2.145 0 0 0 2.142-2.142V8.856c0-.384-.117-1.054-1.13-2.435z"/></g><g><g><path d="M802.284 25.571a.434.434 0 0 1-.429.429h-19.714a.434.434 0 0 1-.429-.429V2.43c0-.233.197-.429.429-.429h13.286v6c0 .473.383.857.857.857h6zM799.32 4.963a23.38 23.38 0 0 1 1.944 2.18h-4.124V3.019a23.356 23.356 0 0 1 2.18 1.944zm3.547 1.459c-.595-.812-1.425-1.76-2.335-2.67-.911-.912-1.86-1.741-2.671-2.336-1.381-1.013-2.052-1.13-2.435-1.13H782.14a2.145 2.145 0 0 0-2.143 2.143V25.57c0 1.182.961 2.143 2.143 2.143h19.714a2.145 2.145 0 0 0 2.143-2.143V8.857c0-.384-.117-1.054-1.13-2.435z"/></g><g><g><text dominant-baseline="text-before-edge" style="font-kerning:normal" font-family="'Montserrat','Montserrat-Bold'" font-size="9" font-style="none" font-weight="700" transform="translate(781 8)"><tspan>SVD</tspan></text></g></g></g><g><path d="M746.286 59.854v1.714h-3.428v-1.714zm-5.142 2.142a1.29 1.29 0 0 0 1.285 1.286h4.286A1.29 1.29 0 0 0 748 61.996v-4.285a1.29 1.29 0 0 0-1.285-1.285h-2.143v-1.714h-3.428zm3.428-8.998v-1.714h-3.428v1.714h3.428v1.714H748v-1.714zm0-1.714H748V49.57h-3.428zm-3.428-1.714h3.428v-1.714H748v-1.714h-3.428v1.714h-3.428zm0-3.428h3.428v-1.714h-3.428zm3.428-3.428v1.714H748v-1.714zm-3.428 0h3.428V41h-3.428zm17.14 21.853a.434.434 0 0 1-.428.429h-19.712a.434.434 0 0 1-.428-.428v-23.14c0-.232.196-.428.428-.428h13.284v5.999c0 .473.384.857.857.857h6zm-2.963-20.604a23.376 23.376 0 0 1 1.944 2.179h-4.123v-4.123a23.366 23.366 0 0 1 2.18 1.944zm3.547 1.458c-.595-.812-1.424-1.76-2.335-2.67-.91-.911-1.859-1.74-2.67-2.335-1.381-1.013-2.051-1.13-2.435-1.13h-13.284a2.145 2.145 0 0 0-2.142 2.142v23.14c0 1.18.96 2.142 2.142 2.142h19.712a2.145 2.145 0 0 0 2.142-2.142V47.855c0-.384-.117-1.054-1.13-2.435z"/></g><g><g><path d="M802.284 64.571a.434.434 0 0 1-.429.429h-19.714a.434.434 0 0 1-.429-.429V41.43c0-.233.197-.429.429-.429h13.286v6c0 .473.383.857.857.857h6zm-2.963-20.608a23.38 23.38 0 0 1 1.944 2.18h-4.124v-4.124a23.356 23.356 0 0 1 2.18 1.944zm3.547 1.459c-.595-.812-1.425-1.76-2.335-2.67-.911-.912-1.86-1.741-2.671-2.336-1.381-1.013-2.052-1.13-2.435-1.13H782.14a2.145 2.145 0 0 0-2.143 2.143V64.57c0 1.182.961 2.143 2.143 2.143h19.714a2.145 2.145 0 0 0 2.143-2.143V47.857c0-.384-.117-1.054-1.13-2.435z"/></g><g><g><text dominant-baseline="text-before-edge" style="font-kerning:normal" font-family="'Montserrat','Montserrat-Bold'" font-size="9" font-style="none" font-weight="700" transform="translate(781 47)"><tspan>SVD</tspan></text></g></g></g><g><path d="M746.286 98.854v1.714h-3.428v-1.714zm-5.142 2.142a1.29 1.29 0 0 0 1.285 1.286h4.286a1.29 1.29 0 0 0 1.285-1.286v-4.285a1.29 1.29 0 0 0-1.285-1.285h-2.143v-1.714h-3.428zm3.428-8.998v-1.714h-3.428v1.714h3.428v1.714H748v-1.714zm0-1.714H748V88.57h-3.428zm-3.428-1.714h3.428v-1.714H748v-1.714h-3.428v1.714h-3.428zm0-3.428h3.428v-1.714h-3.428zm3.428-3.428v1.714H748v-1.714zm-3.428 0h3.428V80h-3.428zm17.14 21.853a.434.434 0 0 1-.428.429h-19.712a.434.434 0 0 1-.428-.429V80.428c0-.232.196-.428.428-.428h13.284v5.999c0 .473.384.857.857.857h6zm-2.963-20.605a23.376 23.376 0 0 1 1.944 2.18h-4.123v-4.123a23.366 23.366 0 0 1 2.18 1.943zm3.547 1.459c-.595-.812-1.424-1.76-2.335-2.67-.91-.911-1.859-1.74-2.67-2.335-1.381-1.013-2.051-1.13-2.435-1.13h-13.284a2.145 2.145 0 0 0-2.142 2.142v23.14c0 1.18.96 2.142 2.142 2.142h19.712a2.145 2.145 0 0 0 2.142-2.143V86.856c0-.384-.117-1.054-1.13-2.435z"/></g><g><g><path d="M802.284 103.571a.434.434 0 0 1-.429.429h-19.714a.434.434 0 0 1-.429-.429V80.43c0-.233.197-.429.429-.429h13.286v6c0 .473.383.857.857.857h6zm-2.963-20.608a23.38 23.38 0 0 1 1.944 2.18h-4.124v-4.124a23.356 23.356 0 0 1 2.18 1.944zm3.547 1.459c-.595-.812-1.425-1.76-2.335-2.671-.911-.91-1.86-1.74-2.671-2.335-1.381-1.013-2.052-1.13-2.435-1.13H782.14a2.145 2.145 0 0 0-2.143 2.143v23.142c0 1.182.961 2.143 2.143 2.143h19.714a2.145 2.145 0 0 0 2.143-2.143V86.857c0-.384-.117-1.054-1.13-2.435z"/></g><g><g><text dominant-baseline="text-before-edge" style="font-kerning:normal" font-family="'Montserrat','Montserrat-Bold'" font-size="9" font-style="none" font-weight="700" transform="translate(781 86)"><tspan>SVD</tspan></text></g></g></g><g><path d="M746.286 137.854v1.714h-3.428v-1.714zm-5.142 2.142a1.29 1.29 0 0 0 1.285 1.286h4.286a1.29 1.29 0 0 0 1.285-1.286v-4.285a1.29 1.29 0 0 0-1.285-1.285h-2.143v-1.714h-3.428zm3.428-8.998v-1.714h-3.428v1.714h3.428v1.714H748v-1.714zm0-1.714H748v-1.714h-3.428zm-3.428-1.714h3.428v-1.714H748v-1.714h-3.428v1.714h-3.428zm0-3.428h3.428v-1.714h-3.428zm3.428-3.428v1.714H748v-1.714zm-3.428 0h3.428V119h-3.428zm17.14 21.853a.434.434 0 0 1-.428.429h-19.712a.434.434 0 0 1-.428-.429v-23.139c0-.232.196-.428.428-.428h13.284v5.999c0 .473.384.857.857.857h6zm-2.963-20.605a23.376 23.376 0 0 1 1.944 2.18h-4.123v-4.123a23.366 23.366 0 0 1 2.18 1.943zm3.547 1.459c-.595-.812-1.424-1.76-2.335-2.67-.91-.911-1.859-1.74-2.67-2.335-1.381-1.013-2.051-1.13-2.435-1.13h-13.284a2.145 2.145 0 0 0-2.142 2.142v23.14c0 1.18.96 2.142 2.142 2.142h19.712a2.145 2.145 0 0 0 2.142-2.143v-16.711c0-.384-.117-1.054-1.13-2.435z"/></g><g><g><path d="M802.284 142.571a.434.434 0 0 1-.429.429h-19.714a.434.434 0 0 1-.429-.429V119.43c0-.233.197-.429.429-.429h13.286v6c0 .473.383.857.857.857h6zm-2.963-20.608a23.38 23.38 0 0 1 1.944 2.18h-4.124v-4.124a23.356 23.356 0 0 1 2.18 1.944zm3.547 1.459c-.595-.812-1.425-1.76-2.335-2.671-.911-.91-1.86-1.74-2.671-2.335-1.381-1.013-2.052-1.13-2.435-1.13H782.14a2.145 2.145 0 0 0-2.143 2.143v23.142c0 1.182.961 2.143 2.143 2.143h19.714a2.145 2.145 0 0 0 2.143-2.143v-16.714c0-.384-.117-1.054-1.13-2.435z"/></g><g><g><text dominant-baseline="text-before-edge" style="font-kerning:normal" font-family="'Montserrat','Montserrat-Bold'" font-size="9" font-style="none" font-weight="700" transform="translate(781 125)"><tspan>SVD</tspan></text></g></g></g><g><path d="M746.286 176.854v1.714h-3.428v-1.714zm-5.142 2.142a1.29 1.29 0 0 0 1.285 1.286h4.286a1.29 1.29 0 0 0 1.285-1.286v-4.285a1.29 1.29 0 0 0-1.285-1.285h-2.143v-1.714h-3.428zm3.428-8.998v-1.714h-3.428v1.714h3.428v1.714H748v-1.714zm0-1.714H748v-1.714h-3.428zm-3.428-1.714h3.428v-1.714H748v-1.714h-3.428v1.714h-3.428zm0-3.428h3.428v-1.714h-3.428zm3.428-3.428v1.714H748v-1.714zm-3.428 0h3.428V158h-3.428zm17.14 21.853a.434.434 0 0 1-.428.429h-19.712a.434.434 0 0 1-.428-.429v-23.139c0-.232.196-.428.428-.428h13.284v5.999c0 .473.384.857.857.857h6zm-2.963-20.605a23.376 23.376 0 0 1 1.944 2.18h-4.123v-4.123a23.366 23.366 0 0 1 2.18 1.943zm3.547 1.459c-.595-.812-1.424-1.76-2.335-2.67-.91-.911-1.859-1.74-2.67-2.335-1.381-1.013-2.051-1.13-2.435-1.13h-13.284a2.145 2.145 0 0 0-2.142 2.142v23.14c0 1.18.96 2.142 2.142 2.142h19.712a2.145 2.145 0 0 0 2.142-2.143v-16.711c0-.384-.117-1.054-1.13-2.435z"/></g><g><g><path d="M802.284 181.571a.434.434 0 0 1-.429.429h-19.714a.434.434 0 0 1-.429-.429V158.43c0-.233.197-.429.429-.429h13.286v6c0 .473.383.857.857.857h6zm-2.963-20.608a23.38 23.38 0 0 1 1.944 2.18h-4.124v-4.124a23.356 23.356 0 0 1 2.18 1.944zm3.547 1.459c-.595-.812-1.425-1.76-2.335-2.671-.911-.91-1.86-1.74-2.671-2.335-1.381-1.013-2.052-1.13-2.435-1.13H782.14a2.145 2.145 0 0 0-2.143 2.143v23.142c0 1.182.961 2.143 2.143 2.143h19.714a2.145 2.145 0 0 0 2.143-2.143v-16.714c0-.384-.117-1.054-1.13-2.435z"/></g><g><g><text dominant-baseline="text-before-edge" style="font-kerning:normal" font-family="'Montserrat','Montserrat-Bold'" font-size="9" font-style="none" font-weight="700" transform="translate(781 164)"><tspan>SVD</tspan></text></g></g></g><g><path d="M746.286 215.854v1.714h-3.428v-1.714zm-5.142 2.142a1.29 1.29 0 0 0 1.285 1.286h4.286a1.29 1.29 0 0 0 1.285-1.286v-4.285a1.29 1.29 0 0 0-1.285-1.285h-2.143v-1.714h-3.428zm3.428-8.998v-1.714h-3.428v1.714h3.428v1.714H748v-1.714zm0-1.714H748v-1.714h-3.428zm-3.428-1.714h3.428v-1.714H748v-1.714h-3.428v1.714h-3.428zm0-3.428h3.428v-1.714h-3.428zm3.428-3.428v1.714H748v-1.714zm-3.428 0h3.428V197h-3.428zm17.14 21.853a.434.434 0 0 1-.428.429h-19.712a.434.434 0 0 1-.428-.429v-23.139c0-.232.196-.428.428-.428h13.284v5.999c0 .473.384.857.857.857h6zm-2.963-20.605a23.376 23.376 0 0 1 1.944 2.18h-4.123v-4.123a23.366 23.366 0 0 1 2.18 1.943zm3.547 1.459c-.595-.812-1.424-1.76-2.335-2.67-.91-.911-1.859-1.74-2.67-2.335-1.381-1.013-2.051-1.13-2.435-1.13h-13.284a2.145 2.145 0 0 0-2.142 2.142v23.14c0 1.18.96 2.142 2.142 2.142h19.712a2.145 2.145 0 0 0 2.142-2.143v-16.711c0-.384-.117-1.054-1.13-2.435z"/></g><g><g><path d="M802.284 220.571a.434.434 0 0 1-.429.429h-19.714a.434.434 0 0 1-.429-.429V197.43c0-.233.197-.429.429-.429h13.286v6c0 .473.383.857.857.857h6zm-2.963-20.608a23.38 23.38 0 0 1 1.944 2.18h-4.124v-4.124a23.356 23.356 0 0 1 2.18 1.944zm3.547 1.459c-.595-.812-1.425-1.76-2.335-2.671-.911-.91-1.86-1.74-2.671-2.335-1.381-1.013-2.052-1.13-2.435-1.13H782.14a2.145 2.145 0 0 0-2.143 2.143v23.142c0 1.182.961 2.143 2.143 2.143h19.714a2.145 2.145 0 0 0 2.143-2.143v-16.714c0-.384-.117-1.054-1.13-2.435z"/></g><g><g><text dominant-baseline="text-before-edge" style="font-kerning:normal" font-family="'Montserrat','Montserrat-Bold'" font-size="9" font-style="none" font-weight="700" transform="translate(781 203)"><tspan>SVD</tspan></text></g></g></g><g><path d="M746.286 332.854v1.714h-3.428v-1.714zm-5.142 2.142a1.29 1.29 0 0 0 1.285 1.286h4.286a1.29 1.29 0 0 0 1.285-1.286v-4.285a1.29 1.29 0 0 0-1.285-1.285h-2.143v-1.714h-3.428zm3.428-8.998v-1.714h-3.428v1.714h3.428v1.714H748v-1.714zm0-1.714H748v-1.714h-3.428zm-3.428-1.714h3.428v-1.714H748v-1.714h-3.428v1.714h-3.428zm0-3.428h3.428v-1.714h-3.428zm3.428-3.428v1.714H748v-1.714zm-3.428 0h3.428V314h-3.428zm17.14 21.853a.434.434 0 0 1-.428.429h-19.712a.434.434 0 0 1-.428-.429v-23.139c0-.232.196-.428.428-.428h13.284v5.999c0 .473.384.857.857.857h6zm-2.963-20.605a23.376 23.376 0 0 1 1.944 2.18h-4.123v-4.123a23.366 23.366 0 0 1 2.18 1.943zm3.547 1.459c-.595-.812-1.424-1.76-2.335-2.67-.91-.911-1.859-1.74-2.67-2.335-1.381-1.013-2.051-1.13-2.435-1.13h-13.284a2.145 2.145 0 0 0-2.142 2.142v23.14c0 1.18.96 2.142 2.142 2.142h19.712a2.145 2.145 0 0 0 2.142-2.143v-16.711c0-.384-.117-1.054-1.13-2.435z"/></g><g><g><path d="M802.284 337.571a.434.434 0 0 1-.429.429h-19.714a.434.434 0 0 1-.429-.429V314.43c0-.233.197-.429.429-.429h13.286v6c0 .473.383.857.857.857h6zm-2.963-20.608a23.38 23.38 0 0 1 1.944 2.18h-4.124v-4.124a23.356 23.356 0 0 1 2.18 1.944zm3.547 1.459c-.595-.812-1.425-1.76-2.335-2.671-.911-.91-1.86-1.74-2.671-2.335-1.381-1.013-2.052-1.13-2.435-1.13H782.14a2.145 2.145 0 0 0-2.143 2.143v23.142c0 1.182.961 2.143 2.143 2.143h19.714a2.145 2.145 0 0 0 2.143-2.143v-16.714c0-.384-.117-1.054-1.13-2.435z"/></g><g><g><text dominant-baseline="text-before-edge" style="font-kerning:normal" font-family="'Montserrat','Montserrat-Bold'" font-size="9" font-style="none" font-weight="700" transform="translate(781 320)"><tspan>SVD</tspan></text></g></g></g><g><path d="M746.286 371.854v1.714h-3.428v-1.714zm-5.142 2.142a1.29 1.29 0 0 0 1.285 1.286h4.286a1.29 1.29 0 0 0 1.285-1.286v-4.285a1.29 1.29 0 0 0-1.285-1.285h-2.143v-1.714h-3.428zm3.428-8.998v-1.714h-3.428v1.714h3.428v1.714H748v-1.714zm0-1.714H748v-1.714h-3.428zm-3.428-1.714h3.428v-1.714H748v-1.714h-3.428v1.714h-3.428zm0-3.428h3.428v-1.714h-3.428zm3.428-3.428v1.714H748v-1.714zm-3.428 0h3.428V353h-3.428zm17.14 21.853a.434.434 0 0 1-.428.429h-19.712a.434.434 0 0 1-.428-.429v-23.139c0-.232.196-.428.428-.428h13.284v5.999c0 .473.384.857.857.857h6zm-2.963-20.605a23.376 23.376 0 0 1 1.944 2.18h-4.123v-4.123a23.366 23.366 0 0 1 2.18 1.943zm3.547 1.459c-.595-.812-1.424-1.76-2.335-2.67-.91-.911-1.859-1.74-2.67-2.335-1.381-1.013-2.051-1.13-2.435-1.13h-13.284a2.145 2.145 0 0 0-2.142 2.142v23.14c0 1.18.96 2.142 2.142 2.142h19.712a2.145 2.145 0 0 0 2.142-2.143v-16.711c0-.384-.117-1.054-1.13-2.435z"/></g><g><g><path d="M802.284 376.571a.434.434 0 0 1-.429.429h-19.714a.434.434 0 0 1-.429-.429V353.43c0-.233.197-.429.429-.429h13.286v6c0 .473.383.857.857.857h6zm-2.963-20.608a23.38 23.38 0 0 1 1.944 2.18h-4.124v-4.124a23.356 23.356 0 0 1 2.18 1.944zm3.547 1.459c-.595-.812-1.425-1.76-2.335-2.671-.911-.91-1.86-1.74-2.671-2.335-1.381-1.013-2.052-1.13-2.435-1.13H782.14a2.145 2.145 0 0 0-2.143 2.143v23.142c0 1.182.961 2.143 2.143 2.143h19.714a2.145 2.145 0 0 0 2.143-2.143v-16.714c0-.384-.117-1.054-1.13-2.435z"/></g><g><g><text dominant-baseline="text-before-edge" style="font-kerning:normal" font-family="'Montserrat','Montserrat-Bold'" font-size="9" font-style="none" font-weight="700" transform="translate(781 359)"><tspan>SVD</tspan></text></g></g></g><g><path d="M746.286 410.854v1.714h-3.428v-1.714zm-5.142 2.142a1.29 1.29 0 0 0 1.285 1.286h4.286a1.29 1.29 0 0 0 1.285-1.286v-4.285a1.29 1.29 0 0 0-1.285-1.285h-2.143v-1.714h-3.428zm3.428-8.998v-1.714h-3.428v1.714h3.428v1.714H748v-1.714zm0-1.714H748v-1.714h-3.428zm-3.428-1.714h3.428v-1.714H748v-1.714h-3.428v1.714h-3.428zm0-3.428h3.428v-1.714h-3.428zm3.428-3.428v1.714H748v-1.714zm-3.428 0h3.428V392h-3.428zm17.14 21.853a.434.434 0 0 1-.428.429h-19.712a.434.434 0 0 1-.428-.429v-23.139c0-.232.196-.428.428-.428h13.284v5.999c0 .473.384.857.857.857h6zm-2.963-20.605a23.376 23.376 0 0 1 1.944 2.18h-4.123v-4.123a23.366 23.366 0 0 1 2.18 1.943zm3.547 1.459c-.595-.812-1.424-1.76-2.335-2.67-.91-.911-1.859-1.74-2.67-2.335-1.381-1.013-2.051-1.13-2.435-1.13h-13.284a2.145 2.145 0 0 0-2.142 2.142v23.14c0 1.18.96 2.142 2.142 2.142h19.712a2.145 2.145 0 0 0 2.142-2.143v-16.711c0-.384-.117-1.054-1.13-2.435z"/></g><g><g><path d="M802.284 415.571a.434.434 0 0 1-.429.429h-19.714a.434.434 0 0 1-.429-.429V392.43c0-.233.197-.429.429-.429h13.286v6c0 .473.383.857.857.857h6zm-2.963-20.608a23.38 23.38 0 0 1 1.944 2.18h-4.124v-4.124a23.356 23.356 0 0 1 2.18 1.944zm3.547 1.459c-.595-.812-1.425-1.76-2.335-2.671-.911-.91-1.86-1.74-2.671-2.335-1.381-1.013-2.052-1.13-2.435-1.13H782.14a2.145 2.145 0 0 0-2.143 2.143v23.142c0 1.182.961 2.143 2.143 2.143h19.714a2.145 2.145 0 0 0 2.143-2.143v-16.714c0-.384-.117-1.054-1.13-2.435z"/></g><g><g><text dominant-baseline="text-before-edge" style="font-kerning:normal" font-family="'Montserrat','Montserrat-Bold'" font-size="9" font-style="none" font-weight="700" transform="translate(781 398)"><tspan>SVD</tspan></text></g></g></g><g><path d="M746.286 449.854v1.714h-3.428v-1.714zm-5.142 2.142a1.29 1.29 0 0 0 1.285 1.286h4.286a1.29 1.29 0 0 0 1.285-1.286v-4.285a1.29 1.29 0 0 0-1.285-1.285h-2.143v-1.714h-3.428zm3.428-8.998v-1.714h-3.428v1.714h3.428v1.714H748v-1.714zm0-1.714H748v-1.714h-3.428zm-3.428-1.714h3.428v-1.714H748v-1.714h-3.428v1.714h-3.428zm0-3.428h3.428v-1.714h-3.428zm3.428-3.428v1.714H748v-1.714zm-3.428 0h3.428V431h-3.428zm17.14 21.853a.434.434 0 0 1-.428.429h-19.712a.434.434 0 0 1-.428-.429v-23.139c0-.232.196-.428.428-.428h13.284v5.999c0 .473.384.857.857.857h6zm-2.963-20.605a23.376 23.376 0 0 1 1.944 2.18h-4.123v-4.123a23.366 23.366 0 0 1 2.18 1.943zm3.547 1.459c-.595-.812-1.424-1.76-2.335-2.67-.91-.911-1.859-1.74-2.67-2.335-1.381-1.013-2.051-1.13-2.435-1.13h-13.284a2.145 2.145 0 0 0-2.142 2.142v23.14c0 1.18.96 2.142 2.142 2.142h19.712a2.145 2.145 0 0 0 2.142-2.143v-16.711c0-.384-.117-1.054-1.13-2.435z"/></g><g><g><path d="M802.284 454.571a.434.434 0 0 1-.429.429h-19.714a.434.434 0 0 1-.429-.429V431.43c0-.233.197-.429.429-.429h13.286v6c0 .473.383.857.857.857h6zm-2.963-20.608a23.38 23.38 0 0 1 1.944 2.18h-4.124v-4.124a23.356 23.356 0 0 1 2.18 1.944zm3.547 1.459c-.595-.812-1.425-1.76-2.335-2.671-.911-.91-1.86-1.74-2.671-2.335-1.381-1.013-2.052-1.13-2.435-1.13H782.14a2.145 2.145 0 0 0-2.143 2.143v23.142c0 1.182.961 2.143 2.143 2.143h19.714a2.145 2.145 0 0 0 2.143-2.143v-16.714c0-.384-.117-1.054-1.13-2.435z"/></g><g><g><text dominant-baseline="text-before-edge" style="font-kerning:normal" font-family="'Montserrat','Montserrat-Bold'" font-size="9" font-style="none" font-weight="700" transform="translate(781 437)"><tspan>SVD</tspan></text></g></g></g><g><path d="M746.286 488.854v1.714h-3.428v-1.714zm-5.142 2.142a1.29 1.29 0 0 0 1.285 1.286h4.286a1.29 1.29 0 0 0 1.285-1.286v-4.285a1.29 1.29 0 0 0-1.285-1.285h-2.143v-1.714h-3.428zm3.428-8.998v-1.714h-3.428v1.714h3.428v1.714H748v-1.714zm0-1.714H748v-1.714h-3.428zm-3.428-1.714h3.428v-1.714H748v-1.714h-3.428v1.714h-3.428zm0-3.428h3.428v-1.714h-3.428zm3.428-3.428v1.714H748v-1.714zm-3.428 0h3.428V470h-3.428zm17.14 21.853a.434.434 0 0 1-.428.429h-19.712a.434.434 0 0 1-.428-.429v-23.139c0-.232.196-.428.428-.428h13.284v5.999c0 .473.384.857.857.857h6zm-2.963-20.605a23.376 23.376 0 0 1 1.944 2.18h-4.123v-4.123a23.366 23.366 0 0 1 2.18 1.943zm3.547 1.459c-.595-.812-1.424-1.76-2.335-2.67-.91-.911-1.859-1.74-2.67-2.335-1.381-1.013-2.051-1.13-2.435-1.13h-13.284a2.145 2.145 0 0 0-2.142 2.142v23.14c0 1.18.96 2.142 2.142 2.142h19.712a2.145 2.145 0 0 0 2.142-2.143v-16.711c0-.384-.117-1.054-1.13-2.435z"/></g><g><g><path d="M802.284 493.571a.434.434 0 0 1-.429.429h-19.714a.434.434 0 0 1-.429-.429V470.43c0-.233.197-.429.429-.429h13.286v6c0 .473.383.857.857.857h6zm-2.963-20.608a23.38 23.38 0 0 1 1.944 2.18h-4.124v-4.124a23.356 23.356 0 0 1 2.18 1.944zm3.547 1.459c-.595-.812-1.425-1.76-2.335-2.671-.911-.91-1.86-1.74-2.671-2.335-1.381-1.013-2.052-1.13-2.435-1.13H782.14a2.145 2.145 0 0 0-2.143 2.143v23.142c0 1.182.961 2.143 2.143 2.143h19.714a2.145 2.145 0 0 0 2.143-2.143v-16.714c0-.384-.117-1.054-1.13-2.435z"/></g><g><g><text dominant-baseline="text-before-edge" style="font-kerning:normal" font-family="'Montserrat','Montserrat-Bold'" font-size="9" font-style="none" font-weight="700" transform="translate(781 476)"><tspan>SVD</tspan></text></g></g></g><g><path d="M746.286 566.854v1.714h-3.428v-1.714zm-5.142 2.142a1.29 1.29 0 0 0 1.285 1.286h4.286a1.29 1.29 0 0 0 1.285-1.286v-4.285a1.29 1.29 0 0 0-1.285-1.285h-2.143v-1.714h-3.428zm3.428-8.998v-1.714h-3.428v1.714h3.428v1.714H748v-1.714zm0-1.714H748v-1.714h-3.428zm-3.428-1.714h3.428v-1.714H748v-1.714h-3.428v1.714h-3.428zm0-3.428h3.428v-1.714h-3.428zm3.428-3.428v1.714H748v-1.714zm-3.428 0h3.428V548h-3.428zm17.14 21.853a.434.434 0 0 1-.428.429h-19.712a.434.434 0 0 1-.428-.429v-23.139c0-.232.196-.428.428-.428h13.284v5.999c0 .473.384.857.857.857h6zm-2.963-20.605a23.376 23.376 0 0 1 1.944 2.18h-4.123v-4.123a23.366 23.366 0 0 1 2.18 1.943zm3.547 1.459c-.595-.812-1.424-1.76-2.335-2.67-.91-.911-1.859-1.74-2.67-2.335-1.381-1.013-2.051-1.13-2.435-1.13h-13.284a2.145 2.145 0 0 0-2.142 2.142v23.14c0 1.18.96 2.142 2.142 2.142h19.712a2.145 2.145 0 0 0 2.142-2.143v-16.711c0-.384-.117-1.054-1.13-2.435z"/></g><g><g><path d="M802.284 571.571a.434.434 0 0 1-.429.429h-19.714a.434.434 0 0 1-.429-.429V548.43c0-.233.197-.429.429-.429h13.286v6c0 .473.383.857.857.857h6zm-2.963-20.608a23.38 23.38 0 0 1 1.944 2.18h-4.124v-4.124a23.356 23.356 0 0 1 2.18 1.944zm3.547 1.459c-.595-.812-1.425-1.76-2.335-2.671-.911-.91-1.86-1.74-2.671-2.335-1.381-1.013-2.052-1.13-2.435-1.13H782.14a2.145 2.145 0 0 0-2.143 2.143v23.142c0 1.182.961 2.143 2.143 2.143h19.714a2.145 2.145 0 0 0 2.143-2.143v-16.714c0-.384-.117-1.054-1.13-2.435z"/></g><g><g><text dominant-baseline="text-before-edge" style="font-kerning:normal" font-family="'Montserrat','Montserrat-Bold'" font-size="9" font-style="none" font-weight="700" transform="translate(781 554)"><tspan>SVD</tspan></text></g></g></g><g><path fill="#63bf67" d="M911 26c-6.627 0-12-5.373-12-12s5.373-12 12-12h72c6.627 0 12 5.373 12 12s-5.373 12-12 12z"/><path fill="none" stroke="#fff" stroke-miterlimit="20" stroke-opacity=".25" stroke-width="2" d="M911 26c-6.627 0-12-5.373-12-12v0c0-6.627 5.373-12 12-12h72c6.627 0 12 5.373 12 12v0c0 6.627-5.373 12-12 12z" clip-path="url(&quot;#uowgaf&quot;)"/></g><g><path fill="#63bf67" d="M911 65c-6.627 0-12-5.373-12-12s5.373-12 12-12h72c6.627 0 12 5.373 12 12s-5.373 12-12 12z"/><path fill="none" stroke="#fff" stroke-miterlimit="20" stroke-opacity=".25" stroke-width="2" d="M911 65c-6.627 0-12-5.373-12-12v0c0-6.627 5.373-12 12-12h72c6.627 0 12 5.373 12 12v0c0 6.627-5.373 12-12 12z" clip-path="url(&quot;#uowgag&quot;)"/></g><g><path fill="#63bf67" d="M911 143c-6.627 0-12-5.373-12-12s5.373-12 12-12h72c6.627 0 12 5.373 12 12s-5.373 12-12 12z"/><path fill="none" stroke="#fff" stroke-miterlimit="20" stroke-opacity=".25" stroke-width="2" d="M911 143c-6.627 0-12-5.373-12-12v0c0-6.627 5.373-12 12-12h72c6.627 0 12 5.373 12 12v0c0 6.627-5.373 12-12 12z" clip-path="url(&quot;#uowgah&quot;)"/></g><g><path fill="#63bf67" d="M911 104c-6.627 0-12-5.373-12-12s5.373-12 12-12h72c6.627 0 12 5.373 12 12s-5.373 12-12 12z"/><path fill="none" stroke="#fff" stroke-miterlimit="20" stroke-opacity=".25" stroke-width="2" d="M911 104c-6.627 0-12-5.373-12-12v0c0-6.627 5.373-12 12-12h72c6.627 0 12 5.373 12 12v0c0 6.627-5.373 12-12 12z" clip-path="url(&quot;#uowgai&quot;)"/></g><g><path fill="#63bf67" d="M911 494c-6.627 0-12-5.373-12-12s5.373-12 12-12h72c6.627 0 12 5.373 12 12s-5.373 12-12 12z"/><path fill="none" stroke="#fff" stroke-miterlimit="20" stroke-opacity=".25" stroke-width="2" d="M911 494c-6.627 0-12-5.373-12-12v0c0-6.627 5.373-12 12-12h72c6.627 0 12 5.373 12 12v0c0 6.627-5.373 12-12 12z" clip-path="url(&quot;#uowgaj&quot;)"/></g><g><path fill="#efeeed" d="M1099 26c-6.627 0-12-5.373-12-12s5.373-12 12-12h72c6.627 0 12 5.373 12 12s-5.373 12-12 12z"/><path fill="none" stroke="#fff" stroke-miterlimit="20" stroke-opacity=".25" stroke-width="2" d="M1099 26c-6.627 0-12-5.373-12-12v0c0-6.627 5.373-12 12-12h72c6.627 0 12 5.373 12 12v0c0 6.627-5.373 12-12 12z" clip-path="url(&quot;#uowgak&quot;)"/></g><g><path fill="#efeeed" d="M1099 65c-6.627 0-12-5.373-12-12s5.373-12 12-12h72c6.627 0 12 5.373 12 12s-5.373 12-12 12z"/><path fill="none" stroke="#fff" stroke-miterlimit="20" stroke-opacity=".25" stroke-width="2" d="M1099 65c-6.627 0-12-5.373-12-12v0c0-6.627 5.373-12 12-12h72c6.627 0 12 5.373 12 12v0c0 6.627-5.373 12-12 12z" clip-path="url(&quot;#uowgal&quot;)"/></g><g><path fill="#efeeed" d="M1099 104c-6.627 0-12-5.373-12-12s5.373-12 12-12h72c6.627 0 12 5.373 12 12s-5.373 12-12 12z"/><path fill="none" stroke="#fff" stroke-miterlimit="20" stroke-opacity=".25" stroke-width="2" d="M1099 104c-6.627 0-12-5.373-12-12v0c0-6.627 5.373-12 12-12h72c6.627 0 12 5.373 12 12v0c0 6.627-5.373 12-12 12z" clip-path="url(&quot;#uowgam&quot;)"/></g><g><path fill="#efeeed" d="M1099 143c-6.627 0-12-5.373-12-12s5.373-12 12-12h72c6.627 0 12 5.373 12 12s-5.373 12-12 12z"/><path fill="none" stroke="#fff" stroke-miterlimit="20" stroke-opacity=".25" stroke-width="2" d="M1099 143c-6.627 0-12-5.373-12-12v0c0-6.627 5.373-12 12-12h72c6.627 0 12 5.373 12 12v0c0 6.627-5.373 12-12 12z" clip-path="url(&quot;#uowgan&quot;)"/></g><g><path fill="#efeeed" d="M1099 377c-6.627 0-12-5.373-12-12s5.373-12 12-12h72c6.627 0 12 5.373 12 12s-5.373 12-12 12z"/><path fill="none" stroke="#fff" stroke-miterlimit="20" stroke-opacity=".25" stroke-width="2" d="M1099 377c-6.627 0-12-5.373-12-12v0c0-6.627 5.373-12 12-12h72c6.627 0 12 5.373 12 12v0c0 6.627-5.373 12-12 12z" clip-path="url(&quot;#uowgao&quot;)"/></g><g><path fill="#efeeed" d="M1099 494c-6.627 0-12-5.373-12-12s5.373-12 12-12h72c6.627 0 12 5.373 12 12s-5.373 12-12 12z"/><path fill="none" stroke="#fff" stroke-miterlimit="20" stroke-opacity=".25" stroke-width="2" d="M1099 494c-6.627 0-12-5.373-12-12v0c0-6.627 5.373-12 12-12h72c6.627 0 12 5.373 12 12v0c0 6.627-5.373 12-12 12z" clip-path="url(&quot;#uowgap&quot;)"/></g><g><path d="M1419.855 14.853a.857.857 0 0 0-.857-.857h-12a.857.857 0 0 0 0 1.714h12a.857.857 0 0 0 .857-.857zm0 3.428a.857.857 0 0 0-.857-.857h-12a.857.857 0 0 0 0 1.715h12a.857.857 0 0 0 .857-.858zm0 3.43a.857.857 0 0 0-.857-.858h-12a.857.857 0 0 0 0 1.714h12a.857.857 0 0 0 .857-.857zm3.429 3.856a.434.434 0 0 1-.429.429h-19.714a.434.434 0 0 1-.429-.429V2.424c0-.232.197-.428.429-.428h13.286v6c0 .473.383.857.857.857h6zM1420.32 4.96a23.38 23.38 0 0 1 1.944 2.18h-4.124V3.015a23.356 23.356 0 0 1 2.18 1.944zm3.547 1.458c-.595-.81-1.425-1.76-2.335-2.67-.911-.911-1.86-1.74-2.671-2.335-1.381-1.013-2.052-1.13-2.435-1.13h-13.286a2.145 2.145 0 0 0-2.143 2.142v23.143c0 1.182.961 2.143 2.143 2.143h19.714a2.145 2.145 0 0 0 2.143-2.143V8.853c0-.384-.117-1.054-1.13-2.436z"/></g><g><path d="M1323.286 20.854v1.714h-3.428v-1.714zm-5.142 2.142a1.29 1.29 0 0 0 1.285 1.286h4.286a1.29 1.29 0 0 0 1.285-1.286v-4.285a1.29 1.29 0 0 0-1.285-1.285h-2.143v-1.714h-3.428zm3.428-8.998v-1.714h-3.428v1.714h3.428v1.714H1325v-1.714zm0-1.714H1325V10.57h-3.428zm-3.428-1.714h3.428V8.856H1325V7.142h-3.428v1.714h-3.428zm0-3.428h3.428V5.428h-3.428zm3.428-3.428v1.714H1325V3.714zm-3.428 0h3.428V2h-3.428zm17.14 21.853a.434.434 0 0 1-.428.429h-19.712a.434.434 0 0 1-.428-.429V2.428c0-.232.196-.428.428-.428h13.284v5.999c0 .473.384.857.857.857h6zm-2.963-20.605a23.376 23.376 0 0 1 1.944 2.18h-4.123V3.019a23.366 23.366 0 0 1 2.18 1.943zm3.547 1.459c-.595-.812-1.424-1.76-2.335-2.67-.91-.911-1.859-1.74-2.67-2.335-1.381-1.013-2.051-1.13-2.435-1.13h-13.284a2.145 2.145 0 0 0-2.142 2.142v23.14c0 1.18.96 2.142 2.142 2.142h19.712a2.145 2.145 0 0 0 2.142-2.143V8.856c0-.384-.117-1.054-1.13-2.435z"/></g><g><g><path d="M1379.284 25.571a.434.434 0 0 1-.429.429h-19.714a.434.434 0 0 1-.429-.429V2.43c0-.233.197-.429.429-.429h13.286v6c0 .473.383.857.857.857h6zm-2.963-20.608a23.38 23.38 0 0 1 1.944 2.18h-4.124V3.019a23.356 23.356 0 0 1 2.18 1.944zm3.547 1.459c-.595-.812-1.425-1.76-2.335-2.671-.911-.91-1.86-1.74-2.671-2.335-1.381-1.013-2.052-1.13-2.435-1.13h-13.286a2.145 2.145 0 0 0-2.143 2.143V25.57c0 1.182.961 2.143 2.143 2.143h19.714a2.145 2.145 0 0 0 2.143-2.143V8.857c0-.384-.117-1.054-1.13-2.435z"/></g><g><g><text dominant-baseline="text-before-edge" style="font-kerning:normal" font-family="'Montserrat','Montserrat-Bold'" font-size="9" font-style="none" font-weight="700" transform="translate(1358 8)"><tspan>SVD</tspan></text></g></g></g><g><path d="M1323.286 59.854v1.714h-3.428v-1.714zm-5.142 2.142a1.29 1.29 0 0 0 1.285 1.286h4.286a1.29 1.29 0 0 0 1.285-1.286v-4.285a1.29 1.29 0 0 0-1.285-1.285h-2.143v-1.714h-3.428zm3.428-8.998v-1.714h-3.428v1.714h3.428v1.714H1325v-1.714zm0-1.714H1325V49.57h-3.428zm-3.428-1.714h3.428v-1.714H1325v-1.714h-3.428v1.714h-3.428zm0-3.428h3.428v-1.714h-3.428zm3.428-3.428v1.714H1325v-1.714zm-3.428 0h3.428V41h-3.428zm17.14 21.853a.434.434 0 0 1-.428.429h-19.712a.434.434 0 0 1-.428-.429V41.428c0-.232.196-.428.428-.428h13.284v5.999c0 .473.384.857.857.857h6zm-2.963-20.605a23.376 23.376 0 0 1 1.944 2.18h-4.123v-4.123a23.366 23.366 0 0 1 2.18 1.943zm3.547 1.459c-.595-.812-1.424-1.76-2.335-2.67-.91-.911-1.859-1.74-2.67-2.335-1.381-1.013-2.051-1.13-2.435-1.13h-13.284a2.145 2.145 0 0 0-2.142 2.142v23.14c0 1.18.96 2.142 2.142 2.142h19.712a2.145 2.145 0 0 0 2.142-2.143V47.856c0-.384-.117-1.054-1.13-2.435z"/></g><g><g><path d="M1379.284 64.571a.434.434 0 0 1-.429.429h-19.714a.434.434 0 0 1-.429-.429V41.43c0-.233.197-.429.429-.429h13.286v6c0 .473.383.857.857.857h6zm-2.963-20.608a23.38 23.38 0 0 1 1.944 2.18h-4.124v-4.124a23.356 23.356 0 0 1 2.18 1.944zm3.547 1.459c-.595-.812-1.425-1.76-2.335-2.671-.911-.91-1.86-1.74-2.671-2.335-1.381-1.013-2.052-1.13-2.435-1.13h-13.286a2.145 2.145 0 0 0-2.143 2.143V64.57c0 1.182.961 2.143 2.143 2.143h19.714a2.145 2.145 0 0 0 2.143-2.143V47.857c0-.384-.117-1.054-1.13-2.435z"/></g><g><g><text dominant-baseline="text-before-edge" style="font-kerning:normal" font-family="'Montserrat','Montserrat-Bold'" font-size="9" font-style="none" font-weight="700" transform="translate(1358 47)"><tspan>SVD</tspan></text></g></g></g><g><path d="M1323.286 137.854v1.714h-3.428v-1.714zm-5.142 2.142a1.29 1.29 0 0 0 1.285 1.286h4.286a1.29 1.29 0 0 0 1.285-1.286v-4.285a1.29 1.29 0 0 0-1.285-1.285h-2.143v-1.714h-3.428zm3.428-8.998v-1.714h-3.428v1.714h3.428v1.714H1325v-1.714zm0-1.714H1325v-1.714h-3.428zm-3.428-1.714h3.428v-1.714H1325v-1.714h-3.428v1.714h-3.428zm0-3.428h3.428v-1.714h-3.428zm3.428-3.428v1.714H1325v-1.714zm-3.428 0h3.428V119h-3.428zm17.14 21.853a.434.434 0 0 1-.428.429h-19.712a.434.434 0 0 1-.428-.429v-23.139c0-.232.196-.428.428-.428h13.284v5.999c0 .473.384.857.857.857h6zm-2.963-20.605a23.376 23.376 0 0 1 1.944 2.18h-4.123v-4.123a23.366 23.366 0 0 1 2.18 1.943zm3.547 1.459c-.595-.812-1.424-1.76-2.335-2.67-.91-.911-1.859-1.74-2.67-2.335-1.381-1.013-2.051-1.13-2.435-1.13h-13.284a2.145 2.145 0 0 0-2.142 2.142v23.14c0 1.18.96 2.142 2.142 2.142h19.712a2.145 2.145 0 0 0 2.142-2.143v-16.711c0-.384-.117-1.054-1.13-2.435z"/></g><g><g><path d="M1379.284 142.571a.434.434 0 0 1-.429.429h-19.714a.434.434 0 0 1-.429-.429V119.43c0-.233.197-.429.429-.429h13.286v6c0 .473.383.857.857.857h6zm-2.963-20.608a23.38 23.38 0 0 1 1.944 2.18h-4.124v-4.124a23.356 23.356 0 0 1 2.18 1.944zm3.547 1.459c-.595-.812-1.425-1.76-2.335-2.671-.911-.91-1.86-1.74-2.671-2.335-1.381-1.013-2.052-1.13-2.435-1.13h-13.286a2.145 2.145 0 0 0-2.143 2.143v23.142c0 1.182.961 2.143 2.143 2.143h19.714a2.145 2.145 0 0 0 2.143-2.143v-16.714c0-.384-.117-1.054-1.13-2.435z"/></g><g><g><text dominant-baseline="text-before-edge" style="font-kerning:normal" font-family="'Montserrat','Montserrat-Bold'" font-size="9" font-style="none" font-weight="700" transform="translate(1358 125)"><tspan>SVD</tspan></text></g></g></g><g><path d="M1323.286 488.854v1.714h-3.428v-1.714zm-5.142 2.142a1.29 1.29 0 0 0 1.285 1.286h4.286a1.29 1.29 0 0 0 1.285-1.286v-4.285a1.29 1.29 0 0 0-1.285-1.285h-2.143v-1.714h-3.428zm3.428-8.998v-1.714h-3.428v1.714h3.428v1.714H1325v-1.714zm0-1.714H1325v-1.714h-3.428zm-3.428-1.714h3.428v-1.714H1325v-1.714h-3.428v1.714h-3.428zm0-3.428h3.428v-1.714h-3.428zm3.428-3.428v1.714H1325v-1.714zm-3.428 0h3.428V470h-3.428zm17.14 21.853a.434.434 0 0 1-.428.429h-19.712a.434.434 0 0 1-.428-.429v-23.139c0-.232.196-.428.428-.428h13.284v5.999c0 .473.384.857.857.857h6zm-2.963-20.605a23.376 23.376 0 0 1 1.944 2.18h-4.123v-4.123a23.366 23.366 0 0 1 2.18 1.943zm3.547 1.459c-.595-.812-1.424-1.76-2.335-2.67-.91-.911-1.859-1.74-2.67-2.335-1.381-1.013-2.051-1.13-2.435-1.13h-13.284a2.145 2.145 0 0 0-2.142 2.142v23.14c0 1.18.96 2.142 2.142 2.142h19.712a2.145 2.145 0 0 0 2.142-2.143v-16.711c0-.384-.117-1.054-1.13-2.435z"/></g><g><g><path d="M1379.284 493.571a.434.434 0 0 1-.429.429h-19.714a.434.434 0 0 1-.429-.429V470.43c0-.233.197-.429.429-.429h13.286v6c0 .473.383.857.857.857h6zm-2.963-20.608a23.38 23.38 0 0 1 1.944 2.18h-4.124v-4.124a23.356 23.356 0 0 1 2.18 1.944zm3.547 1.459c-.595-.812-1.425-1.76-2.335-2.671-.911-.91-1.86-1.74-2.671-2.335-1.381-1.013-2.052-1.13-2.435-1.13h-13.286a2.145 2.145 0 0 0-2.143 2.143v23.142c0 1.182.961 2.143 2.143 2.143h19.714a2.145 2.145 0 0 0 2.143-2.143v-16.714c0-.384-.117-1.054-1.13-2.435z"/></g><g><g><text dominant-baseline="text-before-edge" style="font-kerning:normal" font-family="'Montserrat','Montserrat-Bold'" font-size="9" font-style="none" font-weight="700" transform="translate(1358 476)"><tspan>SVD</tspan></text></g></g></g><g><path d="M1419.855 53.853a.857.857 0 0 0-.857-.857h-12a.857.857 0 0 0 0 1.714h12a.857.857 0 0 0 .857-.857zm0 3.428a.857.857 0 0 0-.857-.857h-12a.857.857 0 0 0 0 1.715h12a.857.857 0 0 0 .857-.858zm0 3.429a.857.857 0 0 0-.857-.857h-12a.857.857 0 0 0 0 1.714h12a.857.857 0 0 0 .857-.857zm3.429 3.857a.434.434 0 0 1-.429.429h-19.714a.434.434 0 0 1-.429-.429V41.424c0-.232.197-.428.429-.428h13.286v6c0 .473.383.857.857.857h6zm-2.963-20.608a23.38 23.38 0 0 1 1.944 2.18h-4.124v-4.124a23.356 23.356 0 0 1 2.18 1.944zm3.547 1.458c-.595-.811-1.425-1.76-2.335-2.67-.911-.911-1.86-1.74-2.671-2.335-1.381-1.013-2.052-1.13-2.435-1.13h-13.286a2.145 2.145 0 0 0-2.143 2.142v23.143c0 1.182.961 2.143 2.143 2.143h19.714a2.145 2.145 0 0 0 2.143-2.143V47.853c0-.384-.117-1.054-1.13-2.436z"/></g><g><path d="M1419.855 131.853a.857.857 0 0 0-.857-.857h-12a.857.857 0 0 0 0 1.714h12a.857.857 0 0 0 .857-.857zm0 3.429a.857.857 0 0 0-.857-.858h-12a.857.857 0 0 0 0 1.715h12a.857.857 0 0 0 .857-.857zm0 3.428a.857.857 0 0 0-.857-.857h-12a.857.857 0 0 0 0 1.714h12a.857.857 0 0 0 .857-.857zm3.429 3.857a.434.434 0 0 1-.429.429h-19.714a.434.434 0 0 1-.429-.429v-23.143c0-.232.197-.428.429-.428h13.286v6c0 .473.383.857.857.857h6zm-2.963-20.608a23.38 23.38 0 0 1 1.944 2.18h-4.124v-4.124a23.356 23.356 0 0 1 2.18 1.944zm3.547 1.459c-.595-.812-1.425-1.76-2.335-2.671-.911-.911-1.86-1.74-2.671-2.335-1.381-1.013-2.052-1.13-2.435-1.13h-13.286a2.145 2.145 0 0 0-2.143 2.142v23.143c0 1.182.961 2.143 2.143 2.143h19.714a2.145 2.145 0 0 0 2.143-2.143v-16.714c0-.384-.117-1.054-1.13-2.435z"/></g><g><path d="M1419.855 482.853a.857.857 0 0 0-.857-.857h-12a.857.857 0 0 0 0 1.714h12a.857.857 0 0 0 .857-.857zm0 3.429a.857.857 0 0 0-.857-.858h-12a.857.857 0 0 0 0 1.715h12a.857.857 0 0 0 .857-.857zm0 3.428a.857.857 0 0 0-.857-.857h-12a.857.857 0 0 0 0 1.714h12a.857.857 0 0 0 .857-.857zm3.429 3.857a.434.434 0 0 1-.429.429h-19.714a.434.434 0 0 1-.429-.429v-23.143c0-.232.197-.428.429-.428h13.286v6c0 .473.383.857.857.857h6zm-2.963-20.608a23.38 23.38 0 0 1 1.944 2.18h-4.124v-4.124a23.356 23.356 0 0 1 2.18 1.944zm3.547 1.459c-.595-.812-1.425-1.76-2.335-2.671-.911-.911-1.86-1.74-2.671-2.335-1.381-1.013-2.052-1.13-2.435-1.13h-13.286a2.145 2.145 0 0 0-2.143 2.142v23.143c0 1.182.961 2.143 2.143 2.143h19.714a2.145 2.145 0 0 0 2.143-2.143v-16.714c0-.384-.117-1.054-1.13-2.435z"/></g><g><g><text dominant-baseline="text-before-edge" style="font-kerning:normal" font-family="'Montserrat','Montserrat-Bold'" font-size="10" font-style="none" font-weight="700" transform="translate(23 8)"><tspan>VI_AMON</tspan></text></g></g><g><g><text dominant-baseline="text-before-edge" style="font-kerning:normal" fill="#fff" font-family="'Montserrat','Montserrat-Bold'" font-size="14" font-style="none" font-weight="700" transform="translate(582 5)"><tspan>7</tspan></text></g></g><g><g><text dominant-baseline="text-before-edge" style="font-kerning:normal" fill="#fff" font-family="'Montserrat','Montserrat-Bold'" font-size="12" font-style="none" font-weight="700" transform="translate(218 6)"><tspan>9.0.0.0</tspan></text></g></g><g><g><text dominant-baseline="text-before-edge" style="font-kerning:normal" font-family="'Montserrat','Montserrat-Bold'" font-size="12" font-style="none" font-weight="700" transform="translate(381 6)"><tspan>28-01-2021</tspan></text></g></g><g><g><text dominant-baseline="text-before-edge" style="font-kerning:normal" fill="#fff" font-family="'Montserrat','Montserrat-Bold'" font-size="12" font-style="none" font-weight="700" transform="translate(925 6)"><tspan>9.0.0.0</tspan></text></g></g><g><g><text dominant-baseline="text-before-edge" style="font-kerning:normal" font-family="'Montserrat','Montserrat-Bold'" font-size="12" font-style="none" font-weight="700" transform="translate(1103 6)"><tspan>28-01-2021</tspan></text></g></g><g><g><text dominant-baseline="text-before-edge" style="font-kerning:normal" font-family="'Montserrat','Montserrat-Bold'" font-size="10" font-style="none" font-weight="700" transform="translate(28 46)"><tspan>VI_BCM</tspan></text></g></g><g><g><text dominant-baseline="text-before-edge" style="font-kerning:normal" fill="#fff" font-family="'Montserrat','Montserrat-Bold'" font-size="14" font-style="none" font-weight="700" transform="translate(577 44)"><tspan>76</tspan></text></g></g><g><g><text dominant-baseline="text-before-edge" style="font-kerning:normal" fill="#fff" font-family="'Montserrat','Montserrat-Bold'" font-size="12" font-style="none" font-weight="700" transform="translate(218 45)"><tspan>11.0.0.0</tspan></text></g></g><g><g><text dominant-baseline="text-before-edge" style="font-kerning:normal" font-family="'Montserrat','Montserrat-Bold'" font-size="12" font-style="none" font-weight="700" transform="translate(381 45)"><tspan>21-10-2020</tspan></text></g></g><g><g><text dominant-baseline="text-before-edge" style="font-kerning:normal" fill="#fff" font-family="'Montserrat','Montserrat-Bold'" font-size="12" font-style="none" font-weight="700" transform="translate(925 45)"><tspan>11.0.0.0</tspan></text></g></g><g><g><text dominant-baseline="text-before-edge" style="font-kerning:normal" font-family="'Montserrat','Montserrat-Bold'" font-size="12" font-style="none" font-weight="700" transform="translate(1103 45)"><tspan>21-10-2020</tspan></text></g></g><g><g><text dominant-baseline="text-before-edge" style="font-kerning:normal" fill="#fff" font-family="'Montserrat','Montserrat-Bold'" font-size="14" font-style="none" font-weight="700" transform="translate(582 83)"><tspan>7</tspan></text></g></g><g><g><text dominant-baseline="text-before-edge" style="font-kerning:normal" fill="#fff" font-family="'Montserrat','Montserrat-Bold'" font-size="12" font-style="none" font-weight="700" transform="translate(218 84)"><tspan>9.0.0.0</tspan></text></g></g><g><g><text dominant-baseline="text-before-edge" style="font-kerning:normal" font-family="'Montserrat','Montserrat-Bold'" font-size="12" font-style="none" font-weight="700" transform="translate(381 84)"><tspan>28-01-2021</tspan></text></g></g><g><g><text dominant-baseline="text-before-edge" style="font-kerning:normal" fill="#fff" font-family="'Montserrat','Montserrat-Bold'" font-size="12" font-style="none" font-weight="700" transform="translate(925 84)"><tspan>9.0.0.0</tspan></text></g></g><g><g><text dominant-baseline="text-before-edge" style="font-kerning:normal" font-family="'Montserrat','Montserrat-Bold'" font-size="12" font-style="none" font-weight="700" transform="translate(1103 84)"><tspan>28-01-2021</tspan></text></g></g><g><path d="M1323.286 98.854v1.714h-3.428v-1.714zm-5.142 2.142a1.29 1.29 0 0 0 1.285 1.286h4.285a1.29 1.29 0 0 0 1.286-1.286v-4.285a1.29 1.29 0 0 0-1.286-1.285h-2.142v-1.714h-3.428zm3.428-7.284H1325v-1.714h-3.428zm-3.428-1.714h3.428v-1.714h-3.428zm3.428-1.714H1325V88.57h-3.428zm-3.428-1.714h3.428v-1.714h-3.428zm3.428-1.714H1325v-1.714h-3.428zm-3.428-1.714h3.428v-1.714h-3.428zm3.428-1.714H1325v-1.714h-3.428zm-3.428-1.714h3.428V80h-3.428zm17.14 21.853a.434.434 0 0 1-.429.429h-19.71a.434.434 0 0 1-.43-.429V80.428c0-.232.197-.428.43-.428h13.283v5.999c0 .473.383.857.857.857h5.999zm-2.963-20.605a23.376 23.376 0 0 1 1.944 2.18h-4.123v-4.123a23.366 23.366 0 0 1 2.18 1.943zm3.547 1.459c-.595-.812-1.424-1.76-2.335-2.67-.91-.911-1.859-1.74-2.67-2.335-1.381-1.013-2.051-1.13-2.435-1.13h-13.284a2.145 2.145 0 0 0-2.142 2.142v23.14c0 1.18.96 2.142 2.142 2.142h19.711a2.145 2.145 0 0 0 2.143-2.143V86.856c0-.384-.117-1.054-1.13-2.435z"/></g><g><g><path d="M1379.284 103.571a.434.434 0 0 1-.429.429h-19.714a.434.434 0 0 1-.429-.429V80.43c0-.233.197-.429.429-.429h13.286v6c0 .473.383.857.857.857h6zm-2.963-20.608a23.38 23.38 0 0 1 1.944 2.18h-4.124v-4.124a23.356 23.356 0 0 1 2.18 1.944zm3.547 1.459c-.595-.812-1.425-1.76-2.335-2.671-.911-.91-1.86-1.74-2.671-2.335-1.381-1.013-2.052-1.13-2.435-1.13h-13.286a2.145 2.145 0 0 0-2.143 2.143v23.142c0 1.182.961 2.143 2.143 2.143h19.714a2.145 2.145 0 0 0 2.143-2.143V86.857c0-.384-.117-1.054-1.13-2.435z"/></g><g><g><text dominant-baseline="text-before-edge" style="font-kerning:normal" font-family="'Montserrat','Montserrat-Bold'" font-size="9" font-style="none" font-weight="700" transform="translate(1358 86)"><tspan>SVD</tspan></text></g></g></g><g><path d="M1419.855 92.853a.857.857 0 0 0-.857-.857h-12a.857.857 0 0 0 0 1.714h12a.857.857 0 0 0 .857-.857zm0 3.429a.857.857 0 0 0-.857-.858h-12a.857.857 0 0 0 0 1.715h12a.857.857 0 0 0 .857-.857zm0 3.428a.857.857 0 0 0-.857-.857h-12a.857.857 0 0 0 0 1.714h12a.857.857 0 0 0 .857-.857zm3.428 3.857a.434.434 0 0 1-.428.429h-19.714a.434.434 0 0 1-.429-.429V80.424c0-.232.196-.428.429-.428h13.285v6c0 .473.384.857.857.857h6zm-2.963-20.608a23.38 23.38 0 0 1 1.944 2.18h-4.123v-4.124a23.356 23.356 0 0 1 2.18 1.944zm3.548 1.459c-.595-.812-1.425-1.76-2.336-2.671-.91-.911-1.859-1.74-2.67-2.335-1.382-1.013-2.052-1.13-2.436-1.13h-13.285a2.145 2.145 0 0 0-2.143 2.142v23.143c0 1.182.961 2.143 2.143 2.143h19.714a2.145 2.145 0 0 0 2.143-2.143V86.853c0-.384-.117-1.054-1.13-2.435z"/></g><g><g><text dominant-baseline="text-before-edge" style="font-kerning:normal" font-family="'Montserrat','Montserrat-Bold'" font-size="10" font-style="none" font-weight="700" transform="translate(17 85)"><tspan>VI_BCR_GUI</tspan></text></g></g><g><g><text dominant-baseline="text-before-edge" style="font-kerning:normal" font-family="'Montserrat','Montserrat-Bold'" font-size="10" font-style="none" font-weight="700" transform="translate(31 124)"><tspan>VI_BPI</tspan></text></g></g><g><g><text dominant-baseline="text-before-edge" style="font-kerning:normal" fill="#fff" font-family="'Montserrat','Montserrat-Bold'" font-size="14" font-style="none" font-weight="700" transform="translate(578 122)"><tspan>14</tspan></text></g></g><g><g><text dominant-baseline="text-before-edge" style="font-kerning:normal" fill="#fff" font-family="'Montserrat','Montserrat-Bold'" font-size="12" font-style="none" font-weight="700" transform="translate(218 123)"><tspan>14.1.0.0</tspan></text></g></g><g><g><text dominant-baseline="text-before-edge" style="font-kerning:normal" font-family="'Montserrat','Montserrat-Bold'" font-size="12" font-style="none" font-weight="700" transform="translate(380 123)"><tspan>26-03-2021</tspan></text></g></g><g><g><text dominant-baseline="text-before-edge" style="font-kerning:normal" fill="#fff" font-family="'Montserrat','Montserrat-Bold'" font-size="12" font-style="none" font-weight="700" transform="translate(925 123)"><tspan>14.1.0.0</tspan></text></g></g><g><g><text dominant-baseline="text-before-edge" style="font-kerning:normal" font-family="'Montserrat','Montserrat-Bold'" font-size="12" font-style="none" font-weight="700" transform="translate(1102 123)"><tspan>26-03-2021</tspan></text></g></g><g><g><text dominant-baseline="text-before-edge" style="font-kerning:normal" font-family="'Montserrat','Montserrat-Bold'" font-size="10" font-style="none" font-weight="700" transform="translate(28 163)"><tspan>VI_BSIS</tspan></text></g></g><g><g><text dominant-baseline="text-before-edge" style="font-kerning:normal" fill="#fff" font-family="'Montserrat','Montserrat-Bold'" font-size="14" font-style="none" font-weight="700" transform="translate(577 161)"><tspan>76</tspan></text></g></g><g><g><text dominant-baseline="text-before-edge" style="font-kerning:normal" fill="#fff" font-family="'Montserrat','Montserrat-Bold'" font-size="12" font-style="none" font-weight="700" transform="translate(218 162)"><tspan>11.0.0.0</tspan></text></g></g><g><g><text dominant-baseline="text-before-edge" style="font-kerning:normal" font-family="'Montserrat','Montserrat-Bold'" font-size="12" font-style="none" font-weight="700" transform="translate(381 162)"><tspan>21-10-2020</tspan></text></g></g><g><g><text dominant-baseline="text-before-edge" style="font-kerning:normal" font-family="'Montserrat','Montserrat-Bold'" font-size="10" font-style="none" font-weight="700" transform="translate(25 202)"><tspan>VI_BSMS</tspan></text></g></g><g><g><text dominant-baseline="text-before-edge" style="font-kerning:normal" fill="#fff" font-family="'Montserrat','Montserrat-Bold'" font-size="14" font-style="none" font-weight="700" transform="translate(582 200)"><tspan>7</tspan></text></g></g><g><g><text dominant-baseline="text-before-edge" style="font-kerning:normal" fill="#fff" font-family="'Montserrat','Montserrat-Bold'" font-size="12" font-style="none" font-weight="700" transform="translate(218 201)"><tspan>9.0.0.0</tspan></text></g></g><g><g><text dominant-baseline="text-before-edge" style="font-kerning:normal" font-family="'Montserrat','Montserrat-Bold'" font-size="12" font-style="none" font-weight="700" transform="translate(381 201)"><tspan>28-01-2021</tspan></text></g></g><g><g><text dominant-baseline="text-before-edge" style="font-kerning:normal" font-family="'Montserrat','Montserrat-Bold'" font-size="10" font-style="none" font-weight="700" transform="translate(32 241)"><tspan>VI_CM</tspan></text></g></g><g><g><text dominant-baseline="text-before-edge" style="font-kerning:normal" fill="#fff" font-family="'Montserrat','Montserrat-Bold'" font-size="14" font-style="none" font-weight="700" transform="translate(578 239)"><tspan>14</tspan></text></g></g><g><g><text dominant-baseline="text-before-edge" style="font-kerning:normal" fill="#fff" font-family="'Montserrat','Montserrat-Bold'" font-size="12" font-style="none" font-weight="700" transform="translate(214 240)"><tspan>Planned</tspan></text></g></g><g><g><text dominant-baseline="text-before-edge" style="font-kerning:normal" font-family="'Montserrat','Montserrat-Bold'" font-size="10" font-style="none" font-weight="700" transform="translate(32 280)"><tspan>VI_DC</tspan></text></g></g><g><g><text dominant-baseline="text-before-edge" style="font-kerning:normal" fill="#fff" font-family="'Montserrat','Montserrat-Bold'" font-size="14" font-style="none" font-weight="700" transform="translate(578 278)"><tspan>14</tspan></text></g></g><g><g><text dominant-baseline="text-before-edge" style="font-kerning:normal" fill="#fff" font-family="'Montserrat','Montserrat-Bold'" font-size="12" font-style="none" font-weight="700" transform="translate(214 279)"><tspan>Planned</tspan></text></g></g><g><path fill="#63bf67" d="M911 377c-6.627 0-12-5.373-12-12s5.373-12 12-12h72c6.627 0 12 5.373 12 12s-5.373 12-12 12z"/><path fill="none" stroke="#fff" stroke-miterlimit="20" stroke-opacity=".25" stroke-width="2" d="M911 377c-6.627 0-12-5.373-12-12v0c0-6.627 5.373-12 12-12h72c6.627 0 12 5.373 12 12v0c0 6.627-5.373 12-12 12z" clip-path="url(&quot;#uowgaq&quot;)"/></g><g><g><text dominant-baseline="text-before-edge" style="font-kerning:normal" font-family="'Montserrat','Montserrat-Bold'" font-size="10" font-style="none" font-weight="700" transform="translate(30 319)"><tspan>VI_EAL</tspan></text></g></g><g><g><text dominant-baseline="text-before-edge" style="font-kerning:normal" fill="#fff" font-family="'Montserrat','Montserrat-Bold'" font-size="14" font-style="none" font-weight="700" transform="translate(582 317)"><tspan>7</tspan></text></g></g><g><g><text dominant-baseline="text-before-edge" style="font-kerning:normal" fill="#fff" font-family="'Montserrat','Montserrat-Bold'" font-size="12" font-style="none" font-weight="700" transform="translate(218 318)"><tspan>11.0.0.0</tspan></text></g></g><g><g><text dominant-baseline="text-before-edge" style="font-kerning:normal" font-family="'Montserrat','Montserrat-Bold'" font-size="12" font-style="none" font-weight="700" transform="translate(381 318)"><tspan>28-01-2021</tspan></text></g></g><g><path d="M1323.286 372.854v1.714h-3.428v-1.714zm-5.142 2.142a1.29 1.29 0 0 0 1.285 1.286h4.285a1.29 1.29 0 0 0 1.286-1.286v-4.285a1.29 1.29 0 0 0-1.286-1.285h-2.142v-1.714h-3.428zm3.428-7.284H1325v-1.714h-3.428zm-3.428-1.714h3.428v-1.714h-3.428zm3.428-1.714H1325v-1.714h-3.428zm-3.428-1.714h3.428v-1.714h-3.428zm3.428-1.714H1325v-1.714h-3.428zm-3.428-1.714h3.428v-1.714h-3.428zm3.428-1.714H1325v-1.714h-3.428zm-3.428-1.714h3.428V354h-3.428zm17.14 21.853a.434.434 0 0 1-.429.429h-19.71a.434.434 0 0 1-.43-.429v-23.139c0-.232.197-.428.43-.428h13.283v5.999c0 .473.383.857.857.857h5.999zm-2.963-20.605a23.376 23.376 0 0 1 1.944 2.18h-4.123v-4.123a23.366 23.366 0 0 1 2.18 1.943zm3.547 1.459c-.595-.812-1.424-1.76-2.335-2.67-.91-.911-1.859-1.74-2.67-2.335-1.381-1.013-2.051-1.13-2.435-1.13h-13.284a2.145 2.145 0 0 0-2.142 2.142v23.14c0 1.18.96 2.142 2.142 2.142h19.711a2.145 2.145 0 0 0 2.143-2.143v-16.711c0-.384-.117-1.054-1.13-2.435z"/></g><g><g><path d="M1379.284 377.571a.434.434 0 0 1-.429.429h-19.714a.434.434 0 0 1-.429-.429V354.43c0-.233.197-.429.429-.429h13.286v6c0 .473.383.857.857.857h6zm-2.963-20.608a23.38 23.38 0 0 1 1.944 2.18h-4.124v-4.124a23.356 23.356 0 0 1 2.18 1.944zm3.547 1.459c-.595-.812-1.425-1.76-2.335-2.671-.911-.91-1.86-1.74-2.671-2.335-1.381-1.013-2.052-1.13-2.435-1.13h-13.286a2.145 2.145 0 0 0-2.143 2.143v23.142c0 1.182.961 2.143 2.143 2.143h19.714a2.145 2.145 0 0 0 2.143-2.143v-16.714c0-.384-.117-1.054-1.13-2.435z"/></g><g><g><text dominant-baseline="text-before-edge" style="font-kerning:normal" font-family="'Montserrat','Montserrat-Bold'" font-size="9" font-style="none" font-weight="700" transform="translate(1358 360)"><tspan>SVD</tspan></text></g></g></g><g><path d="M1419.855 366.853a.857.857 0 0 0-.857-.857h-12a.857.857 0 0 0 0 1.714h12a.857.857 0 0 0 .857-.857zm0 3.429a.857.857 0 0 0-.857-.858h-12a.857.857 0 0 0 0 1.715h12a.857.857 0 0 0 .857-.857zm0 3.428a.857.857 0 0 0-.857-.857h-12a.857.857 0 0 0 0 1.714h12a.857.857 0 0 0 .857-.857zm3.428 3.857a.434.434 0 0 1-.428.429h-19.714a.434.434 0 0 1-.429-.429v-23.143c0-.232.196-.428.429-.428h13.285v6c0 .473.384.857.857.857h6zm-2.963-20.608a23.38 23.38 0 0 1 1.944 2.18h-4.123v-4.124a23.356 23.356 0 0 1 2.18 1.944zm3.548 1.459c-.595-.812-1.425-1.76-2.336-2.671-.91-.911-1.859-1.74-2.67-2.335-1.382-1.013-2.052-1.13-2.436-1.13h-13.285a2.145 2.145 0 0 0-2.143 2.142v23.143c0 1.182.961 2.143 2.143 2.143h19.714a2.145 2.145 0 0 0 2.143-2.143v-16.714c0-.384-.117-1.054-1.13-2.435z"/></g><g><g><text dominant-baseline="text-before-edge" style="font-kerning:normal" font-family="'Montserrat','Montserrat-Bold'" font-size="10" font-style="none" font-weight="700" transform="translate(3 358)"><tspan>VI_HLCSYS_SPEC</tspan></text></g></g><g><g><text dominant-baseline="text-before-edge" style="font-kerning:normal" font-family="'Montserrat','Montserrat-Bold'" font-size="12" font-style="none" font-weight="700" transform="translate(381 357)"><tspan>21-10-2020</tspan></text></g></g><g><g><text dominant-baseline="text-before-edge" style="font-kerning:normal" fill="#fff" font-family="'Montserrat','Montserrat-Bold'" font-size="14" font-style="none" font-weight="700" transform="translate(577 356)"><tspan>76</tspan></text></g></g><g><g><text dominant-baseline="text-before-edge" style="font-kerning:normal" fill="#fff" font-family="'Montserrat','Montserrat-Bold'" font-size="12" font-style="none" font-weight="700" transform="translate(925 357)"><tspan>11.0.0.0</tspan></text></g></g><g><g><text dominant-baseline="text-before-edge" style="font-kerning:normal" font-family="'Montserrat','Montserrat-Bold'" font-size="12" font-style="none" font-weight="700" transform="translate(1103 357)"><tspan>21-10-2020</tspan></text></g></g><g><g><text dominant-baseline="text-before-edge" style="font-kerning:normal" fill="#fff" font-family="'Montserrat','Montserrat-Bold'" font-size="12" font-style="none" font-weight="700" transform="translate(218 357)"><tspan>11.0.0.0</tspan></text></g></g><g><g><text dominant-baseline="text-before-edge" style="font-kerning:normal" font-family="'Montserrat','Montserrat-Bold'" font-size="10" font-style="none" font-weight="700" transform="translate(17 397)"><tspan>VI_HHT_GUI</tspan></text></g></g><g><g><text dominant-baseline="text-before-edge" style="font-kerning:normal" fill="#fff" font-family="'Montserrat','Montserrat-Bold'" font-size="14" font-style="none" font-weight="700" transform="translate(577 395)"><tspan>76</tspan></text></g></g><g><g><text dominant-baseline="text-before-edge" style="font-kerning:normal" fill="#fff" font-family="'Montserrat','Montserrat-Bold'" font-size="12" font-style="none" font-weight="700" transform="translate(218 396)"><tspan>11.0.0.0</tspan></text></g></g><g><g><text dominant-baseline="text-before-edge" style="font-kerning:normal" font-family="'Montserrat','Montserrat-Bold'" font-size="12" font-style="none" font-weight="700" transform="translate(381 396)"><tspan>21-10-2020</tspan></text></g></g><g><g><text dominant-baseline="text-before-edge" style="font-kerning:normal" font-family="'Montserrat','Montserrat-Bold'" font-size="10" font-style="none" font-weight="700" transform="translate(32 436)"><tspan>VI_LM</tspan></text></g></g><g><g><text dominant-baseline="text-before-edge" style="font-kerning:normal" fill="#fff" font-family="'Montserrat','Montserrat-Bold'" font-size="14" font-style="none" font-weight="700" transform="translate(582 434)"><tspan>7</tspan></text></g></g><g><g><text dominant-baseline="text-before-edge" style="font-kerning:normal" fill="#fff" font-family="'Montserrat','Montserrat-Bold'" font-size="12" font-style="none" font-weight="700" transform="translate(218 435)"><tspan>9.0.0.0</tspan></text></g></g><g><g><text dominant-baseline="text-before-edge" style="font-kerning:normal" font-family="'Montserrat','Montserrat-Bold'" font-size="12" font-style="none" font-weight="700" transform="translate(381 435)"><tspan>28-01-2021</tspan></text></g></g><g><g><text dominant-baseline="text-before-edge" style="font-kerning:normal" font-family="'Montserrat','Montserrat-Bold'" font-size="10" font-style="none" font-weight="700" transform="translate(28 475)"><tspan>VI_MCS</tspan></text></g></g><g><g><text dominant-baseline="text-before-edge" style="font-kerning:normal" fill="#fff" font-family="'Montserrat','Montserrat-Bold'" font-size="14" font-style="none" font-weight="700" transform="translate(578 473)"><tspan>14</tspan></text></g></g><g><g><text dominant-baseline="text-before-edge" style="font-kerning:normal" fill="#fff" font-family="'Montserrat','Montserrat-Bold'" font-size="12" font-style="none" font-weight="700" transform="translate(218 474)"><tspan>14.1.0.0</tspan></text></g></g><g><g><text dominant-baseline="text-before-edge" style="font-kerning:normal" font-family="'Montserrat','Montserrat-Bold'" font-size="12" font-style="none" font-weight="700" transform="translate(380 474)"><tspan>26-03-2021</tspan></text></g></g><g><g><text dominant-baseline="text-before-edge" style="font-kerning:normal" font-family="'Montserrat','Montserrat-Bold'" font-size="12" font-style="none" font-weight="700" transform="translate(1102 474)"><tspan>26-03-2021</tspan></text></g></g><g><g><path d="M1379.284 493.571a.434.434 0 0 1-.429.429h-19.714a.434.434 0 0 1-.429-.429V470.43c0-.233.197-.429.429-.429h13.286v6c0 .473.383.857.857.857h6zm-2.963-20.608a23.38 23.38 0 0 1 1.944 2.18h-4.124v-4.124a23.356 23.356 0 0 1 2.18 1.944zm3.547 1.459c-.595-.812-1.425-1.76-2.335-2.671-.911-.91-1.86-1.74-2.671-2.335-1.381-1.013-2.052-1.13-2.435-1.13h-13.286a2.145 2.145 0 0 0-2.143 2.143v23.142c0 1.182.961 2.143 2.143 2.143h19.714a2.145 2.145 0 0 0 2.143-2.143v-16.714c0-.384-.117-1.054-1.13-2.435z"/></g><g><g><text dominant-baseline="text-before-edge" style="font-kerning:normal" font-family="'Montserrat','Montserrat-Bold'" font-size="9" font-style="none" font-weight="700" transform="translate(1358 476)"><tspan>SVD</tspan></text></g></g></g><g><path d="M1419.855 482.853a.857.857 0 0 0-.857-.857h-12a.857.857 0 0 0 0 1.714h12a.857.857 0 0 0 .857-.857zm0 3.429a.857.857 0 0 0-.857-.858h-12a.857.857 0 0 0 0 1.715h12a.857.857 0 0 0 .857-.857zm0 3.428a.857.857 0 0 0-.857-.857h-12a.857.857 0 0 0 0 1.714h12a.857.857 0 0 0 .857-.857zm3.428 3.857a.434.434 0 0 1-.428.429h-19.714a.434.434 0 0 1-.429-.429v-23.143c0-.232.196-.428.429-.428h13.285v6c0 .473.384.857.857.857h6zm-2.963-20.608a23.38 23.38 0 0 1 1.944 2.18h-4.123v-4.124a23.356 23.356 0 0 1 2.18 1.944zm3.548 1.459c-.595-.812-1.425-1.76-2.336-2.671-.91-.911-1.859-1.74-2.67-2.335-1.382-1.013-2.052-1.13-2.436-1.13h-13.285a2.145 2.145 0 0 0-2.143 2.142v23.143c0 1.182.961 2.143 2.143 2.143h19.714a2.145 2.145 0 0 0 2.143-2.143v-16.714c0-.384-.117-1.054-1.13-2.435z"/></g><g><g><text dominant-baseline="text-before-edge" style="font-kerning:normal" fill="#fff" font-family="'Montserrat','Montserrat-Bold'" font-size="12" font-style="none" font-weight="700" transform="translate(925 474)"><tspan>11.0.0.0</tspan></text></g></g><g><g><text dominant-baseline="text-before-edge" style="font-kerning:normal" font-family="'Montserrat','Montserrat-Bold'" font-size="10" font-style="none" font-weight="700" transform="translate(29 514)"><tspan>VI_MTT</tspan></text></g></g><g><g><text dominant-baseline="text-before-edge" style="font-kerning:normal" fill="#fff" font-family="'Montserrat','Montserrat-Bold'" font-size="14" font-style="none" font-weight="700" transform="translate(582 512)"><tspan>7</tspan></text></g></g><g><g><text dominant-baseline="text-before-edge" style="font-kerning:normal" fill="#fff" font-family="'Montserrat','Montserrat-Bold'" font-size="12" font-style="none" font-weight="700" transform="translate(214 513)"><tspan>Planned</tspan></text></g></g><g><g><text dominant-baseline="text-before-edge" style="font-kerning:normal" font-family="'Montserrat','Montserrat-Bold'" font-size="10" font-style="none" font-weight="700" transform="translate(28 553)"><tspan>VI_ODB</tspan></text></g></g><g><g><text dominant-baseline="text-before-edge" style="font-kerning:normal" fill="#fff" font-family="'Montserrat','Montserrat-Bold'" font-size="14" font-style="none" font-weight="700" transform="translate(578 551)"><tspan>14</tspan></text></g></g><g><g><text dominant-baseline="text-before-edge" style="font-kerning:normal" fill="#fff" font-family="'Montserrat','Montserrat-Bold'" font-size="12" font-style="none" font-weight="700" transform="translate(218 552)"><tspan>9.0.0.0</tspan></text></g></g><g><g><text dominant-baseline="text-before-edge" style="font-kerning:normal" font-family="'Montserrat','Montserrat-Bold'" font-size="12" font-style="none" font-weight="700" transform="translate(381 552)"><tspan>28-01-2021</tspan></text></g></g></g></svg>