<svg xmlns="http://www.w3.org/2000/svg" width="29" height="29" viewBox="0 0 29 29"><g><g><path fill="#ec8a44" d="M28.74 14.63c0 7.938-6.432 14.37-14.37 14.37C6.432 29 0 22.568 0 14.63 0 6.692 6.432.26 14.37.26c7.938 0 14.37 6.432 14.37 14.37zM5.575 5.835a12.353 12.353 0 0 0-3.64 8.795c0 3.323 1.291 6.446 3.64 8.795a12.353 12.353 0 0 0 8.795 3.64c3.323 0 6.446-1.291 8.795-3.64a12.353 12.353 0 0 0 3.64-8.795c0-3.323-1.291-6.446-3.64-8.795a12.353 12.353 0 0 0-8.795-3.64z"/></g><g><path fill="#ec8a44" d="M14.047 22.02c.916 0 1.655-.693 1.655-1.586 0-.893-.74-1.585-1.655-1.585-.909 0-1.648.7-1.648 1.585 0 .893.732 1.586 1.648 1.586zM9.443 11.466h2.733c.062-1.14.9-1.894 2.063-1.894 1.147 0 2.071.7 2.071 1.655 0 .955-.547 1.448-1.848 2.225-1.393.816-1.947 1.801-1.816 3.387l.023.662h2.671v-.608c0-.985.454-1.555 1.794-2.332 1.424-.84 2.163-1.894 2.163-3.418 0-2.302-1.986-3.903-4.873-3.903-3.095 0-4.927 1.747-4.98 4.226z"/></g></g></svg>