<svg xmlns="http://www.w3.org/2000/svg" width="1304" height="21" viewBox="0 0 1304 21"><g><g><g><text dominant-baseline="text-before-edge" style="font-kerning:normal" font-family="'Montserrat','Montserrat-Bold'" font-size="16" font-style="none" font-weight="700" transform="translate(0 1)"><tspan>DELIVERY STATUS</tspan></text></g></g><g><g><text dominant-baseline="text-before-edge" style="font-kerning:normal" font-family="'Montserrat','Montserrat-Bold'" font-size="16" font-style="none" font-weight="700" transform="translate(216)"><tspan>DATE</tspan></text></g></g><g><g><text dominant-baseline="text-before-edge" style="font-kerning:normal" font-family="'Montserrat','Montserrat-Bold'" font-size="16" font-style="none" font-weight="700" transform="translate(371 1)"><tspan>OPEN BUGS</tspan></text></g></g><g><g><text dominant-baseline="text-before-edge" style="font-kerning:normal" font-family="'Montserrat','Montserrat-Bold'" font-size="16" font-style="none" font-weight="700" transform="translate(551 1)"><tspan>DOCUMENTS</tspan></text></g></g><g><g><text dominant-baseline="text-before-edge" style="font-kerning:normal" font-family="'Montserrat','Montserrat-Bold'" font-size="16" font-style="none" font-weight="700" transform="translate(732 1)"><tspan>LATEST M.R.</tspan></text></g></g><g><g><text dominant-baseline="text-before-edge" style="font-kerning:normal" font-family="'Montserrat','Montserrat-Bold'" font-size="16" font-style="none" font-weight="700" transform="translate(928)"><tspan>DATE M.R.</tspan></text></g></g><g><g><text dominant-baseline="text-before-edge" style="font-kerning:normal" font-family="'Montserrat','Montserrat-Bold'" font-size="16" font-style="none" font-weight="700" transform="translate(1062)"><tspan>MAINTENANCE DOCUMENTS</tspan></text></g></g><g><g><g/></g><g><g><path fill="#ec8a44" d="M167.997 11.739l-4.54-4.54a.814.814 0 0 0-1.286.085.9.9 0 0 0 .086 1.156l5.14 5.098a.814.814 0 0 0 1.2 0l5.14-5.098a.9.9 0 0 0 .085-1.156.814.814 0 0 0-1.285-.086z"/></g></g></g><g><g><g/></g><g><g><path fill="#ec8a44" d="M276.997 10.739l-4.54-4.54a.814.814 0 0 0-1.286.085.9.9 0 0 0 .086 1.156l5.14 5.098a.814.814 0 0 0 1.2 0l5.14-5.098a.9.9 0 0 0 .085-1.156.814.814 0 0 0-1.285-.086z"/></g></g></g><g><g><g/></g><g><g><path fill="#ec8a44" d="M487.997 11.739l-4.54-4.54a.814.814 0 0 0-1.286.085.9.9 0 0 0 .086 1.156l5.14 5.098a.814.814 0 0 0 1.2 0l5.14-5.098a.9.9 0 0 0 .085-1.156.814.814 0 0 0-1.285-.086z"/></g></g></g><g><g><g/></g><g><g><path fill="#ec8a44" d="M849.997 11.739l-4.54-4.54a.814.814 0 0 0-1.286.085.9.9 0 0 0 .086 1.156l5.14 5.098a.814.814 0 0 0 1.2 0l5.14-5.098a.9.9 0 0 0 .085-1.156.814.814 0 0 0-1.285-.086z"/></g></g></g><g><g><g/></g><g><g><path fill="#ec8a44" d="M1028.997 10.739l-4.54-4.54a.814.814 0 0 0-1.286.085.9.9 0 0 0 .086 1.156l5.14 5.098a.814.814 0 0 0 1.2 0l5.14-5.098a.9.9 0 0 0 .085-1.156.814.814 0 0 0-1.285-.086z"/></g></g></g></g></svg>