<?xml version="1.0" encoding="utf-8"?>
<!-- Generator: Adobe Illustrator 25.2.3, SVG Export Plug-In . SVG Version: 6.00 Build 0)  -->
<svg version="1.1" id="Layer_1" xmlns="http://www.w3.org/2000/svg" xmlns:xlink="http://www.w3.org/1999/xlink" x="0px" y="0px"
	 viewBox="0 0 2100 322" style="enable-background:new 0 0 2100 322;" xml:space="preserve">
<style type="text/css">
	.st0{fill:#010101;}
	.st1{fill:#020202;}
	.st2{fill:#EE7722;}
</style>
<g>
	<path class="st0" d="M1461.3,0.1c1.1,2,3.3,1,4.9,1.4c23.5,6.2,37.4,28.6,32.7,52.8c-10.6,54.8-21,109.6-31.5,164.4
		c-1.3,7-1.9,7.5-9.1,7.5c-15,0-30,0-44.9,0c-1.6,0-3.3,0-5.2,0c4.6-24,9.1-47.6,13.6-71.2c1-5,1.7-10.1,2.9-15.1
		c0.5-2.4-0.2-2.9-2.4-2.9c-13.8,0-27.6,0.1-41.5,0c-2.7,0-3.2,1.3-3.6,3.5c-4.9,25.9-9.9,51.8-14.8,77.6c-1.4,7.5-1.9,8-9.7,8
		c-15.1,0-30.3-0.1-45.4,0.1c-3.4,0-4.1-0.7-3.5-4.1c10.9-56.4,21.7-112.8,32.5-169.3c4.9-25.7,28.1-48,54-52
		c0.8-0.1,1.7,0.1,2.1-0.9C1415.3,0.1,1438.3,0.1,1461.3,0.1z M1410.8,90.6c6.8,0,13.6,0,20.4,0c1.9,0,3.2-0.2,3.5-2.4
		c1.2-7.8,2.9-15.6,3.6-23.5c0.7-8.2-4.5-14.6-12.4-16.9c-14.1-4-32.2,6.8-35.5,21.4c-1.3,5.8-1.9,11.7-3.1,17.6
		c-0.7,3.3,0.5,3.9,3.6,3.8C1397.5,90.4,1404.2,90.6,1410.8,90.6z"/>
	<path class="st0" d="M319.9,0.1c1.5,2,3.9,1.2,5.8,1.8c22.2,6.4,36,28.2,31.8,50.8c-10.6,55.7-21.3,111.3-31.8,167
		c-0.9,4.7-3,6.7-8,6.7c-15.7-0.2-31.3-0.2-47,0c-3.3,0-4.2-0.7-3.5-4.1c5.3-26.6,10.3-53.3,15.6-80c0.8-4.1,0.1-5.4-4.4-5.3
		c-12.3,0.3-24.6,0.3-37,0c-3.9-0.1-5.4,1-6.1,4.8c-4.6,25.1-9.5,50.2-14.2,75.3c-1.7,8.9-1.9,9.2-10.8,9.2c-16,0-32,0-48.7,0
		c1.5-8.2,3-16,4.5-23.9c9.5-49.8,18.8-99.6,28.7-149.3c5.4-27.4,23.6-43.1,49.5-51.2c1.6-0.5,3.7,0.1,4.8-1.8
		C272.6,0.1,296.3,0.1,319.9,0.1z M245.1,90.6c15.4,0,30.4,0,45.3,0c2,0,2.4-1,2.7-2.7c1.2-7.2,2.7-14.3,3.7-21.5
		c1.2-8.9-4.2-16.3-12.9-18.6c-13.8-3.6-31.4,6.5-34.8,20.5C247.3,75.4,246.5,82.9,245.1,90.6z"/>
	<path class="st1" d="M2099.9,13c-3.3,8.5-4,17.6-5.9,26.4c-2.3,10.9-2,11-13.4,11c-23.8,0-47.6,0.1-71.4-0.1
		c-4.1,0-6.1,0.6-6.7,5.3c-1.5,11.2-3.7,22.2-6,33.2c-0.7,3.5,0.4,3.7,3.3,3.7c17-0.1,34-0.1,51,0c6.7,0,8.3,1.9,7.1,8.5
		c-2,10.6-4.2,21.1-6.1,31.7c-0.8,4.4-3,6.1-7.5,6c-17.8-0.2-35.6,0-53.5-0.1c-2.9,0-4.1,0.7-4.6,3.6c-2,11.3-3.9,22.5-6.4,33.7
		c-0.8,3.8,0.4,4,3.5,4c24.8-0.1,49.6-0.1,74.4,0c7.9,0,9.4,2,7.9,9.6c-1.9,9.7-3.8,19.5-5.6,29.3c-1.3,6.6-2.1,7.4-8.8,7.4
		c-44.1,0-88.3,0-132.4,0c-1.6,0-3.3,0-5.3,0c3.1-16.2,6-32,9-47.8c10.8-56.6,21.7-113.3,32.5-170c0.6-3.3,1.5-4.6,5.3-4.6
		c44.1,0.2,88.3,0.1,132.4,0c3.1,0,5.4,0.8,7.3,3.1C2099.9,9.1,2099.9,11.1,2099.9,13z"/>
	<path class="st2" d="M1052.7,320.9c-343.6,0-687.2,0-1030.8,0c-6.7,0-6.7,0-6.7-6.5c0-7,0.2-14-0.1-20.9c-0.1-3.6,1.1-4.8,4.5-4.3
		c0.8,0.1,1.7,0,2.5,0c687.2,0,1374.4,0,2061.6,0c7.9,0,6.9-1.1,6.9,6.8c0.1,6.8-0.2,13.6,0.1,20.4c0.2,3.9-1.2,5.1-4.8,4.5
		c-1.1-0.2-2.3,0-3.5,0C1739.3,320.9,1396,320.9,1052.7,320.9z"/>
	<path class="st0" d="M1114.4,110.8c8.4,4.3,13.8,10.7,14.8,20c0.8,7.4-1.7,14.4-3,21.6c-4.1,22.2-8.5,44.3-12.7,66.4
		c-1.3,6.8-2.1,7.5-9.2,7.5c-15.3,0-30.6-0.1-46,0.1c-3.5,0-3.9-0.7-3.2-4.1c4.4-21.8,8.5-43.6,12.7-65.4c1.9-9.9-3.8-17.6-14-18
		c-8.8-0.4-17.7,0.1-26.5-0.2c-3-0.1-3.2,1.7-3.5,3.6c-4.8,24.6-9.5,49.1-14.3,73.7c-0.4,1.9-0.6,3.9-1.1,5.9
		c-0.7,2.7-2.3,4.4-5.2,4.4c-17.3,0-34.6,0-52.3,0c4-21.3,8-42.3,12-63.2c9.9-51.6,19.8-103.1,29.5-154.7c0.7-3.6,2-4.4,5.4-4.4
		c33.8,0.1,67.6,0.3,101.4,0c29.3-0.2,50.1,24.9,45.4,52.1c-3.2,18.3-8.4,35.1-22.5,48C1119.7,106.4,1117.2,108.4,1114.4,110.8z
		 M1057.4,50.4c-4.3,0-8.6,0.1-13,0c-2.4-0.1-3.5,0.7-4,3.2c-2.1,11.9-4.4,23.7-6.8,35.6c-0.6,3.1,0.5,3.6,3.3,3.5
		c6.3-0.2,12.6,0,19-0.1c16.8,0,26.5-8.6,28.7-25.3c1.2-9.6-4.4-16.4-14.2-16.8C1066.1,50.3,1061.8,50.4,1057.4,50.4z"/>
	<path class="st0" d="M1630.7,113.4c5.3-27.6,10.4-54.1,15.4-80.5c1.7-8.6,3.4-17.2,4.9-25.9c0.4-2.4,1.4-2.9,3.6-2.9
		c15.8,0.1,31.6,0,47.5,0.1c4.8,0,6.6,2.6,5.6,7.6c-8,41.7-15.9,83.3-23.9,125c-5.3,27.5-10.5,55-15.8,82.5
		c-1.2,6.2-2.2,7.1-8.6,7.1c-10,0-20-0.2-30,0.1c-3.3,0.1-4.5-1.1-5.5-4c-12.5-33.6-25.2-67.2-37.8-100.8c-0.5-1.2-1-2.4-1.9-4.7
		c-2.2,11.3-4.1,21.5-6.1,31.7c-4.6,23.9-9.2,47.8-13.7,71.8c-0.6,3.3-1.8,5.9-5.5,5.9c-17.5,0.1-34.9,0-52.6,0
		c6.8-35.5,13.4-70.7,20.1-105.8c7.2-37.6,14.5-75.2,21.6-112.8c0.6-3,1.6-3.7,4.4-3.7c10.7,0.2,21.3,0.2,32,0
		c3.8-0.1,5.6,1.4,6.9,4.9c12.2,32.9,24.6,65.7,37,98.5C1628.9,109.1,1629.6,110.7,1630.7,113.4z"/>
	<path class="st0" d="M487.6,112.3c6.4-33.5,12.8-66.7,19.2-100c1.6-8.1,1.4-8.2,9.6-8.2c13.7,0,27.3,0,41,0c6.4,0,8,2,6.9,8.1
		c-13.2,69-26.3,138-39.5,207c-1.2,6.2-2.2,7-8.6,7c-9.8,0-19.7-0.1-29.5,0.1c-3.3,0.1-4.8-0.8-6-4.1c-12.9-34.7-26-69.4-39.2-104.3
		c-1.4,1.1-1.3,2.6-1.6,3.9c-6.3,32.9-12.6,65.7-18.9,98.6c-0.6,3.1-1.6,5.7-5,5.8c-17.6,0.1-35.2,0.1-53.1,0.1
		c7.2-37.7,14.3-74.9,21.4-112.2c6.8-35.5,13.7-70.9,20.3-106.4c0.6-3.1,1.7-3.7,4.5-3.6c10.7,0.1,21.3,0.2,32,0
		c3.8-0.1,5.6,1.5,6.9,4.9c12.2,32.9,24.6,65.7,37,98.5C485.5,109.1,485.5,111.1,487.6,112.3z"/>
	<path class="st0" d="M569.1,226.1c8.4-44.1,16.7-87.9,25.1-131.7c5.5-28.6,11-57.3,16.4-85.9c0.6-3.5,1.7-4.5,5.3-4.5
		c34.1,0.2,68.3,0,102.4,0.1c29.2,0.1,49.6,24.9,44.1,53.4c-7.5,39-15,78.1-22.5,117.1c-5.2,26.9-31.1,50.5-58.8,51.3
		C643.9,226.9,606.8,226.1,569.1,226.1z M675.9,50.4c-4.3,0-8.7,0.1-13,0c-2.6-0.1-3.7,0.8-4.2,3.5c-7.7,40.8-15.5,81.6-23.4,122.4
		c-0.6,3-0.2,3.8,2.9,3.7c7.6-0.2,15.3,0.1,23-0.1c11.8-0.3,22.1-8.7,24.3-19.9c5.9-30.5,11.7-61.1,17.4-91.7
		c1.9-10.3-4-17.5-14.5-17.9C684.2,50.3,680.1,50.4,675.9,50.4z"/>
	<path class="st0" d="M1712.5,225.8c4.8-25,9.6-49.7,14.3-74.4c9.1-47.7,18.2-95.4,27.2-143.1c0.7-3.7,2-4.4,5.4-4.3
		c34,0.1,67.9,0,101.9,0.1c25,0,43.9,17.5,45.4,42.2c0.5,8.8-2.2,17.4-3.8,26c-6.5,34.2-13,68.4-19.7,102.5
		c-5.3,27.4-32.4,50.9-60.4,51.3c-36.3,0.6-72.6,0.1-108.9,0.1C1713.6,226.2,1713.3,226.1,1712.5,225.8z M1793.2,179.9
		c3.8,0,7.7,0.1,11.5,0c12-0.4,22.1-9,24.3-20.5c5.7-30.2,11.5-60.5,17.2-90.7c2-10.8-4-18.1-15.1-18.2c-8.2-0.1-16.3,0.1-24.5-0.1
		c-3.2-0.1-4.1,1.1-4.7,4.2c-7.5,39.5-15.1,79-22.7,118.5c-1.3,6.9-1.4,6.9,5.9,6.9C1787.9,179.9,1790.5,179.9,1793.2,179.9z"/>
	<path class="st0" d="M66.7,151.6c16.1-48.7,32.2-97.4,48.2-146.1c0.9-2.7,2-3.5,4.8-3.5c17,0.2,34,0.1,51,0.1c1.5,0,3,0,4.5,0.2
		c4.6,0.6,6,2.7,4.8,7.2c-0.6,2.2-1.5,4.4-2.4,6.5c-25.9,64.8-51.7,129.7-77.6,194.5c-6.1,15.3-6.8,15.7-23.4,15.7
		c-19,0-38-0.1-56.9,0.1c-3.3,0-4.3-1-4.4-4.1c-2.7-42.5-5.4-85-8.2-127.5C5.2,66.5,3.3,38.2,1.4,9.9c-0.1-1.7-0.1-3.3-0.3-5
		C0.9,2.9,1.4,2,3.7,2c17,0.1,34,0,51,0.2c6.5,0.1,9.2,3.3,9.4,10.3c0.4,16.1,0.9,32.2,1.1,48.2c0.3,27.9,0.5,55.7,0.7,83.6
		c0,2.3-0.2,4.6-0.3,6.9c-0.6,0.7-0.3,1.4,0,2.2C65.9,152.9,66.3,152.3,66.7,151.6z"/>
	<path class="st1" d="M770,226.3c3.4-18.1,6.8-35.6,10.1-53.2c9.2-48,18.4-95.9,27.5-143.9c1.4-7.3,2.8-14.6,4.1-22
		c0.4-2.4,1.5-3.1,4-3.1c45,0.1,89.9,0,134.9,0.1c4.4,0,6.5,2.5,5.7,6.7c-2.2,11.6-4.5,23.1-6.7,34.6c-0.8,4.2-3.7,5-7.4,5
		c-14.7,0-29.3,0-44,0c-11.3,0-22.6,0.1-34-0.1c-3,0-4.3,0.7-4.8,4c-1.8,11.6-4,23.2-6.3,34.7c-0.6,3.1,0.1,3.6,3,3.6
		c17.2-0.1,34.3-0.1,51.5,0c6.4,0,8.1,1.8,6.9,8.2c-2,10.9-4.3,21.8-6.3,32.7c-0.8,4-3,5.4-7,5.4c-17.8-0.1-35.6,0-53.4-0.1
		c-2.9,0-4.5,0.5-5,3.7c-1.9,11.1-3.9,22.2-6.3,33.2c-0.8,3.8,0.1,4.4,3.6,4.4c24.6-0.1,49.3-0.1,73.9-0.1c8.3,0,9.8,1.8,8.2,9.8
		c-1.9,9.7-3.8,19.5-5.6,29.3c-1.2,6.3-2.2,7.3-8.4,7.3c-44.6,0-89.3,0-133.9,0C773.1,226.3,771.9,226.3,770,226.3z"/>
	<path class="st1" d="M1155,225.9c2.6-13.7,5.2-27.3,7.8-41c11.2-58.8,22.5-117.5,33.6-176.3c0.6-3,1.2-4.7,5.2-4.7
		c14.8,0.3,29.6,0.1,44.5,0.1c5.8,0,7.5,2,6.5,7.6c-9.9,52.3-19.7,104.5-29.7,156.8c-2.2,11.5-2.3,11.5,9.6,11.5
		c14.2,0,28.3,0,42.5,0c6.6,0,8.3,2.2,7,8.7c-2.2,10.7-4.4,21.4-6.4,32.2c-0.7,3.7-2.4,5.5-6.3,5.5c-37.5,0-74.9,0-112.4,0
		C1156.4,226.2,1155.9,226.1,1155,225.9z"/>
</g>
</svg>
