<svg xmlns="http://www.w3.org/2000/svg" width="27" height="28" viewBox="0 0 27 28"><g><g><path fill="#ec8a44" d="M26.597 13.284L21.684 8.31a1.306 1.306 0 0 0-1.678-.124 1.181 1.181 0 0 0-.125 1.865l2.86 2.86H8.316a1.244 1.244 0 0 0 0 2.487H22.74l-2.86 2.86a1.181 1.181 0 0 0 .125 1.866c.515.373 1.224.32 1.678-.124l4.913-4.975a1.181 1.181 0 0 0 0-1.74z"/></g><g><path fill="#ec8a44" d="M16.598 25.011h-2.487c-6.181 0-11.192-4.86-11.192-10.856 0-5.996 5.01-10.857 11.192-10.857h2.487c.329-.004.641-.134.871-.361a1.19 1.19 0 0 0 .373-.845 1.411 1.411 0 0 0-.124-.543 1.249 1.249 0 0 0-1.12-.663h-2.611C6.432.903.32 6.856.338 14.186.356 21.512 6.494 27.44 14.05 27.423h2.55c.328-.005.64-.135.87-.362l.249-.302c.077-.171.12-.355.124-.542 0-.667-.557-1.207-1.244-1.207z"/></g></g></svg>