<svg xmlns="http://www.w3.org/2000/svg" width="21" height="23" viewBox="0 0 21 23"><g><g><path fill="#ec8a44" d="M18.453 17.408H2.091V15.21l1.585-1.636a3.273 3.273 0 0 0 .971-2.3v-3.58c0-2.71 1.483-5.625 5.625-5.625 4.142 0 5.625 3.017 5.625 5.625v3.221a4.397 4.397 0 0 0 1.176 2.915l1.38 1.38zm1.739-3.375l-1.636-1.636a2.301 2.301 0 0 1-.614-1.483V7.693c0-4.142-2.761-7.67-7.67-7.67s-7.67 3.426-7.67 7.67v3.58a1.33 1.33 0 0 1-.358.868L.352 14.033a1.023 1.023 0 0 0-.307.716v3.682c0 .565.458 1.022 1.023 1.022h5.676a3.58 3.58 0 0 0 7.056 0h5.676c.565 0 1.023-.457 1.023-1.022v-3.682a1.023 1.023 0 0 0-.307-.716z"/></g></g></svg>