<svg xmlns="http://www.w3.org/2000/svg" width="50" height="48" viewBox="0 0 50 48"><g><g><path fill="none" stroke="#ec8a44" stroke-miterlimit="20" d="M38.272 31.114l-10.752 2.88a5.528 5.528 0 0 1-1.418.188h-8.155a5.426 5.426 0 0 1-3.278-1.093l-.199-.149v-3.973l.199-.15a5.423 5.423 0 0 1 3.278-1.092h4.445c.304 0 .606.04.9.117l6.69 1.793c.395.109.685.448.73.856.005.02.012.04.02.06a.49.49 0 0 0-.014.065.993.993 0 0 1-1.249.94l-4.221-1.132a.497.497 0 1 0-.258.96l4.222 1.132a1.983 1.983 0 0 0 2.485-1.697l6.055-1.624c.043-.01.09-.022.134-.03a.993.993 0 0 1 1.12.989c0 .45-.3.843-.734.96zM13.477 36.17h-2.484v-10.43h2.484zm5.96-19.37h17.88v11.484l-5.764 1.546a1.997 1.997 0 0 0-1.314-1.154l-6.692-1.794c-.377-.1-.765-.15-1.155-.15h-2.955zm-1.49-4.968h20.86v3.974h-20.86zm21.986 17.806a1.987 1.987 0 0 0-1.622-1.44V16.799h.993a.497.497 0 0 0 .497-.497v-4.966a.497.497 0 0 0-.497-.497H17.45a.497.497 0 0 0-.496.497V16.3c0 .275.222.497.496.497h.994v9.934h-.497a6.396 6.396 0 0 0-3.477 1.017v-2.507a.497.497 0 0 0-.497-.497h-3.476a.497.497 0 0 0-.497.497v11.423c0 .275.222.497.497.497h3.476a.497.497 0 0 0 .497-.497v-2.507a6.403 6.403 0 0 0 3.477 1.017h8.155a6.54 6.54 0 0 0 1.674-.22l10.753-2.881a1.995 1.995 0 0 0 1.404-2.437z"/></g></g></svg>