<svg xmlns="http://www.w3.org/2000/svg" width="173" height="315" viewBox="0 0 173 315"><g><g><g><text dominant-baseline="text-before-edge" style="font-kerning:normal" font-family="'Montserrat','Montserrat-Bold'" font-size="16" font-style="none" font-weight="700"><tspan>Release 18.1 BETA</tspan></text></g></g><g><g><text dominant-baseline="text-before-edge" style="font-kerning:normal" font-family="'Montserrat','Montserrat-Bold'" font-size="16" font-style="none" font-weight="700" transform="translate(0 59)"><tspan>Release 18.2</tspan></text></g></g><g><g><text dominant-baseline="text-before-edge" style="font-kerning:normal" font-family="'Montserrat','Montserrat-Bold'" font-size="16" font-style="none" font-weight="700" transform="translate(0 118)"><tspan>Release 19.1</tspan></text></g></g><g><g><text dominant-baseline="text-before-edge" style="font-kerning:normal" font-family="'Montserrat','Montserrat-Bold'" font-size="16" font-style="none" font-weight="700" transform="translate(0 177)"><tspan>Release 19.4</tspan></text></g></g><g><g><text dominant-baseline="text-before-edge" style="font-kerning:normal" font-family="'Montserrat','Montserrat-Bold'" font-size="16" font-style="none" font-weight="700" transform="translate(0 236)"><tspan>Release 20.1</tspan></text></g></g><g><g><text dominant-baseline="text-before-edge" style="font-kerning:normal" font-family="'Montserrat','Montserrat-Bold'" font-size="16" font-style="none" font-weight="700" transform="translate(0 295)"><tspan>Release 20.1.1</tspan></text></g></g><g><path fill="#65c369" d="M168.285 7.254l-5.223 5.246h-.003c-.067.066-.246.215-.454.215-.148 0-.316-.082-.457-.223l-2.187-2.187a.156.156 0 0 1 0-.223l.695-.695a.154.154 0 0 1 .11-.047c.039 0 .078.015.109.047l1.734 1.734 4.766-4.8a.154.154 0 0 1 .11-.048c.042 0 .081.016.109.047l.683.707c.07.067.07.164.008.227zm-4.16-5.879A8.124 8.124 0 0 0 156 9.5a8.124 8.124 0 0 0 8.125 8.125A8.124 8.124 0 0 0 172.25 9.5a8.124 8.124 0 0 0-8.125-8.125z"/></g><g><path fill="#65c369" d="M122.285 66.254l-5.222 5.246h-.004c-.067.066-.247.215-.454.215-.148 0-.316-.082-.457-.223l-2.187-2.187a.156.156 0 0 1 0-.223l.695-.695a.154.154 0 0 1 .11-.047c.039 0 .078.015.109.047l1.734 1.734 4.766-4.8a.154.154 0 0 1 .11-.048c.042 0 .081.016.109.047l.683.707c.07.067.07.164.008.227zm-4.16-5.879A8.124 8.124 0 0 0 110 68.5a8.124 8.124 0 0 0 8.125 8.125 8.124 8.124 0 0 0 8.125-8.125 8.124 8.124 0 0 0-8.125-8.125z"/></g><g><path fill="#65c369" d="M118.285 125.254l-5.222 5.246h-.004c-.067.066-.247.215-.454.215-.148 0-.316-.082-.457-.223l-2.187-2.187a.156.156 0 0 1 0-.223l.695-.695a.154.154 0 0 1 .11-.047c.039 0 .078.015.109.047l1.734 1.734 4.766-4.8a.154.154 0 0 1 .11-.048c.042 0 .081.016.109.047l.683.707c.07.067.07.164.008.227zm-4.16-5.879A8.124 8.124 0 0 0 106 127.5a8.124 8.124 0 0 0 8.125 8.125 8.124 8.124 0 0 0 8.125-8.125 8.124 8.124 0 0 0-8.125-8.125z"/></g><g><path fill="#65c369" d="M123.285 184.254l-5.222 5.246h-.004c-.067.066-.247.215-.454.215-.148 0-.316-.082-.457-.223l-2.187-2.187a.156.156 0 0 1 0-.223l.695-.695a.154.154 0 0 1 .11-.047c.039 0 .078.015.109.047l1.734 1.734 4.766-4.8a.154.154 0 0 1 .11-.048c.042 0 .081.016.109.047l.683.707c.07.067.07.164.008.227zm-4.16-5.879A8.124 8.124 0 0 0 111 186.5a8.124 8.124 0 0 0 8.125 8.125 8.124 8.124 0 0 0 8.125-8.125 8.124 8.124 0 0 0-8.125-8.125z"/></g><g><path fill="#65c369" d="M122.285 243.254l-5.222 5.246h-.004c-.067.066-.247.215-.454.215-.148 0-.316-.082-.457-.223l-2.187-2.187a.156.156 0 0 1 0-.223l.695-.695a.154.154 0 0 1 .11-.047c.039 0 .078.015.109.047l1.734 1.734 4.766-4.8a.154.154 0 0 1 .11-.048c.042 0 .081.016.109.047l.683.707c.07.067.07.164.008.227zm-4.16-5.879A8.124 8.124 0 0 0 110 245.5a8.124 8.124 0 0 0 8.125 8.125 8.124 8.124 0 0 0 8.125-8.125 8.124 8.124 0 0 0-8.125-8.125z"/></g><g><path fill="#65c369" d="M132.285 302.254l-5.223 5.246h-.003c-.067.066-.247.215-.454.215-.148 0-.316-.082-.457-.223l-2.187-2.187a.156.156 0 0 1 0-.223l.695-.695a.154.154 0 0 1 .11-.047c.039 0 .078.015.109.047l1.734 1.734 4.766-4.8a.154.154 0 0 1 .11-.048c.042 0 .081.016.109.047l.683.707c.07.067.07.164.008.227zm-4.16-5.879A8.124 8.124 0 0 0 120 304.5a8.124 8.124 0 0 0 8.125 8.125 8.124 8.124 0 0 0 8.125-8.125 8.124 8.124 0 0 0-8.125-8.125z"/></g></g></svg>