<svg xmlns="http://www.w3.org/2000/svg" width="17" height="17" viewBox="0 0 17 17"><g><g><path fill="#65c369" d="M12.285 6.254L7.062 11.5H7.06c-.067.066-.247.215-.454.215-.148 0-.316-.082-.457-.223L3.961 9.305a.156.156 0 0 1 0-.223l.695-.695a.154.154 0 0 1 .11-.047c.039 0 .078.015.109.047l1.734 1.734 4.766-4.8a.154.154 0 0 1 .11-.048c.042 0 .081.016.109.047l.683.707c.07.067.07.164.008.227zM8.125.375A8.124 8.124 0 0 0 0 8.5a8.124 8.124 0 0 0 8.125 8.125A8.124 8.124 0 0 0 16.25 8.5 8.124 8.124 0 0 0 8.125.375z"/></g></g></svg>