<svg xmlns="http://www.w3.org/2000/svg" width="150" height="40" viewBox="0 0 150 40"><g><g><path fill="#ec8a44" d="M20 40C8.954 40 0 31.046 0 20S8.954 0 20 0h110c11.046 0 20 8.954 20 20s-8.954 20-20 20z"/></g><g><g><text dominant-baseline="text-before-edge" style="font-kerning:normal" fill="#fff" font-family="'Montserrat','Montserrat-Bold'" font-size="16" font-style="none" font-weight="700" transform="translate(11 11)"><tspan>Release 20.2</tspan></text></g></g><g><path fill="#fff" d="M136.285 18.254l-5.223 5.246h-.003c-.067.066-.246.215-.454.215-.148 0-.316-.082-.457-.223l-2.187-2.187a.156.156 0 0 1 0-.223l.695-.695a.154.154 0 0 1 .11-.047c.039 0 .078.015.109.047l1.734 1.734 4.766-4.8a.154.154 0 0 1 .11-.048c.042 0 .081.016.109.047l.683.707c.07.067.07.164.008.227zm-4.16-5.879A8.124 8.124 0 0 0 124 20.5a8.124 8.124 0 0 0 8.125 8.125 8.124 8.124 0 0 0 8.125-8.125 8.124 8.124 0 0 0-8.125-8.125z"/></g></g></svg>