<svg xmlns="http://www.w3.org/2000/svg" width="1425" height="186" viewBox="0 0 1425 186"><defs><clipPath id="5eeha"><path fill="#fff" d="M12 26C5.373 26 0 20.627 0 14S5.373 2 12 2h72c6.627 0 12 5.373 12 12s-5.373 12-12 12z"/></clipPath><clipPath id="5eehb"><path fill="#fff" d="M12 65C5.373 65 0 59.627 0 53s5.373-12 12-12h72c6.627 0 12 5.373 12 12s-5.373 12-12 12z"/></clipPath><clipPath id="5eehc"><path fill="#fff" d="M12 104c-6.627 0-12-5.373-12-12s5.373-12 12-12h72c6.627 0 12 5.373 12 12s-5.373 12-12 12z"/></clipPath><clipPath id="5eehd"><path fill="#fff" d="M12 143c-6.627 0-12-5.373-12-12s5.373-12 12-12h72c6.627 0 12 5.373 12 12s-5.373 12-12 12z"/></clipPath><clipPath id="5eehe"><path fill="#fff" d="M204 26c-6.627 0-12-5.373-12-12s5.373-12 12-12h72c6.627 0 12 5.373 12 12s-5.373 12-12 12z"/></clipPath><clipPath id="5eehf"><path fill="#fff" d="M204 65c-6.627 0-12-5.373-12-12s5.373-12 12-12h72c6.627 0 12 5.373 12 12s-5.373 12-12 12z"/></clipPath><clipPath id="5eehg"><path fill="#fff" d="M204 104c-6.627 0-12-5.373-12-12s5.373-12 12-12h72c6.627 0 12 5.373 12 12s-5.373 12-12 12z"/></clipPath><clipPath id="5eehh"><path fill="#fff" d="M204 143c-6.627 0-12-5.373-12-12s5.373-12 12-12h72c6.627 0 12 5.373 12 12s-5.373 12-12 12z"/></clipPath><clipPath id="5eehi"><path fill="#fff" d="M377 26c-6.627 0-12-5.373-12-12s5.373-12 12-12h72c6.627 0 12 5.373 12 12s-5.373 12-12 12z"/></clipPath><clipPath id="5eehj"><path fill="#fff" d="M377 65c-6.627 0-12-5.373-12-12s5.373-12 12-12h72c6.627 0 12 5.373 12 12s-5.373 12-12 12z"/></clipPath><clipPath id="5eehk"><path fill="#fff" d="M377 104c-6.627 0-12-5.373-12-12s5.373-12 12-12h72c6.627 0 12 5.373 12 12s-5.373 12-12 12z"/></clipPath><clipPath id="5eehl"><path fill="#fff" d="M377 143c-6.627 0-12-5.373-12-12s5.373-12 12-12h72c6.627 0 12 5.373 12 12s-5.373 12-12 12z"/></clipPath><clipPath id="5eehm"><path fill="#fff" d="M550 26c-6.627 0-12-5.373-12-12s5.373-12 12-12h72c6.627 0 12 5.373 12 12s-5.373 12-12 12z"/></clipPath><clipPath id="5eehn"><path fill="#fff" d="M550 65c-6.627 0-12-5.373-12-12s5.373-12 12-12h72c6.627 0 12 5.373 12 12s-5.373 12-12 12z"/></clipPath><clipPath id="5eeho"><path fill="#fff" d="M550 104c-6.627 0-12-5.373-12-12s5.373-12 12-12h72c6.627 0 12 5.373 12 12s-5.373 12-12 12z"/></clipPath><clipPath id="5eehp"><path fill="#fff" d="M550 143c-6.627 0-12-5.373-12-12s5.373-12 12-12h72c6.627 0 12 5.373 12 12s-5.373 12-12 12z"/></clipPath><clipPath id="5eehq"><path fill="#fff" d="M1099 65c-6.627 0-12-5.373-12-12s5.373-12 12-12h72c6.627 0 12 5.373 12 12s-5.373 12-12 12z"/></clipPath><clipPath id="5eehr"><path fill="#fff" d="M1099 143c-6.627 0-12-5.373-12-12s5.373-12 12-12h72c6.627 0 12 5.373 12 12s-5.373 12-12 12z"/></clipPath><clipPath id="5eehs"><path fill="#fff" d="M11 184.214c-6.075 0-11-4.925-11-11v-2c0-6.075 4.925-11 11-11h74c6.075 0 11 4.925 11 11v2c0 6.075-4.925 11-11 11z"/></clipPath><clipPath id="5eeht"><path fill="#fff" d="M203 184.214c-6.075 0-11-4.925-11-11v-2c0-6.075 4.925-11 11-11h74c6.075 0 11 4.925 11 11v2c0 6.075-4.925 11-11 11z"/></clipPath><clipPath id="5eehu"><path fill="#fff" d="M376 184.214c-6.075 0-11-4.925-11-11v-2c0-6.075 4.925-11 11-11h74c6.075 0 11 4.925 11 11v2c0 6.075-4.925 11-11 11z"/></clipPath><clipPath id="5eehv"><path fill="#fff" d="M549 184.214c-6.075 0-11-4.925-11-11v-2c0-6.075 4.925-11 11-11h74c6.075 0 11 4.925 11 11v2c0 6.075-4.925 11-11 11z"/></clipPath><clipPath id="5eehw"><path fill="#fff" d="M911 65c-6.627 0-12-5.373-12-12s5.373-12 12-12h72c6.627 0 12 5.373 12 12s-5.373 12-12 12z"/></clipPath><clipPath id="5eehx"><path fill="#fff" d="M911 143c-6.627 0-12-5.373-12-12s5.373-12 12-12h72c6.627 0 12 5.373 12 12s-5.373 12-12 12z"/></clipPath></defs><g><g><path fill="#efeeed" d="M12 26C5.373 26 0 20.627 0 14S5.373 2 12 2h72c6.627 0 12 5.373 12 12s-5.373 12-12 12z"/><path fill="none" stroke="#fff" stroke-miterlimit="20" stroke-opacity=".25" stroke-width="2" d="M12 26C5.373 26 0 20.627 0 14v0C0 7.373 5.373 2 12 2h72c6.627 0 12 5.373 12 12v0c0 6.627-5.373 12-12 12z" clip-path="url(&quot;#5eeha&quot;)"/></g><g><path fill="#efeeed" d="M12 65C5.373 65 0 59.627 0 53s5.373-12 12-12h72c6.627 0 12 5.373 12 12s-5.373 12-12 12z"/><path fill="none" stroke="#fff" stroke-miterlimit="20" stroke-opacity=".25" stroke-width="2" d="M12 65C5.373 65 0 59.627 0 53v0c0-6.627 5.373-12 12-12h72c6.627 0 12 5.373 12 12v0c0 6.627-5.373 12-12 12z" clip-path="url(&quot;#5eehb&quot;)"/></g><g><path fill="#efeeed" d="M12 104c-6.627 0-12-5.373-12-12s5.373-12 12-12h72c6.627 0 12 5.373 12 12s-5.373 12-12 12z"/><path fill="none" stroke="#fff" stroke-miterlimit="20" stroke-opacity=".25" stroke-width="2" d="M12 104c-6.627 0-12-5.373-12-12v0c0-6.627 5.373-12 12-12h72c6.627 0 12 5.373 12 12v0c0 6.627-5.373 12-12 12z" clip-path="url(&quot;#5eehc&quot;)"/></g><g><path fill="#efeeed" d="M12 143c-6.627 0-12-5.373-12-12s5.373-12 12-12h72c6.627 0 12 5.373 12 12s-5.373 12-12 12z"/><path fill="none" stroke="#fff" stroke-miterlimit="20" stroke-opacity=".25" stroke-width="2" d="M12 143c-6.627 0-12-5.373-12-12v0c0-6.627 5.373-12 12-12h72c6.627 0 12 5.373 12 12v0c0 6.627-5.373 12-12 12z" clip-path="url(&quot;#5eehd&quot;)"/></g><g><path fill="#63bf67" d="M204 26c-6.627 0-12-5.373-12-12s5.373-12 12-12h72c6.627 0 12 5.373 12 12s-5.373 12-12 12z"/><path fill="none" stroke="#fff" stroke-miterlimit="20" stroke-opacity=".25" stroke-width="2" d="M204 26c-6.627 0-12-5.373-12-12v0c0-6.627 5.373-12 12-12h72c6.627 0 12 5.373 12 12v0c0 6.627-5.373 12-12 12z" clip-path="url(&quot;#5eehe&quot;)"/></g><g><path fill="#63bf67" d="M204 65c-6.627 0-12-5.373-12-12s5.373-12 12-12h72c6.627 0 12 5.373 12 12s-5.373 12-12 12z"/><path fill="none" stroke="#fff" stroke-miterlimit="20" stroke-opacity=".25" stroke-width="2" d="M204 65c-6.627 0-12-5.373-12-12v0c0-6.627 5.373-12 12-12h72c6.627 0 12 5.373 12 12v0c0 6.627-5.373 12-12 12z" clip-path="url(&quot;#5eehf&quot;)"/></g><g><path fill="#63bf67" d="M204 104c-6.627 0-12-5.373-12-12s5.373-12 12-12h72c6.627 0 12 5.373 12 12s-5.373 12-12 12z"/><path fill="none" stroke="#fff" stroke-miterlimit="20" stroke-opacity=".25" stroke-width="2" d="M204 104c-6.627 0-12-5.373-12-12v0c0-6.627 5.373-12 12-12h72c6.627 0 12 5.373 12 12v0c0 6.627-5.373 12-12 12z" clip-path="url(&quot;#5eehg&quot;)"/></g><g><path fill="#63bf67" d="M204 143c-6.627 0-12-5.373-12-12s5.373-12 12-12h72c6.627 0 12 5.373 12 12s-5.373 12-12 12z"/><path fill="none" stroke="#fff" stroke-miterlimit="20" stroke-opacity=".25" stroke-width="2" d="M204 143c-6.627 0-12-5.373-12-12v0c0-6.627 5.373-12 12-12h72c6.627 0 12 5.373 12 12v0c0 6.627-5.373 12-12 12z" clip-path="url(&quot;#5eehh&quot;)"/></g><g><path fill="#efeeed" d="M377 26c-6.627 0-12-5.373-12-12s5.373-12 12-12h72c6.627 0 12 5.373 12 12s-5.373 12-12 12z"/><path fill="none" stroke="#fff" stroke-miterlimit="20" stroke-opacity=".25" stroke-width="2" d="M377 26c-6.627 0-12-5.373-12-12v0c0-6.627 5.373-12 12-12h72c6.627 0 12 5.373 12 12v0c0 6.627-5.373 12-12 12z" clip-path="url(&quot;#5eehi&quot;)"/></g><g><path fill="#efeeed" d="M377 65c-6.627 0-12-5.373-12-12s5.373-12 12-12h72c6.627 0 12 5.373 12 12s-5.373 12-12 12z"/><path fill="none" stroke="#fff" stroke-miterlimit="20" stroke-opacity=".25" stroke-width="2" d="M377 65c-6.627 0-12-5.373-12-12v0c0-6.627 5.373-12 12-12h72c6.627 0 12 5.373 12 12v0c0 6.627-5.373 12-12 12z" clip-path="url(&quot;#5eehj&quot;)"/></g><g><path fill="#efeeed" d="M377 104c-6.627 0-12-5.373-12-12s5.373-12 12-12h72c6.627 0 12 5.373 12 12s-5.373 12-12 12z"/><path fill="none" stroke="#fff" stroke-miterlimit="20" stroke-opacity=".25" stroke-width="2" d="M377 104c-6.627 0-12-5.373-12-12v0c0-6.627 5.373-12 12-12h72c6.627 0 12 5.373 12 12v0c0 6.627-5.373 12-12 12z" clip-path="url(&quot;#5eehk&quot;)"/></g><g><path fill="#efeeed" d="M377 143c-6.627 0-12-5.373-12-12s5.373-12 12-12h72c6.627 0 12 5.373 12 12s-5.373 12-12 12z"/><path fill="none" stroke="#fff" stroke-miterlimit="20" stroke-opacity=".25" stroke-width="2" d="M377 143c-6.627 0-12-5.373-12-12v0c0-6.627 5.373-12 12-12h72c6.627 0 12 5.373 12 12v0c0 6.627-5.373 12-12 12z" clip-path="url(&quot;#5eehl&quot;)"/></g><g><path fill="#f0a53c" d="M550 26c-6.627 0-12-5.373-12-12s5.373-12 12-12h72c6.627 0 12 5.373 12 12s-5.373 12-12 12z"/><path fill="none" stroke="#fff" stroke-miterlimit="20" stroke-opacity=".25" stroke-width="2" d="M550 26c-6.627 0-12-5.373-12-12v0c0-6.627 5.373-12 12-12h72c6.627 0 12 5.373 12 12v0c0 6.627-5.373 12-12 12z" clip-path="url(&quot;#5eehm&quot;)"/></g><g><path fill="#bc3131" d="M550 65c-6.627 0-12-5.373-12-12s5.373-12 12-12h72c6.627 0 12 5.373 12 12s-5.373 12-12 12z"/><path fill="none" stroke="#fff" stroke-miterlimit="20" stroke-opacity=".25" stroke-width="2" d="M550 65c-6.627 0-12-5.373-12-12v0c0-6.627 5.373-12 12-12h72c6.627 0 12 5.373 12 12v0c0 6.627-5.373 12-12 12z" clip-path="url(&quot;#5eehn&quot;)"/></g><g><path fill="#63bf67" d="M550 104c-6.627 0-12-5.373-12-12s5.373-12 12-12h72c6.627 0 12 5.373 12 12s-5.373 12-12 12z"/><path fill="none" stroke="#fff" stroke-miterlimit="20" stroke-opacity=".25" stroke-width="2" d="M550 104c-6.627 0-12-5.373-12-12v0c0-6.627 5.373-12 12-12h72c6.627 0 12 5.373 12 12v0c0 6.627-5.373 12-12 12z" clip-path="url(&quot;#5eeho&quot;)"/></g><g><path fill="#62be66" d="M550 143c-6.627 0-12-5.373-12-12s5.373-12 12-12h72c6.627 0 12 5.373 12 12s-5.373 12-12 12z"/><path fill="none" stroke="#fff" stroke-miterlimit="20" stroke-opacity=".25" stroke-width="2" d="M550 143c-6.627 0-12-5.373-12-12v0c0-6.627 5.373-12 12-12h72c6.627 0 12 5.373 12 12v0c0 6.627-5.373 12-12 12z" clip-path="url(&quot;#5eehp&quot;)"/></g><g><path d="M746.286 20.854v1.714h-3.428v-1.714zm-5.142 2.142a1.29 1.29 0 0 0 1.285 1.286h4.286A1.29 1.29 0 0 0 748 22.996v-4.285a1.29 1.29 0 0 0-1.285-1.285h-2.143v-1.714h-3.428zm3.428-8.998v-1.714h-3.428v1.714h3.428v1.714H748v-1.714zm0-1.714H748V10.57h-3.428zm-3.428-1.714h3.428V8.856H748V7.142h-3.428v1.714h-3.428zm0-3.428h3.428V5.428h-3.428zm3.428-3.428v1.714H748V3.714zm-3.428 0h3.428V2h-3.428zm17.14 21.853a.434.434 0 0 1-.428.429h-19.712a.434.434 0 0 1-.428-.429V2.428c0-.232.196-.428.428-.428h13.284v5.999c0 .473.384.857.857.857h6zm-2.963-20.605a23.376 23.376 0 0 1 1.944 2.18h-4.123V3.019a23.366 23.366 0 0 1 2.18 1.943zm3.547 1.459c-.595-.812-1.424-1.76-2.335-2.67-.91-.911-1.859-1.74-2.67-2.335-1.381-1.013-2.051-1.13-2.435-1.13h-13.284a2.145 2.145 0 0 0-2.142 2.142v23.14c0 1.18.96 2.142 2.142 2.142h19.712a2.145 2.145 0 0 0 2.142-2.143V8.856c0-.384-.117-1.054-1.13-2.435z"/></g><g><g><path d="M802.284 25.571a.434.434 0 0 1-.429.429h-19.714a.434.434 0 0 1-.429-.429V2.43c0-.233.197-.429.429-.429h13.286v6c0 .473.383.857.857.857h6zM799.32 4.963a23.38 23.38 0 0 1 1.944 2.18h-4.124V3.019a23.356 23.356 0 0 1 2.18 1.944zm3.547 1.459c-.595-.812-1.425-1.76-2.335-2.671-.911-.91-1.86-1.74-2.671-2.335-1.381-1.013-2.052-1.13-2.435-1.13H782.14a2.145 2.145 0 0 0-2.143 2.143V25.57c0 1.182.961 2.143 2.143 2.143h19.714a2.145 2.145 0 0 0 2.143-2.143V8.857c0-.384-.117-1.054-1.13-2.435z"/></g><g><g><text dominant-baseline="text-before-edge" style="font-kerning:normal" font-family="'Montserrat','Montserrat-Bold'" font-size="9" font-style="none" font-weight="700" transform="translate(781 8)"><tspan>SVD</tspan></text></g></g></g><g><path d="M746.286 59.854v1.714h-3.428v-1.714zm-5.142 2.142a1.29 1.29 0 0 0 1.285 1.286h4.286A1.29 1.29 0 0 0 748 61.996v-4.285a1.29 1.29 0 0 0-1.285-1.285h-2.143v-1.714h-3.428zm3.428-8.998v-1.714h-3.428v1.714h3.428v1.714H748v-1.714zm0-1.714H748V49.57h-3.428zm-3.428-1.714h3.428v-1.714H748v-1.714h-3.428v1.714h-3.428zm0-3.428h3.428v-1.714h-3.428zm3.428-3.428v1.714H748v-1.714zm-3.428 0h3.428V41h-3.428zm17.14 21.853a.434.434 0 0 1-.428.429h-19.712a.434.434 0 0 1-.428-.429V41.428c0-.232.196-.428.428-.428h13.284v5.999c0 .473.384.857.857.857h6zm-2.963-20.605a23.376 23.376 0 0 1 1.944 2.18h-4.123v-4.123a23.366 23.366 0 0 1 2.18 1.943zm3.547 1.459c-.595-.812-1.424-1.76-2.335-2.67-.91-.911-1.859-1.74-2.67-2.335-1.381-1.013-2.051-1.13-2.435-1.13h-13.284a2.145 2.145 0 0 0-2.142 2.142v23.14c0 1.18.96 2.142 2.142 2.142h19.712a2.145 2.145 0 0 0 2.142-2.143V47.856c0-.384-.117-1.054-1.13-2.435z"/></g><g><g><path d="M802.284 64.571a.434.434 0 0 1-.429.429h-19.714a.434.434 0 0 1-.429-.429V41.43c0-.233.197-.429.429-.429h13.286v6c0 .473.383.857.857.857h6zm-2.963-20.608a23.38 23.38 0 0 1 1.944 2.18h-4.124v-4.124a23.356 23.356 0 0 1 2.18 1.944zm3.547 1.459c-.595-.812-1.425-1.76-2.335-2.671-.911-.91-1.86-1.74-2.671-2.335-1.381-1.013-2.052-1.13-2.435-1.13H782.14a2.145 2.145 0 0 0-2.143 2.143V64.57c0 1.182.961 2.143 2.143 2.143h19.714a2.145 2.145 0 0 0 2.143-2.143V47.857c0-.384-.117-1.054-1.13-2.435z"/></g><g><g><text dominant-baseline="text-before-edge" style="font-kerning:normal" font-family="'Montserrat','Montserrat-Bold'" font-size="9" font-style="none" font-weight="700" transform="translate(781 47)"><tspan>SVD</tspan></text></g></g></g><g><path d="M746.286 98.854v1.714h-3.428v-1.714zm-5.142 2.142a1.29 1.29 0 0 0 1.285 1.286h4.286a1.29 1.29 0 0 0 1.285-1.286v-4.285a1.29 1.29 0 0 0-1.285-1.285h-2.143v-1.714h-3.428zm3.428-8.998v-1.714h-3.428v1.714h3.428v1.714H748v-1.714zm0-1.714H748V88.57h-3.428zm-3.428-1.714h3.428v-1.714H748v-1.714h-3.428v1.714h-3.428zm0-3.428h3.428v-1.714h-3.428zm3.428-3.428v1.714H748v-1.714zm-3.428 0h3.428V80h-3.428zm17.14 21.853a.434.434 0 0 1-.428.429h-19.712a.434.434 0 0 1-.428-.429V80.428c0-.232.196-.428.428-.428h13.284v5.999c0 .473.384.857.857.857h6zm-2.963-20.605a23.376 23.376 0 0 1 1.944 2.18h-4.123v-4.123a23.366 23.366 0 0 1 2.18 1.943zm3.547 1.459c-.595-.812-1.424-1.76-2.335-2.67-.91-.911-1.859-1.74-2.67-2.335-1.381-1.013-2.051-1.13-2.435-1.13h-13.284a2.145 2.145 0 0 0-2.142 2.142v23.14c0 1.18.96 2.142 2.142 2.142h19.712a2.145 2.145 0 0 0 2.142-2.143V86.856c0-.384-.117-1.054-1.13-2.435z"/></g><g><g><path d="M802.284 103.571a.434.434 0 0 1-.429.429h-19.714a.434.434 0 0 1-.429-.429V80.43c0-.233.197-.429.429-.429h13.286v6c0 .473.383.857.857.857h6zm-2.963-20.608a23.38 23.38 0 0 1 1.944 2.18h-4.124v-4.124a23.356 23.356 0 0 1 2.18 1.944zm3.547 1.459c-.595-.812-1.425-1.76-2.335-2.671-.911-.91-1.86-1.74-2.671-2.335-1.381-1.013-2.052-1.13-2.435-1.13H782.14a2.145 2.145 0 0 0-2.143 2.143v23.142c0 1.182.961 2.143 2.143 2.143h19.714a2.145 2.145 0 0 0 2.143-2.143V86.857c0-.384-.117-1.054-1.13-2.435z"/></g><g><g><text dominant-baseline="text-before-edge" style="font-kerning:normal" font-family="'Montserrat','Montserrat-Bold'" font-size="9" font-style="none" font-weight="700" transform="translate(781 86)"><tspan>SVD</tspan></text></g></g></g><g><path d="M746.286 137.854v1.714h-3.428v-1.714zm-5.142 2.142a1.29 1.29 0 0 0 1.285 1.286h4.286a1.29 1.29 0 0 0 1.285-1.286v-4.285a1.29 1.29 0 0 0-1.285-1.285h-2.143v-1.714h-3.428zm3.428-8.998v-1.714h-3.428v1.714h3.428v1.714H748v-1.714zm0-1.714H748v-1.714h-3.428zm-3.428-1.714h3.428v-1.714H748v-1.714h-3.428v1.714h-3.428zm0-3.428h3.428v-1.714h-3.428zm3.428-3.428v1.714H748v-1.714zm-3.428 0h3.428V119h-3.428zm17.14 21.853a.434.434 0 0 1-.428.429h-19.712a.434.434 0 0 1-.428-.429v-23.139c0-.232.196-.428.428-.428h13.284v5.999c0 .473.384.857.857.857h6zm-2.963-20.605a23.376 23.376 0 0 1 1.944 2.18h-4.123v-4.123a23.366 23.366 0 0 1 2.18 1.943zm3.547 1.459c-.595-.812-1.424-1.76-2.335-2.67-.91-.911-1.859-1.74-2.67-2.335-1.381-1.013-2.051-1.13-2.435-1.13h-13.284a2.145 2.145 0 0 0-2.142 2.142v23.14c0 1.18.96 2.142 2.142 2.142h19.712a2.145 2.145 0 0 0 2.142-2.143v-16.711c0-.384-.117-1.054-1.13-2.435z"/></g><g><g><path d="M802.284 142.571a.434.434 0 0 1-.429.429h-19.714a.434.434 0 0 1-.429-.429V119.43c0-.233.197-.429.429-.429h13.286v6c0 .473.383.857.857.857h6zm-2.963-20.608a23.38 23.38 0 0 1 1.944 2.18h-4.124v-4.124a23.356 23.356 0 0 1 2.18 1.944zm3.547 1.459c-.595-.812-1.425-1.76-2.335-2.671-.911-.91-1.86-1.74-2.671-2.335-1.381-1.013-2.052-1.13-2.435-1.13H782.14a2.145 2.145 0 0 0-2.143 2.143v23.142c0 1.182.961 2.143 2.143 2.143h19.714a2.145 2.145 0 0 0 2.143-2.143v-16.714c0-.384-.117-1.054-1.13-2.435z"/></g><g><g><text dominant-baseline="text-before-edge" style="font-kerning:normal" font-family="'Montserrat','Montserrat-Bold'" font-size="9" font-style="none" font-weight="700" transform="translate(781 125)"><tspan>SVD</tspan></text></g></g></g><g><path fill="#efeeed" d="M1099 65c-6.627 0-12-5.373-12-12s5.373-12 12-12h72c6.627 0 12 5.373 12 12s-5.373 12-12 12z"/><path fill="none" stroke="#fff" stroke-miterlimit="20" stroke-opacity=".25" stroke-width="2" d="M1099 65c-6.627 0-12-5.373-12-12v0c0-6.627 5.373-12 12-12h72c6.627 0 12 5.373 12 12v0c0 6.627-5.373 12-12 12z" clip-path="url(&quot;#5eehq&quot;)"/></g><g><path fill="#efeeed" d="M1099 143c-6.627 0-12-5.373-12-12s5.373-12 12-12h72c6.627 0 12 5.373 12 12s-5.373 12-12 12z"/><path fill="none" stroke="#fff" stroke-miterlimit="20" stroke-opacity=".25" stroke-width="2" d="M1099 143c-6.627 0-12-5.373-12-12v0c0-6.627 5.373-12 12-12h72c6.627 0 12 5.373 12 12v0c0 6.627-5.373 12-12 12z" clip-path="url(&quot;#5eehr&quot;)"/></g><g><path fill="#efeeed" d="M11 184.214c-6.075 0-11-4.925-11-11v-2c0-6.075 4.925-11 11-11h74c6.075 0 11 4.925 11 11v2c0 6.075-4.925 11-11 11z"/><path fill="none" stroke="#fff" stroke-miterlimit="20" stroke-opacity=".25" stroke-width="2" d="M11 184.214c-6.075 0-11-4.925-11-11v-2c0-6.075 4.925-11 11-11h74c6.075 0 11 4.925 11 11v2c0 6.075-4.925 11-11 11z" clip-path="url(&quot;#5eehs&quot;)"/></g><g><path fill="#63bf67" d="M203 184.214c-6.075 0-11-4.925-11-11v-2c0-6.075 4.925-11 11-11h74c6.075 0 11 4.925 11 11v2c0 6.075-4.925 11-11 11z"/><path fill="none" stroke="#fff" stroke-miterlimit="20" stroke-opacity=".25" stroke-width="2" d="M203 184.214c-6.075 0-11-4.925-11-11v-2c0-6.075 4.925-11 11-11h74c6.075 0 11 4.925 11 11v2c0 6.075-4.925 11-11 11z" clip-path="url(&quot;#5eeht&quot;)"/></g><g><path fill="#efeeed" d="M376 184.214c-6.075 0-11-4.925-11-11v-2c0-6.075 4.925-11 11-11h74c6.075 0 11 4.925 11 11v2c0 6.075-4.925 11-11 11z"/><path fill="none" stroke="#fff" stroke-miterlimit="20" stroke-opacity=".25" stroke-width="2" d="M376 184.214c-6.075 0-11-4.925-11-11v-2c0-6.075 4.925-11 11-11h74c6.075 0 11 4.925 11 11v2c0 6.075-4.925 11-11 11z" clip-path="url(&quot;#5eehu&quot;)"/></g><g><path fill="#efa43b" d="M549 184.214c-6.075 0-11-4.925-11-11v-2c0-6.075 4.925-11 11-11h74c6.075 0 11 4.925 11 11v2c0 6.075-4.925 11-11 11z"/><path fill="none" stroke="#fff" stroke-miterlimit="20" stroke-opacity=".25" stroke-width="2" d="M549 184.214c-6.075 0-11-4.925-11-11v-2c0-6.075 4.925-11 11-11h74c6.075 0 11 4.925 11 11v2c0 6.075-4.925 11-11 11z" clip-path="url(&quot;#5eehv&quot;)"/></g><g><path d="M746.286 179.068v1.714h-3.428v-1.714zm-5.142 2.143a1.29 1.29 0 0 0 1.285 1.285h4.286a1.29 1.29 0 0 0 1.285-1.285v-4.285a1.29 1.29 0 0 0-1.285-1.286h-2.143v-1.714h-3.428zm3.428-7.285H748v-1.714h-3.428zm-3.428-1.714h3.428v-1.714h-3.428zm3.428-3.428v-1.714h-3.428v1.714h3.428v1.714H748v-1.714zm0-1.714H748v-1.714h-3.428zm-3.428-1.714h3.428v-1.714H748v-1.714h-3.428v1.714h-3.428zm0-5.142h.057-.057zm.057 0h10.227v6c0 .472.384.856.857.856h6v16.712a.434.434 0 0 1-.43.428h-19.71a.434.434 0 0 1-.43-.428v-23.14c0-.232.197-.428.43-.428h2.999v1.714h3.428v-1.714zm14.12 2.963a23.376 23.376 0 0 1 1.944 2.18h-4.123v-4.124a23.366 23.366 0 0 1 2.18 1.944zm3.547 1.458c-.595-.811-1.424-1.76-2.335-2.67-.91-.91-1.859-1.74-2.67-2.335-1.381-1.013-2.051-1.13-2.435-1.13h-13.284a2.145 2.145 0 0 0-2.142 2.143v23.139c0 1.181.96 2.142 2.142 2.142h19.712a2.145 2.145 0 0 0 2.142-2.142V167.07c0-.384-.117-1.054-1.13-2.435z"/></g><g><g><path d="M802.284 183.786a.434.434 0 0 1-.429.428h-19.714a.434.434 0 0 1-.429-.428v-23.143c0-.232.197-.429.429-.429h13.286v6c0 .474.383.857.857.857h6zm-2.963-20.608a23.38 23.38 0 0 1 1.944 2.18h-4.124v-4.124a23.356 23.356 0 0 1 2.18 1.944zm3.547 1.458c-.595-.811-1.425-1.76-2.335-2.67-.911-.911-1.86-1.74-2.671-2.336-1.381-1.013-2.052-1.13-2.435-1.13H782.14a2.145 2.145 0 0 0-2.143 2.143v23.143c0 1.181.961 2.143 2.143 2.143h19.714a2.145 2.145 0 0 0 2.143-2.143V167.07c0-.383-.117-1.054-1.13-2.435z"/></g><g><g><text dominant-baseline="text-before-edge" style="font-kerning:normal" font-family="'Montserrat','Montserrat-Bold'" font-size="9" font-style="none" font-weight="700" transform="translate(781 166)"><tspan>SVD</tspan></text></g></g></g><g><path fill="#63bf67" d="M911 65c-6.627 0-12-5.373-12-12s5.373-12 12-12h72c6.627 0 12 5.373 12 12s-5.373 12-12 12z"/><path fill="none" stroke="#fff" stroke-miterlimit="20" stroke-opacity=".25" stroke-width="2" d="M911 65c-6.627 0-12-5.373-12-12v0c0-6.627 5.373-12 12-12h72c6.627 0 12 5.373 12 12v0c0 6.627-5.373 12-12 12z" clip-path="url(&quot;#5eehw&quot;)"/></g><g><path fill="#63bf67" d="M911 143c-6.627 0-12-5.373-12-12s5.373-12 12-12h72c6.627 0 12 5.373 12 12s-5.373 12-12 12z"/><path fill="none" stroke="#fff" stroke-miterlimit="20" stroke-opacity=".25" stroke-width="2" d="M911 143c-6.627 0-12-5.373-12-12v0c0-6.627 5.373-12 12-12h72c6.627 0 12 5.373 12 12v0c0 6.627-5.373 12-12 12z" clip-path="url(&quot;#5eehx&quot;)"/></g><g><g><text dominant-baseline="text-before-edge" style="font-kerning:normal" font-family="'Montserrat','Montserrat-Bold'" font-size="10" font-style="none" font-weight="700" transform="translate(29 7)"><tspan>VI_ORA</tspan></text></g></g><g><g><text dominant-baseline="text-before-edge" style="font-kerning:normal" fill="#fff" font-family="'Montserrat','Montserrat-Bold'" font-size="14" font-style="none" font-weight="700" transform="translate(577 5)"><tspan>76</tspan></text></g></g><g><g><text dominant-baseline="text-before-edge" style="font-kerning:normal" fill="#fff" font-family="'Montserrat','Montserrat-Bold'" font-size="12" font-style="none" font-weight="700" transform="translate(218 6)"><tspan>14.1.0.0</tspan></text></g></g><g><g><text dominant-baseline="text-before-edge" style="font-kerning:normal" font-family="'Montserrat','Montserrat-Bold'" font-size="12" font-style="none" font-weight="700" transform="translate(380 6)"><tspan>26-03-2021</tspan></text></g></g><g><g><text dominant-baseline="text-before-edge" style="font-kerning:normal" font-family="'Montserrat','Montserrat-Bold'" font-size="10" font-style="none" font-weight="700" transform="translate(27 46)"><tspan>VI_PDM</tspan></text></g></g><g><g><text dominant-baseline="text-before-edge" style="font-kerning:normal" fill="#fff" font-family="'Montserrat','Montserrat-Bold'" font-size="14" font-style="none" font-weight="700" transform="translate(582 44)"><tspan>7</tspan></text></g></g><g><g><text dominant-baseline="text-before-edge" style="font-kerning:normal" fill="#fff" font-family="'Montserrat','Montserrat-Bold'" font-size="12" font-style="none" font-weight="700" transform="translate(218 45)"><tspan>11.0.0.0</tspan></text></g></g><g><g><text dominant-baseline="text-before-edge" style="font-kerning:normal" font-family="'Montserrat','Montserrat-Bold'" font-size="12" font-style="none" font-weight="700" transform="translate(381 45)"><tspan>21-10-2020</tspan></text></g></g><g><g><text dominant-baseline="text-before-edge" style="font-kerning:normal" fill="#fff" font-family="'Montserrat','Montserrat-Bold'" font-size="12" font-style="none" font-weight="700" transform="translate(925 45)"><tspan>9.0.0.0</tspan></text></g></g><g><g><text dominant-baseline="text-before-edge" style="font-kerning:normal" font-family="'Montserrat','Montserrat-Bold'" font-size="12" font-style="none" font-weight="700" transform="translate(1103 45)"><tspan>21-10-2020</tspan></text></g></g><g><path d="M1323.286 59.854v1.714h-3.428v-1.714zm-5.142 2.142a1.29 1.29 0 0 0 1.285 1.286h4.285a1.29 1.29 0 0 0 1.286-1.286v-4.285a1.29 1.29 0 0 0-1.286-1.285h-2.142v-1.714h-3.428zm3.428-7.284H1325v-1.714h-3.428zm-3.428-1.714h3.428v-1.714h-3.428zm3.428-1.714H1325V49.57h-3.428zm-3.428-1.714h3.428v-1.714h-3.428zm3.428-1.714H1325v-1.714h-3.428zm-3.428-1.714h3.428v-1.714h-3.428zm3.428-1.714H1325v-1.714h-3.428zm-3.428-1.714h3.428V41h-3.428zm17.14 21.853a.434.434 0 0 1-.429.429h-19.71a.434.434 0 0 1-.43-.429V41.428c0-.232.197-.428.43-.428h13.283v5.999c0 .473.383.857.857.857h5.999zm-2.963-20.605a23.376 23.376 0 0 1 1.944 2.18h-4.123v-4.123a23.366 23.366 0 0 1 2.18 1.943zm3.547 1.459c-.595-.812-1.424-1.76-2.335-2.67-.91-.911-1.859-1.74-2.67-2.335-1.381-1.013-2.051-1.13-2.435-1.13h-13.284a2.145 2.145 0 0 0-2.142 2.142v23.14c0 1.18.96 2.142 2.142 2.142h19.711a2.145 2.145 0 0 0 2.143-2.143V47.856c0-.384-.117-1.054-1.13-2.435z"/></g><g><g><path d="M1379.284 64.571a.434.434 0 0 1-.429.429h-19.714a.434.434 0 0 1-.429-.429V41.43c0-.233.197-.429.429-.429h13.286v6c0 .473.383.857.857.857h6zm-2.963-20.608a23.38 23.38 0 0 1 1.944 2.18h-4.124v-4.124a23.356 23.356 0 0 1 2.18 1.944zm3.547 1.459c-.595-.812-1.425-1.76-2.335-2.671-.911-.91-1.86-1.74-2.671-2.335-1.381-1.013-2.052-1.13-2.435-1.13h-13.286a2.145 2.145 0 0 0-2.143 2.143V64.57c0 1.182.961 2.143 2.143 2.143h19.714a2.145 2.145 0 0 0 2.143-2.143V47.857c0-.384-.117-1.054-1.13-2.435z"/></g><g><g><text dominant-baseline="text-before-edge" style="font-kerning:normal" font-family="'Montserrat','Montserrat-Bold'" font-size="9" font-style="none" font-weight="700" transform="translate(1358 47)"><tspan>SVD</tspan></text></g></g></g><g><path d="M1419.855 53.853a.857.857 0 0 0-.857-.857h-12a.857.857 0 0 0 0 1.714h12a.857.857 0 0 0 .857-.857zm0 3.429a.857.857 0 0 0-.857-.858h-12a.857.857 0 0 0 0 1.715h12a.857.857 0 0 0 .857-.857zm0 3.428a.857.857 0 0 0-.857-.857h-12a.857.857 0 0 0 0 1.714h12a.857.857 0 0 0 .857-.857zm3.428 3.857a.434.434 0 0 1-.428.429h-19.714a.434.434 0 0 1-.429-.429V41.424c0-.232.196-.428.429-.428h13.285v6c0 .473.384.857.857.857h6zm-2.963-20.608a23.38 23.38 0 0 1 1.944 2.18h-4.123v-4.124a23.356 23.356 0 0 1 2.18 1.944zm3.548 1.459c-.595-.812-1.425-1.76-2.336-2.671-.91-.91-1.859-1.74-2.67-2.335-1.382-1.013-2.052-1.13-2.436-1.13h-13.285a2.145 2.145 0 0 0-2.143 2.142v23.143c0 1.182.961 2.143 2.143 2.143h19.714a2.145 2.145 0 0 0 2.143-2.143V47.853c0-.384-.117-1.054-1.13-2.435z"/></g><g><g><text dominant-baseline="text-before-edge" style="font-kerning:normal" fill="#fff" font-family="'Montserrat','Montserrat-Bold'" font-size="14" font-style="none" font-weight="700" transform="translate(578 83)"><tspan>14</tspan></text></g></g><g><g><text dominant-baseline="text-before-edge" style="font-kerning:normal" fill="#fff" font-family="'Montserrat','Montserrat-Bold'" font-size="12" font-style="none" font-weight="700" transform="translate(218 84)"><tspan>9.0.0.0</tspan></text></g></g><g><g><text dominant-baseline="text-before-edge" style="font-kerning:normal" font-family="'Montserrat','Montserrat-Bold'" font-size="12" font-style="none" font-weight="700" transform="translate(380 84)"><tspan>26-03-2021</tspan></text></g></g><g><g><text dominant-baseline="text-before-edge" style="font-kerning:normal" font-family="'Montserrat','Montserrat-Bold'" font-size="10" font-style="none" font-weight="700" transform="translate(5 86)"><tspan>VI_SCADA_WOA</tspan></text></g></g><g><g><text dominant-baseline="text-before-edge" style="font-kerning:normal" font-family="'Montserrat','Montserrat-Bold'" font-size="10" font-style="none" font-weight="700" transform="translate(30 124)"><tspan>VI_TFC</tspan></text></g></g><g><g><text dominant-baseline="text-before-edge" style="font-kerning:normal" fill="#fff" font-family="'Montserrat','Montserrat-Bold'" font-size="14" font-style="none" font-weight="700" transform="translate(578 122)"><tspan>14</tspan></text></g></g><g><g><text dominant-baseline="text-before-edge" style="font-kerning:normal" fill="#fff" font-family="'Montserrat','Montserrat-Bold'" font-size="12" font-style="none" font-weight="700" transform="translate(218 123)"><tspan>9.0.0.0</tspan></text></g></g><g><g><text dominant-baseline="text-before-edge" style="font-kerning:normal" font-family="'Montserrat','Montserrat-Bold'" font-size="12" font-style="none" font-weight="700" transform="translate(381 123)"><tspan>28-01-2021</tspan></text></g></g><g><g><text dominant-baseline="text-before-edge" style="font-kerning:normal" fill="#fff" font-family="'Montserrat','Montserrat-Bold'" font-size="12" font-style="none" font-weight="700" transform="translate(925 123)"><tspan>14.1.0.0</tspan></text></g></g><g><g><text dominant-baseline="text-before-edge" style="font-kerning:normal" font-family="'Montserrat','Montserrat-Bold'" font-size="12" font-style="none" font-weight="700" transform="translate(1103 123)"><tspan>28-01-2021</tspan></text></g></g><g><path d="M1323.286 137.854v1.714h-3.428v-1.714zm-5.142 2.142a1.29 1.29 0 0 0 1.285 1.286h4.285a1.29 1.29 0 0 0 1.286-1.286v-4.285a1.29 1.29 0 0 0-1.286-1.285h-2.142v-1.714h-3.428zm3.428-7.284H1325v-1.714h-3.428zm-3.428-1.714h3.428v-1.714h-3.428zm3.428-1.714H1325v-1.714h-3.428zm-3.428-1.714h3.428v-1.714h-3.428zm3.428-1.714H1325v-1.714h-3.428zm-3.428-1.714h3.428v-1.714h-3.428zm3.428-1.714H1325v-1.714h-3.428zm-3.428-1.714h3.428V119h-3.428zm17.14 21.853a.434.434 0 0 1-.429.429h-19.71a.434.434 0 0 1-.43-.429v-23.139c0-.232.197-.428.43-.428h13.283v5.999c0 .473.383.857.857.857h5.999zm-2.963-20.605a23.376 23.376 0 0 1 1.944 2.18h-4.123v-4.123a23.366 23.366 0 0 1 2.18 1.943zm3.547 1.459c-.595-.812-1.424-1.76-2.335-2.67-.91-.911-1.859-1.74-2.67-2.335-1.381-1.013-2.051-1.13-2.435-1.13h-13.284a2.145 2.145 0 0 0-2.142 2.142v23.14c0 1.18.96 2.142 2.142 2.142h19.711a2.145 2.145 0 0 0 2.143-2.143v-16.711c0-.384-.117-1.054-1.13-2.435z"/></g><g><g><path d="M1379.284 142.571a.434.434 0 0 1-.429.429h-19.714a.434.434 0 0 1-.429-.429V119.43c0-.233.197-.429.429-.429h13.286v6c0 .473.383.857.857.857h6zm-2.963-20.608a23.38 23.38 0 0 1 1.944 2.18h-4.124v-4.124a23.356 23.356 0 0 1 2.18 1.944zm3.547 1.459c-.595-.812-1.425-1.76-2.335-2.671-.911-.91-1.86-1.74-2.671-2.335-1.381-1.013-2.052-1.13-2.435-1.13h-13.286a2.145 2.145 0 0 0-2.143 2.143v23.142c0 1.182.961 2.143 2.143 2.143h19.714a2.145 2.145 0 0 0 2.143-2.143v-16.714c0-.384-.117-1.054-1.13-2.435z"/></g><g><g><text dominant-baseline="text-before-edge" style="font-kerning:normal" font-family="'Montserrat','Montserrat-Bold'" font-size="9" font-style="none" font-weight="700" transform="translate(1358 125)"><tspan>SVD</tspan></text></g></g></g><g><path d="M1419.855 131.853a.857.857 0 0 0-.857-.857h-12a.857.857 0 0 0 0 1.714h12a.857.857 0 0 0 .857-.857zm0 3.429a.857.857 0 0 0-.857-.858h-12a.857.857 0 0 0 0 1.715h12a.857.857 0 0 0 .857-.857zm0 3.428a.857.857 0 0 0-.857-.857h-12a.857.857 0 0 0 0 1.714h12a.857.857 0 0 0 .857-.857zm3.428 3.857a.434.434 0 0 1-.428.429h-19.714a.434.434 0 0 1-.429-.429v-23.143c0-.232.196-.428.429-.428h13.285v6c0 .473.384.857.857.857h6zm-2.963-20.608a23.38 23.38 0 0 1 1.944 2.18h-4.123v-4.124a23.356 23.356 0 0 1 2.18 1.944zm3.548 1.459c-.595-.812-1.425-1.76-2.336-2.671-.91-.911-1.859-1.74-2.67-2.335-1.382-1.013-2.052-1.13-2.436-1.13h-13.285a2.145 2.145 0 0 0-2.143 2.142v23.143c0 1.182.961 2.143 2.143 2.143h19.714a2.145 2.145 0 0 0 2.143-2.143v-16.714c0-.384-.117-1.054-1.13-2.435z"/></g><g><g><text dominant-baseline="text-before-edge" style="font-kerning:normal" font-family="'Montserrat','Montserrat-Bold'" font-size="10" font-style="none" font-weight="700" transform="translate(22 165)"><tspan>VIBES_UX</tspan></text></g></g><g><g><text dominant-baseline="text-before-edge" style="font-kerning:normal" fill="#fff" font-family="'Montserrat','Montserrat-Bold'" font-size="14" font-style="none" font-weight="700" transform="translate(577 163)"><tspan>76</tspan></text></g></g><g><g><text dominant-baseline="text-before-edge" style="font-kerning:normal" fill="#fff" font-family="'Montserrat','Montserrat-Bold'" font-size="12" font-style="none" font-weight="700" transform="translate(218 164)"><tspan>14.1.0.0</tspan></text></g></g><g><g><text dominant-baseline="text-before-edge" style="font-kerning:normal" font-family="'Montserrat','Montserrat-Bold'" font-size="12" font-style="none" font-weight="700" transform="translate(380 164)"><tspan>26-03-2021</tspan></text></g></g></g></svg>