<svg xmlns="http://www.w3.org/2000/svg" width="1425" height="574" viewBox="0 0 1425 574"><defs><clipPath id="7hg8a"><path fill="#fff" d="M12 26C5.373 26 0 20.627 0 14S5.373 2 12 2h72c6.627 0 12 5.373 12 12s-5.373 12-12 12z"/></clipPath><clipPath id="7hg8b"><path fill="#fff" d="M12 65C5.373 65 0 59.627 0 53s5.373-12 12-12h72c6.627 0 12 5.373 12 12s-5.373 12-12 12z"/></clipPath><clipPath id="7hg8c"><path fill="#fff" d="M12 104c-6.627 0-12-5.373-12-12s5.373-12 12-12h72c6.627 0 12 5.373 12 12s-5.373 12-12 12z"/></clipPath><clipPath id="7hg8d"><path fill="#fff" d="M12 143c-6.627 0-12-5.373-12-12s5.373-12 12-12h72c6.627 0 12 5.373 12 12s-5.373 12-12 12z"/></clipPath><clipPath id="7hg8e"><path fill="#fff" d="M12 182c-6.627 0-12-5.373-12-12s5.373-12 12-12h72c6.627 0 12 5.373 12 12s-5.373 12-12 12z"/></clipPath><clipPath id="7hg8f"><path fill="#fff" d="M12 221c-6.627 0-12-5.373-12-12s5.373-12 12-12h72c6.627 0 12 5.373 12 12s-5.373 12-12 12z"/></clipPath><clipPath id="7hg8g"><path fill="#fff" d="M12 260c-6.627 0-12-5.373-12-12s5.373-12 12-12h72c6.627 0 12 5.373 12 12s-5.373 12-12 12z"/></clipPath><clipPath id="7hg8h"><path fill="#fff" d="M12 299c-6.627 0-12-5.373-12-12s5.373-12 12-12h72c6.627 0 12 5.373 12 12s-5.373 12-12 12z"/></clipPath><clipPath id="7hg8i"><path fill="#fff" d="M12 338c-6.627 0-12-5.373-12-12s5.373-12 12-12h72c6.627 0 12 5.373 12 12s-5.373 12-12 12z"/></clipPath><clipPath id="7hg8j"><path fill="#fff" d="M12 377c-6.627 0-12-5.373-12-12s5.373-12 12-12h72c6.627 0 12 5.373 12 12s-5.373 12-12 12z"/></clipPath><clipPath id="7hg8k"><path fill="#fff" d="M12 416c-6.627 0-12-5.373-12-12s5.373-12 12-12h72c6.627 0 12 5.373 12 12s-5.373 12-12 12z"/></clipPath><clipPath id="7hg8l"><path fill="#fff" d="M12 455c-6.627 0-12-5.373-12-12s5.373-12 12-12h72c6.627 0 12 5.373 12 12s-5.373 12-12 12z"/></clipPath><clipPath id="7hg8m"><path fill="#fff" d="M12 494c-6.627 0-12-5.373-12-12s5.373-12 12-12h72c6.627 0 12 5.373 12 12s-5.373 12-12 12z"/></clipPath><clipPath id="7hg8n"><path fill="#fff" d="M12 533c-6.627 0-12-5.373-12-12s5.373-12 12-12h72c6.627 0 12 5.373 12 12s-5.373 12-12 12z"/></clipPath><clipPath id="7hg8o"><path fill="#fff" d="M12 572c-6.627 0-12-5.373-12-12s5.373-12 12-12h72c6.627 0 12 5.373 12 12s-5.373 12-12 12z"/></clipPath><clipPath id="7hg8p"><path fill="#fff" d="M204 26c-6.627 0-12-5.373-12-12s5.373-12 12-12h72c6.627 0 12 5.373 12 12s-5.373 12-12 12z"/></clipPath><clipPath id="7hg8q"><path fill="#fff" d="M204 65c-6.627 0-12-5.373-12-12s5.373-12 12-12h72c6.627 0 12 5.373 12 12s-5.373 12-12 12z"/></clipPath><clipPath id="7hg8r"><path fill="#fff" d="M204 104c-6.627 0-12-5.373-12-12s5.373-12 12-12h72c6.627 0 12 5.373 12 12s-5.373 12-12 12z"/></clipPath><clipPath id="7hg8s"><path fill="#fff" d="M204 143c-6.627 0-12-5.373-12-12s5.373-12 12-12h72c6.627 0 12 5.373 12 12s-5.373 12-12 12z"/></clipPath><clipPath id="7hg8t"><path fill="#fff" d="M204 182c-6.627 0-12-5.373-12-12s5.373-12 12-12h72c6.627 0 12 5.373 12 12s-5.373 12-12 12z"/></clipPath><clipPath id="7hg8u"><path fill="#fff" d="M204 221c-6.627 0-12-5.373-12-12s5.373-12 12-12h72c6.627 0 12 5.373 12 12s-5.373 12-12 12z"/></clipPath><clipPath id="7hg8v"><path fill="#fff" d="M204 260c-6.627 0-12-5.373-12-12s5.373-12 12-12h72c6.627 0 12 5.373 12 12s-5.373 12-12 12z"/></clipPath><clipPath id="7hg8w"><path fill="#fff" d="M204 299c-6.627 0-12-5.373-12-12s5.373-12 12-12h72c6.627 0 12 5.373 12 12s-5.373 12-12 12z"/></clipPath><clipPath id="7hg8x"><path fill="#fff" d="M204 338c-6.627 0-12-5.373-12-12s5.373-12 12-12h72c6.627 0 12 5.373 12 12s-5.373 12-12 12z"/></clipPath><clipPath id="7hg8y"><path fill="#fff" d="M204 377c-6.627 0-12-5.373-12-12s5.373-12 12-12h72c6.627 0 12 5.373 12 12s-5.373 12-12 12z"/></clipPath><clipPath id="7hg8z"><path fill="#fff" d="M204 416c-6.627 0-12-5.373-12-12s5.373-12 12-12h72c6.627 0 12 5.373 12 12s-5.373 12-12 12z"/></clipPath><clipPath id="7hg8A"><path fill="#fff" d="M204 455c-6.627 0-12-5.373-12-12s5.373-12 12-12h72c6.627 0 12 5.373 12 12s-5.373 12-12 12z"/></clipPath><clipPath id="7hg8B"><path fill="#fff" d="M204 494c-6.627 0-12-5.373-12-12s5.373-12 12-12h72c6.627 0 12 5.373 12 12s-5.373 12-12 12z"/></clipPath><clipPath id="7hg8C"><path fill="#fff" d="M204 533c-6.627 0-12-5.373-12-12s5.373-12 12-12h72c6.627 0 12 5.373 12 12s-5.373 12-12 12z"/></clipPath><clipPath id="7hg8D"><path fill="#fff" d="M204 572c-6.627 0-12-5.373-12-12s5.373-12 12-12h72c6.627 0 12 5.373 12 12s-5.373 12-12 12z"/></clipPath><clipPath id="7hg8E"><path fill="#fff" d="M377 26c-6.627 0-12-5.373-12-12s5.373-12 12-12h72c6.627 0 12 5.373 12 12s-5.373 12-12 12z"/></clipPath><clipPath id="7hg8F"><path fill="#fff" d="M377 65c-6.627 0-12-5.373-12-12s5.373-12 12-12h72c6.627 0 12 5.373 12 12s-5.373 12-12 12z"/></clipPath><clipPath id="7hg8G"><path fill="#fff" d="M377 104c-6.627 0-12-5.373-12-12s5.373-12 12-12h72c6.627 0 12 5.373 12 12s-5.373 12-12 12z"/></clipPath><clipPath id="7hg8H"><path fill="#fff" d="M377 143c-6.627 0-12-5.373-12-12s5.373-12 12-12h72c6.627 0 12 5.373 12 12s-5.373 12-12 12z"/></clipPath><clipPath id="7hg8I"><path fill="#fff" d="M377 182c-6.627 0-12-5.373-12-12s5.373-12 12-12h72c6.627 0 12 5.373 12 12s-5.373 12-12 12z"/></clipPath><clipPath id="7hg8J"><path fill="#fff" d="M377 221c-6.627 0-12-5.373-12-12s5.373-12 12-12h72c6.627 0 12 5.373 12 12s-5.373 12-12 12z"/></clipPath><clipPath id="7hg8K"><path fill="#fff" d="M377 338c-6.627 0-12-5.373-12-12s5.373-12 12-12h72c6.627 0 12 5.373 12 12s-5.373 12-12 12z"/></clipPath><clipPath id="7hg8L"><path fill="#fff" d="M377 377c-6.627 0-12-5.373-12-12s5.373-12 12-12h72c6.627 0 12 5.373 12 12s-5.373 12-12 12z"/></clipPath><clipPath id="7hg8M"><path fill="#fff" d="M377 416c-6.627 0-12-5.373-12-12s5.373-12 12-12h72c6.627 0 12 5.373 12 12s-5.373 12-12 12z"/></clipPath><clipPath id="7hg8N"><path fill="#fff" d="M377 455c-6.627 0-12-5.373-12-12s5.373-12 12-12h72c6.627 0 12 5.373 12 12s-5.373 12-12 12z"/></clipPath><clipPath id="7hg8O"><path fill="#fff" d="M377 494c-6.627 0-12-5.373-12-12s5.373-12 12-12h72c6.627 0 12 5.373 12 12s-5.373 12-12 12z"/></clipPath><clipPath id="7hg8P"><path fill="#fff" d="M377 572c-6.627 0-12-5.373-12-12s5.373-12 12-12h72c6.627 0 12 5.373 12 12s-5.373 12-12 12z"/></clipPath><clipPath id="7hg8Q"><path fill="#fff" d="M550 26c-6.627 0-12-5.373-12-12s5.373-12 12-12h72c6.627 0 12 5.373 12 12s-5.373 12-12 12z"/></clipPath><clipPath id="7hg8R"><path fill="#fff" d="M550 65c-6.627 0-12-5.373-12-12s5.373-12 12-12h72c6.627 0 12 5.373 12 12s-5.373 12-12 12z"/></clipPath><clipPath id="7hg8S"><path fill="#fff" d="M550 104c-6.627 0-12-5.373-12-12s5.373-12 12-12h72c6.627 0 12 5.373 12 12s-5.373 12-12 12z"/></clipPath><clipPath id="7hg8T"><path fill="#fff" d="M550 143c-6.627 0-12-5.373-12-12s5.373-12 12-12h72c6.627 0 12 5.373 12 12s-5.373 12-12 12z"/></clipPath><clipPath id="7hg8U"><path fill="#fff" d="M550 182c-6.627 0-12-5.373-12-12s5.373-12 12-12h72c6.627 0 12 5.373 12 12s-5.373 12-12 12z"/></clipPath><clipPath id="7hg8V"><path fill="#fff" d="M550 221c-6.627 0-12-5.373-12-12s5.373-12 12-12h72c6.627 0 12 5.373 12 12s-5.373 12-12 12z"/></clipPath><clipPath id="7hg8W"><path fill="#fff" d="M550 260c-6.627 0-12-5.373-12-12s5.373-12 12-12h72c6.627 0 12 5.373 12 12s-5.373 12-12 12z"/></clipPath><clipPath id="7hg8X"><path fill="#fff" d="M550 299c-6.627 0-12-5.373-12-12s5.373-12 12-12h72c6.627 0 12 5.373 12 12s-5.373 12-12 12z"/></clipPath><clipPath id="7hg8Y"><path fill="#fff" d="M550 338c-6.627 0-12-5.373-12-12s5.373-12 12-12h72c6.627 0 12 5.373 12 12s-5.373 12-12 12z"/></clipPath><clipPath id="7hg8Z"><path fill="#fff" d="M550 377c-6.627 0-12-5.373-12-12s5.373-12 12-12h72c6.627 0 12 5.373 12 12s-5.373 12-12 12z"/></clipPath><clipPath id="7hg8aa"><path fill="#fff" d="M550 416c-6.627 0-12-5.373-12-12s5.373-12 12-12h72c6.627 0 12 5.373 12 12s-5.373 12-12 12z"/></clipPath><clipPath id="7hg8ab"><path fill="#fff" d="M550 455c-6.627 0-12-5.373-12-12s5.373-12 12-12h72c6.627 0 12 5.373 12 12s-5.373 12-12 12z"/></clipPath><clipPath id="7hg8ac"><path fill="#fff" d="M550 494c-6.627 0-12-5.373-12-12s5.373-12 12-12h72c6.627 0 12 5.373 12 12s-5.373 12-12 12z"/></clipPath><clipPath id="7hg8ad"><path fill="#fff" d="M550 533c-6.627 0-12-5.373-12-12s5.373-12 12-12h72c6.627 0 12 5.373 12 12s-5.373 12-12 12z"/></clipPath><clipPath id="7hg8ae"><path fill="#fff" d="M550 572c-6.627 0-12-5.373-12-12s5.373-12 12-12h72c6.627 0 12 5.373 12 12s-5.373 12-12 12z"/></clipPath><clipPath id="7hg8af"><path fill="#fff" d="M911 26c-6.627 0-12-5.373-12-12s5.373-12 12-12h72c6.627 0 12 5.373 12 12s-5.373 12-12 12z"/></clipPath><clipPath id="7hg8ag"><path fill="#fff" d="M911 65c-6.627 0-12-5.373-12-12s5.373-12 12-12h72c6.627 0 12 5.373 12 12s-5.373 12-12 12z"/></clipPath><clipPath id="7hg8ah"><path fill="#fff" d="M911 143c-6.627 0-12-5.373-12-12s5.373-12 12-12h72c6.627 0 12 5.373 12 12s-5.373 12-12 12z"/></clipPath><clipPath id="7hg8ai"><path fill="#fff" d="M911 104c-6.627 0-12-5.373-12-12s5.373-12 12-12h72c6.627 0 12 5.373 12 12s-5.373 12-12 12z"/></clipPath><clipPath id="7hg8aj"><path fill="#fff" d="M911 494c-6.627 0-12-5.373-12-12s5.373-12 12-12h72c6.627 0 12 5.373 12 12s-5.373 12-12 12z"/></clipPath><clipPath id="7hg8ak"><path fill="#fff" d="M1099 26c-6.627 0-12-5.373-12-12s5.373-12 12-12h72c6.627 0 12 5.373 12 12s-5.373 12-12 12z"/></clipPath><clipPath id="7hg8al"><path fill="#fff" d="M1099 65c-6.627 0-12-5.373-12-12s5.373-12 12-12h72c6.627 0 12 5.373 12 12s-5.373 12-12 12z"/></clipPath><clipPath id="7hg8am"><path fill="#fff" d="M1099 104c-6.627 0-12-5.373-12-12s5.373-12 12-12h72c6.627 0 12 5.373 12 12s-5.373 12-12 12z"/></clipPath><clipPath id="7hg8an"><path fill="#fff" d="M1099 143c-6.627 0-12-5.373-12-12s5.373-12 12-12h72c6.627 0 12 5.373 12 12s-5.373 12-12 12z"/></clipPath><clipPath id="7hg8ao"><path fill="#fff" d="M1099 377c-6.627 0-12-5.373-12-12s5.373-12 12-12h72c6.627 0 12 5.373 12 12s-5.373 12-12 12z"/></clipPath><clipPath id="7hg8ap"><path fill="#fff" d="M1099 494c-6.627 0-12-5.373-12-12s5.373-12 12-12h72c6.627 0 12 5.373 12 12s-5.373 12-12 12z"/></clipPath><clipPath id="7hg8aq"><path fill="#fff" d="M911 377c-6.627 0-12-5.373-12-12s5.373-12 12-12h72c6.627 0 12 5.373 12 12s-5.373 12-12 12z"/></clipPath></defs><g><g><path fill="#efeeed" d="M12 26C5.373 26 0 20.627 0 14S5.373 2 12 2h72c6.627 0 12 5.373 12 12s-5.373 12-12 12z"/><path fill="none" stroke="#fff" stroke-miterlimit="20" stroke-opacity=".25" stroke-width="2" d="M12 26C5.373 26 0 20.627 0 14v0C0 7.373 5.373 2 12 2h72c6.627 0 12 5.373 12 12v0c0 6.627-5.373 12-12 12z" clip-path="url(&quot;#7hg8a&quot;)"/></g><g><path fill="#efeeed" d="M12 65C5.373 65 0 59.627 0 53s5.373-12 12-12h72c6.627 0 12 5.373 12 12s-5.373 12-12 12z"/><path fill="none" stroke="#fff" stroke-miterlimit="20" stroke-opacity=".25" stroke-width="2" d="M12 65C5.373 65 0 59.627 0 53v0c0-6.627 5.373-12 12-12h72c6.627 0 12 5.373 12 12v0c0 6.627-5.373 12-12 12z" clip-path="url(&quot;#7hg8b&quot;)"/></g><g><path fill="#efeeed" d="M12 104c-6.627 0-12-5.373-12-12s5.373-12 12-12h72c6.627 0 12 5.373 12 12s-5.373 12-12 12z"/><path fill="none" stroke="#fff" stroke-miterlimit="20" stroke-opacity=".25" stroke-width="2" d="M12 104c-6.627 0-12-5.373-12-12v0c0-6.627 5.373-12 12-12h72c6.627 0 12 5.373 12 12v0c0 6.627-5.373 12-12 12z" clip-path="url(&quot;#7hg8c&quot;)"/></g><g><path fill="#efeeed" d="M12 143c-6.627 0-12-5.373-12-12s5.373-12 12-12h72c6.627 0 12 5.373 12 12s-5.373 12-12 12z"/><path fill="none" stroke="#fff" stroke-miterlimit="20" stroke-opacity=".25" stroke-width="2" d="M12 143c-6.627 0-12-5.373-12-12v0c0-6.627 5.373-12 12-12h72c6.627 0 12 5.373 12 12v0c0 6.627-5.373 12-12 12z" clip-path="url(&quot;#7hg8d&quot;)"/></g><g><path fill="#efeeed" d="M12 182c-6.627 0-12-5.373-12-12s5.373-12 12-12h72c6.627 0 12 5.373 12 12s-5.373 12-12 12z"/><path fill="none" stroke="#fff" stroke-miterlimit="20" stroke-opacity=".25" stroke-width="2" d="M12 182c-6.627 0-12-5.373-12-12v0c0-6.627 5.373-12 12-12h72c6.627 0 12 5.373 12 12v0c0 6.627-5.373 12-12 12z" clip-path="url(&quot;#7hg8e&quot;)"/></g><g><path fill="#efeeed" d="M12 221c-6.627 0-12-5.373-12-12s5.373-12 12-12h72c6.627 0 12 5.373 12 12s-5.373 12-12 12z"/><path fill="none" stroke="#fff" stroke-miterlimit="20" stroke-opacity=".25" stroke-width="2" d="M12 221c-6.627 0-12-5.373-12-12v0c0-6.627 5.373-12 12-12h72c6.627 0 12 5.373 12 12v0c0 6.627-5.373 12-12 12z" clip-path="url(&quot;#7hg8f&quot;)"/></g><g><path fill="#efeeed" d="M12 260c-6.627 0-12-5.373-12-12s5.373-12 12-12h72c6.627 0 12 5.373 12 12s-5.373 12-12 12z"/><path fill="none" stroke="#fff" stroke-miterlimit="20" stroke-opacity=".25" stroke-width="2" d="M12 260c-6.627 0-12-5.373-12-12v0c0-6.627 5.373-12 12-12h72c6.627 0 12 5.373 12 12v0c0 6.627-5.373 12-12 12z" clip-path="url(&quot;#7hg8g&quot;)"/></g><g><path fill="#efeeed" d="M12 299c-6.627 0-12-5.373-12-12s5.373-12 12-12h72c6.627 0 12 5.373 12 12s-5.373 12-12 12z"/><path fill="none" stroke="#fff" stroke-miterlimit="20" stroke-opacity=".25" stroke-width="2" d="M12 299c-6.627 0-12-5.373-12-12v0c0-6.627 5.373-12 12-12h72c6.627 0 12 5.373 12 12v0c0 6.627-5.373 12-12 12z" clip-path="url(&quot;#7hg8h&quot;)"/></g><g><path fill="#efeeed" d="M12 338c-6.627 0-12-5.373-12-12s5.373-12 12-12h72c6.627 0 12 5.373 12 12s-5.373 12-12 12z"/><path fill="none" stroke="#fff" stroke-miterlimit="20" stroke-opacity=".25" stroke-width="2" d="M12 338c-6.627 0-12-5.373-12-12v0c0-6.627 5.373-12 12-12h72c6.627 0 12 5.373 12 12v0c0 6.627-5.373 12-12 12z" clip-path="url(&quot;#7hg8i&quot;)"/></g><g><path fill="#efeeed" d="M12 377c-6.627 0-12-5.373-12-12s5.373-12 12-12h72c6.627 0 12 5.373 12 12s-5.373 12-12 12z"/><path fill="none" stroke="#fff" stroke-miterlimit="20" stroke-opacity=".25" stroke-width="2" d="M12 377c-6.627 0-12-5.373-12-12v0c0-6.627 5.373-12 12-12h72c6.627 0 12 5.373 12 12v0c0 6.627-5.373 12-12 12z" clip-path="url(&quot;#7hg8j&quot;)"/></g><g><path fill="#efeeed" d="M12 416c-6.627 0-12-5.373-12-12s5.373-12 12-12h72c6.627 0 12 5.373 12 12s-5.373 12-12 12z"/><path fill="none" stroke="#fff" stroke-miterlimit="20" stroke-opacity=".25" stroke-width="2" d="M12 416c-6.627 0-12-5.373-12-12v0c0-6.627 5.373-12 12-12h72c6.627 0 12 5.373 12 12v0c0 6.627-5.373 12-12 12z" clip-path="url(&quot;#7hg8k&quot;)"/></g><g><path fill="#efeeed" d="M12 455c-6.627 0-12-5.373-12-12s5.373-12 12-12h72c6.627 0 12 5.373 12 12s-5.373 12-12 12z"/><path fill="none" stroke="#fff" stroke-miterlimit="20" stroke-opacity=".25" stroke-width="2" d="M12 455c-6.627 0-12-5.373-12-12v0c0-6.627 5.373-12 12-12h72c6.627 0 12 5.373 12 12v0c0 6.627-5.373 12-12 12z" clip-path="url(&quot;#7hg8l&quot;)"/></g><g><path fill="#efeeed" d="M12 494c-6.627 0-12-5.373-12-12s5.373-12 12-12h72c6.627 0 12 5.373 12 12s-5.373 12-12 12z"/><path fill="none" stroke="#fff" stroke-miterlimit="20" stroke-opacity=".25" stroke-width="2" d="M12 494c-6.627 0-12-5.373-12-12v0c0-6.627 5.373-12 12-12h72c6.627 0 12 5.373 12 12v0c0 6.627-5.373 12-12 12z" clip-path="url(&quot;#7hg8m&quot;)"/></g><g><path fill="#efeeed" d="M12 533c-6.627 0-12-5.373-12-12s5.373-12 12-12h72c6.627 0 12 5.373 12 12s-5.373 12-12 12z"/><path fill="none" stroke="#fff" stroke-miterlimit="20" stroke-opacity=".25" stroke-width="2" d="M12 533c-6.627 0-12-5.373-12-12v0c0-6.627 5.373-12 12-12h72c6.627 0 12 5.373 12 12v0c0 6.627-5.373 12-12 12z" clip-path="url(&quot;#7hg8n&quot;)"/></g><g><path fill="#efeeed" d="M12 572c-6.627 0-12-5.373-12-12s5.373-12 12-12h72c6.627 0 12 5.373 12 12s-5.373 12-12 12z"/><path fill="none" stroke="#fff" stroke-miterlimit="20" stroke-opacity=".25" stroke-width="2" d="M12 572c-6.627 0-12-5.373-12-12v0c0-6.627 5.373-12 12-12h72c6.627 0 12 5.373 12 12v0c0 6.627-5.373 12-12 12z" clip-path="url(&quot;#7hg8o&quot;)"/></g><g><path fill="#63bf67" d="M204 26c-6.627 0-12-5.373-12-12s5.373-12 12-12h72c6.627 0 12 5.373 12 12s-5.373 12-12 12z"/><path fill="none" stroke="#fff" stroke-miterlimit="20" stroke-opacity=".25" stroke-width="2" d="M204 26c-6.627 0-12-5.373-12-12v0c0-6.627 5.373-12 12-12h72c6.627 0 12 5.373 12 12v0c0 6.627-5.373 12-12 12z" clip-path="url(&quot;#7hg8p&quot;)"/></g><g><path fill="#63bf67" d="M204 65c-6.627 0-12-5.373-12-12s5.373-12 12-12h72c6.627 0 12 5.373 12 12s-5.373 12-12 12z"/><path fill="none" stroke="#fff" stroke-miterlimit="20" stroke-opacity=".25" stroke-width="2" d="M204 65c-6.627 0-12-5.373-12-12v0c0-6.627 5.373-12 12-12h72c6.627 0 12 5.373 12 12v0c0 6.627-5.373 12-12 12z" clip-path="url(&quot;#7hg8q&quot;)"/></g><g><path fill="#63bf67" d="M204 104c-6.627 0-12-5.373-12-12s5.373-12 12-12h72c6.627 0 12 5.373 12 12s-5.373 12-12 12z"/><path fill="none" stroke="#fff" stroke-miterlimit="20" stroke-opacity=".25" stroke-width="2" d="M204 104c-6.627 0-12-5.373-12-12v0c0-6.627 5.373-12 12-12h72c6.627 0 12 5.373 12 12v0c0 6.627-5.373 12-12 12z" clip-path="url(&quot;#7hg8r&quot;)"/></g><g><path fill="#63bf67" d="M204 143c-6.627 0-12-5.373-12-12s5.373-12 12-12h72c6.627 0 12 5.373 12 12s-5.373 12-12 12z"/><path fill="none" stroke="#fff" stroke-miterlimit="20" stroke-opacity=".25" stroke-width="2" d="M204 143c-6.627 0-12-5.373-12-12v0c0-6.627 5.373-12 12-12h72c6.627 0 12 5.373 12 12v0c0 6.627-5.373 12-12 12z" clip-path="url(&quot;#7hg8s&quot;)"/></g><g><path fill="#63bf67" d="M204 182c-6.627 0-12-5.373-12-12s5.373-12 12-12h72c6.627 0 12 5.373 12 12s-5.373 12-12 12z"/><path fill="none" stroke="#fff" stroke-miterlimit="20" stroke-opacity=".25" stroke-width="2" d="M204 182c-6.627 0-12-5.373-12-12v0c0-6.627 5.373-12 12-12h72c6.627 0 12 5.373 12 12v0c0 6.627-5.373 12-12 12z" clip-path="url(&quot;#7hg8t&quot;)"/></g><g><path fill="#63bf67" d="M204 221c-6.627 0-12-5.373-12-12s5.373-12 12-12h72c6.627 0 12 5.373 12 12s-5.373 12-12 12z"/><path fill="none" stroke="#fff" stroke-miterlimit="20" stroke-opacity=".25" stroke-width="2" d="M204 221c-6.627 0-12-5.373-12-12v0c0-6.627 5.373-12 12-12h72c6.627 0 12 5.373 12 12v0c0 6.627-5.373 12-12 12z" clip-path="url(&quot;#7hg8u&quot;)"/></g><g><path fill="#f2d230" d="M204 260c-6.627 0-12-5.373-12-12s5.373-12 12-12h72c6.627 0 12 5.373 12 12s-5.373 12-12 12z"/><path fill="none" stroke="#fff" stroke-miterlimit="20" stroke-opacity=".25" stroke-width="2" d="M204 260c-6.627 0-12-5.373-12-12v0c0-6.627 5.373-12 12-12h72c6.627 0 12 5.373 12 12v0c0 6.627-5.373 12-12 12z" clip-path="url(&quot;#7hg8v&quot;)"/></g><g><path fill="#f2d230" d="M204 299c-6.627 0-12-5.373-12-12s5.373-12 12-12h72c6.627 0 12 5.373 12 12s-5.373 12-12 12z"/><path fill="none" stroke="#fff" stroke-miterlimit="20" stroke-opacity=".25" stroke-width="2" d="M204 299c-6.627 0-12-5.373-12-12v0c0-6.627 5.373-12 12-12h72c6.627 0 12 5.373 12 12v0c0 6.627-5.373 12-12 12z" clip-path="url(&quot;#7hg8w&quot;)"/></g><g><path fill="#63bf67" d="M204 338c-6.627 0-12-5.373-12-12s5.373-12 12-12h72c6.627 0 12 5.373 12 12s-5.373 12-12 12z"/><path fill="none" stroke="#fff" stroke-miterlimit="20" stroke-opacity=".25" stroke-width="2" d="M204 338c-6.627 0-12-5.373-12-12v0c0-6.627 5.373-12 12-12h72c6.627 0 12 5.373 12 12v0c0 6.627-5.373 12-12 12z" clip-path="url(&quot;#7hg8x&quot;)"/></g><g><path fill="#63bf67" d="M204 377c-6.627 0-12-5.373-12-12s5.373-12 12-12h72c6.627 0 12 5.373 12 12s-5.373 12-12 12z"/><path fill="none" stroke="#fff" stroke-miterlimit="20" stroke-opacity=".25" stroke-width="2" d="M204 377c-6.627 0-12-5.373-12-12v0c0-6.627 5.373-12 12-12h72c6.627 0 12 5.373 12 12v0c0 6.627-5.373 12-12 12z" clip-path="url(&quot;#7hg8y&quot;)"/></g><g><path fill="#63bf67" d="M204 416c-6.627 0-12-5.373-12-12s5.373-12 12-12h72c6.627 0 12 5.373 12 12s-5.373 12-12 12z"/><path fill="none" stroke="#fff" stroke-miterlimit="20" stroke-opacity=".25" stroke-width="2" d="M204 416c-6.627 0-12-5.373-12-12v0c0-6.627 5.373-12 12-12h72c6.627 0 12 5.373 12 12v0c0 6.627-5.373 12-12 12z" clip-path="url(&quot;#7hg8z&quot;)"/></g><g><path fill="#63bf67" d="M204 455c-6.627 0-12-5.373-12-12s5.373-12 12-12h72c6.627 0 12 5.373 12 12s-5.373 12-12 12z"/><path fill="none" stroke="#fff" stroke-miterlimit="20" stroke-opacity=".25" stroke-width="2" d="M204 455c-6.627 0-12-5.373-12-12v0c0-6.627 5.373-12 12-12h72c6.627 0 12 5.373 12 12v0c0 6.627-5.373 12-12 12z" clip-path="url(&quot;#7hg8A&quot;)"/></g><g><path fill="#63bf67" d="M204 494c-6.627 0-12-5.373-12-12s5.373-12 12-12h72c6.627 0 12 5.373 12 12s-5.373 12-12 12z"/><path fill="none" stroke="#fff" stroke-miterlimit="20" stroke-opacity=".25" stroke-width="2" d="M204 494c-6.627 0-12-5.373-12-12v0c0-6.627 5.373-12 12-12h72c6.627 0 12 5.373 12 12v0c0 6.627-5.373 12-12 12z" clip-path="url(&quot;#7hg8B&quot;)"/></g><g><path fill="#f2d230" d="M204 533c-6.627 0-12-5.373-12-12s5.373-12 12-12h72c6.627 0 12 5.373 12 12s-5.373 12-12 12z"/><path fill="none" stroke="#fff" stroke-miterlimit="20" stroke-opacity=".25" stroke-width="2" d="M204 533c-6.627 0-12-5.373-12-12v0c0-6.627 5.373-12 12-12h72c6.627 0 12 5.373 12 12v0c0 6.627-5.373 12-12 12z" clip-path="url(&quot;#7hg8C&quot;)"/></g><g><path fill="#63bf67" d="M204 572c-6.627 0-12-5.373-12-12s5.373-12 12-12h72c6.627 0 12 5.373 12 12s-5.373 12-12 12z"/><path fill="none" stroke="#fff" stroke-miterlimit="20" stroke-opacity=".25" stroke-width="2" d="M204 572c-6.627 0-12-5.373-12-12v0c0-6.627 5.373-12 12-12h72c6.627 0 12 5.373 12 12v0c0 6.627-5.373 12-12 12z" clip-path="url(&quot;#7hg8D&quot;)"/></g><g><path fill="#efeeed" d="M377 26c-6.627 0-12-5.373-12-12s5.373-12 12-12h72c6.627 0 12 5.373 12 12s-5.373 12-12 12z"/><path fill="none" stroke="#fff" stroke-miterlimit="20" stroke-opacity=".25" stroke-width="2" d="M377 26c-6.627 0-12-5.373-12-12v0c0-6.627 5.373-12 12-12h72c6.627 0 12 5.373 12 12v0c0 6.627-5.373 12-12 12z" clip-path="url(&quot;#7hg8E&quot;)"/></g><g><path fill="#efeeed" d="M377 65c-6.627 0-12-5.373-12-12s5.373-12 12-12h72c6.627 0 12 5.373 12 12s-5.373 12-12 12z"/><path fill="none" stroke="#fff" stroke-miterlimit="20" stroke-opacity=".25" stroke-width="2" d="M377 65c-6.627 0-12-5.373-12-12v0c0-6.627 5.373-12 12-12h72c6.627 0 12 5.373 12 12v0c0 6.627-5.373 12-12 12z" clip-path="url(&quot;#7hg8F&quot;)"/></g><g><path fill="#efeeed" d="M377 104c-6.627 0-12-5.373-12-12s5.373-12 12-12h72c6.627 0 12 5.373 12 12s-5.373 12-12 12z"/><path fill="none" stroke="#fff" stroke-miterlimit="20" stroke-opacity=".25" stroke-width="2" d="M377 104c-6.627 0-12-5.373-12-12v0c0-6.627 5.373-12 12-12h72c6.627 0 12 5.373 12 12v0c0 6.627-5.373 12-12 12z" clip-path="url(&quot;#7hg8G&quot;)"/></g><g><path fill="#efeeed" d="M377 143c-6.627 0-12-5.373-12-12s5.373-12 12-12h72c6.627 0 12 5.373 12 12s-5.373 12-12 12z"/><path fill="none" stroke="#fff" stroke-miterlimit="20" stroke-opacity=".25" stroke-width="2" d="M377 143c-6.627 0-12-5.373-12-12v0c0-6.627 5.373-12 12-12h72c6.627 0 12 5.373 12 12v0c0 6.627-5.373 12-12 12z" clip-path="url(&quot;#7hg8H&quot;)"/></g><g><path fill="#efeeed" d="M377 182c-6.627 0-12-5.373-12-12s5.373-12 12-12h72c6.627 0 12 5.373 12 12s-5.373 12-12 12z"/><path fill="none" stroke="#fff" stroke-miterlimit="20" stroke-opacity=".25" stroke-width="2" d="M377 182c-6.627 0-12-5.373-12-12v0c0-6.627 5.373-12 12-12h72c6.627 0 12 5.373 12 12v0c0 6.627-5.373 12-12 12z" clip-path="url(&quot;#7hg8I&quot;)"/></g><g><path fill="#efeeed" d="M377 221c-6.627 0-12-5.373-12-12s5.373-12 12-12h72c6.627 0 12 5.373 12 12s-5.373 12-12 12z"/><path fill="none" stroke="#fff" stroke-miterlimit="20" stroke-opacity=".25" stroke-width="2" d="M377 221c-6.627 0-12-5.373-12-12v0c0-6.627 5.373-12 12-12h72c6.627 0 12 5.373 12 12v0c0 6.627-5.373 12-12 12z" clip-path="url(&quot;#7hg8J&quot;)"/></g><g><path fill="#efeeed" d="M377 338c-6.627 0-12-5.373-12-12s5.373-12 12-12h72c6.627 0 12 5.373 12 12s-5.373 12-12 12z"/><path fill="none" stroke="#fff" stroke-miterlimit="20" stroke-opacity=".25" stroke-width="2" d="M377 338c-6.627 0-12-5.373-12-12v0c0-6.627 5.373-12 12-12h72c6.627 0 12 5.373 12 12v0c0 6.627-5.373 12-12 12z" clip-path="url(&quot;#7hg8K&quot;)"/></g><g><path fill="#efeeed" d="M377 377c-6.627 0-12-5.373-12-12s5.373-12 12-12h72c6.627 0 12 5.373 12 12s-5.373 12-12 12z"/><path fill="none" stroke="#fff" stroke-miterlimit="20" stroke-opacity=".25" stroke-width="2" d="M377 377c-6.627 0-12-5.373-12-12v0c0-6.627 5.373-12 12-12h72c6.627 0 12 5.373 12 12v0c0 6.627-5.373 12-12 12z" clip-path="url(&quot;#7hg8L&quot;)"/></g><g><path fill="#efeeed" d="M377 416c-6.627 0-12-5.373-12-12s5.373-12 12-12h72c6.627 0 12 5.373 12 12s-5.373 12-12 12z"/><path fill="none" stroke="#fff" stroke-miterlimit="20" stroke-opacity=".25" stroke-width="2" d="M377 416c-6.627 0-12-5.373-12-12v0c0-6.627 5.373-12 12-12h72c6.627 0 12 5.373 12 12v0c0 6.627-5.373 12-12 12z" clip-path="url(&quot;#7hg8M&quot;)"/></g><g><path fill="#efeeed" d="M377 455c-6.627 0-12-5.373-12-12s5.373-12 12-12h72c6.627 0 12 5.373 12 12s-5.373 12-12 12z"/><path fill="none" stroke="#fff" stroke-miterlimit="20" stroke-opacity=".25" stroke-width="2" d="M377 455c-6.627 0-12-5.373-12-12v0c0-6.627 5.373-12 12-12h72c6.627 0 12 5.373 12 12v0c0 6.627-5.373 12-12 12z" clip-path="url(&quot;#7hg8N&quot;)"/></g><g><path fill="#efeeed" d="M377 494c-6.627 0-12-5.373-12-12s5.373-12 12-12h72c6.627 0 12 5.373 12 12s-5.373 12-12 12z"/><path fill="none" stroke="#fff" stroke-miterlimit="20" stroke-opacity=".25" stroke-width="2" d="M377 494c-6.627 0-12-5.373-12-12v0c0-6.627 5.373-12 12-12h72c6.627 0 12 5.373 12 12v0c0 6.627-5.373 12-12 12z" clip-path="url(&quot;#7hg8O&quot;)"/></g><g><path fill="#efeeed" d="M377 572c-6.627 0-12-5.373-12-12s5.373-12 12-12h72c6.627 0 12 5.373 12 12s-5.373 12-12 12z"/><path fill="none" stroke="#fff" stroke-miterlimit="20" stroke-opacity=".25" stroke-width="2" d="M377 572c-6.627 0-12-5.373-12-12v0c0-6.627 5.373-12 12-12h72c6.627 0 12 5.373 12 12v0c0 6.627-5.373 12-12 12z" clip-path="url(&quot;#7hg8P&quot;)"/></g><g><path fill="#bc3131" d="M550 26c-6.627 0-12-5.373-12-12s5.373-12 12-12h72c6.627 0 12 5.373 12 12s-5.373 12-12 12z"/><path fill="none" stroke="#fff" stroke-miterlimit="20" stroke-opacity=".25" stroke-width="2" d="M550 26c-6.627 0-12-5.373-12-12v0c0-6.627 5.373-12 12-12h72c6.627 0 12 5.373 12 12v0c0 6.627-5.373 12-12 12z" clip-path="url(&quot;#7hg8Q&quot;)"/></g><g><path fill="#f0a53c" d="M550 65c-6.627 0-12-5.373-12-12s5.373-12 12-12h72c6.627 0 12 5.373 12 12s-5.373 12-12 12z"/><path fill="none" stroke="#fff" stroke-miterlimit="20" stroke-opacity=".25" stroke-width="2" d="M550 65c-6.627 0-12-5.373-12-12v0c0-6.627 5.373-12 12-12h72c6.627 0 12 5.373 12 12v0c0 6.627-5.373 12-12 12z" clip-path="url(&quot;#7hg8R&quot;)"/></g><g><path fill="#63bf67" d="M550 104c-6.627 0-12-5.373-12-12s5.373-12 12-12h72c6.627 0 12 5.373 12 12s-5.373 12-12 12z"/><path fill="none" stroke="#fff" stroke-miterlimit="20" stroke-opacity=".25" stroke-width="2" d="M550 104c-6.627 0-12-5.373-12-12v0c0-6.627 5.373-12 12-12h72c6.627 0 12 5.373 12 12v0c0 6.627-5.373 12-12 12z" clip-path="url(&quot;#7hg8S&quot;)"/></g><g><path fill="#f0a53c" d="M550 143c-6.627 0-12-5.373-12-12s5.373-12 12-12h72c6.627 0 12 5.373 12 12s-5.373 12-12 12z"/><path fill="none" stroke="#fff" stroke-miterlimit="20" stroke-opacity=".25" stroke-width="2" d="M550 143c-6.627 0-12-5.373-12-12v0c0-6.627 5.373-12 12-12h72c6.627 0 12 5.373 12 12v0c0 6.627-5.373 12-12 12z" clip-path="url(&quot;#7hg8T&quot;)"/></g><g><path fill="#bc3131" d="M550 182c-6.627 0-12-5.373-12-12s5.373-12 12-12h72c6.627 0 12 5.373 12 12s-5.373 12-12 12z"/><path fill="none" stroke="#fff" stroke-miterlimit="20" stroke-opacity=".25" stroke-width="2" d="M550 182c-6.627 0-12-5.373-12-12v0c0-6.627 5.373-12 12-12h72c6.627 0 12 5.373 12 12v0c0 6.627-5.373 12-12 12z" clip-path="url(&quot;#7hg8U&quot;)"/></g><g><path fill="#bc3131" d="M550 221c-6.627 0-12-5.373-12-12s5.373-12 12-12h72c6.627 0 12 5.373 12 12s-5.373 12-12 12z"/><path fill="none" stroke="#fff" stroke-miterlimit="20" stroke-opacity=".25" stroke-width="2" d="M550 221c-6.627 0-12-5.373-12-12v0c0-6.627 5.373-12 12-12h72c6.627 0 12 5.373 12 12v0c0 6.627-5.373 12-12 12z" clip-path="url(&quot;#7hg8V&quot;)"/></g><g><path fill="#f0a53c" d="M550 260c-6.627 0-12-5.373-12-12s5.373-12 12-12h72c6.627 0 12 5.373 12 12s-5.373 12-12 12z"/><path fill="none" stroke="#fff" stroke-miterlimit="20" stroke-opacity=".25" stroke-width="2" d="M550 260c-6.627 0-12-5.373-12-12v0c0-6.627 5.373-12 12-12h72c6.627 0 12 5.373 12 12v0c0 6.627-5.373 12-12 12z" clip-path="url(&quot;#7hg8W&quot;)"/></g><g><path fill="#63bf67" d="M550 299c-6.627 0-12-5.373-12-12s5.373-12 12-12h72c6.627 0 12 5.373 12 12s-5.373 12-12 12z"/><path fill="none" stroke="#fff" stroke-miterlimit="20" stroke-opacity=".25" stroke-width="2" d="M550 299c-6.627 0-12-5.373-12-12v0c0-6.627 5.373-12 12-12h72c6.627 0 12 5.373 12 12v0c0 6.627-5.373 12-12 12z" clip-path="url(&quot;#7hg8X&quot;)"/></g><g><path fill="#bc3131" d="M550 338c-6.627 0-12-5.373-12-12s5.373-12 12-12h72c6.627 0 12 5.373 12 12s-5.373 12-12 12z"/><path fill="none" stroke="#fff" stroke-miterlimit="20" stroke-opacity=".25" stroke-width="2" d="M550 338c-6.627 0-12-5.373-12-12v0c0-6.627 5.373-12 12-12h72c6.627 0 12 5.373 12 12v0c0 6.627-5.373 12-12 12z" clip-path="url(&quot;#7hg8Y&quot;)"/></g><g><path fill="#63bf67" d="M550 377c-6.627 0-12-5.373-12-12s5.373-12 12-12h72c6.627 0 12 5.373 12 12s-5.373 12-12 12z"/><path fill="none" stroke="#fff" stroke-miterlimit="20" stroke-opacity=".25" stroke-width="2" d="M550 377c-6.627 0-12-5.373-12-12v0c0-6.627 5.373-12 12-12h72c6.627 0 12 5.373 12 12v0c0 6.627-5.373 12-12 12z" clip-path="url(&quot;#7hg8Z&quot;)"/></g><g><path fill="#f0a53c" d="M550 416c-6.627 0-12-5.373-12-12s5.373-12 12-12h72c6.627 0 12 5.373 12 12s-5.373 12-12 12z"/><path fill="none" stroke="#fff" stroke-miterlimit="20" stroke-opacity=".25" stroke-width="2" d="M550 416c-6.627 0-12-5.373-12-12v0c0-6.627 5.373-12 12-12h72c6.627 0 12 5.373 12 12v0c0 6.627-5.373 12-12 12z" clip-path="url(&quot;#7hg8aa&quot;)"/></g><g><path fill="#63bf67" d="M550 455c-6.627 0-12-5.373-12-12s5.373-12 12-12h72c6.627 0 12 5.373 12 12s-5.373 12-12 12z"/><path fill="none" stroke="#fff" stroke-miterlimit="20" stroke-opacity=".25" stroke-width="2" d="M550 455c-6.627 0-12-5.373-12-12v0c0-6.627 5.373-12 12-12h72c6.627 0 12 5.373 12 12v0c0 6.627-5.373 12-12 12z" clip-path="url(&quot;#7hg8ab&quot;)"/></g><g><path fill="#bc3131" d="M550 494c-6.627 0-12-5.373-12-12s5.373-12 12-12h72c6.627 0 12 5.373 12 12s-5.373 12-12 12z"/><path fill="none" stroke="#fff" stroke-miterlimit="20" stroke-opacity=".25" stroke-width="2" d="M550 494c-6.627 0-12-5.373-12-12v0c0-6.627 5.373-12 12-12h72c6.627 0 12 5.373 12 12v0c0 6.627-5.373 12-12 12z" clip-path="url(&quot;#7hg8ac&quot;)"/></g><g><path fill="#63bf67" d="M550 533c-6.627 0-12-5.373-12-12s5.373-12 12-12h72c6.627 0 12 5.373 12 12s-5.373 12-12 12z"/><path fill="none" stroke="#fff" stroke-miterlimit="20" stroke-opacity=".25" stroke-width="2" d="M550 533c-6.627 0-12-5.373-12-12v0c0-6.627 5.373-12 12-12h72c6.627 0 12 5.373 12 12v0c0 6.627-5.373 12-12 12z" clip-path="url(&quot;#7hg8ad&quot;)"/></g><g><path fill="#f0a53c" d="M550 572c-6.627 0-12-5.373-12-12s5.373-12 12-12h72c6.627 0 12 5.373 12 12s-5.373 12-12 12z"/><path fill="none" stroke="#fff" stroke-miterlimit="20" stroke-opacity=".25" stroke-width="2" d="M550 572c-6.627 0-12-5.373-12-12v0c0-6.627 5.373-12 12-12h72c6.627 0 12 5.373 12 12v0c0 6.627-5.373 12-12 12z" clip-path="url(&quot;#7hg8ae&quot;)"/></g><g><path d="M746.286 20.854v1.714h-3.428v-1.714zm-5.142 2.142a1.29 1.29 0 0 0 1.285 1.286h4.286A1.29 1.29 0 0 0 748 22.996v-4.285a1.29 1.29 0 0 0-1.285-1.285h-2.143v-1.714h-3.428zm3.428-8.998v-1.714h-3.428v1.714h3.428v1.714H748v-1.714zm0-1.714H748V10.57h-3.428zm-3.428-1.714h3.428V8.856H748V7.142h-3.428v1.714h-3.428zm0-3.428h3.428V5.428h-3.428zm3.428-3.428v1.714H748V3.714zm-3.428 0h3.428V2h-3.428zm17.14 21.854a.434.434 0 0 1-.428.428h-19.712a.434.434 0 0 1-.428-.428V2.427c0-.232.196-.428.428-.428h13.284v5.999c0 .473.384.857.857.857h6zm-2.963-20.605a23.376 23.376 0 0 1 1.944 2.179h-4.123V3.019a23.366 23.366 0 0 1 2.18 1.944zm3.547 1.458c-.595-.812-1.424-1.76-2.335-2.67-.91-.911-1.859-1.74-2.67-2.335-1.381-1.013-2.051-1.13-2.435-1.13h-13.284a2.145 2.145 0 0 0-2.142 2.142v23.14c0 1.18.96 2.142 2.142 2.142h19.712a2.145 2.145 0 0 0 2.142-2.142V8.856c0-.384-.117-1.054-1.13-2.435z"/></g><g><g><path d="M802.284 25.571a.434.434 0 0 1-.429.429h-19.714a.434.434 0 0 1-.429-.429V2.43c0-.233.197-.429.429-.429h13.286v6c0 .473.383.857.857.857h6zM799.32 4.963a23.38 23.38 0 0 1 1.944 2.18h-4.124V3.019a23.356 23.356 0 0 1 2.18 1.944zm3.547 1.459c-.595-.812-1.425-1.76-2.335-2.67-.911-.912-1.86-1.741-2.671-2.336-1.381-1.013-2.052-1.13-2.435-1.13H782.14a2.145 2.145 0 0 0-2.143 2.143V25.57c0 1.182.961 2.143 2.143 2.143h19.714a2.145 2.145 0 0 0 2.143-2.143V8.857c0-.384-.117-1.054-1.13-2.435z"/></g><g><g><text dominant-baseline="text-before-edge" style="font-kerning:normal" font-family="'Montserrat','Montserrat-Bold'" font-size="9" font-style="none" font-weight="700" transform="translate(781 8)"><tspan>SVD</tspan></text></g></g></g><g><path d="M746.286 59.854v1.714h-3.428v-1.714zm-5.142 2.142a1.29 1.29 0 0 0 1.285 1.286h4.286A1.29 1.29 0 0 0 748 61.996v-4.285a1.29 1.29 0 0 0-1.285-1.285h-2.143v-1.714h-3.428zm3.428-8.998v-1.714h-3.428v1.714h3.428v1.714H748v-1.714zm0-1.714H748V49.57h-3.428zm-3.428-1.714h3.428v-1.714H748v-1.714h-3.428v1.714h-3.428zm0-3.428h3.428v-1.714h-3.428zm3.428-3.428v1.714H748v-1.714zm-3.428 0h3.428V41h-3.428zm17.14 21.853a.434.434 0 0 1-.428.429h-19.712a.434.434 0 0 1-.428-.428v-23.14c0-.232.196-.428.428-.428h13.284v5.999c0 .473.384.857.857.857h6zm-2.963-20.604a23.376 23.376 0 0 1 1.944 2.179h-4.123v-4.123a23.366 23.366 0 0 1 2.18 1.944zm3.547 1.458c-.595-.812-1.424-1.76-2.335-2.67-.91-.911-1.859-1.74-2.67-2.335-1.381-1.013-2.051-1.13-2.435-1.13h-13.284a2.145 2.145 0 0 0-2.142 2.142v23.14c0 1.18.96 2.142 2.142 2.142h19.712a2.145 2.145 0 0 0 2.142-2.142V47.855c0-.384-.117-1.054-1.13-2.435z"/></g><g><g><path d="M802.284 64.571a.434.434 0 0 1-.429.429h-19.714a.434.434 0 0 1-.429-.429V41.43c0-.233.197-.429.429-.429h13.286v6c0 .473.383.857.857.857h6zm-2.963-20.608a23.38 23.38 0 0 1 1.944 2.18h-4.124v-4.124a23.356 23.356 0 0 1 2.18 1.944zm3.547 1.459c-.595-.812-1.425-1.76-2.335-2.67-.911-.912-1.86-1.741-2.671-2.336-1.381-1.013-2.052-1.13-2.435-1.13H782.14a2.145 2.145 0 0 0-2.143 2.143V64.57c0 1.182.961 2.143 2.143 2.143h19.714a2.145 2.145 0 0 0 2.143-2.143V47.857c0-.384-.117-1.054-1.13-2.435z"/></g><g><g><text dominant-baseline="text-before-edge" style="font-kerning:normal" font-family="'Montserrat','Montserrat-Bold'" font-size="9" font-style="none" font-weight="700" transform="translate(781 47)"><tspan>SVD</tspan></text></g></g></g><g><path d="M746.286 98.854v1.714h-3.428v-1.714zm-5.142 2.142a1.29 1.29 0 0 0 1.285 1.286h4.286a1.29 1.29 0 0 0 1.285-1.286v-4.285a1.29 1.29 0 0 0-1.285-1.285h-2.143v-1.714h-3.428zm3.428-8.998v-1.714h-3.428v1.714h3.428v1.714H748v-1.714zm0-1.714H748V88.57h-3.428zm-3.428-1.714h3.428v-1.714H748v-1.714h-3.428v1.714h-3.428zm0-3.428h3.428v-1.714h-3.428zm3.428-3.428v1.714H748v-1.714zm-3.428 0h3.428V80h-3.428zm17.14 21.853a.434.434 0 0 1-.428.429h-19.712a.434.434 0 0 1-.428-.429V80.428c0-.232.196-.428.428-.428h13.284v5.999c0 .473.384.857.857.857h6zm-2.963-20.605a23.376 23.376 0 0 1 1.944 2.18h-4.123v-4.123a23.366 23.366 0 0 1 2.18 1.943zm3.547 1.459c-.595-.812-1.424-1.76-2.335-2.67-.91-.911-1.859-1.74-2.67-2.335-1.381-1.013-2.051-1.13-2.435-1.13h-13.284a2.145 2.145 0 0 0-2.142 2.142v23.14c0 1.18.96 2.142 2.142 2.142h19.712a2.145 2.145 0 0 0 2.142-2.143V86.856c0-.384-.117-1.054-1.13-2.435z"/></g><g><g><path d="M802.284 103.571a.434.434 0 0 1-.429.429h-19.714a.434.434 0 0 1-.429-.429V80.43c0-.233.197-.429.429-.429h13.286v6c0 .473.383.857.857.857h6zm-2.963-20.608a23.38 23.38 0 0 1 1.944 2.18h-4.124v-4.124a23.356 23.356 0 0 1 2.18 1.944zm3.547 1.459c-.595-.812-1.425-1.76-2.335-2.671-.911-.91-1.86-1.74-2.671-2.335-1.381-1.013-2.052-1.13-2.435-1.13H782.14a2.145 2.145 0 0 0-2.143 2.143v23.142c0 1.182.961 2.143 2.143 2.143h19.714a2.145 2.145 0 0 0 2.143-2.143V86.857c0-.384-.117-1.054-1.13-2.435z"/></g><g><g><text dominant-baseline="text-before-edge" style="font-kerning:normal" font-family="'Montserrat','Montserrat-Bold'" font-size="9" font-style="none" font-weight="700" transform="translate(781 86)"><tspan>SVD</tspan></text></g></g></g><g><path d="M746.286 137.854v1.714h-3.428v-1.714zm-5.142 2.142a1.29 1.29 0 0 0 1.285 1.286h4.286a1.29 1.29 0 0 0 1.285-1.286v-4.285a1.29 1.29 0 0 0-1.285-1.285h-2.143v-1.714h-3.428zm3.428-8.998v-1.714h-3.428v1.714h3.428v1.714H748v-1.714zm0-1.714H748v-1.714h-3.428zm-3.428-1.714h3.428v-1.714H748v-1.714h-3.428v1.714h-3.428zm0-3.428h3.428v-1.714h-3.428zm3.428-3.428v1.714H748v-1.714zm-3.428 0h3.428V119h-3.428zm17.14 21.853a.434.434 0 0 1-.428.429h-19.712a.434.434 0 0 1-.428-.429v-23.139c0-.232.196-.428.428-.428h13.284v5.999c0 .473.384.857.857.857h6zm-2.963-20.605a23.376 23.376 0 0 1 1.944 2.18h-4.123v-4.123a23.366 23.366 0 0 1 2.18 1.943zm3.547 1.459c-.595-.812-1.424-1.76-2.335-2.67-.91-.911-1.859-1.74-2.67-2.335-1.381-1.013-2.051-1.13-2.435-1.13h-13.284a2.145 2.145 0 0 0-2.142 2.142v23.14c0 1.18.96 2.142 2.142 2.142h19.712a2.145 2.145 0 0 0 2.142-2.143v-16.711c0-.384-.117-1.054-1.13-2.435z"/></g><g><g><path d="M802.284 142.571a.434.434 0 0 1-.429.429h-19.714a.434.434 0 0 1-.429-.429V119.43c0-.233.197-.429.429-.429h13.286v6c0 .473.383.857.857.857h6zm-2.963-20.608a23.38 23.38 0 0 1 1.944 2.18h-4.124v-4.124a23.356 23.356 0 0 1 2.18 1.944zm3.547 1.459c-.595-.812-1.425-1.76-2.335-2.671-.911-.91-1.86-1.74-2.671-2.335-1.381-1.013-2.052-1.13-2.435-1.13H782.14a2.145 2.145 0 0 0-2.143 2.143v23.142c0 1.182.961 2.143 2.143 2.143h19.714a2.145 2.145 0 0 0 2.143-2.143v-16.714c0-.384-.117-1.054-1.13-2.435z"/></g><g><g><text dominant-baseline="text-before-edge" style="font-kerning:normal" font-family="'Montserrat','Montserrat-Bold'" font-size="9" font-style="none" font-weight="700" transform="translate(781 125)"><tspan>SVD</tspan></text></g></g></g><g><path d="M746.286 176.854v1.714h-3.428v-1.714zm-5.142 2.142a1.29 1.29 0 0 0 1.285 1.286h4.286a1.29 1.29 0 0 0 1.285-1.286v-4.285a1.29 1.29 0 0 0-1.285-1.285h-2.143v-1.714h-3.428zm3.428-8.998v-1.714h-3.428v1.714h3.428v1.714H748v-1.714zm0-1.714H748v-1.714h-3.428zm-3.428-1.714h3.428v-1.714H748v-1.714h-3.428v1.714h-3.428zm0-3.428h3.428v-1.714h-3.428zm3.428-3.428v1.714H748v-1.714zm-3.428 0h3.428V158h-3.428zm17.14 21.853a.434.434 0 0 1-.428.429h-19.712a.434.434 0 0 1-.428-.429v-23.139c0-.232.196-.428.428-.428h13.284v5.999c0 .473.384.857.857.857h6zm-2.963-20.605a23.376 23.376 0 0 1 1.944 2.18h-4.123v-4.123a23.366 23.366 0 0 1 2.18 1.943zm3.547 1.459c-.595-.812-1.424-1.76-2.335-2.67-.91-.911-1.859-1.74-2.67-2.335-1.381-1.013-2.051-1.13-2.435-1.13h-13.284a2.145 2.145 0 0 0-2.142 2.142v23.14c0 1.18.96 2.142 2.142 2.142h19.712a2.145 2.145 0 0 0 2.142-2.143v-16.711c0-.384-.117-1.054-1.13-2.435z"/></g><g><g><path d="M802.284 181.571a.434.434 0 0 1-.429.429h-19.714a.434.434 0 0 1-.429-.429V158.43c0-.233.197-.429.429-.429h13.286v6c0 .473.383.857.857.857h6zm-2.963-20.608a23.38 23.38 0 0 1 1.944 2.18h-4.124v-4.124a23.356 23.356 0 0 1 2.18 1.944zm3.547 1.459c-.595-.812-1.425-1.76-2.335-2.671-.911-.91-1.86-1.74-2.671-2.335-1.381-1.013-2.052-1.13-2.435-1.13H782.14a2.145 2.145 0 0 0-2.143 2.143v23.142c0 1.182.961 2.143 2.143 2.143h19.714a2.145 2.145 0 0 0 2.143-2.143v-16.714c0-.384-.117-1.054-1.13-2.435z"/></g><g><g><text dominant-baseline="text-before-edge" style="font-kerning:normal" font-family="'Montserrat','Montserrat-Bold'" font-size="9" font-style="none" font-weight="700" transform="translate(781 164)"><tspan>SVD</tspan></text></g></g></g><g><path d="M746.286 215.854v1.714h-3.428v-1.714zm-5.142 2.142a1.29 1.29 0 0 0 1.285 1.286h4.286a1.29 1.29 0 0 0 1.285-1.286v-4.285a1.29 1.29 0 0 0-1.285-1.285h-2.143v-1.714h-3.428zm3.428-8.998v-1.714h-3.428v1.714h3.428v1.714H748v-1.714zm0-1.714H748v-1.714h-3.428zm-3.428-1.714h3.428v-1.714H748v-1.714h-3.428v1.714h-3.428zm0-3.428h3.428v-1.714h-3.428zm3.428-3.428v1.714H748v-1.714zm-3.428 0h3.428V197h-3.428zm17.14 21.853a.434.434 0 0 1-.428.429h-19.712a.434.434 0 0 1-.428-.429v-23.139c0-.232.196-.428.428-.428h13.284v5.999c0 .473.384.857.857.857h6zm-2.963-20.605a23.376 23.376 0 0 1 1.944 2.18h-4.123v-4.123a23.366 23.366 0 0 1 2.18 1.943zm3.547 1.459c-.595-.812-1.424-1.76-2.335-2.67-.91-.911-1.859-1.74-2.67-2.335-1.381-1.013-2.051-1.13-2.435-1.13h-13.284a2.145 2.145 0 0 0-2.142 2.142v23.14c0 1.18.96 2.142 2.142 2.142h19.712a2.145 2.145 0 0 0 2.142-2.143v-16.711c0-.384-.117-1.054-1.13-2.435z"/></g><g><g><path d="M802.284 220.571a.434.434 0 0 1-.429.429h-19.714a.434.434 0 0 1-.429-.429V197.43c0-.233.197-.429.429-.429h13.286v6c0 .473.383.857.857.857h6zm-2.963-20.608a23.38 23.38 0 0 1 1.944 2.18h-4.124v-4.124a23.356 23.356 0 0 1 2.18 1.944zm3.547 1.459c-.595-.812-1.425-1.76-2.335-2.671-.911-.91-1.86-1.74-2.671-2.335-1.381-1.013-2.052-1.13-2.435-1.13H782.14a2.145 2.145 0 0 0-2.143 2.143v23.142c0 1.182.961 2.143 2.143 2.143h19.714a2.145 2.145 0 0 0 2.143-2.143v-16.714c0-.384-.117-1.054-1.13-2.435z"/></g><g><g><text dominant-baseline="text-before-edge" style="font-kerning:normal" font-family="'Montserrat','Montserrat-Bold'" font-size="9" font-style="none" font-weight="700" transform="translate(781 203)"><tspan>SVD</tspan></text></g></g></g><g><path d="M746.286 332.854v1.714h-3.428v-1.714zm-5.142 2.142a1.29 1.29 0 0 0 1.285 1.286h4.286a1.29 1.29 0 0 0 1.285-1.286v-4.285a1.29 1.29 0 0 0-1.285-1.285h-2.143v-1.714h-3.428zm3.428-8.998v-1.714h-3.428v1.714h3.428v1.714H748v-1.714zm0-1.714H748v-1.714h-3.428zm-3.428-1.714h3.428v-1.714H748v-1.714h-3.428v1.714h-3.428zm0-3.428h3.428v-1.714h-3.428zm3.428-3.428v1.714H748v-1.714zm-3.428 0h3.428V314h-3.428zm17.14 21.853a.434.434 0 0 1-.428.429h-19.712a.434.434 0 0 1-.428-.429v-23.139c0-.232.196-.428.428-.428h13.284v5.999c0 .473.384.857.857.857h6zm-2.963-20.605a23.376 23.376 0 0 1 1.944 2.18h-4.123v-4.123a23.366 23.366 0 0 1 2.18 1.943zm3.547 1.459c-.595-.812-1.424-1.76-2.335-2.67-.91-.911-1.859-1.74-2.67-2.335-1.381-1.013-2.051-1.13-2.435-1.13h-13.284a2.145 2.145 0 0 0-2.142 2.142v23.14c0 1.18.96 2.142 2.142 2.142h19.712a2.145 2.145 0 0 0 2.142-2.143v-16.711c0-.384-.117-1.054-1.13-2.435z"/></g><g><g><path d="M802.284 337.571a.434.434 0 0 1-.429.429h-19.714a.434.434 0 0 1-.429-.429V314.43c0-.233.197-.429.429-.429h13.286v6c0 .473.383.857.857.857h6zm-2.963-20.608a23.38 23.38 0 0 1 1.944 2.18h-4.124v-4.124a23.356 23.356 0 0 1 2.18 1.944zm3.547 1.459c-.595-.812-1.425-1.76-2.335-2.671-.911-.91-1.86-1.74-2.671-2.335-1.381-1.013-2.052-1.13-2.435-1.13H782.14a2.145 2.145 0 0 0-2.143 2.143v23.142c0 1.182.961 2.143 2.143 2.143h19.714a2.145 2.145 0 0 0 2.143-2.143v-16.714c0-.384-.117-1.054-1.13-2.435z"/></g><g><g><text dominant-baseline="text-before-edge" style="font-kerning:normal" font-family="'Montserrat','Montserrat-Bold'" font-size="9" font-style="none" font-weight="700" transform="translate(781 320)"><tspan>SVD</tspan></text></g></g></g><g><path d="M746.286 371.854v1.714h-3.428v-1.714zm-5.142 2.142a1.29 1.29 0 0 0 1.285 1.286h4.286a1.29 1.29 0 0 0 1.285-1.286v-4.285a1.29 1.29 0 0 0-1.285-1.285h-2.143v-1.714h-3.428zm3.428-8.998v-1.714h-3.428v1.714h3.428v1.714H748v-1.714zm0-1.714H748v-1.714h-3.428zm-3.428-1.714h3.428v-1.714H748v-1.714h-3.428v1.714h-3.428zm0-3.428h3.428v-1.714h-3.428zm3.428-3.428v1.714H748v-1.714zm-3.428 0h3.428V353h-3.428zm17.14 21.853a.434.434 0 0 1-.428.429h-19.712a.434.434 0 0 1-.428-.429v-23.139c0-.232.196-.428.428-.428h13.284v5.999c0 .473.384.857.857.857h6zm-2.963-20.605a23.376 23.376 0 0 1 1.944 2.18h-4.123v-4.123a23.366 23.366 0 0 1 2.18 1.943zm3.547 1.459c-.595-.812-1.424-1.76-2.335-2.67-.91-.911-1.859-1.74-2.67-2.335-1.381-1.013-2.051-1.13-2.435-1.13h-13.284a2.145 2.145 0 0 0-2.142 2.142v23.14c0 1.18.96 2.142 2.142 2.142h19.712a2.145 2.145 0 0 0 2.142-2.143v-16.711c0-.384-.117-1.054-1.13-2.435z"/></g><g><g><path d="M802.284 376.571a.434.434 0 0 1-.429.429h-19.714a.434.434 0 0 1-.429-.429V353.43c0-.233.197-.429.429-.429h13.286v6c0 .473.383.857.857.857h6zm-2.963-20.608a23.38 23.38 0 0 1 1.944 2.18h-4.124v-4.124a23.356 23.356 0 0 1 2.18 1.944zm3.547 1.459c-.595-.812-1.425-1.76-2.335-2.671-.911-.91-1.86-1.74-2.671-2.335-1.381-1.013-2.052-1.13-2.435-1.13H782.14a2.145 2.145 0 0 0-2.143 2.143v23.142c0 1.182.961 2.143 2.143 2.143h19.714a2.145 2.145 0 0 0 2.143-2.143v-16.714c0-.384-.117-1.054-1.13-2.435z"/></g><g><g><text dominant-baseline="text-before-edge" style="font-kerning:normal" font-family="'Montserrat','Montserrat-Bold'" font-size="9" font-style="none" font-weight="700" transform="translate(781 359)"><tspan>SVD</tspan></text></g></g></g><g><path d="M746.286 410.854v1.714h-3.428v-1.714zm-5.142 2.142a1.29 1.29 0 0 0 1.285 1.286h4.286a1.29 1.29 0 0 0 1.285-1.286v-4.285a1.29 1.29 0 0 0-1.285-1.285h-2.143v-1.714h-3.428zm3.428-8.998v-1.714h-3.428v1.714h3.428v1.714H748v-1.714zm0-1.714H748v-1.714h-3.428zm-3.428-1.714h3.428v-1.714H748v-1.714h-3.428v1.714h-3.428zm0-3.428h3.428v-1.714h-3.428zm3.428-3.428v1.714H748v-1.714zm-3.428 0h3.428V392h-3.428zm17.14 21.853a.434.434 0 0 1-.428.429h-19.712a.434.434 0 0 1-.428-.429v-23.139c0-.232.196-.428.428-.428h13.284v5.999c0 .473.384.857.857.857h6zm-2.963-20.605a23.376 23.376 0 0 1 1.944 2.18h-4.123v-4.123a23.366 23.366 0 0 1 2.18 1.943zm3.547 1.459c-.595-.812-1.424-1.76-2.335-2.67-.91-.911-1.859-1.74-2.67-2.335-1.381-1.013-2.051-1.13-2.435-1.13h-13.284a2.145 2.145 0 0 0-2.142 2.142v23.14c0 1.18.96 2.142 2.142 2.142h19.712a2.145 2.145 0 0 0 2.142-2.143v-16.711c0-.384-.117-1.054-1.13-2.435z"/></g><g><g><path d="M802.284 415.571a.434.434 0 0 1-.429.429h-19.714a.434.434 0 0 1-.429-.429V392.43c0-.233.197-.429.429-.429h13.286v6c0 .473.383.857.857.857h6zm-2.963-20.608a23.38 23.38 0 0 1 1.944 2.18h-4.124v-4.124a23.356 23.356 0 0 1 2.18 1.944zm3.547 1.459c-.595-.812-1.425-1.76-2.335-2.671-.911-.91-1.86-1.74-2.671-2.335-1.381-1.013-2.052-1.13-2.435-1.13H782.14a2.145 2.145 0 0 0-2.143 2.143v23.142c0 1.182.961 2.143 2.143 2.143h19.714a2.145 2.145 0 0 0 2.143-2.143v-16.714c0-.384-.117-1.054-1.13-2.435z"/></g><g><g><text dominant-baseline="text-before-edge" style="font-kerning:normal" font-family="'Montserrat','Montserrat-Bold'" font-size="9" font-style="none" font-weight="700" transform="translate(781 398)"><tspan>SVD</tspan></text></g></g></g><g><path d="M746.286 449.854v1.714h-3.428v-1.714zm-5.142 2.142a1.29 1.29 0 0 0 1.285 1.286h4.286a1.29 1.29 0 0 0 1.285-1.286v-4.285a1.29 1.29 0 0 0-1.285-1.285h-2.143v-1.714h-3.428zm3.428-8.998v-1.714h-3.428v1.714h3.428v1.714H748v-1.714zm0-1.714H748v-1.714h-3.428zm-3.428-1.714h3.428v-1.714H748v-1.714h-3.428v1.714h-3.428zm0-3.428h3.428v-1.714h-3.428zm3.428-3.428v1.714H748v-1.714zm-3.428 0h3.428V431h-3.428zm17.14 21.853a.434.434 0 0 1-.428.429h-19.712a.434.434 0 0 1-.428-.429v-23.139c0-.232.196-.428.428-.428h13.284v5.999c0 .473.384.857.857.857h6zm-2.963-20.605a23.376 23.376 0 0 1 1.944 2.18h-4.123v-4.123a23.366 23.366 0 0 1 2.18 1.943zm3.547 1.459c-.595-.812-1.424-1.76-2.335-2.67-.91-.911-1.859-1.74-2.67-2.335-1.381-1.013-2.051-1.13-2.435-1.13h-13.284a2.145 2.145 0 0 0-2.142 2.142v23.14c0 1.18.96 2.142 2.142 2.142h19.712a2.145 2.145 0 0 0 2.142-2.143v-16.711c0-.384-.117-1.054-1.13-2.435z"/></g><g><g><path d="M802.284 454.571a.434.434 0 0 1-.429.429h-19.714a.434.434 0 0 1-.429-.429V431.43c0-.233.197-.429.429-.429h13.286v6c0 .473.383.857.857.857h6zm-2.963-20.608a23.38 23.38 0 0 1 1.944 2.18h-4.124v-4.124a23.356 23.356 0 0 1 2.18 1.944zm3.547 1.459c-.595-.812-1.425-1.76-2.335-2.671-.911-.91-1.86-1.74-2.671-2.335-1.381-1.013-2.052-1.13-2.435-1.13H782.14a2.145 2.145 0 0 0-2.143 2.143v23.142c0 1.182.961 2.143 2.143 2.143h19.714a2.145 2.145 0 0 0 2.143-2.143v-16.714c0-.384-.117-1.054-1.13-2.435z"/></g><g><g><text dominant-baseline="text-before-edge" style="font-kerning:normal" font-family="'Montserrat','Montserrat-Bold'" font-size="9" font-style="none" font-weight="700" transform="translate(781 437)"><tspan>SVD</tspan></text></g></g></g><g><path d="M746.286 488.854v1.714h-3.428v-1.714zm-5.142 2.142a1.29 1.29 0 0 0 1.285 1.286h4.286a1.29 1.29 0 0 0 1.285-1.286v-4.285a1.29 1.29 0 0 0-1.285-1.285h-2.143v-1.714h-3.428zm3.428-8.998v-1.714h-3.428v1.714h3.428v1.714H748v-1.714zm0-1.714H748v-1.714h-3.428zm-3.428-1.714h3.428v-1.714H748v-1.714h-3.428v1.714h-3.428zm0-3.428h3.428v-1.714h-3.428zm3.428-3.428v1.714H748v-1.714zm-3.428 0h3.428V470h-3.428zm17.14 21.853a.434.434 0 0 1-.428.429h-19.712a.434.434 0 0 1-.428-.429v-23.139c0-.232.196-.428.428-.428h13.284v5.999c0 .473.384.857.857.857h6zm-2.963-20.605a23.376 23.376 0 0 1 1.944 2.18h-4.123v-4.123a23.366 23.366 0 0 1 2.18 1.943zm3.547 1.459c-.595-.812-1.424-1.76-2.335-2.67-.91-.911-1.859-1.74-2.67-2.335-1.381-1.013-2.051-1.13-2.435-1.13h-13.284a2.145 2.145 0 0 0-2.142 2.142v23.14c0 1.18.96 2.142 2.142 2.142h19.712a2.145 2.145 0 0 0 2.142-2.143v-16.711c0-.384-.117-1.054-1.13-2.435z"/></g><g><g><path d="M802.284 493.571a.434.434 0 0 1-.429.429h-19.714a.434.434 0 0 1-.429-.429V470.43c0-.233.197-.429.429-.429h13.286v6c0 .473.383.857.857.857h6zm-2.963-20.608a23.38 23.38 0 0 1 1.944 2.18h-4.124v-4.124a23.356 23.356 0 0 1 2.18 1.944zm3.547 1.459c-.595-.812-1.425-1.76-2.335-2.671-.911-.91-1.86-1.74-2.671-2.335-1.381-1.013-2.052-1.13-2.435-1.13H782.14a2.145 2.145 0 0 0-2.143 2.143v23.142c0 1.182.961 2.143 2.143 2.143h19.714a2.145 2.145 0 0 0 2.143-2.143v-16.714c0-.384-.117-1.054-1.13-2.435z"/></g><g><g><text dominant-baseline="text-before-edge" style="font-kerning:normal" font-family="'Montserrat','Montserrat-Bold'" font-size="9" font-style="none" font-weight="700" transform="translate(781 476)"><tspan>SVD</tspan></text></g></g></g><g><path d="M746.286 566.854v1.714h-3.428v-1.714zm-5.142 2.142a1.29 1.29 0 0 0 1.285 1.286h4.286a1.29 1.29 0 0 0 1.285-1.286v-4.285a1.29 1.29 0 0 0-1.285-1.285h-2.143v-1.714h-3.428zm3.428-8.998v-1.714h-3.428v1.714h3.428v1.714H748v-1.714zm0-1.714H748v-1.714h-3.428zm-3.428-1.714h3.428v-1.714H748v-1.714h-3.428v1.714h-3.428zm0-3.428h3.428v-1.714h-3.428zm3.428-3.428v1.714H748v-1.714zm-3.428 0h3.428V548h-3.428zm17.14 21.853a.434.434 0 0 1-.428.429h-19.712a.434.434 0 0 1-.428-.429v-23.139c0-.232.196-.428.428-.428h13.284v5.999c0 .473.384.857.857.857h6zm-2.963-20.605a23.376 23.376 0 0 1 1.944 2.18h-4.123v-4.123a23.366 23.366 0 0 1 2.18 1.943zm3.547 1.459c-.595-.812-1.424-1.76-2.335-2.67-.91-.911-1.859-1.74-2.67-2.335-1.381-1.013-2.051-1.13-2.435-1.13h-13.284a2.145 2.145 0 0 0-2.142 2.142v23.14c0 1.18.96 2.142 2.142 2.142h19.712a2.145 2.145 0 0 0 2.142-2.143v-16.711c0-.384-.117-1.054-1.13-2.435z"/></g><g><g><path d="M802.284 571.571a.434.434 0 0 1-.429.429h-19.714a.434.434 0 0 1-.429-.429V548.43c0-.233.197-.429.429-.429h13.286v6c0 .473.383.857.857.857h6zm-2.963-20.608a23.38 23.38 0 0 1 1.944 2.18h-4.124v-4.124a23.356 23.356 0 0 1 2.18 1.944zm3.547 1.459c-.595-.812-1.425-1.76-2.335-2.671-.911-.91-1.86-1.74-2.671-2.335-1.381-1.013-2.052-1.13-2.435-1.13H782.14a2.145 2.145 0 0 0-2.143 2.143v23.142c0 1.182.961 2.143 2.143 2.143h19.714a2.145 2.145 0 0 0 2.143-2.143v-16.714c0-.384-.117-1.054-1.13-2.435z"/></g><g><g><text dominant-baseline="text-before-edge" style="font-kerning:normal" font-family="'Montserrat','Montserrat-Bold'" font-size="9" font-style="none" font-weight="700" transform="translate(781 554)"><tspan>SVD</tspan></text></g></g></g><g><path fill="#63bf67" d="M911 26c-6.627 0-12-5.373-12-12s5.373-12 12-12h72c6.627 0 12 5.373 12 12s-5.373 12-12 12z"/><path fill="none" stroke="#fff" stroke-miterlimit="20" stroke-opacity=".25" stroke-width="2" d="M911 26c-6.627 0-12-5.373-12-12v0c0-6.627 5.373-12 12-12h72c6.627 0 12 5.373 12 12v0c0 6.627-5.373 12-12 12z" clip-path="url(&quot;#7hg8af&quot;)"/></g><g><path fill="#63bf67" d="M911 65c-6.627 0-12-5.373-12-12s5.373-12 12-12h72c6.627 0 12 5.373 12 12s-5.373 12-12 12z"/><path fill="none" stroke="#fff" stroke-miterlimit="20" stroke-opacity=".25" stroke-width="2" d="M911 65c-6.627 0-12-5.373-12-12v0c0-6.627 5.373-12 12-12h72c6.627 0 12 5.373 12 12v0c0 6.627-5.373 12-12 12z" clip-path="url(&quot;#7hg8ag&quot;)"/></g><g><path fill="#63bf67" d="M911 143c-6.627 0-12-5.373-12-12s5.373-12 12-12h72c6.627 0 12 5.373 12 12s-5.373 12-12 12z"/><path fill="none" stroke="#fff" stroke-miterlimit="20" stroke-opacity=".25" stroke-width="2" d="M911 143c-6.627 0-12-5.373-12-12v0c0-6.627 5.373-12 12-12h72c6.627 0 12 5.373 12 12v0c0 6.627-5.373 12-12 12z" clip-path="url(&quot;#7hg8ah&quot;)"/></g><g><path fill="#63bf67" d="M911 104c-6.627 0-12-5.373-12-12s5.373-12 12-12h72c6.627 0 12 5.373 12 12s-5.373 12-12 12z"/><path fill="none" stroke="#fff" stroke-miterlimit="20" stroke-opacity=".25" stroke-width="2" d="M911 104c-6.627 0-12-5.373-12-12v0c0-6.627 5.373-12 12-12h72c6.627 0 12 5.373 12 12v0c0 6.627-5.373 12-12 12z" clip-path="url(&quot;#7hg8ai&quot;)"/></g><g><path fill="#63bf67" d="M911 494c-6.627 0-12-5.373-12-12s5.373-12 12-12h72c6.627 0 12 5.373 12 12s-5.373 12-12 12z"/><path fill="none" stroke="#fff" stroke-miterlimit="20" stroke-opacity=".25" stroke-width="2" d="M911 494c-6.627 0-12-5.373-12-12v0c0-6.627 5.373-12 12-12h72c6.627 0 12 5.373 12 12v0c0 6.627-5.373 12-12 12z" clip-path="url(&quot;#7hg8aj&quot;)"/></g><g><path fill="#efeeed" d="M1099 26c-6.627 0-12-5.373-12-12s5.373-12 12-12h72c6.627 0 12 5.373 12 12s-5.373 12-12 12z"/><path fill="none" stroke="#fff" stroke-miterlimit="20" stroke-opacity=".25" stroke-width="2" d="M1099 26c-6.627 0-12-5.373-12-12v0c0-6.627 5.373-12 12-12h72c6.627 0 12 5.373 12 12v0c0 6.627-5.373 12-12 12z" clip-path="url(&quot;#7hg8ak&quot;)"/></g><g><path fill="#efeeed" d="M1099 65c-6.627 0-12-5.373-12-12s5.373-12 12-12h72c6.627 0 12 5.373 12 12s-5.373 12-12 12z"/><path fill="none" stroke="#fff" stroke-miterlimit="20" stroke-opacity=".25" stroke-width="2" d="M1099 65c-6.627 0-12-5.373-12-12v0c0-6.627 5.373-12 12-12h72c6.627 0 12 5.373 12 12v0c0 6.627-5.373 12-12 12z" clip-path="url(&quot;#7hg8al&quot;)"/></g><g><path fill="#efeeed" d="M1099 104c-6.627 0-12-5.373-12-12s5.373-12 12-12h72c6.627 0 12 5.373 12 12s-5.373 12-12 12z"/><path fill="none" stroke="#fff" stroke-miterlimit="20" stroke-opacity=".25" stroke-width="2" d="M1099 104c-6.627 0-12-5.373-12-12v0c0-6.627 5.373-12 12-12h72c6.627 0 12 5.373 12 12v0c0 6.627-5.373 12-12 12z" clip-path="url(&quot;#7hg8am&quot;)"/></g><g><path fill="#efeeed" d="M1099 143c-6.627 0-12-5.373-12-12s5.373-12 12-12h72c6.627 0 12 5.373 12 12s-5.373 12-12 12z"/><path fill="none" stroke="#fff" stroke-miterlimit="20" stroke-opacity=".25" stroke-width="2" d="M1099 143c-6.627 0-12-5.373-12-12v0c0-6.627 5.373-12 12-12h72c6.627 0 12 5.373 12 12v0c0 6.627-5.373 12-12 12z" clip-path="url(&quot;#7hg8an&quot;)"/></g><g><path fill="#efeeed" d="M1099 377c-6.627 0-12-5.373-12-12s5.373-12 12-12h72c6.627 0 12 5.373 12 12s-5.373 12-12 12z"/><path fill="none" stroke="#fff" stroke-miterlimit="20" stroke-opacity=".25" stroke-width="2" d="M1099 377c-6.627 0-12-5.373-12-12v0c0-6.627 5.373-12 12-12h72c6.627 0 12 5.373 12 12v0c0 6.627-5.373 12-12 12z" clip-path="url(&quot;#7hg8ao&quot;)"/></g><g><path fill="#efeeed" d="M1099 494c-6.627 0-12-5.373-12-12s5.373-12 12-12h72c6.627 0 12 5.373 12 12s-5.373 12-12 12z"/><path fill="none" stroke="#fff" stroke-miterlimit="20" stroke-opacity=".25" stroke-width="2" d="M1099 494c-6.627 0-12-5.373-12-12v0c0-6.627 5.373-12 12-12h72c6.627 0 12 5.373 12 12v0c0 6.627-5.373 12-12 12z" clip-path="url(&quot;#7hg8ap&quot;)"/></g><g><path d="M1419.855 14.853a.857.857 0 0 0-.857-.857h-12a.857.857 0 0 0 0 1.714h12a.857.857 0 0 0 .857-.857zm0 3.428a.857.857 0 0 0-.857-.857h-12a.857.857 0 0 0 0 1.715h12a.857.857 0 0 0 .857-.858zm0 3.43a.857.857 0 0 0-.857-.858h-12a.857.857 0 0 0 0 1.714h12a.857.857 0 0 0 .857-.857zm3.429 3.856a.434.434 0 0 1-.429.429h-19.714a.434.434 0 0 1-.429-.429V2.424c0-.232.197-.428.429-.428h13.286v6c0 .473.383.857.857.857h6zM1420.32 4.96a23.38 23.38 0 0 1 1.944 2.18h-4.124V3.015a23.356 23.356 0 0 1 2.18 1.944zm3.547 1.458c-.595-.81-1.425-1.76-2.335-2.67-.911-.911-1.86-1.74-2.671-2.335-1.381-1.013-2.052-1.13-2.435-1.13h-13.286a2.145 2.145 0 0 0-2.143 2.142v23.143c0 1.182.961 2.143 2.143 2.143h19.714a2.145 2.145 0 0 0 2.143-2.143V8.853c0-.384-.117-1.054-1.13-2.436z"/></g><g><path d="M1323.286 20.854v1.714h-3.428v-1.714zm-5.142 2.142a1.29 1.29 0 0 0 1.285 1.286h4.286a1.29 1.29 0 0 0 1.285-1.286v-4.285a1.29 1.29 0 0 0-1.285-1.285h-2.143v-1.714h-3.428zm3.428-8.998v-1.714h-3.428v1.714h3.428v1.714H1325v-1.714zm0-1.714H1325V10.57h-3.428zm-3.428-1.714h3.428V8.856H1325V7.142h-3.428v1.714h-3.428zm0-3.428h3.428V5.428h-3.428zm3.428-3.428v1.714H1325V3.714zm-3.428 0h3.428V2h-3.428zm17.14 21.853a.434.434 0 0 1-.428.429h-19.712a.434.434 0 0 1-.428-.429V2.428c0-.232.196-.428.428-.428h13.284v5.999c0 .473.384.857.857.857h6zm-2.963-20.605a23.376 23.376 0 0 1 1.944 2.18h-4.123V3.019a23.366 23.366 0 0 1 2.18 1.943zm3.547 1.459c-.595-.812-1.424-1.76-2.335-2.67-.91-.911-1.859-1.74-2.67-2.335-1.381-1.013-2.051-1.13-2.435-1.13h-13.284a2.145 2.145 0 0 0-2.142 2.142v23.14c0 1.18.96 2.142 2.142 2.142h19.712a2.145 2.145 0 0 0 2.142-2.143V8.856c0-.384-.117-1.054-1.13-2.435z"/></g><g><g><path d="M1379.284 25.571a.434.434 0 0 1-.429.429h-19.714a.434.434 0 0 1-.429-.429V2.43c0-.233.197-.429.429-.429h13.286v6c0 .473.383.857.857.857h6zm-2.963-20.608a23.38 23.38 0 0 1 1.944 2.18h-4.124V3.019a23.356 23.356 0 0 1 2.18 1.944zm3.547 1.459c-.595-.812-1.425-1.76-2.335-2.671-.911-.91-1.86-1.74-2.671-2.335-1.381-1.013-2.052-1.13-2.435-1.13h-13.286a2.145 2.145 0 0 0-2.143 2.143V25.57c0 1.182.961 2.143 2.143 2.143h19.714a2.145 2.145 0 0 0 2.143-2.143V8.857c0-.384-.117-1.054-1.13-2.435z"/></g><g><g><text dominant-baseline="text-before-edge" style="font-kerning:normal" font-family="'Montserrat','Montserrat-Bold'" font-size="9" font-style="none" font-weight="700" transform="translate(1358 8)"><tspan>SVD</tspan></text></g></g></g><g><path d="M1323.286 59.854v1.714h-3.428v-1.714zm-5.142 2.142a1.29 1.29 0 0 0 1.285 1.286h4.286a1.29 1.29 0 0 0 1.285-1.286v-4.285a1.29 1.29 0 0 0-1.285-1.285h-2.143v-1.714h-3.428zm3.428-8.998v-1.714h-3.428v1.714h3.428v1.714H1325v-1.714zm0-1.714H1325V49.57h-3.428zm-3.428-1.714h3.428v-1.714H1325v-1.714h-3.428v1.714h-3.428zm0-3.428h3.428v-1.714h-3.428zm3.428-3.428v1.714H1325v-1.714zm-3.428 0h3.428V41h-3.428zm17.14 21.853a.434.434 0 0 1-.428.429h-19.712a.434.434 0 0 1-.428-.429V41.428c0-.232.196-.428.428-.428h13.284v5.999c0 .473.384.857.857.857h6zm-2.963-20.605a23.376 23.376 0 0 1 1.944 2.18h-4.123v-4.123a23.366 23.366 0 0 1 2.18 1.943zm3.547 1.459c-.595-.812-1.424-1.76-2.335-2.67-.91-.911-1.859-1.74-2.67-2.335-1.381-1.013-2.051-1.13-2.435-1.13h-13.284a2.145 2.145 0 0 0-2.142 2.142v23.14c0 1.18.96 2.142 2.142 2.142h19.712a2.145 2.145 0 0 0 2.142-2.143V47.856c0-.384-.117-1.054-1.13-2.435z"/></g><g><g><path d="M1379.284 64.571a.434.434 0 0 1-.429.429h-19.714a.434.434 0 0 1-.429-.429V41.43c0-.233.197-.429.429-.429h13.286v6c0 .473.383.857.857.857h6zm-2.963-20.608a23.38 23.38 0 0 1 1.944 2.18h-4.124v-4.124a23.356 23.356 0 0 1 2.18 1.944zm3.547 1.459c-.595-.812-1.425-1.76-2.335-2.671-.911-.91-1.86-1.74-2.671-2.335-1.381-1.013-2.052-1.13-2.435-1.13h-13.286a2.145 2.145 0 0 0-2.143 2.143V64.57c0 1.182.961 2.143 2.143 2.143h19.714a2.145 2.145 0 0 0 2.143-2.143V47.857c0-.384-.117-1.054-1.13-2.435z"/></g><g><g><text dominant-baseline="text-before-edge" style="font-kerning:normal" font-family="'Montserrat','Montserrat-Bold'" font-size="9" font-style="none" font-weight="700" transform="translate(1358 47)"><tspan>SVD</tspan></text></g></g></g><g><path d="M1323.286 137.854v1.714h-3.428v-1.714zm-5.142 2.142a1.29 1.29 0 0 0 1.285 1.286h4.286a1.29 1.29 0 0 0 1.285-1.286v-4.285a1.29 1.29 0 0 0-1.285-1.285h-2.143v-1.714h-3.428zm3.428-8.998v-1.714h-3.428v1.714h3.428v1.714H1325v-1.714zm0-1.714H1325v-1.714h-3.428zm-3.428-1.714h3.428v-1.714H1325v-1.714h-3.428v1.714h-3.428zm0-3.428h3.428v-1.714h-3.428zm3.428-3.428v1.714H1325v-1.714zm-3.428 0h3.428V119h-3.428zm17.14 21.853a.434.434 0 0 1-.428.429h-19.712a.434.434 0 0 1-.428-.429v-23.139c0-.232.196-.428.428-.428h13.284v5.999c0 .473.384.857.857.857h6zm-2.963-20.605a23.376 23.376 0 0 1 1.944 2.18h-4.123v-4.123a23.366 23.366 0 0 1 2.18 1.943zm3.547 1.459c-.595-.812-1.424-1.76-2.335-2.67-.91-.911-1.859-1.74-2.67-2.335-1.381-1.013-2.051-1.13-2.435-1.13h-13.284a2.145 2.145 0 0 0-2.142 2.142v23.14c0 1.18.96 2.142 2.142 2.142h19.712a2.145 2.145 0 0 0 2.142-2.143v-16.711c0-.384-.117-1.054-1.13-2.435z"/></g><g><g><path d="M1379.284 142.571a.434.434 0 0 1-.429.429h-19.714a.434.434 0 0 1-.429-.429V119.43c0-.233.197-.429.429-.429h13.286v6c0 .473.383.857.857.857h6zm-2.963-20.608a23.38 23.38 0 0 1 1.944 2.18h-4.124v-4.124a23.356 23.356 0 0 1 2.18 1.944zm3.547 1.459c-.595-.812-1.425-1.76-2.335-2.671-.911-.91-1.86-1.74-2.671-2.335-1.381-1.013-2.052-1.13-2.435-1.13h-13.286a2.145 2.145 0 0 0-2.143 2.143v23.142c0 1.182.961 2.143 2.143 2.143h19.714a2.145 2.145 0 0 0 2.143-2.143v-16.714c0-.384-.117-1.054-1.13-2.435z"/></g><g><g><text dominant-baseline="text-before-edge" style="font-kerning:normal" font-family="'Montserrat','Montserrat-Bold'" font-size="9" font-style="none" font-weight="700" transform="translate(1358 125)"><tspan>SVD</tspan></text></g></g></g><g><path d="M1323.286 488.854v1.714h-3.428v-1.714zm-5.142 2.142a1.29 1.29 0 0 0 1.285 1.286h4.286a1.29 1.29 0 0 0 1.285-1.286v-4.285a1.29 1.29 0 0 0-1.285-1.285h-2.143v-1.714h-3.428zm3.428-8.998v-1.714h-3.428v1.714h3.428v1.714H1325v-1.714zm0-1.714H1325v-1.714h-3.428zm-3.428-1.714h3.428v-1.714H1325v-1.714h-3.428v1.714h-3.428zm0-3.428h3.428v-1.714h-3.428zm3.428-3.428v1.714H1325v-1.714zm-3.428 0h3.428V470h-3.428zm17.14 21.853a.434.434 0 0 1-.428.429h-19.712a.434.434 0 0 1-.428-.429v-23.139c0-.232.196-.428.428-.428h13.284v5.999c0 .473.384.857.857.857h6zm-2.963-20.605a23.376 23.376 0 0 1 1.944 2.18h-4.123v-4.123a23.366 23.366 0 0 1 2.18 1.943zm3.547 1.459c-.595-.812-1.424-1.76-2.335-2.67-.91-.911-1.859-1.74-2.67-2.335-1.381-1.013-2.051-1.13-2.435-1.13h-13.284a2.145 2.145 0 0 0-2.142 2.142v23.14c0 1.18.96 2.142 2.142 2.142h19.712a2.145 2.145 0 0 0 2.142-2.143v-16.711c0-.384-.117-1.054-1.13-2.435z"/></g><g><g><path d="M1379.284 493.571a.434.434 0 0 1-.429.429h-19.714a.434.434 0 0 1-.429-.429V470.43c0-.233.197-.429.429-.429h13.286v6c0 .473.383.857.857.857h6zm-2.963-20.608a23.38 23.38 0 0 1 1.944 2.18h-4.124v-4.124a23.356 23.356 0 0 1 2.18 1.944zm3.547 1.459c-.595-.812-1.425-1.76-2.335-2.671-.911-.91-1.86-1.74-2.671-2.335-1.381-1.013-2.052-1.13-2.435-1.13h-13.286a2.145 2.145 0 0 0-2.143 2.143v23.142c0 1.182.961 2.143 2.143 2.143h19.714a2.145 2.145 0 0 0 2.143-2.143v-16.714c0-.384-.117-1.054-1.13-2.435z"/></g><g><g><text dominant-baseline="text-before-edge" style="font-kerning:normal" font-family="'Montserrat','Montserrat-Bold'" font-size="9" font-style="none" font-weight="700" transform="translate(1358 476)"><tspan>SVD</tspan></text></g></g></g><g><path d="M1419.855 53.853a.857.857 0 0 0-.857-.857h-12a.857.857 0 0 0 0 1.714h12a.857.857 0 0 0 .857-.857zm0 3.428a.857.857 0 0 0-.857-.857h-12a.857.857 0 0 0 0 1.715h12a.857.857 0 0 0 .857-.858zm0 3.429a.857.857 0 0 0-.857-.857h-12a.857.857 0 0 0 0 1.714h12a.857.857 0 0 0 .857-.857zm3.429 3.857a.434.434 0 0 1-.429.429h-19.714a.434.434 0 0 1-.429-.429V41.424c0-.232.197-.428.429-.428h13.286v6c0 .473.383.857.857.857h6zm-2.963-20.608a23.38 23.38 0 0 1 1.944 2.18h-4.124v-4.124a23.356 23.356 0 0 1 2.18 1.944zm3.547 1.458c-.595-.811-1.425-1.76-2.335-2.67-.911-.911-1.86-1.74-2.671-2.335-1.381-1.013-2.052-1.13-2.435-1.13h-13.286a2.145 2.145 0 0 0-2.143 2.142v23.143c0 1.182.961 2.143 2.143 2.143h19.714a2.145 2.145 0 0 0 2.143-2.143V47.853c0-.384-.117-1.054-1.13-2.436z"/></g><g><path d="M1419.855 131.853a.857.857 0 0 0-.857-.857h-12a.857.857 0 0 0 0 1.714h12a.857.857 0 0 0 .857-.857zm0 3.429a.857.857 0 0 0-.857-.858h-12a.857.857 0 0 0 0 1.715h12a.857.857 0 0 0 .857-.857zm0 3.428a.857.857 0 0 0-.857-.857h-12a.857.857 0 0 0 0 1.714h12a.857.857 0 0 0 .857-.857zm3.429 3.857a.434.434 0 0 1-.429.429h-19.714a.434.434 0 0 1-.429-.429v-23.143c0-.232.197-.428.429-.428h13.286v6c0 .473.383.857.857.857h6zm-2.963-20.608a23.38 23.38 0 0 1 1.944 2.18h-4.124v-4.124a23.356 23.356 0 0 1 2.18 1.944zm3.547 1.459c-.595-.812-1.425-1.76-2.335-2.671-.911-.911-1.86-1.74-2.671-2.335-1.381-1.013-2.052-1.13-2.435-1.13h-13.286a2.145 2.145 0 0 0-2.143 2.142v23.143c0 1.182.961 2.143 2.143 2.143h19.714a2.145 2.145 0 0 0 2.143-2.143v-16.714c0-.384-.117-1.054-1.13-2.435z"/></g><g><path d="M1419.855 482.853a.857.857 0 0 0-.857-.857h-12a.857.857 0 0 0 0 1.714h12a.857.857 0 0 0 .857-.857zm0 3.429a.857.857 0 0 0-.857-.858h-12a.857.857 0 0 0 0 1.715h12a.857.857 0 0 0 .857-.857zm0 3.428a.857.857 0 0 0-.857-.857h-12a.857.857 0 0 0 0 1.714h12a.857.857 0 0 0 .857-.857zm3.429 3.857a.434.434 0 0 1-.429.429h-19.714a.434.434 0 0 1-.429-.429v-23.143c0-.232.197-.428.429-.428h13.286v6c0 .473.383.857.857.857h6zm-2.963-20.608a23.38 23.38 0 0 1 1.944 2.18h-4.124v-4.124a23.356 23.356 0 0 1 2.18 1.944zm3.547 1.459c-.595-.812-1.425-1.76-2.335-2.671-.911-.911-1.86-1.74-2.671-2.335-1.381-1.013-2.052-1.13-2.435-1.13h-13.286a2.145 2.145 0 0 0-2.143 2.142v23.143c0 1.182.961 2.143 2.143 2.143h19.714a2.145 2.145 0 0 0 2.143-2.143v-16.714c0-.384-.117-1.054-1.13-2.435z"/></g><g><g><text dominant-baseline="text-before-edge" style="font-kerning:normal" font-family="'Montserrat','Montserrat-Bold'" font-size="10" font-style="none" font-weight="700" transform="translate(23 8)"><tspan>VI_AMON</tspan></text></g></g><g><g><text dominant-baseline="text-before-edge" style="font-kerning:normal" fill="#fff" font-family="'Montserrat','Montserrat-Bold'" font-size="14" font-style="none" font-weight="700" transform="translate(582 5)"><tspan>7</tspan></text></g></g><g><g><text dominant-baseline="text-before-edge" style="font-kerning:normal" fill="#fff" font-family="'Montserrat','Montserrat-Bold'" font-size="12" font-style="none" font-weight="700" transform="translate(218 6)"><tspan>9.0.0.0</tspan></text></g></g><g><g><text dominant-baseline="text-before-edge" style="font-kerning:normal" font-family="'Montserrat','Montserrat-Bold'" font-size="12" font-style="none" font-weight="700" transform="translate(381 6)"><tspan>28-01-2021</tspan></text></g></g><g><g><text dominant-baseline="text-before-edge" style="font-kerning:normal" fill="#fff" font-family="'Montserrat','Montserrat-Bold'" font-size="12" font-style="none" font-weight="700" transform="translate(925 6)"><tspan>9.0.0.0</tspan></text></g></g><g><g><text dominant-baseline="text-before-edge" style="font-kerning:normal" font-family="'Montserrat','Montserrat-Bold'" font-size="12" font-style="none" font-weight="700" transform="translate(1103 6)"><tspan>28-01-2021</tspan></text></g></g><g><g><text dominant-baseline="text-before-edge" style="font-kerning:normal" font-family="'Montserrat','Montserrat-Bold'" font-size="10" font-style="none" font-weight="700" transform="translate(28 46)"><tspan>VI_BCM</tspan></text></g></g><g><g><text dominant-baseline="text-before-edge" style="font-kerning:normal" fill="#fff" font-family="'Montserrat','Montserrat-Bold'" font-size="14" font-style="none" font-weight="700" transform="translate(577 44)"><tspan>76</tspan></text></g></g><g><g><text dominant-baseline="text-before-edge" style="font-kerning:normal" fill="#fff" font-family="'Montserrat','Montserrat-Bold'" font-size="12" font-style="none" font-weight="700" transform="translate(218 45)"><tspan>11.0.0.0</tspan></text></g></g><g><g><text dominant-baseline="text-before-edge" style="font-kerning:normal" font-family="'Montserrat','Montserrat-Bold'" font-size="12" font-style="none" font-weight="700" transform="translate(381 45)"><tspan>21-10-2020</tspan></text></g></g><g><g><text dominant-baseline="text-before-edge" style="font-kerning:normal" fill="#fff" font-family="'Montserrat','Montserrat-Bold'" font-size="12" font-style="none" font-weight="700" transform="translate(925 45)"><tspan>11.0.0.0</tspan></text></g></g><g><g><text dominant-baseline="text-before-edge" style="font-kerning:normal" font-family="'Montserrat','Montserrat-Bold'" font-size="12" font-style="none" font-weight="700" transform="translate(1103 45)"><tspan>21-10-2020</tspan></text></g></g><g><g><text dominant-baseline="text-before-edge" style="font-kerning:normal" fill="#fff" font-family="'Montserrat','Montserrat-Bold'" font-size="14" font-style="none" font-weight="700" transform="translate(582 83)"><tspan>7</tspan></text></g></g><g><g><text dominant-baseline="text-before-edge" style="font-kerning:normal" fill="#fff" font-family="'Montserrat','Montserrat-Bold'" font-size="12" font-style="none" font-weight="700" transform="translate(218 84)"><tspan>9.0.0.0</tspan></text></g></g><g><g><text dominant-baseline="text-before-edge" style="font-kerning:normal" font-family="'Montserrat','Montserrat-Bold'" font-size="12" font-style="none" font-weight="700" transform="translate(381 84)"><tspan>28-01-2021</tspan></text></g></g><g><g><text dominant-baseline="text-before-edge" style="font-kerning:normal" fill="#fff" font-family="'Montserrat','Montserrat-Bold'" font-size="12" font-style="none" font-weight="700" transform="translate(925 84)"><tspan>9.0.0.0</tspan></text></g></g><g><g><text dominant-baseline="text-before-edge" style="font-kerning:normal" font-family="'Montserrat','Montserrat-Bold'" font-size="12" font-style="none" font-weight="700" transform="translate(1103 84)"><tspan>28-01-2021</tspan></text></g></g><g><path d="M1323.286 98.854v1.714h-3.428v-1.714zm-5.142 2.142a1.29 1.29 0 0 0 1.285 1.286h4.285a1.29 1.29 0 0 0 1.286-1.286v-4.285a1.29 1.29 0 0 0-1.286-1.285h-2.142v-1.714h-3.428zm3.428-7.284H1325v-1.714h-3.428zm-3.428-1.714h3.428v-1.714h-3.428zm3.428-1.714H1325V88.57h-3.428zm-3.428-1.714h3.428v-1.714h-3.428zm3.428-1.714H1325v-1.714h-3.428zm-3.428-1.714h3.428v-1.714h-3.428zm3.428-1.714H1325v-1.714h-3.428zm-3.428-1.714h3.428V80h-3.428zm17.14 21.853a.434.434 0 0 1-.429.429h-19.71a.434.434 0 0 1-.43-.429V80.428c0-.232.197-.428.43-.428h13.283v5.999c0 .473.383.857.857.857h5.999zm-2.963-20.605a23.376 23.376 0 0 1 1.944 2.18h-4.123v-4.123a23.366 23.366 0 0 1 2.18 1.943zm3.547 1.459c-.595-.812-1.424-1.76-2.335-2.67-.91-.911-1.859-1.74-2.67-2.335-1.381-1.013-2.051-1.13-2.435-1.13h-13.284a2.145 2.145 0 0 0-2.142 2.142v23.14c0 1.18.96 2.142 2.142 2.142h19.711a2.145 2.145 0 0 0 2.143-2.143V86.856c0-.384-.117-1.054-1.13-2.435z"/></g><g><g><path d="M1379.284 103.571a.434.434 0 0 1-.429.429h-19.714a.434.434 0 0 1-.429-.429V80.43c0-.233.197-.429.429-.429h13.286v6c0 .473.383.857.857.857h6zm-2.963-20.608a23.38 23.38 0 0 1 1.944 2.18h-4.124v-4.124a23.356 23.356 0 0 1 2.18 1.944zm3.547 1.459c-.595-.812-1.425-1.76-2.335-2.671-.911-.91-1.86-1.74-2.671-2.335-1.381-1.013-2.052-1.13-2.435-1.13h-13.286a2.145 2.145 0 0 0-2.143 2.143v23.142c0 1.182.961 2.143 2.143 2.143h19.714a2.145 2.145 0 0 0 2.143-2.143V86.857c0-.384-.117-1.054-1.13-2.435z"/></g><g><g><text dominant-baseline="text-before-edge" style="font-kerning:normal" font-family="'Montserrat','Montserrat-Bold'" font-size="9" font-style="none" font-weight="700" transform="translate(1358 86)"><tspan>SVD</tspan></text></g></g></g><g><path d="M1419.855 92.853a.857.857 0 0 0-.857-.857h-12a.857.857 0 0 0 0 1.714h12a.857.857 0 0 0 .857-.857zm0 3.429a.857.857 0 0 0-.857-.858h-12a.857.857 0 0 0 0 1.715h12a.857.857 0 0 0 .857-.857zm0 3.428a.857.857 0 0 0-.857-.857h-12a.857.857 0 0 0 0 1.714h12a.857.857 0 0 0 .857-.857zm3.428 3.857a.434.434 0 0 1-.428.429h-19.714a.434.434 0 0 1-.429-.429V80.424c0-.232.196-.428.429-.428h13.285v6c0 .473.384.857.857.857h6zm-2.963-20.608a23.38 23.38 0 0 1 1.944 2.18h-4.123v-4.124a23.356 23.356 0 0 1 2.18 1.944zm3.548 1.459c-.595-.812-1.425-1.76-2.336-2.671-.91-.911-1.859-1.74-2.67-2.335-1.382-1.013-2.052-1.13-2.436-1.13h-13.285a2.145 2.145 0 0 0-2.143 2.142v23.143c0 1.182.961 2.143 2.143 2.143h19.714a2.145 2.145 0 0 0 2.143-2.143V86.853c0-.384-.117-1.054-1.13-2.435z"/></g><g><g><text dominant-baseline="text-before-edge" style="font-kerning:normal" font-family="'Montserrat','Montserrat-Bold'" font-size="10" font-style="none" font-weight="700" transform="translate(17 85)"><tspan>VI_BCR_GUI</tspan></text></g></g><g><g><text dominant-baseline="text-before-edge" style="font-kerning:normal" font-family="'Montserrat','Montserrat-Bold'" font-size="10" font-style="none" font-weight="700" transform="translate(31 124)"><tspan>VI_BPI</tspan></text></g></g><g><g><text dominant-baseline="text-before-edge" style="font-kerning:normal" fill="#fff" font-family="'Montserrat','Montserrat-Bold'" font-size="14" font-style="none" font-weight="700" transform="translate(578 122)"><tspan>14</tspan></text></g></g><g><g><text dominant-baseline="text-before-edge" style="font-kerning:normal" fill="#fff" font-family="'Montserrat','Montserrat-Bold'" font-size="12" font-style="none" font-weight="700" transform="translate(218 123)"><tspan>14.1.0.0</tspan></text></g></g><g><g><text dominant-baseline="text-before-edge" style="font-kerning:normal" font-family="'Montserrat','Montserrat-Bold'" font-size="12" font-style="none" font-weight="700" transform="translate(380 123)"><tspan>26-03-2021</tspan></text></g></g><g><g><text dominant-baseline="text-before-edge" style="font-kerning:normal" fill="#fff" font-family="'Montserrat','Montserrat-Bold'" font-size="12" font-style="none" font-weight="700" transform="translate(925 123)"><tspan>14.1.0.0</tspan></text></g></g><g><g><text dominant-baseline="text-before-edge" style="font-kerning:normal" font-family="'Montserrat','Montserrat-Bold'" font-size="12" font-style="none" font-weight="700" transform="translate(1102 123)"><tspan>26-03-2021</tspan></text></g></g><g><g><text dominant-baseline="text-before-edge" style="font-kerning:normal" font-family="'Montserrat','Montserrat-Bold'" font-size="10" font-style="none" font-weight="700" transform="translate(28 163)"><tspan>VI_BSIS</tspan></text></g></g><g><g><text dominant-baseline="text-before-edge" style="font-kerning:normal" fill="#fff" font-family="'Montserrat','Montserrat-Bold'" font-size="14" font-style="none" font-weight="700" transform="translate(577 161)"><tspan>76</tspan></text></g></g><g><g><text dominant-baseline="text-before-edge" style="font-kerning:normal" fill="#fff" font-family="'Montserrat','Montserrat-Bold'" font-size="12" font-style="none" font-weight="700" transform="translate(218 162)"><tspan>11.0.0.0</tspan></text></g></g><g><g><text dominant-baseline="text-before-edge" style="font-kerning:normal" font-family="'Montserrat','Montserrat-Bold'" font-size="12" font-style="none" font-weight="700" transform="translate(381 162)"><tspan>21-10-2020</tspan></text></g></g><g><g><text dominant-baseline="text-before-edge" style="font-kerning:normal" font-family="'Montserrat','Montserrat-Bold'" font-size="10" font-style="none" font-weight="700" transform="translate(25 202)"><tspan>VI_BSMS</tspan></text></g></g><g><g><text dominant-baseline="text-before-edge" style="font-kerning:normal" fill="#fff" font-family="'Montserrat','Montserrat-Bold'" font-size="14" font-style="none" font-weight="700" transform="translate(582 200)"><tspan>7</tspan></text></g></g><g><g><text dominant-baseline="text-before-edge" style="font-kerning:normal" fill="#fff" font-family="'Montserrat','Montserrat-Bold'" font-size="12" font-style="none" font-weight="700" transform="translate(218 201)"><tspan>9.0.0.0</tspan></text></g></g><g><g><text dominant-baseline="text-before-edge" style="font-kerning:normal" font-family="'Montserrat','Montserrat-Bold'" font-size="12" font-style="none" font-weight="700" transform="translate(381 201)"><tspan>28-01-2021</tspan></text></g></g><g><g><text dominant-baseline="text-before-edge" style="font-kerning:normal" font-family="'Montserrat','Montserrat-Bold'" font-size="10" font-style="none" font-weight="700" transform="translate(32 241)"><tspan>VI_CM</tspan></text></g></g><g><g><text dominant-baseline="text-before-edge" style="font-kerning:normal" fill="#fff" font-family="'Montserrat','Montserrat-Bold'" font-size="14" font-style="none" font-weight="700" transform="translate(578 239)"><tspan>14</tspan></text></g></g><g><g><text dominant-baseline="text-before-edge" style="font-kerning:normal" fill="#fff" font-family="'Montserrat','Montserrat-Bold'" font-size="12" font-style="none" font-weight="700" transform="translate(214 240)"><tspan>Planned</tspan></text></g></g><g><g><text dominant-baseline="text-before-edge" style="font-kerning:normal" font-family="'Montserrat','Montserrat-Bold'" font-size="10" font-style="none" font-weight="700" transform="translate(32 280)"><tspan>VI_DC</tspan></text></g></g><g><g><text dominant-baseline="text-before-edge" style="font-kerning:normal" fill="#fff" font-family="'Montserrat','Montserrat-Bold'" font-size="14" font-style="none" font-weight="700" transform="translate(578 278)"><tspan>14</tspan></text></g></g><g><g><text dominant-baseline="text-before-edge" style="font-kerning:normal" fill="#fff" font-family="'Montserrat','Montserrat-Bold'" font-size="12" font-style="none" font-weight="700" transform="translate(214 279)"><tspan>Planned</tspan></text></g></g><g><path fill="#63bf67" d="M911 377c-6.627 0-12-5.373-12-12s5.373-12 12-12h72c6.627 0 12 5.373 12 12s-5.373 12-12 12z"/><path fill="none" stroke="#fff" stroke-miterlimit="20" stroke-opacity=".25" stroke-width="2" d="M911 377c-6.627 0-12-5.373-12-12v0c0-6.627 5.373-12 12-12h72c6.627 0 12 5.373 12 12v0c0 6.627-5.373 12-12 12z" clip-path="url(&quot;#7hg8aq&quot;)"/></g><g><g><text dominant-baseline="text-before-edge" style="font-kerning:normal" font-family="'Montserrat','Montserrat-Bold'" font-size="10" font-style="none" font-weight="700" transform="translate(30 319)"><tspan>VI_EAL</tspan></text></g></g><g><g><text dominant-baseline="text-before-edge" style="font-kerning:normal" fill="#fff" font-family="'Montserrat','Montserrat-Bold'" font-size="14" font-style="none" font-weight="700" transform="translate(582 317)"><tspan>7</tspan></text></g></g><g><g><text dominant-baseline="text-before-edge" style="font-kerning:normal" fill="#fff" font-family="'Montserrat','Montserrat-Bold'" font-size="12" font-style="none" font-weight="700" transform="translate(218 318)"><tspan>11.0.0.0</tspan></text></g></g><g><g><text dominant-baseline="text-before-edge" style="font-kerning:normal" font-family="'Montserrat','Montserrat-Bold'" font-size="12" font-style="none" font-weight="700" transform="translate(381 318)"><tspan>28-01-2021</tspan></text></g></g><g><path d="M1323.286 372.854v1.714h-3.428v-1.714zm-5.142 2.142a1.29 1.29 0 0 0 1.285 1.286h4.285a1.29 1.29 0 0 0 1.286-1.286v-4.285a1.29 1.29 0 0 0-1.286-1.285h-2.142v-1.714h-3.428zm3.428-7.284H1325v-1.714h-3.428zm-3.428-1.714h3.428v-1.714h-3.428zm3.428-1.714H1325v-1.714h-3.428zm-3.428-1.714h3.428v-1.714h-3.428zm3.428-1.714H1325v-1.714h-3.428zm-3.428-1.714h3.428v-1.714h-3.428zm3.428-1.714H1325v-1.714h-3.428zm-3.428-1.714h3.428V354h-3.428zm17.14 21.853a.434.434 0 0 1-.429.429h-19.71a.434.434 0 0 1-.43-.429v-23.139c0-.232.197-.428.43-.428h13.283v5.999c0 .473.383.857.857.857h5.999zm-2.963-20.605a23.376 23.376 0 0 1 1.944 2.18h-4.123v-4.123a23.366 23.366 0 0 1 2.18 1.943zm3.547 1.459c-.595-.812-1.424-1.76-2.335-2.67-.91-.911-1.859-1.74-2.67-2.335-1.381-1.013-2.051-1.13-2.435-1.13h-13.284a2.145 2.145 0 0 0-2.142 2.142v23.14c0 1.18.96 2.142 2.142 2.142h19.711a2.145 2.145 0 0 0 2.143-2.143v-16.711c0-.384-.117-1.054-1.13-2.435z"/></g><g><g><path d="M1379.284 377.571a.434.434 0 0 1-.429.429h-19.714a.434.434 0 0 1-.429-.429V354.43c0-.233.197-.429.429-.429h13.286v6c0 .473.383.857.857.857h6zm-2.963-20.608a23.38 23.38 0 0 1 1.944 2.18h-4.124v-4.124a23.356 23.356 0 0 1 2.18 1.944zm3.547 1.459c-.595-.812-1.425-1.76-2.335-2.671-.911-.91-1.86-1.74-2.671-2.335-1.381-1.013-2.052-1.13-2.435-1.13h-13.286a2.145 2.145 0 0 0-2.143 2.143v23.142c0 1.182.961 2.143 2.143 2.143h19.714a2.145 2.145 0 0 0 2.143-2.143v-16.714c0-.384-.117-1.054-1.13-2.435z"/></g><g><g><text dominant-baseline="text-before-edge" style="font-kerning:normal" font-family="'Montserrat','Montserrat-Bold'" font-size="9" font-style="none" font-weight="700" transform="translate(1358 360)"><tspan>SVD</tspan></text></g></g></g><g><path d="M1419.855 366.853a.857.857 0 0 0-.857-.857h-12a.857.857 0 0 0 0 1.714h12a.857.857 0 0 0 .857-.857zm0 3.429a.857.857 0 0 0-.857-.858h-12a.857.857 0 0 0 0 1.715h12a.857.857 0 0 0 .857-.857zm0 3.428a.857.857 0 0 0-.857-.857h-12a.857.857 0 0 0 0 1.714h12a.857.857 0 0 0 .857-.857zm3.428 3.857a.434.434 0 0 1-.428.429h-19.714a.434.434 0 0 1-.429-.429v-23.143c0-.232.196-.428.429-.428h13.285v6c0 .473.384.857.857.857h6zm-2.963-20.608a23.38 23.38 0 0 1 1.944 2.18h-4.123v-4.124a23.356 23.356 0 0 1 2.18 1.944zm3.548 1.459c-.595-.812-1.425-1.76-2.336-2.671-.91-.911-1.859-1.74-2.67-2.335-1.382-1.013-2.052-1.13-2.436-1.13h-13.285a2.145 2.145 0 0 0-2.143 2.142v23.143c0 1.182.961 2.143 2.143 2.143h19.714a2.145 2.145 0 0 0 2.143-2.143v-16.714c0-.384-.117-1.054-1.13-2.435z"/></g><g><g><text dominant-baseline="text-before-edge" style="font-kerning:normal" font-family="'Montserrat','Montserrat-Bold'" font-size="10" font-style="none" font-weight="700" transform="translate(3 358)"><tspan>VI_HLCSYS_SPEC</tspan></text></g></g><g><g><text dominant-baseline="text-before-edge" style="font-kerning:normal" font-family="'Montserrat','Montserrat-Bold'" font-size="12" font-style="none" font-weight="700" transform="translate(381 357)"><tspan>21-10-2020</tspan></text></g></g><g><g><text dominant-baseline="text-before-edge" style="font-kerning:normal" fill="#fff" font-family="'Montserrat','Montserrat-Bold'" font-size="14" font-style="none" font-weight="700" transform="translate(577 356)"><tspan>76</tspan></text></g></g><g><g><text dominant-baseline="text-before-edge" style="font-kerning:normal" fill="#fff" font-family="'Montserrat','Montserrat-Bold'" font-size="12" font-style="none" font-weight="700" transform="translate(925 357)"><tspan>11.0.0.0</tspan></text></g></g><g><g><text dominant-baseline="text-before-edge" style="font-kerning:normal" font-family="'Montserrat','Montserrat-Bold'" font-size="12" font-style="none" font-weight="700" transform="translate(1103 357)"><tspan>21-10-2020</tspan></text></g></g><g><g><text dominant-baseline="text-before-edge" style="font-kerning:normal" fill="#fff" font-family="'Montserrat','Montserrat-Bold'" font-size="12" font-style="none" font-weight="700" transform="translate(218 357)"><tspan>11.0.0.0</tspan></text></g></g><g><g><text dominant-baseline="text-before-edge" style="font-kerning:normal" font-family="'Montserrat','Montserrat-Bold'" font-size="10" font-style="none" font-weight="700" transform="translate(17 397)"><tspan>VI_HHT_GUI</tspan></text></g></g><g><g><text dominant-baseline="text-before-edge" style="font-kerning:normal" fill="#fff" font-family="'Montserrat','Montserrat-Bold'" font-size="14" font-style="none" font-weight="700" transform="translate(577 395)"><tspan>76</tspan></text></g></g><g><g><text dominant-baseline="text-before-edge" style="font-kerning:normal" fill="#fff" font-family="'Montserrat','Montserrat-Bold'" font-size="12" font-style="none" font-weight="700" transform="translate(218 396)"><tspan>11.0.0.0</tspan></text></g></g><g><g><text dominant-baseline="text-before-edge" style="font-kerning:normal" font-family="'Montserrat','Montserrat-Bold'" font-size="12" font-style="none" font-weight="700" transform="translate(381 396)"><tspan>21-10-2020</tspan></text></g></g><g><g><text dominant-baseline="text-before-edge" style="font-kerning:normal" font-family="'Montserrat','Montserrat-Bold'" font-size="10" font-style="none" font-weight="700" transform="translate(32 436)"><tspan>VI_LM</tspan></text></g></g><g><g><text dominant-baseline="text-before-edge" style="font-kerning:normal" fill="#fff" font-family="'Montserrat','Montserrat-Bold'" font-size="14" font-style="none" font-weight="700" transform="translate(582 434)"><tspan>7</tspan></text></g></g><g><g><text dominant-baseline="text-before-edge" style="font-kerning:normal" fill="#fff" font-family="'Montserrat','Montserrat-Bold'" font-size="12" font-style="none" font-weight="700" transform="translate(218 435)"><tspan>9.0.0.0</tspan></text></g></g><g><g><text dominant-baseline="text-before-edge" style="font-kerning:normal" font-family="'Montserrat','Montserrat-Bold'" font-size="12" font-style="none" font-weight="700" transform="translate(381 435)"><tspan>28-01-2021</tspan></text></g></g><g><g><text dominant-baseline="text-before-edge" style="font-kerning:normal" font-family="'Montserrat','Montserrat-Bold'" font-size="10" font-style="none" font-weight="700" transform="translate(28 475)"><tspan>VI_MCS</tspan></text></g></g><g><g><text dominant-baseline="text-before-edge" style="font-kerning:normal" fill="#fff" font-family="'Montserrat','Montserrat-Bold'" font-size="14" font-style="none" font-weight="700" transform="translate(578 473)"><tspan>14</tspan></text></g></g><g><g><text dominant-baseline="text-before-edge" style="font-kerning:normal" fill="#fff" font-family="'Montserrat','Montserrat-Bold'" font-size="12" font-style="none" font-weight="700" transform="translate(218 474)"><tspan>14.1.0.0</tspan></text></g></g><g><g><text dominant-baseline="text-before-edge" style="font-kerning:normal" font-family="'Montserrat','Montserrat-Bold'" font-size="12" font-style="none" font-weight="700" transform="translate(380 474)"><tspan>26-03-2021</tspan></text></g></g><g><g><text dominant-baseline="text-before-edge" style="font-kerning:normal" font-family="'Montserrat','Montserrat-Bold'" font-size="12" font-style="none" font-weight="700" transform="translate(1102 474)"><tspan>26-03-2021</tspan></text></g></g><g><g><path d="M1379.284 493.571a.434.434 0 0 1-.429.429h-19.714a.434.434 0 0 1-.429-.429V470.43c0-.233.197-.429.429-.429h13.286v6c0 .473.383.857.857.857h6zm-2.963-20.608a23.38 23.38 0 0 1 1.944 2.18h-4.124v-4.124a23.356 23.356 0 0 1 2.18 1.944zm3.547 1.459c-.595-.812-1.425-1.76-2.335-2.671-.911-.91-1.86-1.74-2.671-2.335-1.381-1.013-2.052-1.13-2.435-1.13h-13.286a2.145 2.145 0 0 0-2.143 2.143v23.142c0 1.182.961 2.143 2.143 2.143h19.714a2.145 2.145 0 0 0 2.143-2.143v-16.714c0-.384-.117-1.054-1.13-2.435z"/></g><g><g><text dominant-baseline="text-before-edge" style="font-kerning:normal" font-family="'Montserrat','Montserrat-Bold'" font-size="9" font-style="none" font-weight="700" transform="translate(1358 476)"><tspan>SVD</tspan></text></g></g></g><g><path d="M1419.855 482.853a.857.857 0 0 0-.857-.857h-12a.857.857 0 0 0 0 1.714h12a.857.857 0 0 0 .857-.857zm0 3.429a.857.857 0 0 0-.857-.858h-12a.857.857 0 0 0 0 1.715h12a.857.857 0 0 0 .857-.857zm0 3.428a.857.857 0 0 0-.857-.857h-12a.857.857 0 0 0 0 1.714h12a.857.857 0 0 0 .857-.857zm3.428 3.857a.434.434 0 0 1-.428.429h-19.714a.434.434 0 0 1-.429-.429v-23.143c0-.232.196-.428.429-.428h13.285v6c0 .473.384.857.857.857h6zm-2.963-20.608a23.38 23.38 0 0 1 1.944 2.18h-4.123v-4.124a23.356 23.356 0 0 1 2.18 1.944zm3.548 1.459c-.595-.812-1.425-1.76-2.336-2.671-.91-.911-1.859-1.74-2.67-2.335-1.382-1.013-2.052-1.13-2.436-1.13h-13.285a2.145 2.145 0 0 0-2.143 2.142v23.143c0 1.182.961 2.143 2.143 2.143h19.714a2.145 2.145 0 0 0 2.143-2.143v-16.714c0-.384-.117-1.054-1.13-2.435z"/></g><g><g><text dominant-baseline="text-before-edge" style="font-kerning:normal" fill="#fff" font-family="'Montserrat','Montserrat-Bold'" font-size="12" font-style="none" font-weight="700" transform="translate(925 474)"><tspan>11.0.0.0</tspan></text></g></g><g><g><text dominant-baseline="text-before-edge" style="font-kerning:normal" font-family="'Montserrat','Montserrat-Bold'" font-size="10" font-style="none" font-weight="700" transform="translate(29 514)"><tspan>VI_MTT</tspan></text></g></g><g><g><text dominant-baseline="text-before-edge" style="font-kerning:normal" fill="#fff" font-family="'Montserrat','Montserrat-Bold'" font-size="14" font-style="none" font-weight="700" transform="translate(582 512)"><tspan>7</tspan></text></g></g><g><g><text dominant-baseline="text-before-edge" style="font-kerning:normal" fill="#fff" font-family="'Montserrat','Montserrat-Bold'" font-size="12" font-style="none" font-weight="700" transform="translate(214 513)"><tspan>Planned</tspan></text></g></g><g><g><text dominant-baseline="text-before-edge" style="font-kerning:normal" font-family="'Montserrat','Montserrat-Bold'" font-size="10" font-style="none" font-weight="700" transform="translate(28 553)"><tspan>VI_ODB</tspan></text></g></g><g><g><text dominant-baseline="text-before-edge" style="font-kerning:normal" fill="#fff" font-family="'Montserrat','Montserrat-Bold'" font-size="14" font-style="none" font-weight="700" transform="translate(578 551)"><tspan>14</tspan></text></g></g><g><g><text dominant-baseline="text-before-edge" style="font-kerning:normal" fill="#fff" font-family="'Montserrat','Montserrat-Bold'" font-size="12" font-style="none" font-weight="700" transform="translate(218 552)"><tspan>9.0.0.0</tspan></text></g></g><g><g><text dominant-baseline="text-before-edge" style="font-kerning:normal" font-family="'Montserrat','Montserrat-Bold'" font-size="12" font-style="none" font-weight="700" transform="translate(381 552)"><tspan>28-01-2021</tspan></text></g></g></g></svg>