<svg xmlns="http://www.w3.org/2000/svg" width="165" height="40" viewBox="0 0 165 40"><g><g><path fill="#ec8a44" d="M20 40C8.954 40 0 31.046 0 20S8.954 0 20 0h125c11.046 0 20 8.954 20 20s-8.954 20-20 20z"/></g><g><g><g/></g><g><g><path fill="#fff" d="M29.418 19.224a.737.737 0 0 1-.673 0l-11.776-6.11h24.224zm11.775 7.823H16.97V16.17l11.776 5.52c.203.108.469.108.673 0l11.775-5.68zm1.346-16.076H15.623c-.743 0-1.346.48-1.346 1.072v16.076c0 .592.603 1.072 1.346 1.072H42.54c.743 0 1.346-.48 1.346-1.072V12.043c0-.592-.603-1.072-1.346-1.072z"/></g></g></g><g><g><text dominant-baseline="text-before-edge" style="font-kerning:normal" fill="#fff" font-family="'Montserrat','Montserrat-Bold'" font-size="16" font-style="none" font-weight="700" transform="translate(56 10)"><tspan>SUBSCRIBE</tspan></text></g></g></g></svg>