<svg xmlns="http://www.w3.org/2000/svg" width="1425" height="535" viewBox="0 0 1425 535"><defs><clipPath id="x0q2a"><path fill="#fff" d="M12 26C5.373 26 0 20.627 0 14S5.373 2 12 2h72c6.627 0 12 5.373 12 12s-5.373 12-12 12z"/></clipPath><clipPath id="x0q2b"><path fill="#fff" d="M12 65C5.373 65 0 59.627 0 53s5.373-12 12-12h72c6.627 0 12 5.373 12 12s-5.373 12-12 12z"/></clipPath><clipPath id="x0q2c"><path fill="#fff" d="M12 104c-6.627 0-12-5.373-12-12s5.373-12 12-12h72c6.627 0 12 5.373 12 12s-5.373 12-12 12z"/></clipPath><clipPath id="x0q2d"><path fill="#fff" d="M12 143c-6.627 0-12-5.373-12-12s5.373-12 12-12h72c6.627 0 12 5.373 12 12s-5.373 12-12 12z"/></clipPath><clipPath id="x0q2e"><path fill="#fff" d="M12 182c-6.627 0-12-5.373-12-12s5.373-12 12-12h72c6.627 0 12 5.373 12 12s-5.373 12-12 12z"/></clipPath><clipPath id="x0q2f"><path fill="#fff" d="M12 221c-6.627 0-12-5.373-12-12s5.373-12 12-12h72c6.627 0 12 5.373 12 12s-5.373 12-12 12z"/></clipPath><clipPath id="x0q2g"><path fill="#fff" d="M12 260c-6.627 0-12-5.373-12-12s5.373-12 12-12h72c6.627 0 12 5.373 12 12s-5.373 12-12 12z"/></clipPath><clipPath id="x0q2h"><path fill="#fff" d="M12 299c-6.627 0-12-5.373-12-12s5.373-12 12-12h72c6.627 0 12 5.373 12 12s-5.373 12-12 12z"/></clipPath><clipPath id="x0q2i"><path fill="#fff" d="M12 338c-6.627 0-12-5.373-12-12s5.373-12 12-12h72c6.627 0 12 5.373 12 12s-5.373 12-12 12z"/></clipPath><clipPath id="x0q2j"><path fill="#fff" d="M12 377c-6.627 0-12-5.373-12-12s5.373-12 12-12h72c6.627 0 12 5.373 12 12s-5.373 12-12 12z"/></clipPath><clipPath id="x0q2k"><path fill="#fff" d="M12 416c-6.627 0-12-5.373-12-12s5.373-12 12-12h72c6.627 0 12 5.373 12 12s-5.373 12-12 12z"/></clipPath><clipPath id="x0q2l"><path fill="#fff" d="M12 455c-6.627 0-12-5.373-12-12s5.373-12 12-12h72c6.627 0 12 5.373 12 12s-5.373 12-12 12z"/></clipPath><clipPath id="x0q2m"><path fill="#fff" d="M12 494c-6.627 0-12-5.373-12-12s5.373-12 12-12h72c6.627 0 12 5.373 12 12s-5.373 12-12 12z"/></clipPath><clipPath id="x0q2n"><path fill="#fff" d="M12 533c-6.627 0-12-5.373-12-12s5.373-12 12-12h72c6.627 0 12 5.373 12 12s-5.373 12-12 12z"/></clipPath><clipPath id="x0q2o"><path fill="#fff" d="M204 26c-6.627 0-12-5.373-12-12s5.373-12 12-12h72c6.627 0 12 5.373 12 12s-5.373 12-12 12z"/></clipPath><clipPath id="x0q2p"><path fill="#fff" d="M204 65c-6.627 0-12-5.373-12-12s5.373-12 12-12h72c6.627 0 12 5.373 12 12s-5.373 12-12 12z"/></clipPath><clipPath id="x0q2q"><path fill="#fff" d="M204 104c-6.627 0-12-5.373-12-12s5.373-12 12-12h72c6.627 0 12 5.373 12 12s-5.373 12-12 12z"/></clipPath><clipPath id="x0q2r"><path fill="#fff" d="M204 143c-6.627 0-12-5.373-12-12s5.373-12 12-12h72c6.627 0 12 5.373 12 12s-5.373 12-12 12z"/></clipPath><clipPath id="x0q2s"><path fill="#fff" d="M204 182c-6.627 0-12-5.373-12-12s5.373-12 12-12h72c6.627 0 12 5.373 12 12s-5.373 12-12 12z"/></clipPath><clipPath id="x0q2t"><path fill="#fff" d="M204 221c-6.627 0-12-5.373-12-12s5.373-12 12-12h72c6.627 0 12 5.373 12 12s-5.373 12-12 12z"/></clipPath><clipPath id="x0q2u"><path fill="#fff" d="M204 260c-6.627 0-12-5.373-12-12s5.373-12 12-12h72c6.627 0 12 5.373 12 12s-5.373 12-12 12z"/></clipPath><clipPath id="x0q2v"><path fill="#fff" d="M204 299c-6.627 0-12-5.373-12-12s5.373-12 12-12h72c6.627 0 12 5.373 12 12s-5.373 12-12 12z"/></clipPath><clipPath id="x0q2w"><path fill="#fff" d="M204 338c-6.627 0-12-5.373-12-12s5.373-12 12-12h72c6.627 0 12 5.373 12 12s-5.373 12-12 12z"/></clipPath><clipPath id="x0q2x"><path fill="#fff" d="M204 377c-6.627 0-12-5.373-12-12s5.373-12 12-12h72c6.627 0 12 5.373 12 12s-5.373 12-12 12z"/></clipPath><clipPath id="x0q2y"><path fill="#fff" d="M204 416c-6.627 0-12-5.373-12-12s5.373-12 12-12h72c6.627 0 12 5.373 12 12s-5.373 12-12 12z"/></clipPath><clipPath id="x0q2z"><path fill="#fff" d="M204 455c-6.627 0-12-5.373-12-12s5.373-12 12-12h72c6.627 0 12 5.373 12 12s-5.373 12-12 12z"/></clipPath><clipPath id="x0q2A"><path fill="#fff" d="M204 494c-6.627 0-12-5.373-12-12s5.373-12 12-12h72c6.627 0 12 5.373 12 12s-5.373 12-12 12z"/></clipPath><clipPath id="x0q2B"><path fill="#fff" d="M204 533c-6.627 0-12-5.373-12-12s5.373-12 12-12h72c6.627 0 12 5.373 12 12s-5.373 12-12 12z"/></clipPath><clipPath id="x0q2C"><path fill="#fff" d="M377 26c-6.627 0-12-5.373-12-12s5.373-12 12-12h72c6.627 0 12 5.373 12 12s-5.373 12-12 12z"/></clipPath><clipPath id="x0q2D"><path fill="#fff" d="M377 65c-6.627 0-12-5.373-12-12s5.373-12 12-12h72c6.627 0 12 5.373 12 12s-5.373 12-12 12z"/></clipPath><clipPath id="x0q2E"><path fill="#fff" d="M377 143c-6.627 0-12-5.373-12-12s5.373-12 12-12h72c6.627 0 12 5.373 12 12s-5.373 12-12 12z"/></clipPath><clipPath id="x0q2F"><path fill="#fff" d="M377 182c-6.627 0-12-5.373-12-12s5.373-12 12-12h72c6.627 0 12 5.373 12 12s-5.373 12-12 12z"/></clipPath><clipPath id="x0q2G"><path fill="#fff" d="M377 221c-6.627 0-12-5.373-12-12s5.373-12 12-12h72c6.627 0 12 5.373 12 12s-5.373 12-12 12z"/></clipPath><clipPath id="x0q2H"><path fill="#fff" d="M377 260c-6.627 0-12-5.373-12-12s5.373-12 12-12h72c6.627 0 12 5.373 12 12s-5.373 12-12 12z"/></clipPath><clipPath id="x0q2I"><path fill="#fff" d="M377 299c-6.627 0-12-5.373-12-12s5.373-12 12-12h72c6.627 0 12 5.373 12 12s-5.373 12-12 12z"/></clipPath><clipPath id="x0q2J"><path fill="#fff" d="M377 377c-6.627 0-12-5.373-12-12s5.373-12 12-12h72c6.627 0 12 5.373 12 12s-5.373 12-12 12z"/></clipPath><clipPath id="x0q2K"><path fill="#fff" d="M377 416c-6.627 0-12-5.373-12-12s5.373-12 12-12h72c6.627 0 12 5.373 12 12s-5.373 12-12 12z"/></clipPath><clipPath id="x0q2L"><path fill="#fff" d="M377 455c-6.627 0-12-5.373-12-12s5.373-12 12-12h72c6.627 0 12 5.373 12 12s-5.373 12-12 12z"/></clipPath><clipPath id="x0q2M"><path fill="#fff" d="M377 533c-6.627 0-12-5.373-12-12s5.373-12 12-12h72c6.627 0 12 5.373 12 12s-5.373 12-12 12z"/></clipPath><clipPath id="x0q2N"><path fill="#fff" d="M550 26c-6.627 0-12-5.373-12-12s5.373-12 12-12h72c6.627 0 12 5.373 12 12s-5.373 12-12 12z"/></clipPath><clipPath id="x0q2O"><path fill="#fff" d="M550 65c-6.627 0-12-5.373-12-12s5.373-12 12-12h72c6.627 0 12 5.373 12 12s-5.373 12-12 12z"/></clipPath><clipPath id="x0q2P"><path fill="#fff" d="M550 104c-6.627 0-12-5.373-12-12s5.373-12 12-12h72c6.627 0 12 5.373 12 12s-5.373 12-12 12z"/></clipPath><clipPath id="x0q2Q"><path fill="#fff" d="M550 143c-6.627 0-12-5.373-12-12s5.373-12 12-12h72c6.627 0 12 5.373 12 12s-5.373 12-12 12z"/></clipPath><clipPath id="x0q2R"><path fill="#fff" d="M550 182c-6.627 0-12-5.373-12-12s5.373-12 12-12h72c6.627 0 12 5.373 12 12s-5.373 12-12 12z"/></clipPath><clipPath id="x0q2S"><path fill="#fff" d="M550 221c-6.627 0-12-5.373-12-12s5.373-12 12-12h72c6.627 0 12 5.373 12 12s-5.373 12-12 12z"/></clipPath><clipPath id="x0q2T"><path fill="#fff" d="M550 260c-6.627 0-12-5.373-12-12s5.373-12 12-12h72c6.627 0 12 5.373 12 12s-5.373 12-12 12z"/></clipPath><clipPath id="x0q2U"><path fill="#fff" d="M550 299c-6.627 0-12-5.373-12-12s5.373-12 12-12h72c6.627 0 12 5.373 12 12s-5.373 12-12 12z"/></clipPath><clipPath id="x0q2V"><path fill="#fff" d="M550 338c-6.627 0-12-5.373-12-12s5.373-12 12-12h72c6.627 0 12 5.373 12 12s-5.373 12-12 12z"/></clipPath><clipPath id="x0q2W"><path fill="#fff" d="M550 377c-6.627 0-12-5.373-12-12s5.373-12 12-12h72c6.627 0 12 5.373 12 12s-5.373 12-12 12z"/></clipPath><clipPath id="x0q2X"><path fill="#fff" d="M550 416c-6.627 0-12-5.373-12-12s5.373-12 12-12h72c6.627 0 12 5.373 12 12s-5.373 12-12 12z"/></clipPath><clipPath id="x0q2Y"><path fill="#fff" d="M550 455c-6.627 0-12-5.373-12-12s5.373-12 12-12h72c6.627 0 12 5.373 12 12s-5.373 12-12 12z"/></clipPath><clipPath id="x0q2Z"><path fill="#fff" d="M550 494c-6.627 0-12-5.373-12-12s5.373-12 12-12h72c6.627 0 12 5.373 12 12s-5.373 12-12 12z"/></clipPath><clipPath id="x0q2aa"><path fill="#fff" d="M550 533c-6.627 0-12-5.373-12-12s5.373-12 12-12h72c6.627 0 12 5.373 12 12s-5.373 12-12 12z"/></clipPath><clipPath id="x0q2ab"><path fill="#fff" d="M911 26c-6.627 0-12-5.373-12-12s5.373-12 12-12h72c6.627 0 12 5.373 12 12s-5.373 12-12 12z"/></clipPath><clipPath id="x0q2ac"><path fill="#fff" d="M911 65c-6.627 0-12-5.373-12-12s5.373-12 12-12h72c6.627 0 12 5.373 12 12s-5.373 12-12 12z"/></clipPath><clipPath id="x0q2ad"><path fill="#fff" d="M911 143c-6.627 0-12-5.373-12-12s5.373-12 12-12h72c6.627 0 12 5.373 12 12s-5.373 12-12 12z"/></clipPath><clipPath id="x0q2ae"><path fill="#fff" d="M911 182c-6.627 0-12-5.373-12-12s5.373-12 12-12h72c6.627 0 12 5.373 12 12s-5.373 12-12 12z"/></clipPath><clipPath id="x0q2af"><path fill="#fff" d="M911 221c-6.627 0-12-5.373-12-12s5.373-12 12-12h72c6.627 0 12 5.373 12 12s-5.373 12-12 12z"/></clipPath><clipPath id="x0q2ag"><path fill="#fff" d="M911 455c-6.627 0-12-5.373-12-12s5.373-12 12-12h72c6.627 0 12 5.373 12 12s-5.373 12-12 12z"/></clipPath><clipPath id="x0q2ah"><path fill="#fff" d="M1099 26c-6.627 0-12-5.373-12-12s5.373-12 12-12h72c6.627 0 12 5.373 12 12s-5.373 12-12 12z"/></clipPath><clipPath id="x0q2ai"><path fill="#fff" d="M1099 65c-6.627 0-12-5.373-12-12s5.373-12 12-12h72c6.627 0 12 5.373 12 12s-5.373 12-12 12z"/></clipPath><clipPath id="x0q2aj"><path fill="#fff" d="M1099 143c-6.627 0-12-5.373-12-12s5.373-12 12-12h72c6.627 0 12 5.373 12 12s-5.373 12-12 12z"/></clipPath><clipPath id="x0q2ak"><path fill="#fff" d="M1099 182c-6.627 0-12-5.373-12-12s5.373-12 12-12h72c6.627 0 12 5.373 12 12s-5.373 12-12 12z"/></clipPath><clipPath id="x0q2al"><path fill="#fff" d="M1099 221c-6.627 0-12-5.373-12-12s5.373-12 12-12h72c6.627 0 12 5.373 12 12s-5.373 12-12 12z"/></clipPath><clipPath id="x0q2am"><path fill="#fff" d="M1099 455c-6.627 0-12-5.373-12-12s5.373-12 12-12h72c6.627 0 12 5.373 12 12s-5.373 12-12 12z"/></clipPath></defs><g><g><path fill="#efeeed" d="M12 26C5.373 26 0 20.627 0 14S5.373 2 12 2h72c6.627 0 12 5.373 12 12s-5.373 12-12 12z"/><path fill="none" stroke="#fff" stroke-miterlimit="20" stroke-opacity=".25" stroke-width="2" d="M12 26C5.373 26 0 20.627 0 14v0C0 7.373 5.373 2 12 2h72c6.627 0 12 5.373 12 12v0c0 6.627-5.373 12-12 12z" clip-path="url(&quot;#x0q2a&quot;)"/></g><g><g><text dominant-baseline="text-before-edge" style="font-kerning:normal" font-family="'Montserrat','Montserrat-Bold'" font-size="10" font-style="none" font-weight="700" transform="translate(3 7)"><tspan>VI_HLCSYS_SPEC</tspan></text></g></g><g><path fill="#efeeed" d="M12 65C5.373 65 0 59.627 0 53s5.373-12 12-12h72c6.627 0 12 5.373 12 12s-5.373 12-12 12z"/><path fill="none" stroke="#fff" stroke-miterlimit="20" stroke-opacity=".25" stroke-width="2" d="M12 65C5.373 65 0 59.627 0 53v0c0-6.627 5.373-12 12-12h72c6.627 0 12 5.373 12 12v0c0 6.627-5.373 12-12 12z" clip-path="url(&quot;#x0q2b&quot;)"/></g><g><g><text dominant-baseline="text-before-edge" style="font-kerning:normal" font-family="'Montserrat','Montserrat-Bold'" font-size="10" font-style="none" font-weight="700" transform="translate(23 47)"><tspan>VI_AMON</tspan></text></g></g><g><path fill="#efeeed" d="M12 104c-6.627 0-12-5.373-12-12s5.373-12 12-12h72c6.627 0 12 5.373 12 12s-5.373 12-12 12z"/><path fill="none" stroke="#fff" stroke-miterlimit="20" stroke-opacity=".25" stroke-width="2" d="M12 104c-6.627 0-12-5.373-12-12v0c0-6.627 5.373-12 12-12h72c6.627 0 12 5.373 12 12v0c0 6.627-5.373 12-12 12z" clip-path="url(&quot;#x0q2c&quot;)"/></g><g><g><text dominant-baseline="text-before-edge" style="font-kerning:normal" font-family="'Montserrat','Montserrat-Bold'" font-size="10" font-style="none" font-weight="700" transform="translate(32 85)"><tspan>VI_CM</tspan></text></g></g><g><path fill="#efeeed" d="M12 143c-6.627 0-12-5.373-12-12s5.373-12 12-12h72c6.627 0 12 5.373 12 12s-5.373 12-12 12z"/><path fill="none" stroke="#fff" stroke-miterlimit="20" stroke-opacity=".25" stroke-width="2" d="M12 143c-6.627 0-12-5.373-12-12v0c0-6.627 5.373-12 12-12h72c6.627 0 12 5.373 12 12v0c0 6.627-5.373 12-12 12z" clip-path="url(&quot;#x0q2d&quot;)"/></g><g><path fill="#efeeed" d="M12 182c-6.627 0-12-5.373-12-12s5.373-12 12-12h72c6.627 0 12 5.373 12 12s-5.373 12-12 12z"/><path fill="none" stroke="#fff" stroke-miterlimit="20" stroke-opacity=".25" stroke-width="2" d="M12 182c-6.627 0-12-5.373-12-12v0c0-6.627 5.373-12 12-12h72c6.627 0 12 5.373 12 12v0c0 6.627-5.373 12-12 12z" clip-path="url(&quot;#x0q2e&quot;)"/></g><g><g><text dominant-baseline="text-before-edge" style="font-kerning:normal" font-family="'Montserrat','Montserrat-Bold'" font-size="10" font-style="none" font-weight="700" transform="translate(28 124)"><tspan>VI_BCM</tspan></text></g></g><g><path fill="#efeeed" d="M12 221c-6.627 0-12-5.373-12-12s5.373-12 12-12h72c6.627 0 12 5.373 12 12s-5.373 12-12 12z"/><path fill="none" stroke="#fff" stroke-miterlimit="20" stroke-opacity=".25" stroke-width="2" d="M12 221c-6.627 0-12-5.373-12-12v0c0-6.627 5.373-12 12-12h72c6.627 0 12 5.373 12 12v0c0 6.627-5.373 12-12 12z" clip-path="url(&quot;#x0q2f&quot;)"/></g><g><g><text dominant-baseline="text-before-edge" style="font-kerning:normal" font-family="'Montserrat','Montserrat-Bold'" font-size="10" font-style="none" font-weight="700" transform="translate(31 202)"><tspan>VI_BPI</tspan></text></g></g><g><path fill="#efeeed" d="M12 260c-6.627 0-12-5.373-12-12s5.373-12 12-12h72c6.627 0 12 5.373 12 12s-5.373 12-12 12z"/><path fill="none" stroke="#fff" stroke-miterlimit="20" stroke-opacity=".25" stroke-width="2" d="M12 260c-6.627 0-12-5.373-12-12v0c0-6.627 5.373-12 12-12h72c6.627 0 12 5.373 12 12v0c0 6.627-5.373 12-12 12z" clip-path="url(&quot;#x0q2g&quot;)"/></g><g><g><text dominant-baseline="text-before-edge" style="font-kerning:normal" font-family="'Montserrat','Montserrat-Bold'" font-size="10" font-style="none" font-weight="700" transform="translate(28 241)"><tspan>VI_BSIS</tspan></text></g></g><g><path fill="#efeeed" d="M12 299c-6.627 0-12-5.373-12-12s5.373-12 12-12h72c6.627 0 12 5.373 12 12s-5.373 12-12 12z"/><path fill="none" stroke="#fff" stroke-miterlimit="20" stroke-opacity=".25" stroke-width="2" d="M12 299c-6.627 0-12-5.373-12-12v0c0-6.627 5.373-12 12-12h72c6.627 0 12 5.373 12 12v0c0 6.627-5.373 12-12 12z" clip-path="url(&quot;#x0q2h&quot;)"/></g><g><g><text dominant-baseline="text-before-edge" style="font-kerning:normal" font-family="'Montserrat','Montserrat-Bold'" font-size="10" font-style="none" font-weight="700" transform="translate(25 280)"><tspan>VI_BSMS</tspan></text></g></g><g><path fill="#efeeed" d="M12 338c-6.627 0-12-5.373-12-12s5.373-12 12-12h72c6.627 0 12 5.373 12 12s-5.373 12-12 12z"/><path fill="none" stroke="#fff" stroke-miterlimit="20" stroke-opacity=".25" stroke-width="2" d="M12 338c-6.627 0-12-5.373-12-12v0c0-6.627 5.373-12 12-12h72c6.627 0 12 5.373 12 12v0c0 6.627-5.373 12-12 12z" clip-path="url(&quot;#x0q2i&quot;)"/></g><g><g><text dominant-baseline="text-before-edge" style="font-kerning:normal" font-family="'Montserrat','Montserrat-Bold'" font-size="10" font-style="none" font-weight="700" transform="translate(32 319)"><tspan>VI_DC</tspan></text></g></g><g><path fill="#efeeed" d="M12 377c-6.627 0-12-5.373-12-12s5.373-12 12-12h72c6.627 0 12 5.373 12 12s-5.373 12-12 12z"/><path fill="none" stroke="#fff" stroke-miterlimit="20" stroke-opacity=".25" stroke-width="2" d="M12 377c-6.627 0-12-5.373-12-12v0c0-6.627 5.373-12 12-12h72c6.627 0 12 5.373 12 12v0c0 6.627-5.373 12-12 12z" clip-path="url(&quot;#x0q2j&quot;)"/></g><g><g><text dominant-baseline="text-before-edge" style="font-kerning:normal" font-family="'Montserrat','Montserrat-Bold'" font-size="10" font-style="none" font-weight="700" transform="translate(17 358)"><tspan>VI_HHT_GUI</tspan></text></g></g><g><path fill="#efeeed" d="M12 416c-6.627 0-12-5.373-12-12s5.373-12 12-12h72c6.627 0 12 5.373 12 12s-5.373 12-12 12z"/><path fill="none" stroke="#fff" stroke-miterlimit="20" stroke-opacity=".25" stroke-width="2" d="M12 416c-6.627 0-12-5.373-12-12v0c0-6.627 5.373-12 12-12h72c6.627 0 12 5.373 12 12v0c0 6.627-5.373 12-12 12z" clip-path="url(&quot;#x0q2k&quot;)"/></g><g><g><text dominant-baseline="text-before-edge" style="font-kerning:normal" font-family="'Montserrat','Montserrat-Bold'" font-size="10" font-style="none" font-weight="700" transform="translate(32 397)"><tspan>VI_LM</tspan></text></g></g><g><path fill="#efeeed" d="M12 455c-6.627 0-12-5.373-12-12s5.373-12 12-12h72c6.627 0 12 5.373 12 12s-5.373 12-12 12z"/><path fill="none" stroke="#fff" stroke-miterlimit="20" stroke-opacity=".25" stroke-width="2" d="M12 455c-6.627 0-12-5.373-12-12v0c0-6.627 5.373-12 12-12h72c6.627 0 12 5.373 12 12v0c0 6.627-5.373 12-12 12z" clip-path="url(&quot;#x0q2l&quot;)"/></g><g><g><text dominant-baseline="text-before-edge" style="font-kerning:normal" font-family="'Montserrat','Montserrat-Bold'" font-size="10" font-style="none" font-weight="700" transform="translate(28 436)"><tspan>VI_MCS</tspan></text></g></g><g><path fill="#efeeed" d="M12 494c-6.627 0-12-5.373-12-12s5.373-12 12-12h72c6.627 0 12 5.373 12 12s-5.373 12-12 12z"/><path fill="none" stroke="#fff" stroke-miterlimit="20" stroke-opacity=".25" stroke-width="2" d="M12 494c-6.627 0-12-5.373-12-12v0c0-6.627 5.373-12 12-12h72c6.627 0 12 5.373 12 12v0c0 6.627-5.373 12-12 12z" clip-path="url(&quot;#x0q2m&quot;)"/></g><g><g><text dominant-baseline="text-before-edge" style="font-kerning:normal" font-family="'Montserrat','Montserrat-Bold'" font-size="10" font-style="none" font-weight="700" transform="translate(29 475)"><tspan>VI_MTT</tspan></text></g></g><g><path fill="#efeeed" d="M12 533c-6.627 0-12-5.373-12-12s5.373-12 12-12h72c6.627 0 12 5.373 12 12s-5.373 12-12 12z"/><path fill="none" stroke="#fff" stroke-miterlimit="20" stroke-opacity=".25" stroke-width="2" d="M12 533c-6.627 0-12-5.373-12-12v0c0-6.627 5.373-12 12-12h72c6.627 0 12 5.373 12 12v0c0 6.627-5.373 12-12 12z" clip-path="url(&quot;#x0q2n&quot;)"/></g><g><g><text dominant-baseline="text-before-edge" style="font-kerning:normal" font-family="'Montserrat','Montserrat-Bold'" font-size="10" font-style="none" font-weight="700" transform="translate(28 514)"><tspan>VI_ODB</tspan></text></g></g><g><path fill="#63bf67" d="M204 26c-6.627 0-12-5.373-12-12s5.373-12 12-12h72c6.627 0 12 5.373 12 12s-5.373 12-12 12z"/><path fill="none" stroke="#fff" stroke-miterlimit="20" stroke-opacity=".25" stroke-width="2" d="M204 26c-6.627 0-12-5.373-12-12v0c0-6.627 5.373-12 12-12h72c6.627 0 12 5.373 12 12v0c0 6.627-5.373 12-12 12z" clip-path="url(&quot;#x0q2o&quot;)"/></g><g><path fill="#63bf67" d="M204 65c-6.627 0-12-5.373-12-12s5.373-12 12-12h72c6.627 0 12 5.373 12 12s-5.373 12-12 12z"/><path fill="none" stroke="#fff" stroke-miterlimit="20" stroke-opacity=".25" stroke-width="2" d="M204 65c-6.627 0-12-5.373-12-12v0c0-6.627 5.373-12 12-12h72c6.627 0 12 5.373 12 12v0c0 6.627-5.373 12-12 12z" clip-path="url(&quot;#x0q2p&quot;)"/></g><g><path fill="#f2d230" d="M204 104c-6.627 0-12-5.373-12-12s5.373-12 12-12h72c6.627 0 12 5.373 12 12s-5.373 12-12 12z"/><path fill="none" stroke="#fff" stroke-miterlimit="20" stroke-opacity=".25" stroke-width="2" d="M204 104c-6.627 0-12-5.373-12-12v0c0-6.627 5.373-12 12-12h72c6.627 0 12 5.373 12 12v0c0 6.627-5.373 12-12 12z" clip-path="url(&quot;#x0q2q&quot;)"/></g><g><path fill="#63bf67" d="M204 143c-6.627 0-12-5.373-12-12s5.373-12 12-12h72c6.627 0 12 5.373 12 12s-5.373 12-12 12z"/><path fill="none" stroke="#fff" stroke-miterlimit="20" stroke-opacity=".25" stroke-width="2" d="M204 143c-6.627 0-12-5.373-12-12v0c0-6.627 5.373-12 12-12h72c6.627 0 12 5.373 12 12v0c0 6.627-5.373 12-12 12z" clip-path="url(&quot;#x0q2r&quot;)"/></g><g><path fill="#63bf67" d="M204 182c-6.627 0-12-5.373-12-12s5.373-12 12-12h72c6.627 0 12 5.373 12 12s-5.373 12-12 12z"/><path fill="none" stroke="#fff" stroke-miterlimit="20" stroke-opacity=".25" stroke-width="2" d="M204 182c-6.627 0-12-5.373-12-12v0c0-6.627 5.373-12 12-12h72c6.627 0 12 5.373 12 12v0c0 6.627-5.373 12-12 12z" clip-path="url(&quot;#x0q2s&quot;)"/></g><g><path fill="#63bf67" d="M204 221c-6.627 0-12-5.373-12-12s5.373-12 12-12h72c6.627 0 12 5.373 12 12s-5.373 12-12 12z"/><path fill="none" stroke="#fff" stroke-miterlimit="20" stroke-opacity=".25" stroke-width="2" d="M204 221c-6.627 0-12-5.373-12-12v0c0-6.627 5.373-12 12-12h72c6.627 0 12 5.373 12 12v0c0 6.627-5.373 12-12 12z" clip-path="url(&quot;#x0q2t&quot;)"/></g><g><path fill="#63bf67" d="M204 260c-6.627 0-12-5.373-12-12s5.373-12 12-12h72c6.627 0 12 5.373 12 12s-5.373 12-12 12z"/><path fill="none" stroke="#fff" stroke-miterlimit="20" stroke-opacity=".25" stroke-width="2" d="M204 260c-6.627 0-12-5.373-12-12v0c0-6.627 5.373-12 12-12h72c6.627 0 12 5.373 12 12v0c0 6.627-5.373 12-12 12z" clip-path="url(&quot;#x0q2u&quot;)"/></g><g><path fill="#63bf67" d="M204 299c-6.627 0-12-5.373-12-12s5.373-12 12-12h72c6.627 0 12 5.373 12 12s-5.373 12-12 12z"/><path fill="none" stroke="#fff" stroke-miterlimit="20" stroke-opacity=".25" stroke-width="2" d="M204 299c-6.627 0-12-5.373-12-12v0c0-6.627 5.373-12 12-12h72c6.627 0 12 5.373 12 12v0c0 6.627-5.373 12-12 12z" clip-path="url(&quot;#x0q2v&quot;)"/></g><g><path fill="#f2d230" d="M204 338c-6.627 0-12-5.373-12-12s5.373-12 12-12h72c6.627 0 12 5.373 12 12s-5.373 12-12 12z"/><path fill="none" stroke="#fff" stroke-miterlimit="20" stroke-opacity=".25" stroke-width="2" d="M204 338c-6.627 0-12-5.373-12-12v0c0-6.627 5.373-12 12-12h72c6.627 0 12 5.373 12 12v0c0 6.627-5.373 12-12 12z" clip-path="url(&quot;#x0q2w&quot;)"/></g><g><path fill="#63bf67" d="M204 377c-6.627 0-12-5.373-12-12s5.373-12 12-12h72c6.627 0 12 5.373 12 12s-5.373 12-12 12z"/><path fill="none" stroke="#fff" stroke-miterlimit="20" stroke-opacity=".25" stroke-width="2" d="M204 377c-6.627 0-12-5.373-12-12v0c0-6.627 5.373-12 12-12h72c6.627 0 12 5.373 12 12v0c0 6.627-5.373 12-12 12z" clip-path="url(&quot;#x0q2x&quot;)"/></g><g><path fill="#63bf67" d="M204 416c-6.627 0-12-5.373-12-12s5.373-12 12-12h72c6.627 0 12 5.373 12 12s-5.373 12-12 12z"/><path fill="none" stroke="#fff" stroke-miterlimit="20" stroke-opacity=".25" stroke-width="2" d="M204 416c-6.627 0-12-5.373-12-12v0c0-6.627 5.373-12 12-12h72c6.627 0 12 5.373 12 12v0c0 6.627-5.373 12-12 12z" clip-path="url(&quot;#x0q2y&quot;)"/></g><g><path fill="#63bf67" d="M204 455c-6.627 0-12-5.373-12-12s5.373-12 12-12h72c6.627 0 12 5.373 12 12s-5.373 12-12 12z"/><path fill="none" stroke="#fff" stroke-miterlimit="20" stroke-opacity=".25" stroke-width="2" d="M204 455c-6.627 0-12-5.373-12-12v0c0-6.627 5.373-12 12-12h72c6.627 0 12 5.373 12 12v0c0 6.627-5.373 12-12 12z" clip-path="url(&quot;#x0q2z&quot;)"/></g><g><path fill="#f2d230" d="M204 494c-6.627 0-12-5.373-12-12s5.373-12 12-12h72c6.627 0 12 5.373 12 12s-5.373 12-12 12z"/><path fill="none" stroke="#fff" stroke-miterlimit="20" stroke-opacity=".25" stroke-width="2" d="M204 494c-6.627 0-12-5.373-12-12v0c0-6.627 5.373-12 12-12h72c6.627 0 12 5.373 12 12v0c0 6.627-5.373 12-12 12z" clip-path="url(&quot;#x0q2A&quot;)"/></g><g><path fill="#63bf67" d="M204 533c-6.627 0-12-5.373-12-12s5.373-12 12-12h72c6.627 0 12 5.373 12 12s-5.373 12-12 12z"/><path fill="none" stroke="#fff" stroke-miterlimit="20" stroke-opacity=".25" stroke-width="2" d="M204 533c-6.627 0-12-5.373-12-12v0c0-6.627 5.373-12 12-12h72c6.627 0 12 5.373 12 12v0c0 6.627-5.373 12-12 12z" clip-path="url(&quot;#x0q2B&quot;)"/></g><g><path fill="#efeeed" d="M377 26c-6.627 0-12-5.373-12-12s5.373-12 12-12h72c6.627 0 12 5.373 12 12s-5.373 12-12 12z"/><path fill="none" stroke="#fff" stroke-miterlimit="20" stroke-opacity=".25" stroke-width="2" d="M377 26c-6.627 0-12-5.373-12-12v0c0-6.627 5.373-12 12-12h72c6.627 0 12 5.373 12 12v0c0 6.627-5.373 12-12 12z" clip-path="url(&quot;#x0q2C&quot;)"/></g><g><g><text dominant-baseline="text-before-edge" style="font-kerning:normal" font-family="'Montserrat','Montserrat-Bold'" font-size="12" font-style="none" font-weight="700" transform="translate(381 6)"><tspan>21-10-2020</tspan></text></g></g><g><path fill="#efeeed" d="M377 65c-6.627 0-12-5.373-12-12s5.373-12 12-12h72c6.627 0 12 5.373 12 12s-5.373 12-12 12z"/><path fill="none" stroke="#fff" stroke-miterlimit="20" stroke-opacity=".25" stroke-width="2" d="M377 65c-6.627 0-12-5.373-12-12v0c0-6.627 5.373-12 12-12h72c6.627 0 12 5.373 12 12v0c0 6.627-5.373 12-12 12z" clip-path="url(&quot;#x0q2D&quot;)"/></g><g><path fill="#efeeed" d="M377 143c-6.627 0-12-5.373-12-12s5.373-12 12-12h72c6.627 0 12 5.373 12 12s-5.373 12-12 12z"/><path fill="none" stroke="#fff" stroke-miterlimit="20" stroke-opacity=".25" stroke-width="2" d="M377 143c-6.627 0-12-5.373-12-12v0c0-6.627 5.373-12 12-12h72c6.627 0 12 5.373 12 12v0c0 6.627-5.373 12-12 12z" clip-path="url(&quot;#x0q2E&quot;)"/></g><g><path fill="#efeeed" d="M377 182c-6.627 0-12-5.373-12-12s5.373-12 12-12h72c6.627 0 12 5.373 12 12s-5.373 12-12 12z"/><path fill="none" stroke="#fff" stroke-miterlimit="20" stroke-opacity=".25" stroke-width="2" d="M377 182c-6.627 0-12-5.373-12-12v0c0-6.627 5.373-12 12-12h72c6.627 0 12 5.373 12 12v0c0 6.627-5.373 12-12 12z" clip-path="url(&quot;#x0q2F&quot;)"/></g><g><path fill="#efeeed" d="M377 221c-6.627 0-12-5.373-12-12s5.373-12 12-12h72c6.627 0 12 5.373 12 12s-5.373 12-12 12z"/><path fill="none" stroke="#fff" stroke-miterlimit="20" stroke-opacity=".25" stroke-width="2" d="M377 221c-6.627 0-12-5.373-12-12v0c0-6.627 5.373-12 12-12h72c6.627 0 12 5.373 12 12v0c0 6.627-5.373 12-12 12z" clip-path="url(&quot;#x0q2G&quot;)"/></g><g><path fill="#efeeed" d="M377 260c-6.627 0-12-5.373-12-12s5.373-12 12-12h72c6.627 0 12 5.373 12 12s-5.373 12-12 12z"/><path fill="none" stroke="#fff" stroke-miterlimit="20" stroke-opacity=".25" stroke-width="2" d="M377 260c-6.627 0-12-5.373-12-12v0c0-6.627 5.373-12 12-12h72c6.627 0 12 5.373 12 12v0c0 6.627-5.373 12-12 12z" clip-path="url(&quot;#x0q2H&quot;)"/></g><g><path fill="#efeeed" d="M377 299c-6.627 0-12-5.373-12-12s5.373-12 12-12h72c6.627 0 12 5.373 12 12s-5.373 12-12 12z"/><path fill="none" stroke="#fff" stroke-miterlimit="20" stroke-opacity=".25" stroke-width="2" d="M377 299c-6.627 0-12-5.373-12-12v0c0-6.627 5.373-12 12-12h72c6.627 0 12 5.373 12 12v0c0 6.627-5.373 12-12 12z" clip-path="url(&quot;#x0q2I&quot;)"/></g><g><path fill="#efeeed" d="M377 377c-6.627 0-12-5.373-12-12s5.373-12 12-12h72c6.627 0 12 5.373 12 12s-5.373 12-12 12z"/><path fill="none" stroke="#fff" stroke-miterlimit="20" stroke-opacity=".25" stroke-width="2" d="M377 377c-6.627 0-12-5.373-12-12v0c0-6.627 5.373-12 12-12h72c6.627 0 12 5.373 12 12v0c0 6.627-5.373 12-12 12z" clip-path="url(&quot;#x0q2J&quot;)"/></g><g><path fill="#efeeed" d="M377 416c-6.627 0-12-5.373-12-12s5.373-12 12-12h72c6.627 0 12 5.373 12 12s-5.373 12-12 12z"/><path fill="none" stroke="#fff" stroke-miterlimit="20" stroke-opacity=".25" stroke-width="2" d="M377 416c-6.627 0-12-5.373-12-12v0c0-6.627 5.373-12 12-12h72c6.627 0 12 5.373 12 12v0c0 6.627-5.373 12-12 12z" clip-path="url(&quot;#x0q2K&quot;)"/></g><g><path fill="#efeeed" d="M377 455c-6.627 0-12-5.373-12-12s5.373-12 12-12h72c6.627 0 12 5.373 12 12s-5.373 12-12 12z"/><path fill="none" stroke="#fff" stroke-miterlimit="20" stroke-opacity=".25" stroke-width="2" d="M377 455c-6.627 0-12-5.373-12-12v0c0-6.627 5.373-12 12-12h72c6.627 0 12 5.373 12 12v0c0 6.627-5.373 12-12 12z" clip-path="url(&quot;#x0q2L&quot;)"/></g><g><path fill="#efeeed" d="M377 533c-6.627 0-12-5.373-12-12s5.373-12 12-12h72c6.627 0 12 5.373 12 12s-5.373 12-12 12z"/><path fill="none" stroke="#fff" stroke-miterlimit="20" stroke-opacity=".25" stroke-width="2" d="M377 533c-6.627 0-12-5.373-12-12v0c0-6.627 5.373-12 12-12h72c6.627 0 12 5.373 12 12v0c0 6.627-5.373 12-12 12z" clip-path="url(&quot;#x0q2M&quot;)"/></g><g><path fill="#65c369" d="M550 26c-6.627 0-12-5.373-12-12s5.373-12 12-12h72c6.627 0 12 5.373 12 12s-5.373 12-12 12z"/><path fill="none" stroke="#fff" stroke-miterlimit="20" stroke-opacity=".25" stroke-width="2" d="M550 26c-6.627 0-12-5.373-12-12v0c0-6.627 5.373-12 12-12h72c6.627 0 12 5.373 12 12v0c0 6.627-5.373 12-12 12z" clip-path="url(&quot;#x0q2N&quot;)"/></g><g><g><text dominant-baseline="text-before-edge" style="font-kerning:normal" fill="#fff" font-family="'Montserrat','Montserrat-Bold'" font-size="14" font-style="none" font-weight="700" transform="translate(577 5)"><tspan>76</tspan></text></g></g><g><path fill="#bc3131" d="M550 65c-6.627 0-12-5.373-12-12s5.373-12 12-12h72c6.627 0 12 5.373 12 12s-5.373 12-12 12z"/><path fill="none" stroke="#fff" stroke-miterlimit="20" stroke-opacity=".25" stroke-width="2" d="M550 65c-6.627 0-12-5.373-12-12v0c0-6.627 5.373-12 12-12h72c6.627 0 12 5.373 12 12v0c0 6.627-5.373 12-12 12z" clip-path="url(&quot;#x0q2O&quot;)"/></g><g><path fill="#f2a73d" d="M550 104c-6.627 0-12-5.373-12-12s5.373-12 12-12h72c6.627 0 12 5.373 12 12s-5.373 12-12 12z"/><path fill="none" stroke="#fff" stroke-miterlimit="20" stroke-opacity=".25" stroke-width="2" d="M550 104c-6.627 0-12-5.373-12-12v0c0-6.627 5.373-12 12-12h72c6.627 0 12 5.373 12 12v0c0 6.627-5.373 12-12 12z" clip-path="url(&quot;#x0q2P&quot;)"/></g><g><path fill="#f0a53c" d="M550 143c-6.627 0-12-5.373-12-12s5.373-12 12-12h72c6.627 0 12 5.373 12 12s-5.373 12-12 12z"/><path fill="none" stroke="#fff" stroke-miterlimit="20" stroke-opacity=".25" stroke-width="2" d="M550 143c-6.627 0-12-5.373-12-12v0c0-6.627 5.373-12 12-12h72c6.627 0 12 5.373 12 12v0c0 6.627-5.373 12-12 12z" clip-path="url(&quot;#x0q2Q&quot;)"/></g><g><path fill="#63bf67" d="M550 182c-6.627 0-12-5.373-12-12s5.373-12 12-12h72c6.627 0 12 5.373 12 12s-5.373 12-12 12z"/><path fill="none" stroke="#fff" stroke-miterlimit="20" stroke-opacity=".25" stroke-width="2" d="M550 182c-6.627 0-12-5.373-12-12v0c0-6.627 5.373-12 12-12h72c6.627 0 12 5.373 12 12v0c0 6.627-5.373 12-12 12z" clip-path="url(&quot;#x0q2R&quot;)"/></g><g><path fill="#f0a53c" d="M550 221c-6.627 0-12-5.373-12-12s5.373-12 12-12h72c6.627 0 12 5.373 12 12s-5.373 12-12 12z"/><path fill="none" stroke="#fff" stroke-miterlimit="20" stroke-opacity=".25" stroke-width="2" d="M550 221c-6.627 0-12-5.373-12-12v0c0-6.627 5.373-12 12-12h72c6.627 0 12 5.373 12 12v0c0 6.627-5.373 12-12 12z" clip-path="url(&quot;#x0q2S&quot;)"/></g><g><path fill="#bb3030" d="M550 260c-6.627 0-12-5.373-12-12s5.373-12 12-12h72c6.627 0 12 5.373 12 12s-5.373 12-12 12z"/><path fill="none" stroke="#fff" stroke-miterlimit="20" stroke-opacity=".25" stroke-width="2" d="M550 260c-6.627 0-12-5.373-12-12v0c0-6.627 5.373-12 12-12h72c6.627 0 12 5.373 12 12v0c0 6.627-5.373 12-12 12z" clip-path="url(&quot;#x0q2T&quot;)"/></g><g><path fill="#b92f2f" d="M550 299c-6.627 0-12-5.373-12-12s5.373-12 12-12h72c6.627 0 12 5.373 12 12s-5.373 12-12 12z"/><path fill="none" stroke="#fff" stroke-miterlimit="20" stroke-opacity=".25" stroke-width="2" d="M550 299c-6.627 0-12-5.373-12-12v0c0-6.627 5.373-12 12-12h72c6.627 0 12 5.373 12 12v0c0 6.627-5.373 12-12 12z" clip-path="url(&quot;#x0q2U&quot;)"/></g><g><path fill="#64c168" d="M550 338c-6.627 0-12-5.373-12-12s5.373-12 12-12h72c6.627 0 12 5.373 12 12s-5.373 12-12 12z"/><path fill="none" stroke="#fff" stroke-miterlimit="20" stroke-opacity=".25" stroke-width="2" d="M550 338c-6.627 0-12-5.373-12-12v0c0-6.627 5.373-12 12-12h72c6.627 0 12 5.373 12 12v0c0 6.627-5.373 12-12 12z" clip-path="url(&quot;#x0q2V&quot;)"/></g><g><path fill="#eea33b" d="M550 377c-6.627 0-12-5.373-12-12s5.373-12 12-12h72c6.627 0 12 5.373 12 12s-5.373 12-12 12z"/><path fill="none" stroke="#fff" stroke-miterlimit="20" stroke-opacity=".25" stroke-width="2" d="M550 377c-6.627 0-12-5.373-12-12v0c0-6.627 5.373-12 12-12h72c6.627 0 12 5.373 12 12v0c0 6.627-5.373 12-12 12z" clip-path="url(&quot;#x0q2W&quot;)"/></g><g><path fill="#64c168" d="M550 416c-6.627 0-12-5.373-12-12s5.373-12 12-12h72c6.627 0 12 5.373 12 12s-5.373 12-12 12z"/><path fill="none" stroke="#fff" stroke-miterlimit="20" stroke-opacity=".25" stroke-width="2" d="M550 416c-6.627 0-12-5.373-12-12v0c0-6.627 5.373-12 12-12h72c6.627 0 12 5.373 12 12v0c0 6.627-5.373 12-12 12z" clip-path="url(&quot;#x0q2X&quot;)"/></g><g><path fill="#bb3030" d="M550 455c-6.627 0-12-5.373-12-12s5.373-12 12-12h72c6.627 0 12 5.373 12 12s-5.373 12-12 12z"/><path fill="none" stroke="#fff" stroke-miterlimit="20" stroke-opacity=".25" stroke-width="2" d="M550 455c-6.627 0-12-5.373-12-12v0c0-6.627 5.373-12 12-12h72c6.627 0 12 5.373 12 12v0c0 6.627-5.373 12-12 12z" clip-path="url(&quot;#x0q2Y&quot;)"/></g><g><path fill="#62be66" d="M550 494c-6.627 0-12-5.373-12-12s5.373-12 12-12h72c6.627 0 12 5.373 12 12s-5.373 12-12 12z"/><path fill="none" stroke="#fff" stroke-miterlimit="20" stroke-opacity=".25" stroke-width="2" d="M550 494c-6.627 0-12-5.373-12-12v0c0-6.627 5.373-12 12-12h72c6.627 0 12 5.373 12 12v0c0 6.627-5.373 12-12 12z" clip-path="url(&quot;#x0q2Z&quot;)"/></g><g><path fill="#efa43b" d="M550 533c-6.627 0-12-5.373-12-12s5.373-12 12-12h72c6.627 0 12 5.373 12 12s-5.373 12-12 12z"/><path fill="none" stroke="#fff" stroke-miterlimit="20" stroke-opacity=".25" stroke-width="2" d="M550 533c-6.627 0-12-5.373-12-12v0c0-6.627 5.373-12 12-12h72c6.627 0 12 5.373 12 12v0c0 6.627-5.373 12-12 12z" clip-path="url(&quot;#x0q2aa&quot;)"/></g><g><g><text dominant-baseline="text-before-edge" style="font-kerning:normal" fill="#fff" font-family="'Montserrat','Montserrat-Bold'" font-size="14" font-style="none" font-weight="700" transform="translate(582 44)"><tspan>7</tspan></text></g></g><g><g><text dominant-baseline="text-before-edge" style="font-kerning:normal" fill="#fff" font-family="'Montserrat','Montserrat-Bold'" font-size="14" font-style="none" font-weight="700" transform="translate(578 83)"><tspan>14</tspan></text></g></g><g><g><text dominant-baseline="text-before-edge" style="font-kerning:normal" fill="#fff" font-family="'Montserrat','Montserrat-Bold'" font-size="14" font-style="none" font-weight="700" transform="translate(577 122)"><tspan>76</tspan></text></g></g><g><g><text dominant-baseline="text-before-edge" style="font-kerning:normal" fill="#fff" font-family="'Montserrat','Montserrat-Bold'" font-size="14" font-style="none" font-weight="700" transform="translate(582 161)"><tspan>7</tspan></text></g></g><g><g><text dominant-baseline="text-before-edge" style="font-kerning:normal" fill="#fff" font-family="'Montserrat','Montserrat-Bold'" font-size="14" font-style="none" font-weight="700" transform="translate(578 200)"><tspan>14</tspan></text></g></g><g><g><text dominant-baseline="text-before-edge" style="font-kerning:normal" fill="#fff" font-family="'Montserrat','Montserrat-Bold'" font-size="14" font-style="none" font-weight="700" transform="translate(577 239)"><tspan>76</tspan></text></g></g><g><g><text dominant-baseline="text-before-edge" style="font-kerning:normal" fill="#fff" font-family="'Montserrat','Montserrat-Bold'" font-size="14" font-style="none" font-weight="700" transform="translate(582 278)"><tspan>7</tspan></text></g></g><g><g><text dominant-baseline="text-before-edge" style="font-kerning:normal" fill="#fff" font-family="'Montserrat','Montserrat-Bold'" font-size="14" font-style="none" font-weight="700" transform="translate(578 317)"><tspan>14</tspan></text></g></g><g><g><text dominant-baseline="text-before-edge" style="font-kerning:normal" fill="#fff" font-family="'Montserrat','Montserrat-Bold'" font-size="14" font-style="none" font-weight="700" transform="translate(577 356)"><tspan>76</tspan></text></g></g><g><g><text dominant-baseline="text-before-edge" style="font-kerning:normal" fill="#fff" font-family="'Montserrat','Montserrat-Bold'" font-size="14" font-style="none" font-weight="700" transform="translate(582 395)"><tspan>7</tspan></text></g></g><g><g><text dominant-baseline="text-before-edge" style="font-kerning:normal" fill="#fff" font-family="'Montserrat','Montserrat-Bold'" font-size="14" font-style="none" font-weight="700" transform="translate(578 434)"><tspan>14</tspan></text></g></g><g><g><text dominant-baseline="text-before-edge" style="font-kerning:normal" fill="#fff" font-family="'Montserrat','Montserrat-Bold'" font-size="14" font-style="none" font-weight="700" transform="translate(582 473)"><tspan>7</tspan></text></g></g><g><g><text dominant-baseline="text-before-edge" style="font-kerning:normal" fill="#fff" font-family="'Montserrat','Montserrat-Bold'" font-size="14" font-style="none" font-weight="700" transform="translate(578 512)"><tspan>14</tspan></text></g></g><g><path d="M746.286 20.854v1.714h-3.428v-1.714zm-5.142 2.142a1.29 1.29 0 0 0 1.285 1.286h4.286A1.29 1.29 0 0 0 748 22.996v-4.285a1.29 1.29 0 0 0-1.285-1.285h-2.143v-1.714h-3.428zm3.428-8.998v-1.714h-3.428v1.714h3.428v1.714H748v-1.714zm0-1.714H748V10.57h-3.428zm-3.428-1.714h3.428V8.856H748V7.142h-3.428v1.714h-3.428zm0-3.428h3.428V5.428h-3.428zm3.428-3.428v1.714H748V3.714zm-3.428 0h3.428V2h-3.428zm17.14 21.854a.434.434 0 0 1-.428.428h-19.712a.434.434 0 0 1-.428-.428V2.427c0-.232.196-.428.428-.428h13.284v5.999c0 .473.384.857.857.857h6zm-2.963-20.605a23.376 23.376 0 0 1 1.944 2.179h-4.123V3.019a23.366 23.366 0 0 1 2.18 1.944zm3.547 1.458c-.595-.812-1.424-1.76-2.335-2.67-.91-.911-1.859-1.74-2.67-2.335-1.381-1.013-2.051-1.13-2.435-1.13h-13.284a2.145 2.145 0 0 0-2.142 2.142v23.14c0 1.18.96 2.142 2.142 2.142h19.712a2.145 2.145 0 0 0 2.142-2.142V8.856c0-.384-.117-1.054-1.13-2.435z"/></g><g><g><path d="M802.284 25.571a.434.434 0 0 1-.429.429h-19.714a.434.434 0 0 1-.429-.429V2.43c0-.233.197-.429.429-.429h13.286v6c0 .473.383.857.857.857h6zM799.32 4.963a23.38 23.38 0 0 1 1.944 2.18h-4.124V3.019a23.356 23.356 0 0 1 2.18 1.944zm3.547 1.459c-.595-.812-1.425-1.76-2.335-2.67-.911-.912-1.86-1.741-2.671-2.336-1.381-1.013-2.052-1.13-2.435-1.13H782.14a2.145 2.145 0 0 0-2.143 2.143V25.57c0 1.182.961 2.143 2.143 2.143h19.714a2.145 2.145 0 0 0 2.143-2.143V8.857c0-.384-.117-1.054-1.13-2.435z"/></g><g><g><text dominant-baseline="text-before-edge" style="font-kerning:normal" font-family="'Montserrat','Montserrat-Bold'" font-size="9" font-style="none" font-weight="700" transform="translate(781 8)"><tspan>SVD</tspan></text></g></g></g><g><path d="M746.286 59.854v1.714h-3.428v-1.714zm-5.142 2.142a1.29 1.29 0 0 0 1.285 1.286h4.286A1.29 1.29 0 0 0 748 61.996v-4.285a1.29 1.29 0 0 0-1.285-1.285h-2.143v-1.714h-3.428zm3.428-8.998v-1.714h-3.428v1.714h3.428v1.714H748v-1.714zm0-1.714H748V49.57h-3.428zm-3.428-1.714h3.428v-1.714H748v-1.714h-3.428v1.714h-3.428zm0-3.428h3.428v-1.714h-3.428zm3.428-3.428v1.714H748v-1.714zm-3.428 0h3.428V41h-3.428zm17.14 21.853a.434.434 0 0 1-.428.429h-19.712a.434.434 0 0 1-.428-.428v-23.14c0-.232.196-.428.428-.428h13.284v5.999c0 .473.384.857.857.857h6zm-2.963-20.604a23.376 23.376 0 0 1 1.944 2.179h-4.123v-4.123a23.366 23.366 0 0 1 2.18 1.944zm3.547 1.458c-.595-.812-1.424-1.76-2.335-2.67-.91-.911-1.859-1.74-2.67-2.335-1.381-1.013-2.051-1.13-2.435-1.13h-13.284a2.145 2.145 0 0 0-2.142 2.142v23.14c0 1.18.96 2.142 2.142 2.142h19.712a2.145 2.145 0 0 0 2.142-2.142V47.855c0-.384-.117-1.054-1.13-2.435z"/></g><g><g><path d="M802.284 64.571a.434.434 0 0 1-.429.429h-19.714a.434.434 0 0 1-.429-.429V41.43c0-.233.197-.429.429-.429h13.286v6c0 .473.383.857.857.857h6zm-2.963-20.608a23.38 23.38 0 0 1 1.944 2.18h-4.124v-4.124a23.356 23.356 0 0 1 2.18 1.944zm3.547 1.459c-.595-.812-1.425-1.76-2.335-2.67-.911-.912-1.86-1.741-2.671-2.336-1.381-1.013-2.052-1.13-2.435-1.13H782.14a2.145 2.145 0 0 0-2.143 2.143V64.57c0 1.182.961 2.143 2.143 2.143h19.714a2.145 2.145 0 0 0 2.143-2.143V47.857c0-.384-.117-1.054-1.13-2.435z"/></g><g><g><text dominant-baseline="text-before-edge" style="font-kerning:normal" font-family="'Montserrat','Montserrat-Bold'" font-size="9" font-style="none" font-weight="700" transform="translate(781 47)"><tspan>SVD</tspan></text></g></g></g><g><path d="M746.286 137.854v1.714h-3.428v-1.714zm-5.142 2.142a1.29 1.29 0 0 0 1.285 1.286h4.286a1.29 1.29 0 0 0 1.285-1.286v-4.285a1.29 1.29 0 0 0-1.285-1.285h-2.143v-1.714h-3.428zm3.428-8.998v-1.714h-3.428v1.714h3.428v1.714H748v-1.714zm0-1.714H748v-1.714h-3.428zm-3.428-1.714h3.428v-1.714H748v-1.714h-3.428v1.714h-3.428zm0-3.428h3.428v-1.714h-3.428zm3.428-3.428v1.714H748v-1.714zm-3.428 0h3.428V119h-3.428zm17.14 21.853a.434.434 0 0 1-.428.429h-19.712a.434.434 0 0 1-.428-.429v-23.139c0-.232.196-.428.428-.428h13.284v5.999c0 .473.384.857.857.857h6zm-2.963-20.605a23.376 23.376 0 0 1 1.944 2.18h-4.123v-4.123a23.366 23.366 0 0 1 2.18 1.943zm3.547 1.459c-.595-.812-1.424-1.76-2.335-2.67-.91-.911-1.859-1.74-2.67-2.335-1.381-1.013-2.051-1.13-2.435-1.13h-13.284a2.145 2.145 0 0 0-2.142 2.142v23.14c0 1.18.96 2.142 2.142 2.142h19.712a2.145 2.145 0 0 0 2.142-2.143v-16.711c0-.384-.117-1.054-1.13-2.435z"/></g><g><g><path d="M802.284 142.571a.434.434 0 0 1-.429.429h-19.714a.434.434 0 0 1-.429-.429V119.43c0-.233.197-.429.429-.429h13.286v6c0 .473.383.857.857.857h6zm-2.963-20.608a23.38 23.38 0 0 1 1.944 2.18h-4.124v-4.124a23.356 23.356 0 0 1 2.18 1.944zm3.547 1.459c-.595-.812-1.425-1.76-2.335-2.671-.911-.91-1.86-1.74-2.671-2.335-1.381-1.013-2.052-1.13-2.435-1.13H782.14a2.145 2.145 0 0 0-2.143 2.143v23.142c0 1.182.961 2.143 2.143 2.143h19.714a2.145 2.145 0 0 0 2.143-2.143v-16.714c0-.384-.117-1.054-1.13-2.435z"/></g><g><g><text dominant-baseline="text-before-edge" style="font-kerning:normal" font-family="'Montserrat','Montserrat-Bold'" font-size="9" font-style="none" font-weight="700" transform="translate(781 125)"><tspan>SVD</tspan></text></g></g></g><g><path d="M746.286 176.854v1.714h-3.428v-1.714zm-5.142 2.142a1.29 1.29 0 0 0 1.285 1.286h4.286a1.29 1.29 0 0 0 1.285-1.286v-4.285a1.29 1.29 0 0 0-1.285-1.285h-2.143v-1.714h-3.428zm3.428-8.998v-1.714h-3.428v1.714h3.428v1.714H748v-1.714zm0-1.714H748v-1.714h-3.428zm-3.428-1.714h3.428v-1.714H748v-1.714h-3.428v1.714h-3.428zm0-3.428h3.428v-1.714h-3.428zm3.428-3.428v1.714H748v-1.714zm-3.428 0h3.428V158h-3.428zm17.14 21.853a.434.434 0 0 1-.428.429h-19.712a.434.434 0 0 1-.428-.429v-23.139c0-.232.196-.428.428-.428h13.284v5.999c0 .473.384.857.857.857h6zm-2.963-20.605a23.376 23.376 0 0 1 1.944 2.18h-4.123v-4.123a23.366 23.366 0 0 1 2.18 1.943zm3.547 1.459c-.595-.812-1.424-1.76-2.335-2.67-.91-.911-1.859-1.74-2.67-2.335-1.381-1.013-2.051-1.13-2.435-1.13h-13.284a2.145 2.145 0 0 0-2.142 2.142v23.14c0 1.18.96 2.142 2.142 2.142h19.712a2.145 2.145 0 0 0 2.142-2.143v-16.711c0-.384-.117-1.054-1.13-2.435z"/></g><g><g><path d="M802.284 181.571a.434.434 0 0 1-.429.429h-19.714a.434.434 0 0 1-.429-.429V158.43c0-.233.197-.429.429-.429h13.286v6c0 .473.383.857.857.857h6zm-2.963-20.608a23.38 23.38 0 0 1 1.944 2.18h-4.124v-4.124a23.356 23.356 0 0 1 2.18 1.944zm3.547 1.459c-.595-.812-1.425-1.76-2.335-2.671-.911-.91-1.86-1.74-2.671-2.335-1.381-1.013-2.052-1.13-2.435-1.13H782.14a2.145 2.145 0 0 0-2.143 2.143v23.142c0 1.182.961 2.143 2.143 2.143h19.714a2.145 2.145 0 0 0 2.143-2.143v-16.714c0-.384-.117-1.054-1.13-2.435z"/></g><g><g><text dominant-baseline="text-before-edge" style="font-kerning:normal" font-family="'Montserrat','Montserrat-Bold'" font-size="9" font-style="none" font-weight="700" transform="translate(781 164)"><tspan>SVD</tspan></text></g></g></g><g><path d="M746.286 215.854v1.714h-3.428v-1.714zm-5.142 2.142a1.29 1.29 0 0 0 1.285 1.286h4.286a1.29 1.29 0 0 0 1.285-1.286v-4.285a1.29 1.29 0 0 0-1.285-1.285h-2.143v-1.714h-3.428zm3.428-8.998v-1.714h-3.428v1.714h3.428v1.714H748v-1.714zm0-1.714H748v-1.714h-3.428zm-3.428-1.714h3.428v-1.714H748v-1.714h-3.428v1.714h-3.428zm0-3.428h3.428v-1.714h-3.428zm3.428-3.428v1.714H748v-1.714zm-3.428 0h3.428V197h-3.428zm17.14 21.853a.434.434 0 0 1-.428.429h-19.712a.434.434 0 0 1-.428-.429v-23.139c0-.232.196-.428.428-.428h13.284v5.999c0 .473.384.857.857.857h6zm-2.963-20.605a23.376 23.376 0 0 1 1.944 2.18h-4.123v-4.123a23.366 23.366 0 0 1 2.18 1.943zm3.547 1.459c-.595-.812-1.424-1.76-2.335-2.67-.91-.911-1.859-1.74-2.67-2.335-1.381-1.013-2.051-1.13-2.435-1.13h-13.284a2.145 2.145 0 0 0-2.142 2.142v23.14c0 1.18.96 2.142 2.142 2.142h19.712a2.145 2.145 0 0 0 2.142-2.143v-16.711c0-.384-.117-1.054-1.13-2.435z"/></g><g><g><path d="M802.284 220.571a.434.434 0 0 1-.429.429h-19.714a.434.434 0 0 1-.429-.429V197.43c0-.233.197-.429.429-.429h13.286v6c0 .473.383.857.857.857h6zm-2.963-20.608a23.38 23.38 0 0 1 1.944 2.18h-4.124v-4.124a23.356 23.356 0 0 1 2.18 1.944zm3.547 1.459c-.595-.812-1.425-1.76-2.335-2.671-.911-.91-1.86-1.74-2.671-2.335-1.381-1.013-2.052-1.13-2.435-1.13H782.14a2.145 2.145 0 0 0-2.143 2.143v23.142c0 1.182.961 2.143 2.143 2.143h19.714a2.145 2.145 0 0 0 2.143-2.143v-16.714c0-.384-.117-1.054-1.13-2.435z"/></g><g><g><text dominant-baseline="text-before-edge" style="font-kerning:normal" font-family="'Montserrat','Montserrat-Bold'" font-size="9" font-style="none" font-weight="700" transform="translate(781 203)"><tspan>SVD</tspan></text></g></g></g><g><path d="M746.286 254.854v1.714h-3.428v-1.714zm-5.142 2.142a1.29 1.29 0 0 0 1.285 1.286h4.286a1.29 1.29 0 0 0 1.285-1.286v-4.285a1.29 1.29 0 0 0-1.285-1.285h-2.143v-1.714h-3.428zm3.428-8.998v-1.714h-3.428v1.714h3.428v1.714H748v-1.714zm0-1.714H748v-1.714h-3.428zm-3.428-1.714h3.428v-1.714H748v-1.714h-3.428v1.714h-3.428zm0-3.428h3.428v-1.714h-3.428zm3.428-3.428v1.714H748v-1.714zm-3.428 0h3.428V236h-3.428zm17.14 21.853a.434.434 0 0 1-.428.429h-19.712a.434.434 0 0 1-.428-.429v-23.139c0-.232.196-.428.428-.428h13.284v5.999c0 .473.384.857.857.857h6zm-2.963-20.605a23.376 23.376 0 0 1 1.944 2.18h-4.123v-4.123a23.366 23.366 0 0 1 2.18 1.943zm3.547 1.459c-.595-.812-1.424-1.76-2.335-2.67-.91-.911-1.859-1.74-2.67-2.335-1.381-1.013-2.051-1.13-2.435-1.13h-13.284a2.145 2.145 0 0 0-2.142 2.142v23.14c0 1.18.96 2.142 2.142 2.142h19.712a2.145 2.145 0 0 0 2.142-2.143v-16.711c0-.384-.117-1.054-1.13-2.435z"/></g><g><g><path d="M802.284 259.571a.434.434 0 0 1-.429.429h-19.714a.434.434 0 0 1-.429-.429V236.43c0-.233.197-.429.429-.429h13.286v6c0 .473.383.857.857.857h6zm-2.963-20.608a23.38 23.38 0 0 1 1.944 2.18h-4.124v-4.124a23.356 23.356 0 0 1 2.18 1.944zm3.547 1.459c-.595-.812-1.425-1.76-2.335-2.671-.911-.91-1.86-1.74-2.671-2.335-1.381-1.013-2.052-1.13-2.435-1.13H782.14a2.145 2.145 0 0 0-2.143 2.143v23.142c0 1.182.961 2.143 2.143 2.143h19.714a2.145 2.145 0 0 0 2.143-2.143v-16.714c0-.384-.117-1.054-1.13-2.435z"/></g><g><g><text dominant-baseline="text-before-edge" style="font-kerning:normal" font-family="'Montserrat','Montserrat-Bold'" font-size="9" font-style="none" font-weight="700" transform="translate(781 242)"><tspan>SVD</tspan></text></g></g></g><g><path d="M746.286 293.854v1.714h-3.428v-1.714zm-5.142 2.142a1.29 1.29 0 0 0 1.285 1.286h4.286a1.29 1.29 0 0 0 1.285-1.286v-4.285a1.29 1.29 0 0 0-1.285-1.285h-2.143v-1.714h-3.428zm3.428-8.998v-1.714h-3.428v1.714h3.428v1.714H748v-1.714zm0-1.714H748v-1.714h-3.428zm-3.428-1.714h3.428v-1.714H748v-1.714h-3.428v1.714h-3.428zm0-3.428h3.428v-1.714h-3.428zm3.428-3.428v1.714H748v-1.714zm-3.428 0h3.428V275h-3.428zm17.14 21.853a.434.434 0 0 1-.428.429h-19.712a.434.434 0 0 1-.428-.429v-23.139c0-.232.196-.428.428-.428h13.284v5.999c0 .473.384.857.857.857h6zm-2.963-20.605a23.376 23.376 0 0 1 1.944 2.18h-4.123v-4.123a23.366 23.366 0 0 1 2.18 1.943zm3.547 1.459c-.595-.812-1.424-1.76-2.335-2.67-.91-.911-1.859-1.74-2.67-2.335-1.381-1.013-2.051-1.13-2.435-1.13h-13.284a2.145 2.145 0 0 0-2.142 2.142v23.14c0 1.18.96 2.142 2.142 2.142h19.712a2.145 2.145 0 0 0 2.142-2.143v-16.711c0-.384-.117-1.054-1.13-2.435z"/></g><g><g><path d="M802.284 298.571a.434.434 0 0 1-.429.429h-19.714a.434.434 0 0 1-.429-.429V275.43c0-.233.197-.429.429-.429h13.286v6c0 .473.383.857.857.857h6zm-2.963-20.608a23.38 23.38 0 0 1 1.944 2.18h-4.124v-4.124a23.356 23.356 0 0 1 2.18 1.944zm3.547 1.459c-.595-.812-1.425-1.76-2.335-2.671-.911-.91-1.86-1.74-2.671-2.335-1.381-1.013-2.052-1.13-2.435-1.13H782.14a2.145 2.145 0 0 0-2.143 2.143v23.142c0 1.182.961 2.143 2.143 2.143h19.714a2.145 2.145 0 0 0 2.143-2.143v-16.714c0-.384-.117-1.054-1.13-2.435z"/></g><g><g><text dominant-baseline="text-before-edge" style="font-kerning:normal" font-family="'Montserrat','Montserrat-Bold'" font-size="9" font-style="none" font-weight="700" transform="translate(781 281)"><tspan>SVD</tspan></text></g></g></g><g><path d="M746.286 371.854v1.714h-3.428v-1.714zm-5.142 2.142a1.29 1.29 0 0 0 1.285 1.286h4.286a1.29 1.29 0 0 0 1.285-1.286v-4.285a1.29 1.29 0 0 0-1.285-1.285h-2.143v-1.714h-3.428zm3.428-8.998v-1.714h-3.428v1.714h3.428v1.714H748v-1.714zm0-1.714H748v-1.714h-3.428zm-3.428-1.714h3.428v-1.714H748v-1.714h-3.428v1.714h-3.428zm0-3.428h3.428v-1.714h-3.428zm3.428-3.428v1.714H748v-1.714zm-3.428 0h3.428V353h-3.428zm17.14 21.853a.434.434 0 0 1-.428.429h-19.712a.434.434 0 0 1-.428-.429v-23.139c0-.232.196-.428.428-.428h13.284v5.999c0 .473.384.857.857.857h6zm-2.963-20.605a23.376 23.376 0 0 1 1.944 2.18h-4.123v-4.123a23.366 23.366 0 0 1 2.18 1.943zm3.547 1.459c-.595-.812-1.424-1.76-2.335-2.67-.91-.911-1.859-1.74-2.67-2.335-1.381-1.013-2.051-1.13-2.435-1.13h-13.284a2.145 2.145 0 0 0-2.142 2.142v23.14c0 1.18.96 2.142 2.142 2.142h19.712a2.145 2.145 0 0 0 2.142-2.143v-16.711c0-.384-.117-1.054-1.13-2.435z"/></g><g><g><path d="M802.284 376.571a.434.434 0 0 1-.429.429h-19.714a.434.434 0 0 1-.429-.429V353.43c0-.233.197-.429.429-.429h13.286v6c0 .473.383.857.857.857h6zm-2.963-20.608a23.38 23.38 0 0 1 1.944 2.18h-4.124v-4.124a23.356 23.356 0 0 1 2.18 1.944zm3.547 1.459c-.595-.812-1.425-1.76-2.335-2.671-.911-.91-1.86-1.74-2.671-2.335-1.381-1.013-2.052-1.13-2.435-1.13H782.14a2.145 2.145 0 0 0-2.143 2.143v23.142c0 1.182.961 2.143 2.143 2.143h19.714a2.145 2.145 0 0 0 2.143-2.143v-16.714c0-.384-.117-1.054-1.13-2.435z"/></g><g><g><text dominant-baseline="text-before-edge" style="font-kerning:normal" font-family="'Montserrat','Montserrat-Bold'" font-size="9" font-style="none" font-weight="700" transform="translate(781 359)"><tspan>SVD</tspan></text></g></g></g><g><path d="M746.286 410.854v1.714h-3.428v-1.714zm-5.142 2.142a1.29 1.29 0 0 0 1.285 1.286h4.286a1.29 1.29 0 0 0 1.285-1.286v-4.285a1.29 1.29 0 0 0-1.285-1.285h-2.143v-1.714h-3.428zm3.428-8.998v-1.714h-3.428v1.714h3.428v1.714H748v-1.714zm0-1.714H748v-1.714h-3.428zm-3.428-1.714h3.428v-1.714H748v-1.714h-3.428v1.714h-3.428zm0-3.428h3.428v-1.714h-3.428zm3.428-3.428v1.714H748v-1.714zm-3.428 0h3.428V392h-3.428zm17.14 21.853a.434.434 0 0 1-.428.429h-19.712a.434.434 0 0 1-.428-.429v-23.139c0-.232.196-.428.428-.428h13.284v5.999c0 .473.384.857.857.857h6zm-2.963-20.605a23.376 23.376 0 0 1 1.944 2.18h-4.123v-4.123a23.366 23.366 0 0 1 2.18 1.943zm3.547 1.459c-.595-.812-1.424-1.76-2.335-2.67-.91-.911-1.859-1.74-2.67-2.335-1.381-1.013-2.051-1.13-2.435-1.13h-13.284a2.145 2.145 0 0 0-2.142 2.142v23.14c0 1.18.96 2.142 2.142 2.142h19.712a2.145 2.145 0 0 0 2.142-2.143v-16.711c0-.384-.117-1.054-1.13-2.435z"/></g><g><g><path d="M802.284 415.571a.434.434 0 0 1-.429.429h-19.714a.434.434 0 0 1-.429-.429V392.43c0-.233.197-.429.429-.429h13.286v6c0 .473.383.857.857.857h6zm-2.963-20.608a23.38 23.38 0 0 1 1.944 2.18h-4.124v-4.124a23.356 23.356 0 0 1 2.18 1.944zm3.547 1.459c-.595-.812-1.425-1.76-2.335-2.671-.911-.91-1.86-1.74-2.671-2.335-1.381-1.013-2.052-1.13-2.435-1.13H782.14a2.145 2.145 0 0 0-2.143 2.143v23.142c0 1.182.961 2.143 2.143 2.143h19.714a2.145 2.145 0 0 0 2.143-2.143v-16.714c0-.384-.117-1.054-1.13-2.435z"/></g><g><g><text dominant-baseline="text-before-edge" style="font-kerning:normal" font-family="'Montserrat','Montserrat-Bold'" font-size="9" font-style="none" font-weight="700" transform="translate(781 398)"><tspan>SVD</tspan></text></g></g></g><g><path d="M746.286 449.854v1.714h-3.428v-1.714zm-5.142 2.142a1.29 1.29 0 0 0 1.285 1.286h4.286a1.29 1.29 0 0 0 1.285-1.286v-4.285a1.29 1.29 0 0 0-1.285-1.285h-2.143v-1.714h-3.428zm3.428-8.998v-1.714h-3.428v1.714h3.428v1.714H748v-1.714zm0-1.714H748v-1.714h-3.428zm-3.428-1.714h3.428v-1.714H748v-1.714h-3.428v1.714h-3.428zm0-3.428h3.428v-1.714h-3.428zm3.428-3.428v1.714H748v-1.714zm-3.428 0h3.428V431h-3.428zm17.14 21.853a.434.434 0 0 1-.428.429h-19.712a.434.434 0 0 1-.428-.429v-23.139c0-.232.196-.428.428-.428h13.284v5.999c0 .473.384.857.857.857h6zm-2.963-20.605a23.376 23.376 0 0 1 1.944 2.18h-4.123v-4.123a23.366 23.366 0 0 1 2.18 1.943zm3.547 1.459c-.595-.812-1.424-1.76-2.335-2.67-.91-.911-1.859-1.74-2.67-2.335-1.381-1.013-2.051-1.13-2.435-1.13h-13.284a2.145 2.145 0 0 0-2.142 2.142v23.14c0 1.18.96 2.142 2.142 2.142h19.712a2.145 2.145 0 0 0 2.142-2.143v-16.711c0-.384-.117-1.054-1.13-2.435z"/></g><g><g><path d="M802.284 454.571a.434.434 0 0 1-.429.429h-19.714a.434.434 0 0 1-.429-.429V431.43c0-.233.197-.429.429-.429h13.286v6c0 .473.383.857.857.857h6zm-2.963-20.608a23.38 23.38 0 0 1 1.944 2.18h-4.124v-4.124a23.356 23.356 0 0 1 2.18 1.944zm3.547 1.459c-.595-.812-1.425-1.76-2.335-2.671-.911-.91-1.86-1.74-2.671-2.335-1.381-1.013-2.052-1.13-2.435-1.13H782.14a2.145 2.145 0 0 0-2.143 2.143v23.142c0 1.182.961 2.143 2.143 2.143h19.714a2.145 2.145 0 0 0 2.143-2.143v-16.714c0-.384-.117-1.054-1.13-2.435z"/></g><g><g><text dominant-baseline="text-before-edge" style="font-kerning:normal" font-family="'Montserrat','Montserrat-Bold'" font-size="9" font-style="none" font-weight="700" transform="translate(781 437)"><tspan>SVD</tspan></text></g></g></g><g><path d="M746.286 527.854v1.714h-3.428v-1.714zm-5.142 2.142a1.29 1.29 0 0 0 1.285 1.286h4.286a1.29 1.29 0 0 0 1.285-1.286v-4.285a1.29 1.29 0 0 0-1.285-1.285h-2.143v-1.714h-3.428zm3.428-8.998v-1.714h-3.428v1.714h3.428v1.714H748v-1.714zm0-1.714H748v-1.714h-3.428zm-3.428-1.714h3.428v-1.714H748v-1.714h-3.428v1.714h-3.428zm0-3.428h3.428v-1.714h-3.428zm3.428-3.428v1.714H748v-1.714zm-3.428 0h3.428V509h-3.428zm17.14 21.853a.434.434 0 0 1-.428.429h-19.712a.434.434 0 0 1-.428-.429v-23.139c0-.232.196-.428.428-.428h13.284v5.999c0 .473.384.857.857.857h6zm-2.963-20.605a23.376 23.376 0 0 1 1.944 2.18h-4.123v-4.123a23.366 23.366 0 0 1 2.18 1.943zm3.547 1.459c-.595-.812-1.424-1.76-2.335-2.67-.91-.911-1.859-1.74-2.67-2.335-1.381-1.013-2.051-1.13-2.435-1.13h-13.284a2.145 2.145 0 0 0-2.142 2.142v23.14c0 1.18.96 2.142 2.142 2.142h19.712a2.145 2.145 0 0 0 2.142-2.143v-16.711c0-.384-.117-1.054-1.13-2.435z"/></g><g><g><path d="M802.284 532.571a.434.434 0 0 1-.429.429h-19.714a.434.434 0 0 1-.429-.429V509.43c0-.233.197-.429.429-.429h13.286v6c0 .473.383.857.857.857h6zm-2.963-20.608a23.38 23.38 0 0 1 1.944 2.18h-4.124v-4.124a23.356 23.356 0 0 1 2.18 1.944zm3.547 1.459c-.595-.812-1.425-1.76-2.335-2.671-.911-.91-1.86-1.74-2.671-2.335-1.381-1.013-2.052-1.13-2.435-1.13H782.14a2.145 2.145 0 0 0-2.143 2.143v23.142c0 1.182.961 2.143 2.143 2.143h19.714a2.145 2.145 0 0 0 2.143-2.143v-16.714c0-.384-.117-1.054-1.13-2.435z"/></g><g><g><text dominant-baseline="text-before-edge" style="font-kerning:normal" font-family="'Montserrat','Montserrat-Bold'" font-size="9" font-style="none" font-weight="700" transform="translate(781 515)"><tspan>SVD</tspan></text></g></g></g><g><g><text dominant-baseline="text-before-edge" style="font-kerning:normal" fill="#fff" font-family="'Montserrat','Montserrat-Bold'" font-size="12" font-style="none" font-weight="700" transform="translate(218 45)"><tspan>9.0.0.0</tspan></text></g></g><g><g><text dominant-baseline="text-before-edge" style="font-kerning:normal" fill="#fff" font-family="'Montserrat','Montserrat-Bold'" font-size="12" font-style="none" font-weight="700" transform="translate(214 84)"><tspan>Planned</tspan></text></g></g><g><g><text dominant-baseline="text-before-edge" style="font-kerning:normal" fill="#fff" font-family="'Montserrat','Montserrat-Bold'" font-size="12" font-style="none" font-weight="700" transform="translate(218 123)"><tspan>11.0.0.0</tspan></text></g></g><g><g><text dominant-baseline="text-before-edge" style="font-kerning:normal" fill="#fff" font-family="'Montserrat','Montserrat-Bold'" font-size="12" font-style="none" font-weight="700" transform="translate(218 162)"><tspan>9.0.0.0</tspan></text></g></g><g><g><text dominant-baseline="text-before-edge" style="font-kerning:normal" fill="#fff" font-family="'Montserrat','Montserrat-Bold'" font-size="12" font-style="none" font-weight="700" transform="translate(218 201)"><tspan>14.1.0.0</tspan></text></g></g><g><g><text dominant-baseline="text-before-edge" style="font-kerning:normal" fill="#fff" font-family="'Montserrat','Montserrat-Bold'" font-size="12" font-style="none" font-weight="700" transform="translate(218 240)"><tspan>11.0.0.0</tspan></text></g></g><g><g><text dominant-baseline="text-before-edge" style="font-kerning:normal" fill="#fff" font-family="'Montserrat','Montserrat-Bold'" font-size="12" font-style="none" font-weight="700" transform="translate(218 279)"><tspan>9.0.0.0</tspan></text></g></g><g><g><text dominant-baseline="text-before-edge" style="font-kerning:normal" fill="#fff" font-family="'Montserrat','Montserrat-Bold'" font-size="12" font-style="none" font-weight="700" transform="translate(218 357)"><tspan>11.0.0.0</tspan></text></g></g><g><g><text dominant-baseline="text-before-edge" style="font-kerning:normal" fill="#fff" font-family="'Montserrat','Montserrat-Bold'" font-size="12" font-style="none" font-weight="700" transform="translate(218 396)"><tspan>9.0.0.0</tspan></text></g></g><g><g><text dominant-baseline="text-before-edge" style="font-kerning:normal" fill="#fff" font-family="'Montserrat','Montserrat-Bold'" font-size="12" font-style="none" font-weight="700" transform="translate(218 435)"><tspan>14.1.0.0</tspan></text></g></g><g><g><text dominant-baseline="text-before-edge" style="font-kerning:normal" fill="#fff" font-family="'Montserrat','Montserrat-Bold'" font-size="12" font-style="none" font-weight="700" transform="translate(218 513)"><tspan>9.0.0.0</tspan></text></g></g><g><g><text dominant-baseline="text-before-edge" style="font-kerning:normal" fill="#fff" font-family="'Montserrat','Montserrat-Bold'" font-size="12" font-style="none" font-weight="700" transform="translate(214 318)"><tspan>Planned</tspan></text></g></g><g><g><text dominant-baseline="text-before-edge" style="font-kerning:normal" fill="#fff" font-family="'Montserrat','Montserrat-Bold'" font-size="12" font-style="none" font-weight="700" transform="translate(214 474)"><tspan>Planned</tspan></text></g></g><g><g><text dominant-baseline="text-before-edge" style="font-kerning:normal" font-family="'Montserrat','Montserrat-Bold'" font-size="12" font-style="none" font-weight="700" transform="translate(381 45)"><tspan>28-01-2021</tspan></text></g></g><g><g><text dominant-baseline="text-before-edge" style="font-kerning:normal" font-family="'Montserrat','Montserrat-Bold'" font-size="12" font-style="none" font-weight="700" transform="translate(381 123)"><tspan>21-10-2020</tspan></text></g></g><g><g><text dominant-baseline="text-before-edge" style="font-kerning:normal" font-family="'Montserrat','Montserrat-Bold'" font-size="12" font-style="none" font-weight="700" transform="translate(381 162)"><tspan>28-01-2021</tspan></text></g></g><g><g><text dominant-baseline="text-before-edge" style="font-kerning:normal" font-family="'Montserrat','Montserrat-Bold'" font-size="12" font-style="none" font-weight="700" transform="translate(380 201)"><tspan>26-03-2021</tspan></text></g></g><g><g><text dominant-baseline="text-before-edge" style="font-kerning:normal" font-family="'Montserrat','Montserrat-Bold'" font-size="12" font-style="none" font-weight="700" transform="translate(381 240)"><tspan>21-10-2020</tspan></text></g></g><g><g><text dominant-baseline="text-before-edge" style="font-kerning:normal" font-family="'Montserrat','Montserrat-Bold'" font-size="12" font-style="none" font-weight="700" transform="translate(381 279)"><tspan>28-01-2021</tspan></text></g></g><g><g><text dominant-baseline="text-before-edge" style="font-kerning:normal" font-family="'Montserrat','Montserrat-Bold'" font-size="12" font-style="none" font-weight="700" transform="translate(381 357)"><tspan>21-10-2020</tspan></text></g></g><g><g><text dominant-baseline="text-before-edge" style="font-kerning:normal" font-family="'Montserrat','Montserrat-Bold'" font-size="12" font-style="none" font-weight="700" transform="translate(381 396)"><tspan>28-01-2021</tspan></text></g></g><g><g><text dominant-baseline="text-before-edge" style="font-kerning:normal" font-family="'Montserrat','Montserrat-Bold'" font-size="12" font-style="none" font-weight="700" transform="translate(380 435)"><tspan>26-03-2021</tspan></text></g></g><g><g><text dominant-baseline="text-before-edge" style="font-kerning:normal" font-family="'Montserrat','Montserrat-Bold'" font-size="12" font-style="none" font-weight="700" transform="translate(381 513)"><tspan>28-01-2021</tspan></text></g></g><g><path fill="#63bf67" d="M911 26c-6.627 0-12-5.373-12-12s5.373-12 12-12h72c6.627 0 12 5.373 12 12s-5.373 12-12 12z"/><path fill="none" stroke="#fff" stroke-miterlimit="20" stroke-opacity=".25" stroke-width="2" d="M911 26c-6.627 0-12-5.373-12-12v0c0-6.627 5.373-12 12-12h72c6.627 0 12 5.373 12 12v0c0 6.627-5.373 12-12 12z" clip-path="url(&quot;#x0q2ab&quot;)"/></g><g><path fill="#63bf67" d="M911 65c-6.627 0-12-5.373-12-12s5.373-12 12-12h72c6.627 0 12 5.373 12 12s-5.373 12-12 12z"/><path fill="none" stroke="#fff" stroke-miterlimit="20" stroke-opacity=".25" stroke-width="2" d="M911 65c-6.627 0-12-5.373-12-12v0c0-6.627 5.373-12 12-12h72c6.627 0 12 5.373 12 12v0c0 6.627-5.373 12-12 12z" clip-path="url(&quot;#x0q2ac&quot;)"/></g><g><path fill="#63bf67" d="M911 143c-6.627 0-12-5.373-12-12s5.373-12 12-12h72c6.627 0 12 5.373 12 12s-5.373 12-12 12z"/><path fill="none" stroke="#fff" stroke-miterlimit="20" stroke-opacity=".25" stroke-width="2" d="M911 143c-6.627 0-12-5.373-12-12v0c0-6.627 5.373-12 12-12h72c6.627 0 12 5.373 12 12v0c0 6.627-5.373 12-12 12z" clip-path="url(&quot;#x0q2ad&quot;)"/></g><g><path fill="#63bf67" d="M911 182c-6.627 0-12-5.373-12-12s5.373-12 12-12h72c6.627 0 12 5.373 12 12s-5.373 12-12 12z"/><path fill="none" stroke="#fff" stroke-miterlimit="20" stroke-opacity=".25" stroke-width="2" d="M911 182c-6.627 0-12-5.373-12-12v0c0-6.627 5.373-12 12-12h72c6.627 0 12 5.373 12 12v0c0 6.627-5.373 12-12 12z" clip-path="url(&quot;#x0q2ae&quot;)"/></g><g><path fill="#63bf67" d="M911 221c-6.627 0-12-5.373-12-12s5.373-12 12-12h72c6.627 0 12 5.373 12 12s-5.373 12-12 12z"/><path fill="none" stroke="#fff" stroke-miterlimit="20" stroke-opacity=".25" stroke-width="2" d="M911 221c-6.627 0-12-5.373-12-12v0c0-6.627 5.373-12 12-12h72c6.627 0 12 5.373 12 12v0c0 6.627-5.373 12-12 12z" clip-path="url(&quot;#x0q2af&quot;)"/></g><g><g><text dominant-baseline="text-before-edge" style="font-kerning:normal" fill="#fff" font-family="'Montserrat','Montserrat-Bold'" font-size="12" font-style="none" font-weight="700" transform="translate(925 6)"><tspan>11.0.0.0</tspan></text></g></g><g><g><text dominant-baseline="text-before-edge" style="font-kerning:normal" fill="#fff" font-family="'Montserrat','Montserrat-Bold'" font-size="12" font-style="none" font-weight="700" transform="translate(925 45)"><tspan>9.0.0.0</tspan></text></g></g><g><g><text dominant-baseline="text-before-edge" style="font-kerning:normal" fill="#fff" font-family="'Montserrat','Montserrat-Bold'" font-size="12" font-style="none" font-weight="700" transform="translate(925 123)"><tspan>11.0.0.0</tspan></text></g></g><g><g><text dominant-baseline="text-before-edge" style="font-kerning:normal" fill="#fff" font-family="'Montserrat','Montserrat-Bold'" font-size="12" font-style="none" font-weight="700" transform="translate(925 162)"><tspan>9.0.0.0</tspan></text></g></g><g><g><text dominant-baseline="text-before-edge" style="font-kerning:normal" fill="#fff" font-family="'Montserrat','Montserrat-Bold'" font-size="12" font-style="none" font-weight="700" transform="translate(925 201)"><tspan>14.1.0.0</tspan></text></g></g><g><path fill="#63bf67" d="M911 455c-6.627 0-12-5.373-12-12s5.373-12 12-12h72c6.627 0 12 5.373 12 12s-5.373 12-12 12z"/><path fill="none" stroke="#fff" stroke-miterlimit="20" stroke-opacity=".25" stroke-width="2" d="M911 455c-6.627 0-12-5.373-12-12v0c0-6.627 5.373-12 12-12h72c6.627 0 12 5.373 12 12v0c0 6.627-5.373 12-12 12z" clip-path="url(&quot;#x0q2ag&quot;)"/></g><g><g><text dominant-baseline="text-before-edge" style="font-kerning:normal" fill="#fff" font-family="'Montserrat','Montserrat-Bold'" font-size="12" font-style="none" font-weight="700" transform="translate(925 435)"><tspan>11.0.0.0</tspan></text></g></g><g><path fill="#efeeed" d="M1099 26c-6.627 0-12-5.373-12-12s5.373-12 12-12h72c6.627 0 12 5.373 12 12s-5.373 12-12 12z"/><path fill="none" stroke="#fff" stroke-miterlimit="20" stroke-opacity=".25" stroke-width="2" d="M1099 26c-6.627 0-12-5.373-12-12v0c0-6.627 5.373-12 12-12h72c6.627 0 12 5.373 12 12v0c0 6.627-5.373 12-12 12z" clip-path="url(&quot;#x0q2ah&quot;)"/></g><g><g><text dominant-baseline="text-before-edge" style="font-kerning:normal" font-family="'Montserrat','Montserrat-Bold'" font-size="12" font-style="none" font-weight="700" transform="translate(1103 6)"><tspan>21-10-2020</tspan></text></g></g><g><path fill="#efeeed" d="M1099 65c-6.627 0-12-5.373-12-12s5.373-12 12-12h72c6.627 0 12 5.373 12 12s-5.373 12-12 12z"/><path fill="none" stroke="#fff" stroke-miterlimit="20" stroke-opacity=".25" stroke-width="2" d="M1099 65c-6.627 0-12-5.373-12-12v0c0-6.627 5.373-12 12-12h72c6.627 0 12 5.373 12 12v0c0 6.627-5.373 12-12 12z" clip-path="url(&quot;#x0q2ai&quot;)"/></g><g><path fill="#efeeed" d="M1099 143c-6.627 0-12-5.373-12-12s5.373-12 12-12h72c6.627 0 12 5.373 12 12s-5.373 12-12 12z"/><path fill="none" stroke="#fff" stroke-miterlimit="20" stroke-opacity=".25" stroke-width="2" d="M1099 143c-6.627 0-12-5.373-12-12v0c0-6.627 5.373-12 12-12h72c6.627 0 12 5.373 12 12v0c0 6.627-5.373 12-12 12z" clip-path="url(&quot;#x0q2aj&quot;)"/></g><g><path fill="#efeeed" d="M1099 182c-6.627 0-12-5.373-12-12s5.373-12 12-12h72c6.627 0 12 5.373 12 12s-5.373 12-12 12z"/><path fill="none" stroke="#fff" stroke-miterlimit="20" stroke-opacity=".25" stroke-width="2" d="M1099 182c-6.627 0-12-5.373-12-12v0c0-6.627 5.373-12 12-12h72c6.627 0 12 5.373 12 12v0c0 6.627-5.373 12-12 12z" clip-path="url(&quot;#x0q2ak&quot;)"/></g><g><path fill="#efeeed" d="M1099 221c-6.627 0-12-5.373-12-12s5.373-12 12-12h72c6.627 0 12 5.373 12 12s-5.373 12-12 12z"/><path fill="none" stroke="#fff" stroke-miterlimit="20" stroke-opacity=".25" stroke-width="2" d="M1099 221c-6.627 0-12-5.373-12-12v0c0-6.627 5.373-12 12-12h72c6.627 0 12 5.373 12 12v0c0 6.627-5.373 12-12 12z" clip-path="url(&quot;#x0q2al&quot;)"/></g><g><path fill="#efeeed" d="M1099 455c-6.627 0-12-5.373-12-12s5.373-12 12-12h72c6.627 0 12 5.373 12 12s-5.373 12-12 12z"/><path fill="none" stroke="#fff" stroke-miterlimit="20" stroke-opacity=".25" stroke-width="2" d="M1099 455c-6.627 0-12-5.373-12-12v0c0-6.627 5.373-12 12-12h72c6.627 0 12 5.373 12 12v0c0 6.627-5.373 12-12 12z" clip-path="url(&quot;#x0q2am&quot;)"/></g><g><g><text dominant-baseline="text-before-edge" style="font-kerning:normal" font-family="'Montserrat','Montserrat-Bold'" font-size="12" font-style="none" font-weight="700" transform="translate(1103 45)"><tspan>28-01-2021</tspan></text></g></g><g><g><text dominant-baseline="text-before-edge" style="font-kerning:normal" font-family="'Montserrat','Montserrat-Bold'" font-size="12" font-style="none" font-weight="700" transform="translate(1103 123)"><tspan>21-10-2020</tspan></text></g></g><g><g><text dominant-baseline="text-before-edge" style="font-kerning:normal" font-family="'Montserrat','Montserrat-Bold'" font-size="12" font-style="none" font-weight="700" transform="translate(1103 162)"><tspan>28-01-2021</tspan></text></g></g><g><g><text dominant-baseline="text-before-edge" style="font-kerning:normal" font-family="'Montserrat','Montserrat-Bold'" font-size="12" font-style="none" font-weight="700" transform="translate(1102 201)"><tspan>26-03-2021</tspan></text></g></g><g><g><text dominant-baseline="text-before-edge" style="font-kerning:normal" font-family="'Montserrat','Montserrat-Bold'" font-size="12" font-style="none" font-weight="700" transform="translate(1102 435)"><tspan>26-03-2021</tspan></text></g></g><g><path d="M1419.855 14.853a.857.857 0 0 0-.857-.857h-12a.857.857 0 0 0 0 1.714h12a.857.857 0 0 0 .857-.857zm0 3.428a.857.857 0 0 0-.857-.857h-12a.857.857 0 0 0 0 1.715h12a.857.857 0 0 0 .857-.858zm0 3.43a.857.857 0 0 0-.857-.858h-12a.857.857 0 0 0 0 1.714h12a.857.857 0 0 0 .857-.857zm3.429 3.856a.434.434 0 0 1-.429.429h-19.714a.434.434 0 0 1-.429-.429V2.424c0-.232.197-.428.429-.428h13.286v6c0 .473.383.857.857.857h6zM1420.32 4.96a23.38 23.38 0 0 1 1.944 2.18h-4.124V3.015a23.356 23.356 0 0 1 2.18 1.944zm3.547 1.458c-.595-.81-1.425-1.76-2.335-2.67-.911-.911-1.86-1.74-2.671-2.335-1.381-1.013-2.052-1.13-2.435-1.13h-13.286a2.145 2.145 0 0 0-2.143 2.142v23.143c0 1.182.961 2.143 2.143 2.143h19.714a2.145 2.145 0 0 0 2.143-2.143V8.853c0-.384-.117-1.054-1.13-2.436z"/></g><g><path d="M1323.286 20.854v1.714h-3.428v-1.714zm-5.142 2.142a1.29 1.29 0 0 0 1.285 1.286h4.286a1.29 1.29 0 0 0 1.285-1.286v-4.285a1.29 1.29 0 0 0-1.285-1.285h-2.143v-1.714h-3.428zm3.428-8.998v-1.714h-3.428v1.714h3.428v1.714H1325v-1.714zm0-1.714H1325V10.57h-3.428zm-3.428-1.714h3.428V8.856H1325V7.142h-3.428v1.714h-3.428zm0-3.428h3.428V5.428h-3.428zm3.428-3.428v1.714H1325V3.714zm-3.428 0h3.428V2h-3.428zm17.14 21.853a.434.434 0 0 1-.428.429h-19.712a.434.434 0 0 1-.428-.429V2.428c0-.232.196-.428.428-.428h13.284v5.999c0 .473.384.857.857.857h6zm-2.963-20.605a23.376 23.376 0 0 1 1.944 2.18h-4.123V3.019a23.366 23.366 0 0 1 2.18 1.943zm3.547 1.459c-.595-.812-1.424-1.76-2.335-2.67-.91-.911-1.859-1.74-2.67-2.335-1.381-1.013-2.051-1.13-2.435-1.13h-13.284a2.145 2.145 0 0 0-2.142 2.142v23.14c0 1.18.96 2.142 2.142 2.142h19.712a2.145 2.145 0 0 0 2.142-2.143V8.856c0-.384-.117-1.054-1.13-2.435z"/></g><g><g><path d="M1379.284 25.571a.434.434 0 0 1-.429.429h-19.714a.434.434 0 0 1-.429-.429V2.43c0-.233.197-.429.429-.429h13.286v6c0 .473.383.857.857.857h6zm-2.963-20.608a23.38 23.38 0 0 1 1.944 2.18h-4.124V3.019a23.356 23.356 0 0 1 2.18 1.944zm3.547 1.459c-.595-.812-1.425-1.76-2.335-2.671-.911-.91-1.86-1.74-2.671-2.335-1.381-1.013-2.052-1.13-2.435-1.13h-13.286a2.145 2.145 0 0 0-2.143 2.143V25.57c0 1.182.961 2.143 2.143 2.143h19.714a2.145 2.145 0 0 0 2.143-2.143V8.857c0-.384-.117-1.054-1.13-2.435z"/></g><g><g><text dominant-baseline="text-before-edge" style="font-kerning:normal" font-family="'Montserrat','Montserrat-Bold'" font-size="9" font-style="none" font-weight="700" transform="translate(1358 8)"><tspan>SVD</tspan></text></g></g></g><g><path d="M1323.286 59.854v1.714h-3.428v-1.714zm-5.142 2.142a1.29 1.29 0 0 0 1.285 1.286h4.286a1.29 1.29 0 0 0 1.285-1.286v-4.285a1.29 1.29 0 0 0-1.285-1.285h-2.143v-1.714h-3.428zm3.428-8.998v-1.714h-3.428v1.714h3.428v1.714H1325v-1.714zm0-1.714H1325V49.57h-3.428zm-3.428-1.714h3.428v-1.714H1325v-1.714h-3.428v1.714h-3.428zm0-3.428h3.428v-1.714h-3.428zm3.428-3.428v1.714H1325v-1.714zm-3.428 0h3.428V41h-3.428zm17.14 21.853a.434.434 0 0 1-.428.429h-19.712a.434.434 0 0 1-.428-.429V41.428c0-.232.196-.428.428-.428h13.284v5.999c0 .473.384.857.857.857h6zm-2.963-20.605a23.376 23.376 0 0 1 1.944 2.18h-4.123v-4.123a23.366 23.366 0 0 1 2.18 1.943zm3.547 1.459c-.595-.812-1.424-1.76-2.335-2.67-.91-.911-1.859-1.74-2.67-2.335-1.381-1.013-2.051-1.13-2.435-1.13h-13.284a2.145 2.145 0 0 0-2.142 2.142v23.14c0 1.18.96 2.142 2.142 2.142h19.712a2.145 2.145 0 0 0 2.142-2.143V47.856c0-.384-.117-1.054-1.13-2.435z"/></g><g><g><path d="M1379.284 64.571a.434.434 0 0 1-.429.429h-19.714a.434.434 0 0 1-.429-.429V41.43c0-.233.197-.429.429-.429h13.286v6c0 .473.383.857.857.857h6zm-2.963-20.608a23.38 23.38 0 0 1 1.944 2.18h-4.124v-4.124a23.356 23.356 0 0 1 2.18 1.944zm3.547 1.459c-.595-.812-1.425-1.76-2.335-2.671-.911-.91-1.86-1.74-2.671-2.335-1.381-1.013-2.052-1.13-2.435-1.13h-13.286a2.145 2.145 0 0 0-2.143 2.143V64.57c0 1.182.961 2.143 2.143 2.143h19.714a2.145 2.145 0 0 0 2.143-2.143V47.857c0-.384-.117-1.054-1.13-2.435z"/></g><g><g><text dominant-baseline="text-before-edge" style="font-kerning:normal" font-family="'Montserrat','Montserrat-Bold'" font-size="9" font-style="none" font-weight="700" transform="translate(1358 47)"><tspan>SVD</tspan></text></g></g></g><g><path d="M1323.286 137.854v1.714h-3.428v-1.714zm-5.142 2.142a1.29 1.29 0 0 0 1.285 1.286h4.286a1.29 1.29 0 0 0 1.285-1.286v-4.285a1.29 1.29 0 0 0-1.285-1.285h-2.143v-1.714h-3.428zm3.428-8.998v-1.714h-3.428v1.714h3.428v1.714H1325v-1.714zm0-1.714H1325v-1.714h-3.428zm-3.428-1.714h3.428v-1.714H1325v-1.714h-3.428v1.714h-3.428zm0-3.428h3.428v-1.714h-3.428zm3.428-3.428v1.714H1325v-1.714zm-3.428 0h3.428V119h-3.428zm17.14 21.853a.434.434 0 0 1-.428.429h-19.712a.434.434 0 0 1-.428-.429v-23.139c0-.232.196-.428.428-.428h13.284v5.999c0 .473.384.857.857.857h6zm-2.963-20.605a23.376 23.376 0 0 1 1.944 2.18h-4.123v-4.123a23.366 23.366 0 0 1 2.18 1.943zm3.547 1.459c-.595-.812-1.424-1.76-2.335-2.67-.91-.911-1.859-1.74-2.67-2.335-1.381-1.013-2.051-1.13-2.435-1.13h-13.284a2.145 2.145 0 0 0-2.142 2.142v23.14c0 1.18.96 2.142 2.142 2.142h19.712a2.145 2.145 0 0 0 2.142-2.143v-16.711c0-.384-.117-1.054-1.13-2.435z"/></g><g><g><path d="M1379.284 142.571a.434.434 0 0 1-.429.429h-19.714a.434.434 0 0 1-.429-.429V119.43c0-.233.197-.429.429-.429h13.286v6c0 .473.383.857.857.857h6zm-2.963-20.608a23.38 23.38 0 0 1 1.944 2.18h-4.124v-4.124a23.356 23.356 0 0 1 2.18 1.944zm3.547 1.459c-.595-.812-1.425-1.76-2.335-2.671-.911-.91-1.86-1.74-2.671-2.335-1.381-1.013-2.052-1.13-2.435-1.13h-13.286a2.145 2.145 0 0 0-2.143 2.143v23.142c0 1.182.961 2.143 2.143 2.143h19.714a2.145 2.145 0 0 0 2.143-2.143v-16.714c0-.384-.117-1.054-1.13-2.435z"/></g><g><g><text dominant-baseline="text-before-edge" style="font-kerning:normal" font-family="'Montserrat','Montserrat-Bold'" font-size="9" font-style="none" font-weight="700" transform="translate(1358 125)"><tspan>SVD</tspan></text></g></g></g><g><path d="M1323.286 176.854v1.714h-3.428v-1.714zm-5.142 2.142a1.29 1.29 0 0 0 1.285 1.286h4.286a1.29 1.29 0 0 0 1.285-1.286v-4.285a1.29 1.29 0 0 0-1.285-1.285h-2.143v-1.714h-3.428zm3.428-8.998v-1.714h-3.428v1.714h3.428v1.714H1325v-1.714zm0-1.714H1325v-1.714h-3.428zm-3.428-1.714h3.428v-1.714H1325v-1.714h-3.428v1.714h-3.428zm0-3.428h3.428v-1.714h-3.428zm3.428-3.428v1.714H1325v-1.714zm-3.428 0h3.428V158h-3.428zm17.14 21.853a.434.434 0 0 1-.428.429h-19.712a.434.434 0 0 1-.428-.429v-23.139c0-.232.196-.428.428-.428h13.284v5.999c0 .473.384.857.857.857h6zm-2.963-20.605a23.376 23.376 0 0 1 1.944 2.18h-4.123v-4.123a23.366 23.366 0 0 1 2.18 1.943zm3.547 1.459c-.595-.812-1.424-1.76-2.335-2.67-.91-.911-1.859-1.74-2.67-2.335-1.381-1.013-2.051-1.13-2.435-1.13h-13.284a2.145 2.145 0 0 0-2.142 2.142v23.14c0 1.18.96 2.142 2.142 2.142h19.712a2.145 2.145 0 0 0 2.142-2.143v-16.711c0-.384-.117-1.054-1.13-2.435z"/></g><g><g><path d="M1379.284 181.571a.434.434 0 0 1-.429.429h-19.714a.434.434 0 0 1-.429-.429V158.43c0-.233.197-.429.429-.429h13.286v6c0 .473.383.857.857.857h6zm-2.963-20.608a23.38 23.38 0 0 1 1.944 2.18h-4.124v-4.124a23.356 23.356 0 0 1 2.18 1.944zm3.547 1.459c-.595-.812-1.425-1.76-2.335-2.671-.911-.91-1.86-1.74-2.671-2.335-1.381-1.013-2.052-1.13-2.435-1.13h-13.286a2.145 2.145 0 0 0-2.143 2.143v23.142c0 1.182.961 2.143 2.143 2.143h19.714a2.145 2.145 0 0 0 2.143-2.143v-16.714c0-.384-.117-1.054-1.13-2.435z"/></g><g><g><text dominant-baseline="text-before-edge" style="font-kerning:normal" font-family="'Montserrat','Montserrat-Bold'" font-size="9" font-style="none" font-weight="700" transform="translate(1358 164)"><tspan>SVD</tspan></text></g></g></g><g><path d="M1323.286 215.854v1.714h-3.428v-1.714zm-5.142 2.142a1.29 1.29 0 0 0 1.285 1.286h4.286a1.29 1.29 0 0 0 1.285-1.286v-4.285a1.29 1.29 0 0 0-1.285-1.285h-2.143v-1.714h-3.428zm3.428-8.998v-1.714h-3.428v1.714h3.428v1.714H1325v-1.714zm0-1.714H1325v-1.714h-3.428zm-3.428-1.714h3.428v-1.714H1325v-1.714h-3.428v1.714h-3.428zm0-3.428h3.428v-1.714h-3.428zm3.428-3.428v1.714H1325v-1.714zm-3.428 0h3.428V197h-3.428zm17.14 21.853a.434.434 0 0 1-.428.429h-19.712a.434.434 0 0 1-.428-.429v-23.139c0-.232.196-.428.428-.428h13.284v5.999c0 .473.384.857.857.857h6zm-2.963-20.605a23.376 23.376 0 0 1 1.944 2.18h-4.123v-4.123a23.366 23.366 0 0 1 2.18 1.943zm3.547 1.459c-.595-.812-1.424-1.76-2.335-2.67-.91-.911-1.859-1.74-2.67-2.335-1.381-1.013-2.051-1.13-2.435-1.13h-13.284a2.145 2.145 0 0 0-2.142 2.142v23.14c0 1.18.96 2.142 2.142 2.142h19.712a2.145 2.145 0 0 0 2.142-2.143v-16.711c0-.384-.117-1.054-1.13-2.435z"/></g><g><g><path d="M1379.284 220.571a.434.434 0 0 1-.429.429h-19.714a.434.434 0 0 1-.429-.429V197.43c0-.233.197-.429.429-.429h13.286v6c0 .473.383.857.857.857h6zm-2.963-20.608a23.38 23.38 0 0 1 1.944 2.18h-4.124v-4.124a23.356 23.356 0 0 1 2.18 1.944zm3.547 1.459c-.595-.812-1.425-1.76-2.335-2.671-.911-.91-1.86-1.74-2.671-2.335-1.381-1.013-2.052-1.13-2.435-1.13h-13.286a2.145 2.145 0 0 0-2.143 2.143v23.142c0 1.182.961 2.143 2.143 2.143h19.714a2.145 2.145 0 0 0 2.143-2.143v-16.714c0-.384-.117-1.054-1.13-2.435z"/></g><g><g><text dominant-baseline="text-before-edge" style="font-kerning:normal" font-family="'Montserrat','Montserrat-Bold'" font-size="9" font-style="none" font-weight="700" transform="translate(1358 203)"><tspan>SVD</tspan></text></g></g></g><g><path d="M1323.286 449.854v1.714h-3.428v-1.714zm-5.142 2.142a1.29 1.29 0 0 0 1.285 1.286h4.286a1.29 1.29 0 0 0 1.285-1.286v-4.285a1.29 1.29 0 0 0-1.285-1.285h-2.143v-1.714h-3.428zm3.428-8.998v-1.714h-3.428v1.714h3.428v1.714H1325v-1.714zm0-1.714H1325v-1.714h-3.428zm-3.428-1.714h3.428v-1.714H1325v-1.714h-3.428v1.714h-3.428zm0-3.428h3.428v-1.714h-3.428zm3.428-3.428v1.714H1325v-1.714zm-3.428 0h3.428V431h-3.428zm17.14 21.853a.434.434 0 0 1-.428.429h-19.712a.434.434 0 0 1-.428-.429v-23.139c0-.232.196-.428.428-.428h13.284v5.999c0 .473.384.857.857.857h6zm-2.963-20.605a23.376 23.376 0 0 1 1.944 2.18h-4.123v-4.123a23.366 23.366 0 0 1 2.18 1.943zm3.547 1.459c-.595-.812-1.424-1.76-2.335-2.67-.91-.911-1.859-1.74-2.67-2.335-1.381-1.013-2.051-1.13-2.435-1.13h-13.284a2.145 2.145 0 0 0-2.142 2.142v23.14c0 1.18.96 2.142 2.142 2.142h19.712a2.145 2.145 0 0 0 2.142-2.143v-16.711c0-.384-.117-1.054-1.13-2.435z"/></g><g><g><path d="M1379.284 454.571a.434.434 0 0 1-.429.429h-19.714a.434.434 0 0 1-.429-.429V431.43c0-.233.197-.429.429-.429h13.286v6c0 .473.383.857.857.857h6zm-2.963-20.608a23.38 23.38 0 0 1 1.944 2.18h-4.124v-4.124a23.356 23.356 0 0 1 2.18 1.944zm3.547 1.459c-.595-.812-1.425-1.76-2.335-2.671-.911-.91-1.86-1.74-2.671-2.335-1.381-1.013-2.052-1.13-2.435-1.13h-13.286a2.145 2.145 0 0 0-2.143 2.143v23.142c0 1.182.961 2.143 2.143 2.143h19.714a2.145 2.145 0 0 0 2.143-2.143v-16.714c0-.384-.117-1.054-1.13-2.435z"/></g><g><g><text dominant-baseline="text-before-edge" style="font-kerning:normal" font-family="'Montserrat','Montserrat-Bold'" font-size="9" font-style="none" font-weight="700" transform="translate(1358 437)"><tspan>SVD</tspan></text></g></g></g><g><path d="M1419.855 53.853a.857.857 0 0 0-.857-.857h-12a.857.857 0 0 0 0 1.714h12a.857.857 0 0 0 .857-.857zm0 3.428a.857.857 0 0 0-.857-.857h-12a.857.857 0 0 0 0 1.715h12a.857.857 0 0 0 .857-.858zm0 3.429a.857.857 0 0 0-.857-.857h-12a.857.857 0 0 0 0 1.714h12a.857.857 0 0 0 .857-.857zm3.429 3.857a.434.434 0 0 1-.429.429h-19.714a.434.434 0 0 1-.429-.429V41.424c0-.232.197-.428.429-.428h13.286v6c0 .473.383.857.857.857h6zm-2.963-20.608a23.38 23.38 0 0 1 1.944 2.18h-4.124v-4.124a23.356 23.356 0 0 1 2.18 1.944zm3.547 1.458c-.595-.811-1.425-1.76-2.335-2.67-.911-.911-1.86-1.74-2.671-2.335-1.381-1.013-2.052-1.13-2.435-1.13h-13.286a2.145 2.145 0 0 0-2.143 2.142v23.143c0 1.182.961 2.143 2.143 2.143h19.714a2.145 2.145 0 0 0 2.143-2.143V47.853c0-.384-.117-1.054-1.13-2.436z"/></g><g><path d="M1419.855 131.853a.857.857 0 0 0-.857-.857h-12a.857.857 0 0 0 0 1.714h12a.857.857 0 0 0 .857-.857zm0 3.429a.857.857 0 0 0-.857-.858h-12a.857.857 0 0 0 0 1.715h12a.857.857 0 0 0 .857-.857zm0 3.428a.857.857 0 0 0-.857-.857h-12a.857.857 0 0 0 0 1.714h12a.857.857 0 0 0 .857-.857zm3.429 3.857a.434.434 0 0 1-.429.429h-19.714a.434.434 0 0 1-.429-.429v-23.143c0-.232.197-.428.429-.428h13.286v6c0 .473.383.857.857.857h6zm-2.963-20.608a23.38 23.38 0 0 1 1.944 2.18h-4.124v-4.124a23.356 23.356 0 0 1 2.18 1.944zm3.547 1.459c-.595-.812-1.425-1.76-2.335-2.671-.911-.911-1.86-1.74-2.671-2.335-1.381-1.013-2.052-1.13-2.435-1.13h-13.286a2.145 2.145 0 0 0-2.143 2.142v23.143c0 1.182.961 2.143 2.143 2.143h19.714a2.145 2.145 0 0 0 2.143-2.143v-16.714c0-.384-.117-1.054-1.13-2.435z"/></g><g><path d="M1419.855 170.853a.857.857 0 0 0-.857-.857h-12a.857.857 0 0 0 0 1.714h12a.857.857 0 0 0 .857-.857zm0 3.428a.857.857 0 0 0-.857-.857h-12a.857.857 0 0 0 0 1.715h12a.857.857 0 0 0 .857-.858zm0 3.429a.857.857 0 0 0-.857-.857h-12a.857.857 0 0 0 0 1.714h12a.857.857 0 0 0 .857-.857zm3.429 3.857a.434.434 0 0 1-.429.429h-19.714a.434.434 0 0 1-.429-.429v-23.143c0-.232.197-.428.429-.428h13.286v6c0 .473.383.857.857.857h6zm-2.963-20.608a23.38 23.38 0 0 1 1.944 2.18h-4.124v-4.124a23.356 23.356 0 0 1 2.18 1.944zm3.547 1.458c-.595-.811-1.425-1.76-2.335-2.67-.911-.911-1.86-1.74-2.671-2.335-1.381-1.013-2.052-1.13-2.435-1.13h-13.286a2.145 2.145 0 0 0-2.143 2.142v23.143c0 1.182.961 2.143 2.143 2.143h19.714a2.145 2.145 0 0 0 2.143-2.143v-16.714c0-.384-.117-1.054-1.13-2.436z"/></g><g><path d="M1419.855 209.853a.857.857 0 0 0-.857-.857h-12a.857.857 0 0 0 0 1.714h12a.857.857 0 0 0 .857-.857zm0 3.428a.857.857 0 0 0-.857-.857h-12a.857.857 0 0 0 0 1.715h12a.857.857 0 0 0 .857-.858zm0 3.429a.857.857 0 0 0-.857-.857h-12a.857.857 0 0 0 0 1.714h12a.857.857 0 0 0 .857-.857zm3.429 3.857a.434.434 0 0 1-.429.429h-19.714a.434.434 0 0 1-.429-.429v-23.143c0-.232.197-.428.429-.428h13.286v6c0 .473.383.857.857.857h6zm-2.963-20.608a23.38 23.38 0 0 1 1.944 2.18h-4.124v-4.124a23.356 23.356 0 0 1 2.18 1.944zm3.547 1.458c-.595-.811-1.425-1.76-2.335-2.67-.911-.911-1.86-1.74-2.671-2.335-1.381-1.013-2.052-1.13-2.435-1.13h-13.286a2.145 2.145 0 0 0-2.143 2.142v23.143c0 1.182.961 2.143 2.143 2.143h19.714a2.145 2.145 0 0 0 2.143-2.143v-16.714c0-.384-.117-1.054-1.13-2.436z"/></g><g><path d="M1419.855 443.853a.857.857 0 0 0-.857-.857h-12a.857.857 0 0 0 0 1.714h12a.857.857 0 0 0 .857-.857zm0 3.429a.857.857 0 0 0-.857-.858h-12a.857.857 0 0 0 0 1.715h12a.857.857 0 0 0 .857-.857zm0 3.428a.857.857 0 0 0-.857-.857h-12a.857.857 0 0 0 0 1.714h12a.857.857 0 0 0 .857-.857zm3.429 3.857a.434.434 0 0 1-.429.429h-19.714a.434.434 0 0 1-.429-.429v-23.143c0-.232.197-.428.429-.428h13.286v6c0 .473.383.857.857.857h6zm-2.963-20.608a23.38 23.38 0 0 1 1.944 2.18h-4.124v-4.124a23.356 23.356 0 0 1 2.18 1.944zm3.547 1.459c-.595-.812-1.425-1.76-2.335-2.671-.911-.911-1.86-1.74-2.671-2.335-1.381-1.013-2.052-1.13-2.435-1.13h-13.286a2.145 2.145 0 0 0-2.143 2.142v23.143c0 1.182.961 2.143 2.143 2.143h19.714a2.145 2.145 0 0 0 2.143-2.143v-16.714c0-.384-.117-1.054-1.13-2.435z"/></g><g><path d="M1419.855 443.853a.857.857 0 0 0-.857-.857h-12a.857.857 0 0 0 0 1.714h12a.857.857 0 0 0 .857-.857zm0 3.429a.857.857 0 0 0-.857-.858h-12a.857.857 0 0 0 0 1.715h12a.857.857 0 0 0 .857-.857zm0 3.428a.857.857 0 0 0-.857-.857h-12a.857.857 0 0 0 0 1.714h12a.857.857 0 0 0 .857-.857zm3.429 3.857a.434.434 0 0 1-.429.429h-19.714a.434.434 0 0 1-.429-.429v-23.143c0-.232.197-.428.429-.428h13.286v6c0 .473.383.857.857.857h6zm-2.963-20.608a23.38 23.38 0 0 1 1.944 2.18h-4.124v-4.124a23.356 23.356 0 0 1 2.18 1.944zm3.547 1.459c-.595-.812-1.425-1.76-2.335-2.671-.911-.911-1.86-1.74-2.671-2.335-1.381-1.013-2.052-1.13-2.435-1.13h-13.286a2.145 2.145 0 0 0-2.143 2.142v23.143c0 1.182.961 2.143 2.143 2.143h19.714a2.145 2.145 0 0 0 2.143-2.143v-16.714c0-.384-.117-1.054-1.13-2.435z"/></g><g><g><text dominant-baseline="text-before-edge" style="font-kerning:normal" font-family="'Montserrat','Montserrat-Bold'" font-size="10" font-style="none" font-weight="700" transform="translate(17 163)"><tspan>VI_BCR_GUI</tspan></text></g></g><g><g><text dominant-baseline="text-before-edge" style="font-kerning:normal" fill="#fff" font-family="'Montserrat','Montserrat-Bold'" font-size="12" font-style="none" font-weight="700" transform="translate(218 6)"><tspan>11.0.0.0</tspan></text></g></g></g></svg>